<?xml version="1.0" encoding="utf-8" standalone="no"?>
<!DOCTYPE svg PUBLIC "-//W3C//DTD SVG 1.1//EN"
  "http://www.w3.org/Graphics/SVG/1.1/DTD/svg11.dtd">
<svg xmlns:xlink="http://www.w3.org/1999/xlink" width="460.8pt" height="345.6pt" viewBox="0 0 460.8 345.6" xmlns="http://www.w3.org/2000/svg" version="1.1">
 <metadata>
  <rdf:RDF xmlns:dc="http://purl.org/dc/elements/1.1/" xmlns:cc="http://creativecommons.org/ns#" xmlns:rdf="http://www.w3.org/1999/02/22-rdf-syntax-ns#">
   <cc:Work>
    <dc:type rdf:resource="http://purl.org/dc/dcmitype/StillImage"/>
    <dc:date>2025-07-12T01:54:12.935686</dc:date>
    <dc:format>image/svg+xml</dc:format>
    <dc:creator>
     <cc:Agent>
      <dc:title>Matplotlib v3.10.3, https://matplotlib.org/</dc:title>
     </cc:Agent>
    </dc:creator>
   </cc:Work>
  </rdf:RDF>
 </metadata>
 <defs>
  <style type="text/css">*{stroke-linejoin: round; stroke-linecap: butt}</style>
 </defs>
 <g id="figure_1">
  <g id="patch_1">
   <path d="M 0 345.6 
L 460.8 345.6 
L 460.8 0 
L 0 0 
z
" style="fill: #ffffff"/>
  </g>
  <g id="axes_1">
   <g id="patch_2">
    <path d="M 57.6 307.584 
L 414.72 307.584 
L 414.72 41.472 
L 57.6 41.472 
z
" style="fill: #ffffff"/>
   </g>
   <g id="matplotlib.axis_1">
    <g id="xtick_1">
     <g id="line2d_1">
      <path d="M 73.832727 307.584 
L 73.832727 41.472 
" clip-path="url(#pc49368fb07)" style="fill: none; stroke: #b0b0b0; stroke-width: 0.8; stroke-linecap: square"/>
     </g>
     <g id="line2d_2">
      <defs>
       <path id="me30d3925bc" d="M 0 0 
L 0 3.5 
" style="stroke: #000000; stroke-width: 0.8"/>
      </defs>
      <g>
       <use xlink:href="#me30d3925bc" x="73.832727" y="307.584" style="stroke: #000000; stroke-width: 0.8"/>
      </g>
     </g>
     <g id="text_1">
      <!-- 0.0 -->
      <g transform="translate(65.881165 322.182437) scale(0.1 -0.1)">
       <defs>
        <path id="DejaVuSans-30" d="M 2034 4250 
Q 1547 4250 1301 3770 
Q 1056 3291 1056 2328 
Q 1056 1369 1301 889 
Q 1547 409 2034 409 
Q 2525 409 2770 889 
Q 3016 1369 3016 2328 
Q 3016 3291 2770 3770 
Q 2525 4250 2034 4250 
z
M 2034 4750 
Q 2819 4750 3233 4129 
Q 3647 3509 3647 2328 
Q 3647 1150 3233 529 
Q 2819 -91 2034 -91 
Q 1250 -91 836 529 
Q 422 1150 422 2328 
Q 422 3509 836 4129 
Q 1250 4750 2034 4750 
z
" transform="scale(0.015625)"/>
        <path id="DejaVuSans-2e" d="M 684 794 
L 1344 794 
L 1344 0 
L 684 0 
L 684 794 
z
" transform="scale(0.015625)"/>
       </defs>
       <use xlink:href="#DejaVuSans-30"/>
       <use xlink:href="#DejaVuSans-2e" transform="translate(63.623047 0)"/>
       <use xlink:href="#DejaVuSans-30" transform="translate(95.410156 0)"/>
      </g>
     </g>
    </g>
    <g id="xtick_2">
     <g id="line2d_3">
      <path d="M 127.472015 307.584 
L 127.472015 41.472 
" clip-path="url(#pc49368fb07)" style="fill: none; stroke: #b0b0b0; stroke-width: 0.8; stroke-linecap: square"/>
     </g>
     <g id="line2d_4">
      <g>
       <use xlink:href="#me30d3925bc" x="127.472015" y="307.584" style="stroke: #000000; stroke-width: 0.8"/>
      </g>
     </g>
     <g id="text_2">
      <!-- 0.2 -->
      <g transform="translate(119.520452 322.182437) scale(0.1 -0.1)">
       <defs>
        <path id="DejaVuSans-32" d="M 1228 531 
L 3431 531 
L 3431 0 
L 469 0 
L 469 531 
Q 828 903 1448 1529 
Q 2069 2156 2228 2338 
Q 2531 2678 2651 2914 
Q 2772 3150 2772 3378 
Q 2772 3750 2511 3984 
Q 2250 4219 1831 4219 
Q 1534 4219 1204 4116 
Q 875 4013 500 3803 
L 500 4441 
Q 881 4594 1212 4672 
Q 1544 4750 1819 4750 
Q 2544 4750 2975 4387 
Q 3406 4025 3406 3419 
Q 3406 3131 3298 2873 
Q 3191 2616 2906 2266 
Q 2828 2175 2409 1742 
Q 1991 1309 1228 531 
z
" transform="scale(0.015625)"/>
       </defs>
       <use xlink:href="#DejaVuSans-30"/>
       <use xlink:href="#DejaVuSans-2e" transform="translate(63.623047 0)"/>
       <use xlink:href="#DejaVuSans-32" transform="translate(95.410156 0)"/>
      </g>
     </g>
    </g>
    <g id="xtick_3">
     <g id="line2d_5">
      <path d="M 181.111303 307.584 
L 181.111303 41.472 
" clip-path="url(#pc49368fb07)" style="fill: none; stroke: #b0b0b0; stroke-width: 0.8; stroke-linecap: square"/>
     </g>
     <g id="line2d_6">
      <g>
       <use xlink:href="#me30d3925bc" x="181.111303" y="307.584" style="stroke: #000000; stroke-width: 0.8"/>
      </g>
     </g>
     <g id="text_3">
      <!-- 0.4 -->
      <g transform="translate(173.15974 322.182437) scale(0.1 -0.1)">
       <defs>
        <path id="DejaVuSans-34" d="M 2419 4116 
L 825 1625 
L 2419 1625 
L 2419 4116 
z
M 2253 4666 
L 3047 4666 
L 3047 1625 
L 3713 1625 
L 3713 1100 
L 3047 1100 
L 3047 0 
L 2419 0 
L 2419 1100 
L 313 1100 
L 313 1709 
L 2253 4666 
z
" transform="scale(0.015625)"/>
       </defs>
       <use xlink:href="#DejaVuSans-30"/>
       <use xlink:href="#DejaVuSans-2e" transform="translate(63.623047 0)"/>
       <use xlink:href="#DejaVuSans-34" transform="translate(95.410156 0)"/>
      </g>
     </g>
    </g>
    <g id="xtick_4">
     <g id="line2d_7">
      <path d="M 234.75059 307.584 
L 234.75059 41.472 
" clip-path="url(#pc49368fb07)" style="fill: none; stroke: #b0b0b0; stroke-width: 0.8; stroke-linecap: square"/>
     </g>
     <g id="line2d_8">
      <g>
       <use xlink:href="#me30d3925bc" x="234.75059" y="307.584" style="stroke: #000000; stroke-width: 0.8"/>
      </g>
     </g>
     <g id="text_4">
      <!-- 0.6 -->
      <g transform="translate(226.799028 322.182437) scale(0.1 -0.1)">
       <defs>
        <path id="DejaVuSans-36" d="M 2113 2584 
Q 1688 2584 1439 2293 
Q 1191 2003 1191 1497 
Q 1191 994 1439 701 
Q 1688 409 2113 409 
Q 2538 409 2786 701 
Q 3034 994 3034 1497 
Q 3034 2003 2786 2293 
Q 2538 2584 2113 2584 
z
M 3366 4563 
L 3366 3988 
Q 3128 4100 2886 4159 
Q 2644 4219 2406 4219 
Q 1781 4219 1451 3797 
Q 1122 3375 1075 2522 
Q 1259 2794 1537 2939 
Q 1816 3084 2150 3084 
Q 2853 3084 3261 2657 
Q 3669 2231 3669 1497 
Q 3669 778 3244 343 
Q 2819 -91 2113 -91 
Q 1303 -91 875 529 
Q 447 1150 447 2328 
Q 447 3434 972 4092 
Q 1497 4750 2381 4750 
Q 2619 4750 2861 4703 
Q 3103 4656 3366 4563 
z
" transform="scale(0.015625)"/>
       </defs>
       <use xlink:href="#DejaVuSans-30"/>
       <use xlink:href="#DejaVuSans-2e" transform="translate(63.623047 0)"/>
       <use xlink:href="#DejaVuSans-36" transform="translate(95.410156 0)"/>
      </g>
     </g>
    </g>
    <g id="xtick_5">
     <g id="line2d_9">
      <path d="M 288.389878 307.584 
L 288.389878 41.472 
" clip-path="url(#pc49368fb07)" style="fill: none; stroke: #b0b0b0; stroke-width: 0.8; stroke-linecap: square"/>
     </g>
     <g id="line2d_10">
      <g>
       <use xlink:href="#me30d3925bc" x="288.389878" y="307.584" style="stroke: #000000; stroke-width: 0.8"/>
      </g>
     </g>
     <g id="text_5">
      <!-- 0.8 -->
      <g transform="translate(280.438315 322.182437) scale(0.1 -0.1)">
       <defs>
        <path id="DejaVuSans-38" d="M 2034 2216 
Q 1584 2216 1326 1975 
Q 1069 1734 1069 1313 
Q 1069 891 1326 650 
Q 1584 409 2034 409 
Q 2484 409 2743 651 
Q 3003 894 3003 1313 
Q 3003 1734 2745 1975 
Q 2488 2216 2034 2216 
z
M 1403 2484 
Q 997 2584 770 2862 
Q 544 3141 544 3541 
Q 544 4100 942 4425 
Q 1341 4750 2034 4750 
Q 2731 4750 3128 4425 
Q 3525 4100 3525 3541 
Q 3525 3141 3298 2862 
Q 3072 2584 2669 2484 
Q 3125 2378 3379 2068 
Q 3634 1759 3634 1313 
Q 3634 634 3220 271 
Q 2806 -91 2034 -91 
Q 1263 -91 848 271 
Q 434 634 434 1313 
Q 434 1759 690 2068 
Q 947 2378 1403 2484 
z
M 1172 3481 
Q 1172 3119 1398 2916 
Q 1625 2713 2034 2713 
Q 2441 2713 2670 2916 
Q 2900 3119 2900 3481 
Q 2900 3844 2670 4047 
Q 2441 4250 2034 4250 
Q 1625 4250 1398 4047 
Q 1172 3844 1172 3481 
z
" transform="scale(0.015625)"/>
       </defs>
       <use xlink:href="#DejaVuSans-30"/>
       <use xlink:href="#DejaVuSans-2e" transform="translate(63.623047 0)"/>
       <use xlink:href="#DejaVuSans-38" transform="translate(95.410156 0)"/>
      </g>
     </g>
    </g>
    <g id="xtick_6">
     <g id="line2d_11">
      <path d="M 342.029165 307.584 
L 342.029165 41.472 
" clip-path="url(#pc49368fb07)" style="fill: none; stroke: #b0b0b0; stroke-width: 0.8; stroke-linecap: square"/>
     </g>
     <g id="line2d_12">
      <g>
       <use xlink:href="#me30d3925bc" x="342.029165" y="307.584" style="stroke: #000000; stroke-width: 0.8"/>
      </g>
     </g>
     <g id="text_6">
      <!-- 1.0 -->
      <g transform="translate(334.077603 322.182437) scale(0.1 -0.1)">
       <defs>
        <path id="DejaVuSans-31" d="M 794 531 
L 1825 531 
L 1825 4091 
L 703 3866 
L 703 4441 
L 1819 4666 
L 2450 4666 
L 2450 531 
L 3481 531 
L 3481 0 
L 794 0 
L 794 531 
z
" transform="scale(0.015625)"/>
       </defs>
       <use xlink:href="#DejaVuSans-31"/>
       <use xlink:href="#DejaVuSans-2e" transform="translate(63.623047 0)"/>
       <use xlink:href="#DejaVuSans-30" transform="translate(95.410156 0)"/>
      </g>
     </g>
    </g>
    <g id="xtick_7">
     <g id="line2d_13">
      <path d="M 395.668453 307.584 
L 395.668453 41.472 
" clip-path="url(#pc49368fb07)" style="fill: none; stroke: #b0b0b0; stroke-width: 0.8; stroke-linecap: square"/>
     </g>
     <g id="line2d_14">
      <g>
       <use xlink:href="#me30d3925bc" x="395.668453" y="307.584" style="stroke: #000000; stroke-width: 0.8"/>
      </g>
     </g>
     <g id="text_7">
      <!-- 1.2 -->
      <g transform="translate(387.71689 322.182437) scale(0.1 -0.1)">
       <use xlink:href="#DejaVuSans-31"/>
       <use xlink:href="#DejaVuSans-2e" transform="translate(63.623047 0)"/>
       <use xlink:href="#DejaVuSans-32" transform="translate(95.410156 0)"/>
      </g>
     </g>
    </g>
    <g id="text_8">
     <!-- $\frac{B^2}{2U_a}\ [\frac{\mathrm{T}^2}{\mathrm{V}}]$ -->
     <g transform="translate(220.86 337.892125) scale(0.09 -0.09)">
      <defs>
       <path id="DejaVuSans-Oblique-42" d="M 1081 4666 
L 2694 4666 
Q 3350 4666 3675 4422 
Q 4000 4178 4000 3688 
Q 4000 3238 3720 2911 
Q 3441 2584 2988 2516 
Q 3375 2428 3569 2181 
Q 3763 1934 3763 1522 
Q 3763 819 3242 409 
Q 2722 0 1819 0 
L 172 0 
L 1081 4666 
z
M 1234 2228 
L 903 519 
L 1919 519 
Q 2491 519 2800 781 
Q 3109 1044 3109 1522 
Q 3109 1891 2904 2059 
Q 2700 2228 2247 2228 
L 1234 2228 
z
M 1606 4147 
L 1331 2741 
L 2272 2741 
Q 2775 2741 3058 2959 
Q 3341 3178 3341 3566 
Q 3341 3869 3150 4008 
Q 2959 4147 2541 4147 
L 1606 4147 
z
" transform="scale(0.015625)"/>
       <path id="DejaVuSans-Oblique-55" d="M 991 4666 
L 1625 4666 
L 1075 1831 
Q 1041 1641 1027 1517 
Q 1013 1394 1013 1300 
Q 1013 869 1253 645 
Q 1494 422 1959 422 
Q 2563 422 2898 753 
Q 3234 1084 3378 1831 
L 3928 4666 
L 4563 4666 
L 4000 1753 
Q 3816 809 3300 359 
Q 2784 -91 1888 -91 
Q 1188 -91 780 261 
Q 372 613 372 1216 
Q 372 1325 387 1461 
Q 403 1597 434 1753 
L 991 4666 
z
" transform="scale(0.015625)"/>
       <path id="DejaVuSans-Oblique-61" d="M 3438 1997 
L 3047 0 
L 2472 0 
L 2578 531 
Q 2325 219 2001 64 
Q 1678 -91 1281 -91 
Q 834 -91 548 182 
Q 263 456 263 884 
Q 263 1497 752 1853 
Q 1241 2209 2100 2209 
L 2900 2209 
L 2931 2363 
Q 2938 2388 2941 2417 
Q 2944 2447 2944 2509 
Q 2944 2788 2717 2942 
Q 2491 3097 2081 3097 
Q 1800 3097 1504 3025 
Q 1209 2953 897 2809 
L 997 3341 
Q 1322 3463 1633 3523 
Q 1944 3584 2234 3584 
Q 2853 3584 3176 3315 
Q 3500 3047 3500 2534 
Q 3500 2431 3484 2292 
Q 3469 2153 3438 1997 
z
M 2816 1759 
L 2241 1759 
Q 1534 1759 1195 1570 
Q 856 1381 856 984 
Q 856 709 1029 553 
Q 1203 397 1509 397 
Q 1978 397 2328 733 
Q 2678 1069 2791 1631 
L 2816 1759 
z
" transform="scale(0.015625)"/>
       <path id="DejaVuSans-5b" d="M 550 4863 
L 1875 4863 
L 1875 4416 
L 1125 4416 
L 1125 -397 
L 1875 -397 
L 1875 -844 
L 550 -844 
L 550 4863 
z
" transform="scale(0.015625)"/>
       <path id="DejaVuSans-54" d="M -19 4666 
L 3928 4666 
L 3928 4134 
L 2272 4134 
L 2272 0 
L 1638 0 
L 1638 4134 
L -19 4134 
L -19 4666 
z
" transform="scale(0.015625)"/>
       <path id="DejaVuSans-56" d="M 1831 0 
L 50 4666 
L 709 4666 
L 2188 738 
L 3669 4666 
L 4325 4666 
L 2547 0 
L 1831 0 
z
" transform="scale(0.015625)"/>
       <path id="DejaVuSans-5d" d="M 1947 4863 
L 1947 -844 
L 622 -844 
L 622 -397 
L 1369 -397 
L 1369 4416 
L 622 4416 
L 622 4863 
L 1947 4863 
z
" transform="scale(0.015625)"/>
      </defs>
      <use xlink:href="#DejaVuSans-Oblique-42" transform="translate(21 43.835937) scale(0.7)"/>
      <use xlink:href="#DejaVuSans-32" transform="translate(73.934201 70.632812) scale(0.49)"/>
      <use xlink:href="#DejaVuSans-32" transform="translate(0 -39.367188) scale(0.7)"/>
      <use xlink:href="#DejaVuSans-Oblique-55" transform="translate(44.536133 -39.367188) scale(0.7)"/>
      <use xlink:href="#DejaVuSans-Oblique-61" transform="translate(95.771484 -50.851562) scale(0.49)"/>
      <use xlink:href="#DejaVuSans-5b" transform="translate(172.682781 0.039062)"/>
      <use xlink:href="#DejaVuSans-54" transform="translate(211.696453 43.835938) scale(0.7)"/>
      <use xlink:href="#DejaVuSans-32" transform="translate(255.125164 70.632813) scale(0.49)"/>
      <use xlink:href="#DejaVuSans-56" transform="translate(225.696453 -38.448437) scale(0.7)"/>
      <use xlink:href="#DejaVuSans-5d" transform="translate(300.714519 0.039062)"/>
      <path d="M 0 18.835938 
L 0 25.085938 
L 127.712402 25.085938 
L 127.712402 18.835938 
L 0 18.835938 
z
"/>
      <path d="M 211.696453 18.835938 
L 211.696453 25.085938 
L 288.214519 25.085938 
L 288.214519 18.835938 
L 211.696453 18.835938 
z
"/>
     </g>
    </g>
    <g id="text_9">
     <!-- 1e−9 -->
     <g transform="translate(387.462188 334.860562) scale(0.1 -0.1)">
      <defs>
       <path id="DejaVuSans-65" d="M 3597 1894 
L 3597 1613 
L 953 1613 
Q 991 1019 1311 708 
Q 1631 397 2203 397 
Q 2534 397 2845 478 
Q 3156 559 3463 722 
L 3463 178 
Q 3153 47 2828 -22 
Q 2503 -91 2169 -91 
Q 1331 -91 842 396 
Q 353 884 353 1716 
Q 353 2575 817 3079 
Q 1281 3584 2069 3584 
Q 2775 3584 3186 3129 
Q 3597 2675 3597 1894 
z
M 3022 2063 
Q 3016 2534 2758 2815 
Q 2500 3097 2075 3097 
Q 1594 3097 1305 2825 
Q 1016 2553 972 2059 
L 3022 2063 
z
" transform="scale(0.015625)"/>
       <path id="DejaVuSans-2212" d="M 678 2272 
L 4684 2272 
L 4684 1741 
L 678 1741 
L 678 2272 
z
" transform="scale(0.015625)"/>
       <path id="DejaVuSans-39" d="M 703 97 
L 703 672 
Q 941 559 1184 500 
Q 1428 441 1663 441 
Q 2288 441 2617 861 
Q 2947 1281 2994 2138 
Q 2813 1869 2534 1725 
Q 2256 1581 1919 1581 
Q 1219 1581 811 2004 
Q 403 2428 403 3163 
Q 403 3881 828 4315 
Q 1253 4750 1959 4750 
Q 2769 4750 3195 4129 
Q 3622 3509 3622 2328 
Q 3622 1225 3098 567 
Q 2575 -91 1691 -91 
Q 1453 -91 1209 -44 
Q 966 3 703 97 
z
M 1959 2075 
Q 2384 2075 2632 2365 
Q 2881 2656 2881 3163 
Q 2881 3666 2632 3958 
Q 2384 4250 1959 4250 
Q 1534 4250 1286 3958 
Q 1038 3666 1038 3163 
Q 1038 2656 1286 2365 
Q 1534 2075 1959 2075 
z
" transform="scale(0.015625)"/>
      </defs>
      <use xlink:href="#DejaVuSans-31"/>
      <use xlink:href="#DejaVuSans-65" transform="translate(63.623047 0)"/>
      <use xlink:href="#DejaVuSans-2212" transform="translate(125.146484 0)"/>
      <use xlink:href="#DejaVuSans-39" transform="translate(208.935547 0)"/>
     </g>
    </g>
   </g>
   <g id="matplotlib.axis_2">
    <g id="ytick_1">
     <g id="line2d_15">
      <path d="M 57.6 291.696359 
L 414.72 291.696359 
" clip-path="url(#pc49368fb07)" style="fill: none; stroke: #b0b0b0; stroke-width: 0.8; stroke-linecap: square"/>
     </g>
     <g id="line2d_16">
      <defs>
       <path id="m9dc67baa36" d="M 0 0 
L -3.5 0 
" style="stroke: #000000; stroke-width: 0.8"/>
      </defs>
      <g>
       <use xlink:href="#m9dc67baa36" x="57.6" y="291.696359" style="stroke: #000000; stroke-width: 0.8"/>
      </g>
     </g>
     <g id="text_10">
      <!-- 0 -->
      <g transform="translate(44.2375 295.495578) scale(0.1 -0.1)">
       <use xlink:href="#DejaVuSans-30"/>
      </g>
     </g>
    </g>
    <g id="ytick_2">
     <g id="line2d_17">
      <path d="M 57.6 258.294511 
L 414.72 258.294511 
" clip-path="url(#pc49368fb07)" style="fill: none; stroke: #b0b0b0; stroke-width: 0.8; stroke-linecap: square"/>
     </g>
     <g id="line2d_18">
      <g>
       <use xlink:href="#m9dc67baa36" x="57.6" y="258.294511" style="stroke: #000000; stroke-width: 0.8"/>
      </g>
     </g>
     <g id="text_11">
      <!-- 50 -->
      <g transform="translate(37.875 262.09373) scale(0.1 -0.1)">
       <defs>
        <path id="DejaVuSans-35" d="M 691 4666 
L 3169 4666 
L 3169 4134 
L 1269 4134 
L 1269 2991 
Q 1406 3038 1543 3061 
Q 1681 3084 1819 3084 
Q 2600 3084 3056 2656 
Q 3513 2228 3513 1497 
Q 3513 744 3044 326 
Q 2575 -91 1722 -91 
Q 1428 -91 1123 -41 
Q 819 9 494 109 
L 494 744 
Q 775 591 1075 516 
Q 1375 441 1709 441 
Q 2250 441 2565 725 
Q 2881 1009 2881 1497 
Q 2881 1984 2565 2268 
Q 2250 2553 1709 2553 
Q 1456 2553 1204 2497 
Q 953 2441 691 2322 
L 691 4666 
z
" transform="scale(0.015625)"/>
       </defs>
       <use xlink:href="#DejaVuSans-35"/>
       <use xlink:href="#DejaVuSans-30" transform="translate(63.623047 0)"/>
      </g>
     </g>
    </g>
    <g id="ytick_3">
     <g id="line2d_19">
      <path d="M 57.6 224.892663 
L 414.72 224.892663 
" clip-path="url(#pc49368fb07)" style="fill: none; stroke: #b0b0b0; stroke-width: 0.8; stroke-linecap: square"/>
     </g>
     <g id="line2d_20">
      <g>
       <use xlink:href="#m9dc67baa36" x="57.6" y="224.892663" style="stroke: #000000; stroke-width: 0.8"/>
      </g>
     </g>
     <g id="text_12">
      <!-- 100 -->
      <g transform="translate(31.5125 228.691882) scale(0.1 -0.1)">
       <use xlink:href="#DejaVuSans-31"/>
       <use xlink:href="#DejaVuSans-30" transform="translate(63.623047 0)"/>
       <use xlink:href="#DejaVuSans-30" transform="translate(127.246094 0)"/>
      </g>
     </g>
    </g>
    <g id="ytick_4">
     <g id="line2d_21">
      <path d="M 57.6 191.490815 
L 414.72 191.490815 
" clip-path="url(#pc49368fb07)" style="fill: none; stroke: #b0b0b0; stroke-width: 0.8; stroke-linecap: square"/>
     </g>
     <g id="line2d_22">
      <g>
       <use xlink:href="#m9dc67baa36" x="57.6" y="191.490815" style="stroke: #000000; stroke-width: 0.8"/>
      </g>
     </g>
     <g id="text_13">
      <!-- 150 -->
      <g transform="translate(31.5125 195.290034) scale(0.1 -0.1)">
       <use xlink:href="#DejaVuSans-31"/>
       <use xlink:href="#DejaVuSans-35" transform="translate(63.623047 0)"/>
       <use xlink:href="#DejaVuSans-30" transform="translate(127.246094 0)"/>
      </g>
     </g>
    </g>
    <g id="ytick_5">
     <g id="line2d_23">
      <path d="M 57.6 158.088967 
L 414.72 158.088967 
" clip-path="url(#pc49368fb07)" style="fill: none; stroke: #b0b0b0; stroke-width: 0.8; stroke-linecap: square"/>
     </g>
     <g id="line2d_24">
      <g>
       <use xlink:href="#m9dc67baa36" x="57.6" y="158.088967" style="stroke: #000000; stroke-width: 0.8"/>
      </g>
     </g>
     <g id="text_14">
      <!-- 200 -->
      <g transform="translate(31.5125 161.888186) scale(0.1 -0.1)">
       <use xlink:href="#DejaVuSans-32"/>
       <use xlink:href="#DejaVuSans-30" transform="translate(63.623047 0)"/>
       <use xlink:href="#DejaVuSans-30" transform="translate(127.246094 0)"/>
      </g>
     </g>
    </g>
    <g id="ytick_6">
     <g id="line2d_25">
      <path d="M 57.6 124.687119 
L 414.72 124.687119 
" clip-path="url(#pc49368fb07)" style="fill: none; stroke: #b0b0b0; stroke-width: 0.8; stroke-linecap: square"/>
     </g>
     <g id="line2d_26">
      <g>
       <use xlink:href="#m9dc67baa36" x="57.6" y="124.687119" style="stroke: #000000; stroke-width: 0.8"/>
      </g>
     </g>
     <g id="text_15">
      <!-- 250 -->
      <g transform="translate(31.5125 128.486338) scale(0.1 -0.1)">
       <use xlink:href="#DejaVuSans-32"/>
       <use xlink:href="#DejaVuSans-35" transform="translate(63.623047 0)"/>
       <use xlink:href="#DejaVuSans-30" transform="translate(127.246094 0)"/>
      </g>
     </g>
    </g>
    <g id="ytick_7">
     <g id="line2d_27">
      <path d="M 57.6 91.285271 
L 414.72 91.285271 
" clip-path="url(#pc49368fb07)" style="fill: none; stroke: #b0b0b0; stroke-width: 0.8; stroke-linecap: square"/>
     </g>
     <g id="line2d_28">
      <g>
       <use xlink:href="#m9dc67baa36" x="57.6" y="91.285271" style="stroke: #000000; stroke-width: 0.8"/>
      </g>
     </g>
     <g id="text_16">
      <!-- 300 -->
      <g transform="translate(31.5125 95.08449) scale(0.1 -0.1)">
       <defs>
        <path id="DejaVuSans-33" d="M 2597 2516 
Q 3050 2419 3304 2112 
Q 3559 1806 3559 1356 
Q 3559 666 3084 287 
Q 2609 -91 1734 -91 
Q 1441 -91 1130 -33 
Q 819 25 488 141 
L 488 750 
Q 750 597 1062 519 
Q 1375 441 1716 441 
Q 2309 441 2620 675 
Q 2931 909 2931 1356 
Q 2931 1769 2642 2001 
Q 2353 2234 1838 2234 
L 1294 2234 
L 1294 2753 
L 1863 2753 
Q 2328 2753 2575 2939 
Q 2822 3125 2822 3475 
Q 2822 3834 2567 4026 
Q 2313 4219 1838 4219 
Q 1578 4219 1281 4162 
Q 984 4106 628 3988 
L 628 4550 
Q 988 4650 1302 4700 
Q 1616 4750 1894 4750 
Q 2613 4750 3031 4423 
Q 3450 4097 3450 3541 
Q 3450 3153 3228 2886 
Q 3006 2619 2597 2516 
z
" transform="scale(0.015625)"/>
       </defs>
       <use xlink:href="#DejaVuSans-33"/>
       <use xlink:href="#DejaVuSans-30" transform="translate(63.623047 0)"/>
       <use xlink:href="#DejaVuSans-30" transform="translate(127.246094 0)"/>
      </g>
     </g>
    </g>
    <g id="ytick_8">
     <g id="line2d_29">
      <path d="M 57.6 57.883423 
L 414.72 57.883423 
" clip-path="url(#pc49368fb07)" style="fill: none; stroke: #b0b0b0; stroke-width: 0.8; stroke-linecap: square"/>
     </g>
     <g id="line2d_30">
      <g>
       <use xlink:href="#m9dc67baa36" x="57.6" y="57.883423" style="stroke: #000000; stroke-width: 0.8"/>
      </g>
     </g>
     <g id="text_17">
      <!-- 350 -->
      <g transform="translate(31.5125 61.682642) scale(0.1 -0.1)">
       <use xlink:href="#DejaVuSans-33"/>
       <use xlink:href="#DejaVuSans-35" transform="translate(63.623047 0)"/>
       <use xlink:href="#DejaVuSans-30" transform="translate(127.246094 0)"/>
      </g>
     </g>
    </g>
    <g id="text_18">
     <!-- $\frac{1}{r^2}\ [\frac{1}{m^2}]$ -->
     <g transform="translate(20.8825 194.418) rotate(-90) scale(0.13 -0.13)">
      <defs>
       <path id="DejaVuSans-Oblique-72" d="M 2853 2969 
Q 2766 3016 2653 3041 
Q 2541 3066 2413 3066 
Q 1953 3066 1609 2717 
Q 1266 2369 1153 1784 
L 800 0 
L 225 0 
L 909 3500 
L 1484 3500 
L 1375 2956 
Q 1603 3259 1920 3421 
Q 2238 3584 2597 3584 
Q 2691 3584 2781 3573 
Q 2872 3563 2963 3538 
L 2853 2969 
z
" transform="scale(0.015625)"/>
       <path id="DejaVuSans-Oblique-6d" d="M 5747 2113 
L 5338 0 
L 4763 0 
L 5166 2094 
Q 5191 2228 5203 2325 
Q 5216 2422 5216 2491 
Q 5216 2772 5059 2928 
Q 4903 3084 4622 3084 
Q 4203 3084 3875 2770 
Q 3547 2456 3450 1953 
L 3066 0 
L 2491 0 
L 2900 2094 
Q 2925 2209 2937 2307 
Q 2950 2406 2950 2484 
Q 2950 2769 2794 2926 
Q 2638 3084 2363 3084 
Q 1938 3084 1609 2770 
Q 1281 2456 1184 1953 
L 800 0 
L 225 0 
L 909 3500 
L 1484 3500 
L 1375 2956 
Q 1609 3263 1923 3423 
Q 2238 3584 2597 3584 
Q 2978 3584 3223 3384 
Q 3469 3184 3519 2828 
Q 3781 3197 4126 3390 
Q 4472 3584 4856 3584 
Q 5306 3584 5551 3325 
Q 5797 3066 5797 2591 
Q 5797 2488 5784 2364 
Q 5772 2241 5747 2113 
z
" transform="scale(0.015625)"/>
      </defs>
      <use xlink:href="#DejaVuSans-31" transform="translate(10 43.965625) scale(0.7)"/>
      <use xlink:href="#DejaVuSans-Oblique-72" transform="translate(0 -50.448437) scale(0.7)"/>
      <use xlink:href="#DejaVuSans-32" transform="translate(32.034224 -23.651562) scale(0.49)"/>
      <use xlink:href="#DejaVuSans-5b" transform="translate(110.093958 0.16875)"/>
      <use xlink:href="#DejaVuSans-31" transform="translate(179.10763 43.965625) scale(0.7)"/>
      <use xlink:href="#DejaVuSans-Oblique-6d" transform="translate(149.10763 -50.448437) scale(0.7)"/>
      <use xlink:href="#DejaVuSans-32" transform="translate(220.551033 -23.651562) scale(0.49)"/>
      <use xlink:href="#DejaVuSans-5d" transform="translate(266.140389 0.16875)"/>
      <path d="M 0 18.965625 
L 0 25.215625 
L 65.123579 25.215625 
L 65.123579 18.965625 
L 0 18.965625 
z
"/>
      <path d="M 149.10763 18.965625 
L 149.10763 25.215625 
L 253.640389 25.215625 
L 253.640389 18.965625 
L 149.10763 18.965625 
z
"/>
     </g>
    </g>
   </g>
   <g id="LineCollection_1">
    <path d="M 103.981108 276.902461 
L 106.42484 276.902461 
" clip-path="url(#pc49368fb07)" style="fill: none; stroke: #808080; stroke-width: 1.5"/>
    <path d="M 85.883786 285.371749 
L 87.073881 285.371749 
" clip-path="url(#pc49368fb07)" style="fill: none; stroke: #808080; stroke-width: 1.5"/>
    <path d="M 78.091744 290.078077 
L 78.678907 290.078077 
" clip-path="url(#pc49368fb07)" style="fill: none; stroke: #808080; stroke-width: 1.5"/>
    <path d="M 92.753942 281.007768 
L 94.430594 281.007768 
" clip-path="url(#pc49368fb07)" style="fill: none; stroke: #808080; stroke-width: 1.5"/>
    <path d="M 106.940334 272.177383 
L 109.583168 272.177383 
" clip-path="url(#pc49368fb07)" style="fill: none; stroke: #808080; stroke-width: 1.5"/>
    <path d="M 117.801598 268.80586 
L 121.168742 268.80586 
" clip-path="url(#pc49368fb07)" style="fill: none; stroke: #808080; stroke-width: 1.5"/>
    <path d="M 212.578692 210.728997 
L 222.114838 210.728997 
" clip-path="url(#pc49368fb07)" style="fill: none; stroke: #808080; stroke-width: 1.5"/>
    <path d="M 306.047103 164.602526 
L 321.586486 164.602526 
" clip-path="url(#pc49368fb07)" style="fill: none; stroke: #808080; stroke-width: 1.5"/>
    <path d="M 378.325908 111.17971 
L 398.487273 111.17971 
" clip-path="url(#pc49368fb07)" style="fill: none; stroke: #808080; stroke-width: 1.5"/>
    <path d="M 149.743576 253.645126 
L 155.20881 253.645126 
" clip-path="url(#pc49368fb07)" style="fill: none; stroke: #808080; stroke-width: 1.5"/>
    <path d="M 118.653447 272.177383 
L 121.634854 272.177383 
" clip-path="url(#pc49368fb07)" style="fill: none; stroke: #808080; stroke-width: 1.5"/>
    <path d="M 127.617591 268.80586 
L 131.19528 268.80586 
" clip-path="url(#pc49368fb07)" style="fill: none; stroke: #808080; stroke-width: 1.5"/>
    <path d="M 156.578672 252.167545 
L 162.082808 252.167545 
" clip-path="url(#pc49368fb07)" style="fill: none; stroke: #808080; stroke-width: 1.5"/>
    <path d="M 216.795568 224.892663 
L 227.262997 224.892663 
" clip-path="url(#pc49368fb07)" style="fill: none; stroke: #808080; stroke-width: 1.5"/>
    <path d="M 237.956071 210.728997 
L 251.701433 210.728997 
" clip-path="url(#pc49368fb07)" style="fill: none; stroke: #808080; stroke-width: 1.5"/>
    <path d="M 220.365756 224.892663 
L 229.867665 224.892663 
" clip-path="url(#pc49368fb07)" style="fill: none; stroke: #808080; stroke-width: 1.5"/>
    <path d="M 160.028627 252.167545 
L 165.617985 252.167545 
" clip-path="url(#pc49368fb07)" style="fill: none; stroke: #808080; stroke-width: 1.5"/>
    <path d="M 168.370165 250.602198 
L 174.500429 250.602198 
" clip-path="url(#pc49368fb07)" style="fill: none; stroke: #808080; stroke-width: 1.5"/>
    <path d="M 155.239966 266.397918 
L 160.518804 266.397918 
" clip-path="url(#pc49368fb07)" style="fill: none; stroke: #808080; stroke-width: 1.5"/>
    <path d="M 162.440771 252.167545 
L 168.127099 252.167545 
" clip-path="url(#pc49368fb07)" style="fill: none; stroke: #808080; stroke-width: 1.5"/>
   </g>
   <g id="LineCollection_2">
    <path d="M 105.202974 280.11567 
L 105.202974 273.689252 
" clip-path="url(#pc49368fb07)" style="fill: none; stroke: #808080; stroke-width: 1.5"/>
    <path d="M 86.478833 287.977109 
L 86.478833 282.766388 
" clip-path="url(#pc49368fb07)" style="fill: none; stroke: #808080; stroke-width: 1.5"/>
    <path d="M 78.385325 291.3827 
L 78.385325 288.773454 
" clip-path="url(#pc49368fb07)" style="fill: none; stroke: #808080; stroke-width: 1.5"/>
    <path d="M 93.592268 285.447639 
L 93.592268 276.567896 
" clip-path="url(#pc49368fb07)" style="fill: none; stroke: #808080; stroke-width: 1.5"/>
    <path d="M 108.261751 280.385334 
L 108.261751 263.969432 
" clip-path="url(#pc49368fb07)" style="fill: none; stroke: #808080; stroke-width: 1.5"/>
    <path d="M 119.48517 275.402561 
L 119.48517 262.209158 
" clip-path="url(#pc49368fb07)" style="fill: none; stroke: #808080; stroke-width: 1.5"/>
    <path d="M 217.346765 235.375297 
L 217.346765 186.082698 
" clip-path="url(#pc49368fb07)" style="fill: none; stroke: #808080; stroke-width: 1.5"/>
    <path d="M 313.816794 195.480043 
L 313.816794 133.725009 
" clip-path="url(#pc49368fb07)" style="fill: none; stroke: #808080; stroke-width: 1.5"/>
    <path d="M 388.406591 168.79142 
L 388.406591 53.568 
" clip-path="url(#pc49368fb07)" style="fill: none; stroke: #808080; stroke-width: 1.5"/>
    <path d="M 152.476193 262.252119 
L 152.476193 245.038132 
" clip-path="url(#pc49368fb07)" style="fill: none; stroke: #808080; stroke-width: 1.5"/>
    <path d="M 120.144151 280.385334 
L 120.144151 263.969432 
" clip-path="url(#pc49368fb07)" style="fill: none; stroke: #808080; stroke-width: 1.5"/>
    <path d="M 129.406435 275.402561 
L 129.406435 262.209158 
" clip-path="url(#pc49368fb07)" style="fill: none; stroke: #808080; stroke-width: 1.5"/>
    <path d="M 159.33074 269.108242 
L 159.33074 235.226847 
" clip-path="url(#pc49368fb07)" style="fill: none; stroke: #808080; stroke-width: 1.5"/>
    <path d="M 222.029282 240.473828 
L 222.029282 209.311497 
" clip-path="url(#pc49368fb07)" style="fill: none; stroke: #808080; stroke-width: 1.5"/>
    <path d="M 244.828752 235.375297 
L 244.828752 186.082698 
" clip-path="url(#pc49368fb07)" style="fill: none; stroke: #808080; stroke-width: 1.5"/>
    <path d="M 225.11671 240.473828 
L 225.11671 209.311497 
" clip-path="url(#pc49368fb07)" style="fill: none; stroke: #808080; stroke-width: 1.5"/>
    <path d="M 162.823306 269.108242 
L 162.823306 235.226847 
" clip-path="url(#pc49368fb07)" style="fill: none; stroke: #808080; stroke-width: 1.5"/>
    <path d="M 171.435297 262.713401 
L 171.435297 238.490995 
" clip-path="url(#pc49368fb07)" style="fill: none; stroke: #808080; stroke-width: 1.5"/>
    <path d="M 157.879385 287.240804 
L 157.879385 245.555031 
" clip-path="url(#pc49368fb07)" style="fill: none; stroke: #808080; stroke-width: 1.5"/>
    <path d="M 165.283935 269.108242 
L 165.283935 235.226847 
" clip-path="url(#pc49368fb07)" style="fill: none; stroke: #808080; stroke-width: 1.5"/>
   </g>
   <g id="line2d_31">
    <defs>
     <path id="m0849c5b7ce" d="M 0 3 
L 0 -3 
" style="stroke: #808080"/>
    </defs>
    <g clip-path="url(#pc49368fb07)">
     <use xlink:href="#m0849c5b7ce" x="103.981108" y="276.902461" style="fill: #808080; stroke: #808080"/>
     <use xlink:href="#m0849c5b7ce" x="85.883786" y="285.371749" style="fill: #808080; stroke: #808080"/>
     <use xlink:href="#m0849c5b7ce" x="78.091744" y="290.078077" style="fill: #808080; stroke: #808080"/>
     <use xlink:href="#m0849c5b7ce" x="92.753942" y="281.007768" style="fill: #808080; stroke: #808080"/>
     <use xlink:href="#m0849c5b7ce" x="106.940334" y="272.177383" style="fill: #808080; stroke: #808080"/>
     <use xlink:href="#m0849c5b7ce" x="117.801598" y="268.80586" style="fill: #808080; stroke: #808080"/>
     <use xlink:href="#m0849c5b7ce" x="212.578692" y="210.728997" style="fill: #808080; stroke: #808080"/>
     <use xlink:href="#m0849c5b7ce" x="306.047103" y="164.602526" style="fill: #808080; stroke: #808080"/>
     <use xlink:href="#m0849c5b7ce" x="378.325908" y="111.17971" style="fill: #808080; stroke: #808080"/>
     <use xlink:href="#m0849c5b7ce" x="149.743576" y="253.645126" style="fill: #808080; stroke: #808080"/>
     <use xlink:href="#m0849c5b7ce" x="118.653447" y="272.177383" style="fill: #808080; stroke: #808080"/>
     <use xlink:href="#m0849c5b7ce" x="127.617591" y="268.80586" style="fill: #808080; stroke: #808080"/>
     <use xlink:href="#m0849c5b7ce" x="156.578672" y="252.167545" style="fill: #808080; stroke: #808080"/>
     <use xlink:href="#m0849c5b7ce" x="216.795568" y="224.892663" style="fill: #808080; stroke: #808080"/>
     <use xlink:href="#m0849c5b7ce" x="237.956071" y="210.728997" style="fill: #808080; stroke: #808080"/>
     <use xlink:href="#m0849c5b7ce" x="220.365756" y="224.892663" style="fill: #808080; stroke: #808080"/>
     <use xlink:href="#m0849c5b7ce" x="160.028627" y="252.167545" style="fill: #808080; stroke: #808080"/>
     <use xlink:href="#m0849c5b7ce" x="168.370165" y="250.602198" style="fill: #808080; stroke: #808080"/>
     <use xlink:href="#m0849c5b7ce" x="155.239966" y="266.397918" style="fill: #808080; stroke: #808080"/>
     <use xlink:href="#m0849c5b7ce" x="162.440771" y="252.167545" style="fill: #808080; stroke: #808080"/>
    </g>
   </g>
   <g id="line2d_32">
    <g clip-path="url(#pc49368fb07)">
     <use xlink:href="#m0849c5b7ce" x="106.42484" y="276.902461" style="fill: #808080; stroke: #808080"/>
     <use xlink:href="#m0849c5b7ce" x="87.073881" y="285.371749" style="fill: #808080; stroke: #808080"/>
     <use xlink:href="#m0849c5b7ce" x="78.678907" y="290.078077" style="fill: #808080; stroke: #808080"/>
     <use xlink:href="#m0849c5b7ce" x="94.430594" y="281.007768" style="fill: #808080; stroke: #808080"/>
     <use xlink:href="#m0849c5b7ce" x="109.583168" y="272.177383" style="fill: #808080; stroke: #808080"/>
     <use xlink:href="#m0849c5b7ce" x="121.168742" y="268.80586" style="fill: #808080; stroke: #808080"/>
     <use xlink:href="#m0849c5b7ce" x="222.114838" y="210.728997" style="fill: #808080; stroke: #808080"/>
     <use xlink:href="#m0849c5b7ce" x="321.586486" y="164.602526" style="fill: #808080; stroke: #808080"/>
     <use xlink:href="#m0849c5b7ce" x="398.487273" y="111.17971" style="fill: #808080; stroke: #808080"/>
     <use xlink:href="#m0849c5b7ce" x="155.20881" y="253.645126" style="fill: #808080; stroke: #808080"/>
     <use xlink:href="#m0849c5b7ce" x="121.634854" y="272.177383" style="fill: #808080; stroke: #808080"/>
     <use xlink:href="#m0849c5b7ce" x="131.19528" y="268.80586" style="fill: #808080; stroke: #808080"/>
     <use xlink:href="#m0849c5b7ce" x="162.082808" y="252.167545" style="fill: #808080; stroke: #808080"/>
     <use xlink:href="#m0849c5b7ce" x="227.262997" y="224.892663" style="fill: #808080; stroke: #808080"/>
     <use xlink:href="#m0849c5b7ce" x="251.701433" y="210.728997" style="fill: #808080; stroke: #808080"/>
     <use xlink:href="#m0849c5b7ce" x="229.867665" y="224.892663" style="fill: #808080; stroke: #808080"/>
     <use xlink:href="#m0849c5b7ce" x="165.617985" y="252.167545" style="fill: #808080; stroke: #808080"/>
     <use xlink:href="#m0849c5b7ce" x="174.500429" y="250.602198" style="fill: #808080; stroke: #808080"/>
     <use xlink:href="#m0849c5b7ce" x="160.518804" y="266.397918" style="fill: #808080; stroke: #808080"/>
     <use xlink:href="#m0849c5b7ce" x="168.127099" y="252.167545" style="fill: #808080; stroke: #808080"/>
    </g>
   </g>
   <g id="line2d_33">
    <defs>
     <path id="mb94213cd3a" d="M 3 0 
L -3 -0 
" style="stroke: #808080"/>
    </defs>
    <g clip-path="url(#pc49368fb07)">
     <use xlink:href="#mb94213cd3a" x="105.202974" y="280.11567" style="fill: #808080; stroke: #808080"/>
     <use xlink:href="#mb94213cd3a" x="86.478833" y="287.977109" style="fill: #808080; stroke: #808080"/>
     <use xlink:href="#mb94213cd3a" x="78.385325" y="291.3827" style="fill: #808080; stroke: #808080"/>
     <use xlink:href="#mb94213cd3a" x="93.592268" y="285.447639" style="fill: #808080; stroke: #808080"/>
     <use xlink:href="#mb94213cd3a" x="108.261751" y="280.385334" style="fill: #808080; stroke: #808080"/>
     <use xlink:href="#mb94213cd3a" x="119.48517" y="275.402561" style="fill: #808080; stroke: #808080"/>
     <use xlink:href="#mb94213cd3a" x="217.346765" y="235.375297" style="fill: #808080; stroke: #808080"/>
     <use xlink:href="#mb94213cd3a" x="313.816794" y="195.480043" style="fill: #808080; stroke: #808080"/>
     <use xlink:href="#mb94213cd3a" x="388.406591" y="168.79142" style="fill: #808080; stroke: #808080"/>
     <use xlink:href="#mb94213cd3a" x="152.476193" y="262.252119" style="fill: #808080; stroke: #808080"/>
     <use xlink:href="#mb94213cd3a" x="120.144151" y="280.385334" style="fill: #808080; stroke: #808080"/>
     <use xlink:href="#mb94213cd3a" x="129.406435" y="275.402561" style="fill: #808080; stroke: #808080"/>
     <use xlink:href="#mb94213cd3a" x="159.33074" y="269.108242" style="fill: #808080; stroke: #808080"/>
     <use xlink:href="#mb94213cd3a" x="222.029282" y="240.473828" style="fill: #808080; stroke: #808080"/>
     <use xlink:href="#mb94213cd3a" x="244.828752" y="235.375297" style="fill: #808080; stroke: #808080"/>
     <use xlink:href="#mb94213cd3a" x="225.11671" y="240.473828" style="fill: #808080; stroke: #808080"/>
     <use xlink:href="#mb94213cd3a" x="162.823306" y="269.108242" style="fill: #808080; stroke: #808080"/>
     <use xlink:href="#mb94213cd3a" x="171.435297" y="262.713401" style="fill: #808080; stroke: #808080"/>
     <use xlink:href="#mb94213cd3a" x="157.879385" y="287.240804" style="fill: #808080; stroke: #808080"/>
     <use xlink:href="#mb94213cd3a" x="165.283935" y="269.108242" style="fill: #808080; stroke: #808080"/>
    </g>
   </g>
   <g id="line2d_34">
    <g clip-path="url(#pc49368fb07)">
     <use xlink:href="#mb94213cd3a" x="105.202974" y="273.689252" style="fill: #808080; stroke: #808080"/>
     <use xlink:href="#mb94213cd3a" x="86.478833" y="282.766388" style="fill: #808080; stroke: #808080"/>
     <use xlink:href="#mb94213cd3a" x="78.385325" y="288.773454" style="fill: #808080; stroke: #808080"/>
     <use xlink:href="#mb94213cd3a" x="93.592268" y="276.567896" style="fill: #808080; stroke: #808080"/>
     <use xlink:href="#mb94213cd3a" x="108.261751" y="263.969432" style="fill: #808080; stroke: #808080"/>
     <use xlink:href="#mb94213cd3a" x="119.48517" y="262.209158" style="fill: #808080; stroke: #808080"/>
     <use xlink:href="#mb94213cd3a" x="217.346765" y="186.082698" style="fill: #808080; stroke: #808080"/>
     <use xlink:href="#mb94213cd3a" x="313.816794" y="133.725009" style="fill: #808080; stroke: #808080"/>
     <use xlink:href="#mb94213cd3a" x="388.406591" y="53.568" style="fill: #808080; stroke: #808080"/>
     <use xlink:href="#mb94213cd3a" x="152.476193" y="245.038132" style="fill: #808080; stroke: #808080"/>
     <use xlink:href="#mb94213cd3a" x="120.144151" y="263.969432" style="fill: #808080; stroke: #808080"/>
     <use xlink:href="#mb94213cd3a" x="129.406435" y="262.209158" style="fill: #808080; stroke: #808080"/>
     <use xlink:href="#mb94213cd3a" x="159.33074" y="235.226847" style="fill: #808080; stroke: #808080"/>
     <use xlink:href="#mb94213cd3a" x="222.029282" y="209.311497" style="fill: #808080; stroke: #808080"/>
     <use xlink:href="#mb94213cd3a" x="244.828752" y="186.082698" style="fill: #808080; stroke: #808080"/>
     <use xlink:href="#mb94213cd3a" x="225.11671" y="209.311497" style="fill: #808080; stroke: #808080"/>
     <use xlink:href="#mb94213cd3a" x="162.823306" y="235.226847" style="fill: #808080; stroke: #808080"/>
     <use xlink:href="#mb94213cd3a" x="171.435297" y="238.490995" style="fill: #808080; stroke: #808080"/>
     <use xlink:href="#mb94213cd3a" x="157.879385" y="245.555031" style="fill: #808080; stroke: #808080"/>
     <use xlink:href="#mb94213cd3a" x="165.283935" y="235.226847" style="fill: #808080; stroke: #808080"/>
    </g>
   </g>
   <g id="line2d_35">
    <path d="M 73.832727 295.488 
L 77.083593 293.764736 
L 80.334459 292.041472 
L 83.585325 290.318208 
L 86.836191 288.594945 
L 90.087057 286.871681 
L 93.337923 285.148417 
L 96.588789 283.425153 
L 99.839655 281.701889 
L 103.090521 279.978625 
L 106.341386 278.255362 
L 109.592252 276.532098 
L 112.843118 274.808834 
L 116.093984 273.08557 
L 119.34485 271.362306 
L 122.595716 269.639042 
L 125.846582 267.915779 
L 129.097448 266.192515 
L 132.348314 264.469251 
L 135.59918 262.745987 
L 138.850046 261.022723 
L 142.100912 259.299459 
L 145.351777 257.576195 
L 148.602643 255.852932 
L 151.853509 254.129668 
L 155.104375 252.406404 
L 158.355241 250.68314 
L 161.606107 248.959876 
L 164.856973 247.236612 
L 168.107839 245.513349 
L 171.358705 243.790085 
L 174.609571 242.066821 
L 177.860437 240.343557 
L 181.111303 238.620293 
L 184.362168 236.897029 
L 187.613034 235.173766 
L 190.8639 233.450502 
L 194.114766 231.727238 
L 197.365632 230.003974 
L 200.616498 228.28071 
L 203.867364 226.557446 
L 207.11823 224.834182 
L 210.369096 223.110919 
L 213.619962 221.387655 
L 216.870828 219.664391 
L 220.121693 217.941127 
L 223.372559 216.217863 
L 226.623425 214.494599 
L 229.874291 212.771336 
L 233.125157 211.048072 
L 236.376023 209.324808 
L 239.626889 207.601544 
L 242.877755 205.87828 
L 246.128621 204.155016 
L 249.379487 202.431753 
L 252.630353 200.708489 
L 255.881219 198.985225 
L 259.132084 197.261961 
L 262.38295 195.538697 
L 265.633816 193.815433 
L 268.884682 192.092169 
L 272.135548 190.368906 
L 275.386414 188.645642 
L 278.63728 186.922378 
L 281.888146 185.199114 
L 285.139012 183.47585 
L 288.389878 181.752586 
L 291.640744 180.029323 
L 294.89161 178.306059 
L 298.142475 176.582795 
L 301.393341 174.859531 
L 304.644207 173.136267 
L 307.895073 171.413003 
L 311.145939 169.68974 
L 314.396805 167.966476 
L 317.647671 166.243212 
L 320.898537 164.519948 
L 324.149403 162.796684 
L 327.400269 161.07342 
L 330.651135 159.350156 
L 333.902001 157.626893 
L 337.152866 155.903629 
L 340.403732 154.180365 
L 343.654598 152.457101 
L 346.905464 150.733837 
L 350.15633 149.010573 
L 353.407196 147.28731 
L 356.658062 145.564046 
L 359.908928 143.840782 
L 363.159794 142.117518 
L 366.41066 140.394254 
L 369.661526 138.67099 
L 372.912392 136.947727 
L 376.163257 135.224463 
L 379.414123 133.501199 
L 382.664989 131.777935 
L 385.915855 130.054671 
L 389.166721 128.331407 
L 392.417587 126.608143 
L 395.668453 124.88488 
" clip-path="url(#pc49368fb07)" style="fill: none; stroke: #ff0000; stroke-width: 1.5; stroke-linecap: square"/>
   </g>
   <g id="line2d_36">
    <defs>
     <path id="m006fc9dc49" d="M 0 3 
C 0.795609 3 1.55874 2.683901 2.12132 2.12132 
C 2.683901 1.55874 3 0.795609 3 0 
C 3 -0.795609 2.683901 -1.55874 2.12132 -2.12132 
C 1.55874 -2.683901 0.795609 -3 0 -3 
C -0.795609 -3 -1.55874 -2.683901 -2.12132 -2.12132 
C -2.683901 -1.55874 -3 -0.795609 -3 0 
C -3 0.795609 -2.683901 1.55874 -2.12132 2.12132 
C -1.55874 2.683901 -0.795609 3 0 3 
z
" style="stroke: #1f77b4"/>
    </defs>
    <g clip-path="url(#pc49368fb07)">
     <use xlink:href="#m006fc9dc49" x="105.202974" y="276.902461" style="fill: #1f77b4; stroke: #1f77b4"/>
     <use xlink:href="#m006fc9dc49" x="86.478833" y="285.371749" style="fill: #1f77b4; stroke: #1f77b4"/>
     <use xlink:href="#m006fc9dc49" x="78.385325" y="290.078077" style="fill: #1f77b4; stroke: #1f77b4"/>
     <use xlink:href="#m006fc9dc49" x="93.592268" y="281.007768" style="fill: #1f77b4; stroke: #1f77b4"/>
     <use xlink:href="#m006fc9dc49" x="108.261751" y="272.177383" style="fill: #1f77b4; stroke: #1f77b4"/>
     <use xlink:href="#m006fc9dc49" x="119.48517" y="268.80586" style="fill: #1f77b4; stroke: #1f77b4"/>
     <use xlink:href="#m006fc9dc49" x="217.346765" y="210.728997" style="fill: #1f77b4; stroke: #1f77b4"/>
     <use xlink:href="#m006fc9dc49" x="313.816794" y="164.602526" style="fill: #1f77b4; stroke: #1f77b4"/>
     <use xlink:href="#m006fc9dc49" x="388.406591" y="111.17971" style="fill: #1f77b4; stroke: #1f77b4"/>
     <use xlink:href="#m006fc9dc49" x="152.476193" y="253.645126" style="fill: #1f77b4; stroke: #1f77b4"/>
     <use xlink:href="#m006fc9dc49" x="120.144151" y="272.177383" style="fill: #1f77b4; stroke: #1f77b4"/>
     <use xlink:href="#m006fc9dc49" x="129.406435" y="268.80586" style="fill: #1f77b4; stroke: #1f77b4"/>
     <use xlink:href="#m006fc9dc49" x="159.33074" y="252.167545" style="fill: #1f77b4; stroke: #1f77b4"/>
     <use xlink:href="#m006fc9dc49" x="222.029282" y="224.892663" style="fill: #1f77b4; stroke: #1f77b4"/>
     <use xlink:href="#m006fc9dc49" x="244.828752" y="210.728997" style="fill: #1f77b4; stroke: #1f77b4"/>
     <use xlink:href="#m006fc9dc49" x="225.11671" y="224.892663" style="fill: #1f77b4; stroke: #1f77b4"/>
     <use xlink:href="#m006fc9dc49" x="162.823306" y="252.167545" style="fill: #1f77b4; stroke: #1f77b4"/>
     <use xlink:href="#m006fc9dc49" x="171.435297" y="250.602198" style="fill: #1f77b4; stroke: #1f77b4"/>
     <use xlink:href="#m006fc9dc49" x="157.879385" y="266.397918" style="fill: #1f77b4; stroke: #1f77b4"/>
     <use xlink:href="#m006fc9dc49" x="165.283935" y="252.167545" style="fill: #1f77b4; stroke: #1f77b4"/>
    </g>
   </g>
   <g id="patch_3">
    <path d="M 57.6 307.584 
L 57.6 41.472 
" style="fill: none; stroke: #000000; stroke-width: 0.8; stroke-linejoin: miter; stroke-linecap: square"/>
   </g>
   <g id="patch_4">
    <path d="M 414.72 307.584 
L 414.72 41.472 
" style="fill: none; stroke: #000000; stroke-width: 0.8; stroke-linejoin: miter; stroke-linecap: square"/>
   </g>
   <g id="patch_5">
    <path d="M 57.6 307.584 
L 414.72 307.584 
" style="fill: none; stroke: #000000; stroke-width: 0.8; stroke-linejoin: miter; stroke-linecap: square"/>
   </g>
   <g id="patch_6">
    <path d="M 57.6 41.472 
L 414.72 41.472 
" style="fill: none; stroke: #000000; stroke-width: 0.8; stroke-linejoin: miter; stroke-linecap: square"/>
   </g>
   <g id="patch_7">
    <path d="M 155.025537 157.485513 
L 156.040143 157.749198 
Q 98.883885 213.392848 76.172515 290.592626 
L 78.907578 289.901067 
Q 77.123538 293.07868 74.352988 296.05975 
Q 73.479058 292.074583 73.729042 288.370457 
L 75.654002 290.441816 
Q 97.918807 213.004106 154.77771 156.466131 
L 155.025537 157.485513 
z
" style="fill: #daa520; stroke: #daa520; stroke-linecap: round"/>
   </g>
   <g id="text_19">
    <g id="patch_8">
     <path d="M 104.0256 155.2068 
L 230.6556 155.2068 
Q 233.3556 155.2068 233.3556 152.5068 
L 233.3556 139.3668 
Q 233.3556 136.6668 230.6556 136.6668 
L 104.0256 136.6668 
Q 101.3256 136.6668 101.3256 139.3668 
L 101.3256 152.5068 
Q 101.3256 155.2068 104.0256 155.2068 
z
" style="fill: #fffacd; stroke: #daa520; stroke-linejoin: miter"/>
    </g>
    <!-- Intercept = 9.426 ± 3.91 $\frac{1}{m^2}$ -->
    <g style="fill: #b8860b" transform="translate(104.0256 147.9168) scale(0.09 -0.09)">
     <defs>
      <path id="DejaVuSans-49" d="M 628 4666 
L 1259 4666 
L 1259 0 
L 628 0 
L 628 4666 
z
" transform="scale(0.015625)"/>
      <path id="DejaVuSans-6e" d="M 3513 2113 
L 3513 0 
L 2938 0 
L 2938 2094 
Q 2938 2591 2744 2837 
Q 2550 3084 2163 3084 
Q 1697 3084 1428 2787 
Q 1159 2491 1159 1978 
L 1159 0 
L 581 0 
L 581 3500 
L 1159 3500 
L 1159 2956 
Q 1366 3272 1645 3428 
Q 1925 3584 2291 3584 
Q 2894 3584 3203 3211 
Q 3513 2838 3513 2113 
z
" transform="scale(0.015625)"/>
      <path id="DejaVuSans-74" d="M 1172 4494 
L 1172 3500 
L 2356 3500 
L 2356 3053 
L 1172 3053 
L 1172 1153 
Q 1172 725 1289 603 
Q 1406 481 1766 481 
L 2356 481 
L 2356 0 
L 1766 0 
Q 1100 0 847 248 
Q 594 497 594 1153 
L 594 3053 
L 172 3053 
L 172 3500 
L 594 3500 
L 594 4494 
L 1172 4494 
z
" transform="scale(0.015625)"/>
      <path id="DejaVuSans-72" d="M 2631 2963 
Q 2534 3019 2420 3045 
Q 2306 3072 2169 3072 
Q 1681 3072 1420 2755 
Q 1159 2438 1159 1844 
L 1159 0 
L 581 0 
L 581 3500 
L 1159 3500 
L 1159 2956 
Q 1341 3275 1631 3429 
Q 1922 3584 2338 3584 
Q 2397 3584 2469 3576 
Q 2541 3569 2628 3553 
L 2631 2963 
z
" transform="scale(0.015625)"/>
      <path id="DejaVuSans-63" d="M 3122 3366 
L 3122 2828 
Q 2878 2963 2633 3030 
Q 2388 3097 2138 3097 
Q 1578 3097 1268 2742 
Q 959 2388 959 1747 
Q 959 1106 1268 751 
Q 1578 397 2138 397 
Q 2388 397 2633 464 
Q 2878 531 3122 666 
L 3122 134 
Q 2881 22 2623 -34 
Q 2366 -91 2075 -91 
Q 1284 -91 818 406 
Q 353 903 353 1747 
Q 353 2603 823 3093 
Q 1294 3584 2113 3584 
Q 2378 3584 2631 3529 
Q 2884 3475 3122 3366 
z
" transform="scale(0.015625)"/>
      <path id="DejaVuSans-70" d="M 1159 525 
L 1159 -1331 
L 581 -1331 
L 581 3500 
L 1159 3500 
L 1159 2969 
Q 1341 3281 1617 3432 
Q 1894 3584 2278 3584 
Q 2916 3584 3314 3078 
Q 3713 2572 3713 1747 
Q 3713 922 3314 415 
Q 2916 -91 2278 -91 
Q 1894 -91 1617 61 
Q 1341 213 1159 525 
z
M 3116 1747 
Q 3116 2381 2855 2742 
Q 2594 3103 2138 3103 
Q 1681 3103 1420 2742 
Q 1159 2381 1159 1747 
Q 1159 1113 1420 752 
Q 1681 391 2138 391 
Q 2594 391 2855 752 
Q 3116 1113 3116 1747 
z
" transform="scale(0.015625)"/>
      <path id="DejaVuSans-20" transform="scale(0.015625)"/>
      <path id="DejaVuSans-3d" d="M 678 2906 
L 4684 2906 
L 4684 2381 
L 678 2381 
L 678 2906 
z
M 678 1631 
L 4684 1631 
L 4684 1100 
L 678 1100 
L 678 1631 
z
" transform="scale(0.015625)"/>
      <path id="DejaVuSans-b1" d="M 2944 4013 
L 2944 2803 
L 4684 2803 
L 4684 2272 
L 2944 2272 
L 2944 1063 
L 2419 1063 
L 2419 2272 
L 678 2272 
L 678 2803 
L 2419 2803 
L 2419 4013 
L 2944 4013 
z
M 678 531 
L 4684 531 
L 4684 0 
L 678 0 
L 678 531 
z
" transform="scale(0.015625)"/>
     </defs>
     <use xlink:href="#DejaVuSans-49" transform="translate(0 0.16875)"/>
     <use xlink:href="#DejaVuSans-6e" transform="translate(29.492188 0.16875)"/>
     <use xlink:href="#DejaVuSans-74" transform="translate(92.871094 0.16875)"/>
     <use xlink:href="#DejaVuSans-65" transform="translate(132.080078 0.16875)"/>
     <use xlink:href="#DejaVuSans-72" transform="translate(193.603516 0.16875)"/>
     <use xlink:href="#DejaVuSans-63" transform="translate(234.716797 0.16875)"/>
     <use xlink:href="#DejaVuSans-65" transform="translate(289.697266 0.16875)"/>
     <use xlink:href="#DejaVuSans-70" transform="translate(351.220703 0.16875)"/>
     <use xlink:href="#DejaVuSans-74" transform="translate(414.697266 0.16875)"/>
     <use xlink:href="#DejaVuSans-20" transform="translate(453.90625 0.16875)"/>
     <use xlink:href="#DejaVuSans-3d" transform="translate(485.693359 0.16875)"/>
     <use xlink:href="#DejaVuSans-20" transform="translate(569.482422 0.16875)"/>
     <use xlink:href="#DejaVuSans-39" transform="translate(601.269531 0.16875)"/>
     <use xlink:href="#DejaVuSans-2e" transform="translate(664.892578 0.16875)"/>
     <use xlink:href="#DejaVuSans-34" transform="translate(696.679688 0.16875)"/>
     <use xlink:href="#DejaVuSans-32" transform="translate(760.302734 0.16875)"/>
     <use xlink:href="#DejaVuSans-36" transform="translate(823.925781 0.16875)"/>
     <use xlink:href="#DejaVuSans-20" transform="translate(887.548828 0.16875)"/>
     <use xlink:href="#DejaVuSans-b1" transform="translate(919.335938 0.16875)"/>
     <use xlink:href="#DejaVuSans-20" transform="translate(1003.125 0.16875)"/>
     <use xlink:href="#DejaVuSans-33" transform="translate(1034.912109 0.16875)"/>
     <use xlink:href="#DejaVuSans-2e" transform="translate(1098.535156 0.16875)"/>
     <use xlink:href="#DejaVuSans-39" transform="translate(1130.322266 0.16875)"/>
     <use xlink:href="#DejaVuSans-31" transform="translate(1193.945312 0.16875)"/>
     <use xlink:href="#DejaVuSans-20" transform="translate(1257.568359 0.16875)"/>
     <use xlink:href="#DejaVuSans-31" transform="translate(1319.355469 43.965625) scale(0.7)"/>
     <use xlink:href="#DejaVuSans-Oblique-6d" transform="translate(1289.355469 -50.448437) scale(0.7)"/>
     <use xlink:href="#DejaVuSans-32" transform="translate(1360.798872 -23.651562) scale(0.49)"/>
     <path d="M 1289.355469 18.965625 
L 1289.355469 25.215625 
L 1393.888228 25.215625 
L 1393.888228 18.965625 
L 1289.355469 18.965625 
z
"/>
    </g>
   </g>
   <g id="legend_1">
    <g id="patch_9">
     <path d="M 64.6 85.050125 
L 267.2 85.050125 
Q 269.2 85.050125 269.2 83.050125 
L 269.2 48.472 
Q 269.2 46.472 267.2 46.472 
L 64.6 46.472 
Q 62.6 46.472 62.6 48.472 
L 62.6 83.050125 
Q 62.6 85.050125 64.6 85.050125 
z
" style="fill: #ffffff; opacity: 0.8; stroke: #cccccc; stroke-linejoin: miter"/>
    </g>
    <g id="line2d_37">
     <path d="M 66.6 57.672 
L 76.6 57.672 
L 86.6 57.672 
" style="fill: none; stroke: #ff0000; stroke-width: 1.5; stroke-linecap: square"/>
    </g>
    <g id="text_20">
     <!-- $\frac{1}{r^2} = 2.209 \cdot 10^{11} \frac{B^2}{2U_a} \pm (9.426±3.91)$ -->
     <g transform="translate(94.6 61.172) scale(0.1 -0.1)">
      <defs>
       <path id="DejaVuSans-22c5" d="M 684 2619 
L 1344 2619 
L 1344 1825 
L 684 1825 
L 684 2619 
z
" transform="scale(0.015625)"/>
       <path id="DejaVuSans-28" d="M 1984 4856 
Q 1566 4138 1362 3434 
Q 1159 2731 1159 2009 
Q 1159 1288 1364 580 
Q 1569 -128 1984 -844 
L 1484 -844 
Q 1016 -109 783 600 
Q 550 1309 550 2009 
Q 550 2706 781 3412 
Q 1013 4119 1484 4856 
L 1984 4856 
z
" transform="scale(0.015625)"/>
       <path id="DejaVuSans-29" d="M 513 4856 
L 1013 4856 
Q 1481 4119 1714 3412 
Q 1947 2706 1947 2009 
Q 1947 1309 1714 600 
Q 1481 -109 1013 -844 
L 513 -844 
Q 928 -128 1133 580 
Q 1338 1288 1338 2009 
Q 1338 2731 1133 3434 
Q 928 4138 513 4856 
z
" transform="scale(0.015625)"/>
      </defs>
      <use xlink:href="#DejaVuSans-31" transform="translate(10 43.835938) scale(0.7)"/>
      <use xlink:href="#DejaVuSans-Oblique-72" transform="translate(0 -50.578125) scale(0.7)"/>
      <use xlink:href="#DejaVuSans-32" transform="translate(32.034224 -23.78125) scale(0.49)"/>
      <use xlink:href="#DejaVuSans-3d" transform="translate(97.106001 0.039062)"/>
      <use xlink:href="#DejaVuSans-32" transform="translate(200.377486 0.039062)"/>
      <use xlink:href="#DejaVuSans-2e" transform="translate(264.000533 0.039062)"/>
      <use xlink:href="#DejaVuSans-32" transform="translate(290.287642 0.039062)"/>
      <use xlink:href="#DejaVuSans-30" transform="translate(353.910689 0.039062)"/>
      <use xlink:href="#DejaVuSans-39" transform="translate(417.533736 0.039062)"/>
      <use xlink:href="#DejaVuSans-22c5" transform="translate(500.639204 0.039062)"/>
      <use xlink:href="#DejaVuSans-31" transform="translate(551.908736 0.039062)"/>
      <use xlink:href="#DejaVuSans-30" transform="translate(615.531783 0.039062)"/>
      <use xlink:href="#DejaVuSans-31" transform="translate(680.111861 38.320312) scale(0.7)"/>
      <use xlink:href="#DejaVuSans-31" transform="translate(724.647993 38.320312) scale(0.7)"/>
      <use xlink:href="#DejaVuSans-Oblique-42" transform="translate(792.918501 43.835938) scale(0.7)"/>
      <use xlink:href="#DejaVuSans-32" transform="translate(845.852702 70.632812) scale(0.49)"/>
      <use xlink:href="#DejaVuSans-32" transform="translate(771.918501 -39.367188) scale(0.7)"/>
      <use xlink:href="#DejaVuSans-Oblique-55" transform="translate(816.454634 -39.367188) scale(0.7)"/>
      <use xlink:href="#DejaVuSans-Oblique-61" transform="translate(867.689986 -50.851562) scale(0.49)"/>
      <use xlink:href="#DejaVuSans-b1" transform="translate(931.613326 0.039062)"/>
      <use xlink:href="#DejaVuSans-28" transform="translate(1034.88481 0.039062)"/>
      <use xlink:href="#DejaVuSans-39" transform="translate(1073.898482 0.039062)"/>
      <use xlink:href="#DejaVuSans-2e" transform="translate(1137.521529 0.039062)"/>
      <use xlink:href="#DejaVuSans-34" transform="translate(1169.308638 0.039062)"/>
      <use xlink:href="#DejaVuSans-32" transform="translate(1232.931685 0.039062)"/>
      <use xlink:href="#DejaVuSans-36" transform="translate(1296.554732 0.039062)"/>
      <use xlink:href="#DejaVuSans-b1" transform="translate(1360.177779 0.039062)"/>
      <use xlink:href="#DejaVuSans-33" transform="translate(1443.966841 0.039062)"/>
      <use xlink:href="#DejaVuSans-2e" transform="translate(1507.589888 0.039062)"/>
      <use xlink:href="#DejaVuSans-39" transform="translate(1539.376997 0.039062)"/>
      <use xlink:href="#DejaVuSans-31" transform="translate(1603.000044 0.039062)"/>
      <use xlink:href="#DejaVuSans-29" transform="translate(1666.623091 0.039062)"/>
      <path d="M 0 18.835938 
L 0 25.085938 
L 65.123579 25.085938 
L 65.123579 18.835938 
L 0 18.835938 
z
"/>
      <path d="M 771.918501 18.835938 
L 771.918501 25.085938 
L 899.630904 25.085938 
L 899.630904 18.835938 
L 771.918501 18.835938 
z
"/>
     </g>
    </g>
    <g id="LineCollection_3">
     <path d="M 71.6 75.470438 
L 81.6 75.470438 
" style="fill: none; stroke: #808080; stroke-width: 1.5"/>
    </g>
    <g id="LineCollection_4">
     <path d="M 76.6 80.470438 
L 76.6 70.470438 
" style="fill: none; stroke: #808080; stroke-width: 1.5"/>
    </g>
    <g id="line2d_38">
     <g>
      <use xlink:href="#m0849c5b7ce" x="71.6" y="75.470438" style="fill: #808080; stroke: #808080"/>
     </g>
    </g>
    <g id="line2d_39">
     <g>
      <use xlink:href="#m0849c5b7ce" x="81.6" y="75.470438" style="fill: #808080; stroke: #808080"/>
     </g>
    </g>
    <g id="line2d_40">
     <g>
      <use xlink:href="#mb94213cd3a" x="76.6" y="80.470438" style="fill: #808080; stroke: #808080"/>
     </g>
    </g>
    <g id="line2d_41">
     <g>
      <use xlink:href="#mb94213cd3a" x="76.6" y="70.470438" style="fill: #808080; stroke: #808080"/>
     </g>
    </g>
    <g id="line2d_42"/>
    <g id="line2d_43">
     <g>
      <use xlink:href="#m006fc9dc49" x="76.6" y="75.470438" style="fill: #1f77b4; stroke: #1f77b4"/>
     </g>
    </g>
    <g id="text_21">
     <!-- Measurements -->
     <g transform="translate(94.6 78.970438) scale(0.1 -0.1)">
      <defs>
       <path id="DejaVuSans-4d" d="M 628 4666 
L 1569 4666 
L 2759 1491 
L 3956 4666 
L 4897 4666 
L 4897 0 
L 4281 0 
L 4281 4097 
L 3078 897 
L 2444 897 
L 1241 4097 
L 1241 0 
L 628 0 
L 628 4666 
z
" transform="scale(0.015625)"/>
       <path id="DejaVuSans-61" d="M 2194 1759 
Q 1497 1759 1228 1600 
Q 959 1441 959 1056 
Q 959 750 1161 570 
Q 1363 391 1709 391 
Q 2188 391 2477 730 
Q 2766 1069 2766 1631 
L 2766 1759 
L 2194 1759 
z
M 3341 1997 
L 3341 0 
L 2766 0 
L 2766 531 
Q 2569 213 2275 61 
Q 1981 -91 1556 -91 
Q 1019 -91 701 211 
Q 384 513 384 1019 
Q 384 1609 779 1909 
Q 1175 2209 1959 2209 
L 2766 2209 
L 2766 2266 
Q 2766 2663 2505 2880 
Q 2244 3097 1772 3097 
Q 1472 3097 1187 3025 
Q 903 2953 641 2809 
L 641 3341 
Q 956 3463 1253 3523 
Q 1550 3584 1831 3584 
Q 2591 3584 2966 3190 
Q 3341 2797 3341 1997 
z
" transform="scale(0.015625)"/>
       <path id="DejaVuSans-73" d="M 2834 3397 
L 2834 2853 
Q 2591 2978 2328 3040 
Q 2066 3103 1784 3103 
Q 1356 3103 1142 2972 
Q 928 2841 928 2578 
Q 928 2378 1081 2264 
Q 1234 2150 1697 2047 
L 1894 2003 
Q 2506 1872 2764 1633 
Q 3022 1394 3022 966 
Q 3022 478 2636 193 
Q 2250 -91 1575 -91 
Q 1294 -91 989 -36 
Q 684 19 347 128 
L 347 722 
Q 666 556 975 473 
Q 1284 391 1588 391 
Q 1994 391 2212 530 
Q 2431 669 2431 922 
Q 2431 1156 2273 1281 
Q 2116 1406 1581 1522 
L 1381 1569 
Q 847 1681 609 1914 
Q 372 2147 372 2553 
Q 372 3047 722 3315 
Q 1072 3584 1716 3584 
Q 2034 3584 2315 3537 
Q 2597 3491 2834 3397 
z
" transform="scale(0.015625)"/>
       <path id="DejaVuSans-75" d="M 544 1381 
L 544 3500 
L 1119 3500 
L 1119 1403 
Q 1119 906 1312 657 
Q 1506 409 1894 409 
Q 2359 409 2629 706 
Q 2900 1003 2900 1516 
L 2900 3500 
L 3475 3500 
L 3475 0 
L 2900 0 
L 2900 538 
Q 2691 219 2414 64 
Q 2138 -91 1772 -91 
Q 1169 -91 856 284 
Q 544 659 544 1381 
z
M 1991 3584 
L 1991 3584 
z
" transform="scale(0.015625)"/>
       <path id="DejaVuSans-6d" d="M 3328 2828 
Q 3544 3216 3844 3400 
Q 4144 3584 4550 3584 
Q 5097 3584 5394 3201 
Q 5691 2819 5691 2113 
L 5691 0 
L 5113 0 
L 5113 2094 
Q 5113 2597 4934 2840 
Q 4756 3084 4391 3084 
Q 3944 3084 3684 2787 
Q 3425 2491 3425 1978 
L 3425 0 
L 2847 0 
L 2847 2094 
Q 2847 2600 2669 2842 
Q 2491 3084 2119 3084 
Q 1678 3084 1418 2786 
Q 1159 2488 1159 1978 
L 1159 0 
L 581 0 
L 581 3500 
L 1159 3500 
L 1159 2956 
Q 1356 3278 1631 3431 
Q 1906 3584 2284 3584 
Q 2666 3584 2933 3390 
Q 3200 3197 3328 2828 
z
" transform="scale(0.015625)"/>
      </defs>
      <use xlink:href="#DejaVuSans-4d"/>
      <use xlink:href="#DejaVuSans-65" transform="translate(86.279297 0)"/>
      <use xlink:href="#DejaVuSans-61" transform="translate(147.802734 0)"/>
      <use xlink:href="#DejaVuSans-73" transform="translate(209.082031 0)"/>
      <use xlink:href="#DejaVuSans-75" transform="translate(261.181641 0)"/>
      <use xlink:href="#DejaVuSans-72" transform="translate(324.560547 0)"/>
      <use xlink:href="#DejaVuSans-65" transform="translate(363.423828 0)"/>
      <use xlink:href="#DejaVuSans-6d" transform="translate(424.947266 0)"/>
      <use xlink:href="#DejaVuSans-65" transform="translate(522.359375 0)"/>
      <use xlink:href="#DejaVuSans-6e" transform="translate(583.882812 0)"/>
      <use xlink:href="#DejaVuSans-74" transform="translate(647.261719 0)"/>
      <use xlink:href="#DejaVuSans-73" transform="translate(686.470703 0)"/>
     </g>
    </g>
   </g>
  </g>
 </g>
 <defs>
  <clipPath id="pc49368fb07">
   <rect x="57.6" y="41.472" width="357.12" height="266.112"/>
  </clipPath>
 </defs>
</svg>
