<?xml version="1.0" encoding="utf-8" standalone="no"?>
<!DOCTYPE svg PUBLIC "-//W3C//DTD SVG 1.1//EN"
  "http://www.w3.org/Graphics/SVG/1.1/DTD/svg11.dtd">
<svg xmlns:xlink="http://www.w3.org/1999/xlink" width="460.8pt" height="345.6pt" viewBox="0 0 460.8 345.6" xmlns="http://www.w3.org/2000/svg" version="1.1">
 <metadata>
  <rdf:RDF xmlns:dc="http://purl.org/dc/elements/1.1/" xmlns:cc="http://creativecommons.org/ns#" xmlns:rdf="http://www.w3.org/1999/02/22-rdf-syntax-ns#">
   <cc:Work>
    <dc:type rdf:resource="http://purl.org/dc/dcmitype/StillImage"/>
    <dc:date>2025-07-12T02:01:23.793666</dc:date>
    <dc:format>image/svg+xml</dc:format>
    <dc:creator>
     <cc:Agent>
      <dc:title>Matplotlib v3.10.3, https://matplotlib.org/</dc:title>
     </cc:Agent>
    </dc:creator>
   </cc:Work>
  </rdf:RDF>
 </metadata>
 <defs>
  <style type="text/css">*{stroke-linejoin: round; stroke-linecap: butt}</style>
 </defs>
 <g id="figure_1">
  <g id="patch_1">
   <path d="M 0 345.6 
L 460.8 345.6 
L 460.8 0 
L 0 0 
z
" style="fill: #ffffff"/>
  </g>
  <g id="axes_1">
   <g id="patch_2">
    <path d="M 57.6 307.584 
L 414.72 307.584 
L 414.72 41.472 
L 57.6 41.472 
z
" style="fill: #ffffff"/>
   </g>
   <g id="matplotlib.axis_1">
    <g id="xtick_1">
     <g id="line2d_1">
      <path d="M 73.832727 307.584 
L 73.832727 41.472 
" clip-path="url(#pfdb57d12e0)" style="fill: none; stroke: #b0b0b0; stroke-width: 0.8; stroke-linecap: square"/>
     </g>
     <g id="line2d_2">
      <defs>
       <path id="m8fab1a6ef5" d="M 0 0 
L 0 3.5 
" style="stroke: #000000; stroke-width: 0.8"/>
      </defs>
      <g>
       <use xlink:href="#m8fab1a6ef5" x="73.832727" y="307.584" style="stroke: #000000; stroke-width: 0.8"/>
      </g>
     </g>
     <g id="text_1">
      <!-- 0.0 -->
      <g transform="translate(65.881165 322.182437) scale(0.1 -0.1)">
       <defs>
        <path id="DejaVuSans-30" d="M 2034 4250 
Q 1547 4250 1301 3770 
Q 1056 3291 1056 2328 
Q 1056 1369 1301 889 
Q 1547 409 2034 409 
Q 2525 409 2770 889 
Q 3016 1369 3016 2328 
Q 3016 3291 2770 3770 
Q 2525 4250 2034 4250 
z
M 2034 4750 
Q 2819 4750 3233 4129 
Q 3647 3509 3647 2328 
Q 3647 1150 3233 529 
Q 2819 -91 2034 -91 
Q 1250 -91 836 529 
Q 422 1150 422 2328 
Q 422 3509 836 4129 
Q 1250 4750 2034 4750 
z
" transform="scale(0.015625)"/>
        <path id="DejaVuSans-2e" d="M 684 794 
L 1344 794 
L 1344 0 
L 684 0 
L 684 794 
z
" transform="scale(0.015625)"/>
       </defs>
       <use xlink:href="#DejaVuSans-30"/>
       <use xlink:href="#DejaVuSans-2e" transform="translate(63.623047 0)"/>
       <use xlink:href="#DejaVuSans-30" transform="translate(95.410156 0)"/>
      </g>
     </g>
    </g>
    <g id="xtick_2">
     <g id="line2d_3">
      <path d="M 136.872445 307.584 
L 136.872445 41.472 
" clip-path="url(#pfdb57d12e0)" style="fill: none; stroke: #b0b0b0; stroke-width: 0.8; stroke-linecap: square"/>
     </g>
     <g id="line2d_4">
      <g>
       <use xlink:href="#m8fab1a6ef5" x="136.872445" y="307.584" style="stroke: #000000; stroke-width: 0.8"/>
      </g>
     </g>
     <g id="text_2">
      <!-- 0.2 -->
      <g transform="translate(128.920882 322.182437) scale(0.1 -0.1)">
       <defs>
        <path id="DejaVuSans-32" d="M 1228 531 
L 3431 531 
L 3431 0 
L 469 0 
L 469 531 
Q 828 903 1448 1529 
Q 2069 2156 2228 2338 
Q 2531 2678 2651 2914 
Q 2772 3150 2772 3378 
Q 2772 3750 2511 3984 
Q 2250 4219 1831 4219 
Q 1534 4219 1204 4116 
Q 875 4013 500 3803 
L 500 4441 
Q 881 4594 1212 4672 
Q 1544 4750 1819 4750 
Q 2544 4750 2975 4387 
Q 3406 4025 3406 3419 
Q 3406 3131 3298 2873 
Q 3191 2616 2906 2266 
Q 2828 2175 2409 1742 
Q 1991 1309 1228 531 
z
" transform="scale(0.015625)"/>
       </defs>
       <use xlink:href="#DejaVuSans-30"/>
       <use xlink:href="#DejaVuSans-2e" transform="translate(63.623047 0)"/>
       <use xlink:href="#DejaVuSans-32" transform="translate(95.410156 0)"/>
      </g>
     </g>
    </g>
    <g id="xtick_3">
     <g id="line2d_5">
      <path d="M 199.912162 307.584 
L 199.912162 41.472 
" clip-path="url(#pfdb57d12e0)" style="fill: none; stroke: #b0b0b0; stroke-width: 0.8; stroke-linecap: square"/>
     </g>
     <g id="line2d_6">
      <g>
       <use xlink:href="#m8fab1a6ef5" x="199.912162" y="307.584" style="stroke: #000000; stroke-width: 0.8"/>
      </g>
     </g>
     <g id="text_3">
      <!-- 0.4 -->
      <g transform="translate(191.9606 322.182437) scale(0.1 -0.1)">
       <defs>
        <path id="DejaVuSans-34" d="M 2419 4116 
L 825 1625 
L 2419 1625 
L 2419 4116 
z
M 2253 4666 
L 3047 4666 
L 3047 1625 
L 3713 1625 
L 3713 1100 
L 3047 1100 
L 3047 0 
L 2419 0 
L 2419 1100 
L 313 1100 
L 313 1709 
L 2253 4666 
z
" transform="scale(0.015625)"/>
       </defs>
       <use xlink:href="#DejaVuSans-30"/>
       <use xlink:href="#DejaVuSans-2e" transform="translate(63.623047 0)"/>
       <use xlink:href="#DejaVuSans-34" transform="translate(95.410156 0)"/>
      </g>
     </g>
    </g>
    <g id="xtick_4">
     <g id="line2d_7">
      <path d="M 262.95188 307.584 
L 262.95188 41.472 
" clip-path="url(#pfdb57d12e0)" style="fill: none; stroke: #b0b0b0; stroke-width: 0.8; stroke-linecap: square"/>
     </g>
     <g id="line2d_8">
      <g>
       <use xlink:href="#m8fab1a6ef5" x="262.95188" y="307.584" style="stroke: #000000; stroke-width: 0.8"/>
      </g>
     </g>
     <g id="text_4">
      <!-- 0.6 -->
      <g transform="translate(255.000317 322.182437) scale(0.1 -0.1)">
       <defs>
        <path id="DejaVuSans-36" d="M 2113 2584 
Q 1688 2584 1439 2293 
Q 1191 2003 1191 1497 
Q 1191 994 1439 701 
Q 1688 409 2113 409 
Q 2538 409 2786 701 
Q 3034 994 3034 1497 
Q 3034 2003 2786 2293 
Q 2538 2584 2113 2584 
z
M 3366 4563 
L 3366 3988 
Q 3128 4100 2886 4159 
Q 2644 4219 2406 4219 
Q 1781 4219 1451 3797 
Q 1122 3375 1075 2522 
Q 1259 2794 1537 2939 
Q 1816 3084 2150 3084 
Q 2853 3084 3261 2657 
Q 3669 2231 3669 1497 
Q 3669 778 3244 343 
Q 2819 -91 2113 -91 
Q 1303 -91 875 529 
Q 447 1150 447 2328 
Q 447 3434 972 4092 
Q 1497 4750 2381 4750 
Q 2619 4750 2861 4703 
Q 3103 4656 3366 4563 
z
" transform="scale(0.015625)"/>
       </defs>
       <use xlink:href="#DejaVuSans-30"/>
       <use xlink:href="#DejaVuSans-2e" transform="translate(63.623047 0)"/>
       <use xlink:href="#DejaVuSans-36" transform="translate(95.410156 0)"/>
      </g>
     </g>
    </g>
    <g id="xtick_5">
     <g id="line2d_9">
      <path d="M 325.991598 307.584 
L 325.991598 41.472 
" clip-path="url(#pfdb57d12e0)" style="fill: none; stroke: #b0b0b0; stroke-width: 0.8; stroke-linecap: square"/>
     </g>
     <g id="line2d_10">
      <g>
       <use xlink:href="#m8fab1a6ef5" x="325.991598" y="307.584" style="stroke: #000000; stroke-width: 0.8"/>
      </g>
     </g>
     <g id="text_5">
      <!-- 0.8 -->
      <g transform="translate(318.040035 322.182437) scale(0.1 -0.1)">
       <defs>
        <path id="DejaVuSans-38" d="M 2034 2216 
Q 1584 2216 1326 1975 
Q 1069 1734 1069 1313 
Q 1069 891 1326 650 
Q 1584 409 2034 409 
Q 2484 409 2743 651 
Q 3003 894 3003 1313 
Q 3003 1734 2745 1975 
Q 2488 2216 2034 2216 
z
M 1403 2484 
Q 997 2584 770 2862 
Q 544 3141 544 3541 
Q 544 4100 942 4425 
Q 1341 4750 2034 4750 
Q 2731 4750 3128 4425 
Q 3525 4100 3525 3541 
Q 3525 3141 3298 2862 
Q 3072 2584 2669 2484 
Q 3125 2378 3379 2068 
Q 3634 1759 3634 1313 
Q 3634 634 3220 271 
Q 2806 -91 2034 -91 
Q 1263 -91 848 271 
Q 434 634 434 1313 
Q 434 1759 690 2068 
Q 947 2378 1403 2484 
z
M 1172 3481 
Q 1172 3119 1398 2916 
Q 1625 2713 2034 2713 
Q 2441 2713 2670 2916 
Q 2900 3119 2900 3481 
Q 2900 3844 2670 4047 
Q 2441 4250 2034 4250 
Q 1625 4250 1398 4047 
Q 1172 3844 1172 3481 
z
" transform="scale(0.015625)"/>
       </defs>
       <use xlink:href="#DejaVuSans-30"/>
       <use xlink:href="#DejaVuSans-2e" transform="translate(63.623047 0)"/>
       <use xlink:href="#DejaVuSans-38" transform="translate(95.410156 0)"/>
      </g>
     </g>
    </g>
    <g id="xtick_6">
     <g id="line2d_11">
      <path d="M 389.031315 307.584 
L 389.031315 41.472 
" clip-path="url(#pfdb57d12e0)" style="fill: none; stroke: #b0b0b0; stroke-width: 0.8; stroke-linecap: square"/>
     </g>
     <g id="line2d_12">
      <g>
       <use xlink:href="#m8fab1a6ef5" x="389.031315" y="307.584" style="stroke: #000000; stroke-width: 0.8"/>
      </g>
     </g>
     <g id="text_6">
      <!-- 1.0 -->
      <g transform="translate(381.079753 322.182437) scale(0.1 -0.1)">
       <defs>
        <path id="DejaVuSans-31" d="M 794 531 
L 1825 531 
L 1825 4091 
L 703 3866 
L 703 4441 
L 1819 4666 
L 2450 4666 
L 2450 531 
L 3481 531 
L 3481 0 
L 794 0 
L 794 531 
z
" transform="scale(0.015625)"/>
       </defs>
       <use xlink:href="#DejaVuSans-31"/>
       <use xlink:href="#DejaVuSans-2e" transform="translate(63.623047 0)"/>
       <use xlink:href="#DejaVuSans-30" transform="translate(95.410156 0)"/>
      </g>
     </g>
    </g>
    <g id="text_7">
     <!-- $\frac{E}{B} \ \left[\frac{V}{T^2m^2}\right]$ -->
     <g transform="translate(218.87 337.382125) scale(0.095 -0.095)">
      <defs>
       <path id="DejaVuSans-Oblique-45" d="M 1081 4666 
L 4031 4666 
L 3928 4134 
L 1606 4134 
L 1338 2753 
L 3566 2753 
L 3463 2222 
L 1234 2222 
L 909 531 
L 3284 531 
L 3181 0 
L 172 0 
L 1081 4666 
z
" transform="scale(0.015625)"/>
       <path id="DejaVuSans-Oblique-42" d="M 1081 4666 
L 2694 4666 
Q 3350 4666 3675 4422 
Q 4000 4178 4000 3688 
Q 4000 3238 3720 2911 
Q 3441 2584 2988 2516 
Q 3375 2428 3569 2181 
Q 3763 1934 3763 1522 
Q 3763 819 3242 409 
Q 2722 0 1819 0 
L 172 0 
L 1081 4666 
z
M 1234 2228 
L 903 519 
L 1919 519 
Q 2491 519 2800 781 
Q 3109 1044 3109 1522 
Q 3109 1891 2904 2059 
Q 2700 2228 2247 2228 
L 1234 2228 
z
M 1606 4147 
L 1331 2741 
L 2272 2741 
Q 2775 2741 3058 2959 
Q 3341 3178 3341 3566 
Q 3341 3869 3150 4008 
Q 2959 4147 2541 4147 
L 1606 4147 
z
" transform="scale(0.015625)"/>
       <path id="STIXSizeTwoSym-Regular-5b" d="M 2701 -1786 
L 1216 -1786 
L 1216 10022 
L 2701 10022 
L 2701 9766 
L 1702 9766 
L 1702 -1530 
L 2701 -1530 
L 2701 -1786 
z
" transform="scale(0.015625)"/>
       <path id="DejaVuSans-Oblique-56" d="M 1319 0 
L 500 4666 
L 1119 4666 
L 1797 653 
L 4063 4666 
L 4750 4666 
L 2053 0 
L 1319 0 
z
" transform="scale(0.015625)"/>
       <path id="DejaVuSans-Oblique-54" d="M 378 4666 
L 4325 4666 
L 4225 4134 
L 2559 4134 
L 1759 0 
L 1125 0 
L 1925 4134 
L 275 4134 
L 378 4666 
z
" transform="scale(0.015625)"/>
       <path id="DejaVuSans-Oblique-6d" d="M 5747 2113 
L 5338 0 
L 4763 0 
L 5166 2094 
Q 5191 2228 5203 2325 
Q 5216 2422 5216 2491 
Q 5216 2772 5059 2928 
Q 4903 3084 4622 3084 
Q 4203 3084 3875 2770 
Q 3547 2456 3450 1953 
L 3066 0 
L 2491 0 
L 2900 2094 
Q 2925 2209 2937 2307 
Q 2950 2406 2950 2484 
Q 2950 2769 2794 2926 
Q 2638 3084 2363 3084 
Q 1938 3084 1609 2770 
Q 1281 2456 1184 1953 
L 800 0 
L 225 0 
L 909 3500 
L 1484 3500 
L 1375 2956 
Q 1609 3263 1923 3423 
Q 2238 3584 2597 3584 
Q 2978 3584 3223 3384 
Q 3469 3184 3519 2828 
Q 3781 3197 4126 3390 
Q 4472 3584 4856 3584 
Q 5306 3584 5551 3325 
Q 5797 3066 5797 2591 
Q 5797 2488 5784 2364 
Q 5772 2241 5747 2113 
z
" transform="scale(0.015625)"/>
       <path id="STIXSizeTwoSym-Regular-5d" d="M 1722 -1786 
L 237 -1786 
L 237 -1530 
L 1235 -1530 
L 1235 9766 
L 237 9766 
L 237 10022 
L 1722 10022 
L 1722 -1786 
z
" transform="scale(0.015625)"/>
      </defs>
      <use xlink:href="#DejaVuSans-Oblique-45" transform="translate(2 44.648438) scale(0.7)"/>
      <use xlink:href="#DejaVuSans-Oblique-42" transform="translate(0 -37.635938) scale(0.7)"/>
      <use xlink:href="#STIXSizeTwoSym-Regular-5b" transform="translate(92.992839 -27.71875) scale(0.788338)"/>
      <use xlink:href="#DejaVuSans-Oblique-56" transform="translate(198.196453 44.648438) scale(0.7)"/>
      <use xlink:href="#DejaVuSans-Oblique-54" transform="translate(129.196453 -49.765625) scale(0.7)"/>
      <use xlink:href="#DejaVuSans-32" transform="translate(176.866981 -22.96875) scale(0.49)"/>
      <use xlink:href="#DejaVuSans-Oblique-6d" transform="translate(209.956337 -49.765625) scale(0.7)"/>
      <use xlink:href="#DejaVuSans-32" transform="translate(281.39974 -22.96875) scale(0.49)"/>
      <use xlink:href="#STIXSizeTwoSym-Regular-5d" transform="translate(326.989096 -27.71875) scale(0.788338)"/>
      <path d="M 0 19.648438 
L 0 25.898438 
L 48.022461 25.898438 
L 48.022461 19.648438 
L 0 19.648438 
z
"/>
      <path d="M 129.196453 19.648438 
L 129.196453 25.898438 
L 314.489096 25.898438 
L 314.489096 19.648438 
L 129.196453 19.648438 
z
"/>
     </g>
    </g>
    <g id="text_8">
     <!-- 1e−8 -->
     <g transform="translate(387.462188 334.860562) scale(0.1 -0.1)">
      <defs>
       <path id="DejaVuSans-65" d="M 3597 1894 
L 3597 1613 
L 953 1613 
Q 991 1019 1311 708 
Q 1631 397 2203 397 
Q 2534 397 2845 478 
Q 3156 559 3463 722 
L 3463 178 
Q 3153 47 2828 -22 
Q 2503 -91 2169 -91 
Q 1331 -91 842 396 
Q 353 884 353 1716 
Q 353 2575 817 3079 
Q 1281 3584 2069 3584 
Q 2775 3584 3186 3129 
Q 3597 2675 3597 1894 
z
M 3022 2063 
Q 3016 2534 2758 2815 
Q 2500 3097 2075 3097 
Q 1594 3097 1305 2825 
Q 1016 2553 972 2059 
L 3022 2063 
z
" transform="scale(0.015625)"/>
       <path id="DejaVuSans-2212" d="M 678 2272 
L 4684 2272 
L 4684 1741 
L 678 1741 
L 678 2272 
z
" transform="scale(0.015625)"/>
      </defs>
      <use xlink:href="#DejaVuSans-31"/>
      <use xlink:href="#DejaVuSans-65" transform="translate(63.623047 0)"/>
      <use xlink:href="#DejaVuSans-2212" transform="translate(125.146484 0)"/>
      <use xlink:href="#DejaVuSans-38" transform="translate(208.935547 0)"/>
     </g>
    </g>
   </g>
   <g id="matplotlib.axis_2">
    <g id="ytick_1">
     <g id="line2d_13">
      <path d="M 57.6 255.41475 
L 414.72 255.41475 
" clip-path="url(#pfdb57d12e0)" style="fill: none; stroke: #b0b0b0; stroke-width: 0.8; stroke-linecap: square"/>
     </g>
     <g id="line2d_14">
      <defs>
       <path id="m28f94f1322" d="M 0 0 
L -3.5 0 
" style="stroke: #000000; stroke-width: 0.8"/>
      </defs>
      <g>
       <use xlink:href="#m28f94f1322" x="57.6" y="255.41475" style="stroke: #000000; stroke-width: 0.8"/>
      </g>
     </g>
     <g id="text_9">
      <!-- 1000 -->
      <g transform="translate(25.15 259.213969) scale(0.1 -0.1)">
       <use xlink:href="#DejaVuSans-31"/>
       <use xlink:href="#DejaVuSans-30" transform="translate(63.623047 0)"/>
       <use xlink:href="#DejaVuSans-30" transform="translate(127.246094 0)"/>
       <use xlink:href="#DejaVuSans-30" transform="translate(190.869141 0)"/>
      </g>
     </g>
    </g>
    <g id="ytick_2">
     <g id="line2d_15">
      <path d="M 57.6 200.754964 
L 414.72 200.754964 
" clip-path="url(#pfdb57d12e0)" style="fill: none; stroke: #b0b0b0; stroke-width: 0.8; stroke-linecap: square"/>
     </g>
     <g id="line2d_16">
      <g>
       <use xlink:href="#m28f94f1322" x="57.6" y="200.754964" style="stroke: #000000; stroke-width: 0.8"/>
      </g>
     </g>
     <g id="text_10">
      <!-- 2000 -->
      <g transform="translate(25.15 204.554183) scale(0.1 -0.1)">
       <use xlink:href="#DejaVuSans-32"/>
       <use xlink:href="#DejaVuSans-30" transform="translate(63.623047 0)"/>
       <use xlink:href="#DejaVuSans-30" transform="translate(127.246094 0)"/>
       <use xlink:href="#DejaVuSans-30" transform="translate(190.869141 0)"/>
      </g>
     </g>
    </g>
    <g id="ytick_3">
     <g id="line2d_17">
      <path d="M 57.6 146.095178 
L 414.72 146.095178 
" clip-path="url(#pfdb57d12e0)" style="fill: none; stroke: #b0b0b0; stroke-width: 0.8; stroke-linecap: square"/>
     </g>
     <g id="line2d_18">
      <g>
       <use xlink:href="#m28f94f1322" x="57.6" y="146.095178" style="stroke: #000000; stroke-width: 0.8"/>
      </g>
     </g>
     <g id="text_11">
      <!-- 3000 -->
      <g transform="translate(25.15 149.894397) scale(0.1 -0.1)">
       <defs>
        <path id="DejaVuSans-33" d="M 2597 2516 
Q 3050 2419 3304 2112 
Q 3559 1806 3559 1356 
Q 3559 666 3084 287 
Q 2609 -91 1734 -91 
Q 1441 -91 1130 -33 
Q 819 25 488 141 
L 488 750 
Q 750 597 1062 519 
Q 1375 441 1716 441 
Q 2309 441 2620 675 
Q 2931 909 2931 1356 
Q 2931 1769 2642 2001 
Q 2353 2234 1838 2234 
L 1294 2234 
L 1294 2753 
L 1863 2753 
Q 2328 2753 2575 2939 
Q 2822 3125 2822 3475 
Q 2822 3834 2567 4026 
Q 2313 4219 1838 4219 
Q 1578 4219 1281 4162 
Q 984 4106 628 3988 
L 628 4550 
Q 988 4650 1302 4700 
Q 1616 4750 1894 4750 
Q 2613 4750 3031 4423 
Q 3450 4097 3450 3541 
Q 3450 3153 3228 2886 
Q 3006 2619 2597 2516 
z
" transform="scale(0.015625)"/>
       </defs>
       <use xlink:href="#DejaVuSans-33"/>
       <use xlink:href="#DejaVuSans-30" transform="translate(63.623047 0)"/>
       <use xlink:href="#DejaVuSans-30" transform="translate(127.246094 0)"/>
       <use xlink:href="#DejaVuSans-30" transform="translate(190.869141 0)"/>
      </g>
     </g>
    </g>
    <g id="ytick_4">
     <g id="line2d_19">
      <path d="M 57.6 91.435392 
L 414.72 91.435392 
" clip-path="url(#pfdb57d12e0)" style="fill: none; stroke: #b0b0b0; stroke-width: 0.8; stroke-linecap: square"/>
     </g>
     <g id="line2d_20">
      <g>
       <use xlink:href="#m28f94f1322" x="57.6" y="91.435392" style="stroke: #000000; stroke-width: 0.8"/>
      </g>
     </g>
     <g id="text_12">
      <!-- 4000 -->
      <g transform="translate(25.15 95.234611) scale(0.1 -0.1)">
       <use xlink:href="#DejaVuSans-34"/>
       <use xlink:href="#DejaVuSans-30" transform="translate(63.623047 0)"/>
       <use xlink:href="#DejaVuSans-30" transform="translate(127.246094 0)"/>
       <use xlink:href="#DejaVuSans-30" transform="translate(190.869141 0)"/>
      </g>
     </g>
    </g>
    <g id="text_13">
     <!-- $2 U_a\ [V]$ -->
     <g transform="translate(18.654375 196.248) rotate(-90) scale(0.12 -0.12)">
      <defs>
       <path id="DejaVuSans-Oblique-55" d="M 991 4666 
L 1625 4666 
L 1075 1831 
Q 1041 1641 1027 1517 
Q 1013 1394 1013 1300 
Q 1013 869 1253 645 
Q 1494 422 1959 422 
Q 2563 422 2898 753 
Q 3234 1084 3378 1831 
L 3928 4666 
L 4563 4666 
L 4000 1753 
Q 3816 809 3300 359 
Q 2784 -91 1888 -91 
Q 1188 -91 780 261 
Q 372 613 372 1216 
Q 372 1325 387 1461 
Q 403 1597 434 1753 
L 991 4666 
z
" transform="scale(0.015625)"/>
       <path id="DejaVuSans-Oblique-61" d="M 3438 1997 
L 3047 0 
L 2472 0 
L 2578 531 
Q 2325 219 2001 64 
Q 1678 -91 1281 -91 
Q 834 -91 548 182 
Q 263 456 263 884 
Q 263 1497 752 1853 
Q 1241 2209 2100 2209 
L 2900 2209 
L 2931 2363 
Q 2938 2388 2941 2417 
Q 2944 2447 2944 2509 
Q 2944 2788 2717 2942 
Q 2491 3097 2081 3097 
Q 1800 3097 1504 3025 
Q 1209 2953 897 2809 
L 997 3341 
Q 1322 3463 1633 3523 
Q 1944 3584 2234 3584 
Q 2853 3584 3176 3315 
Q 3500 3047 3500 2534 
Q 3500 2431 3484 2292 
Q 3469 2153 3438 1997 
z
M 2816 1759 
L 2241 1759 
Q 1534 1759 1195 1570 
Q 856 1381 856 984 
Q 856 709 1029 553 
Q 1203 397 1509 397 
Q 1978 397 2328 733 
Q 2678 1069 2791 1631 
L 2816 1759 
z
" transform="scale(0.015625)"/>
       <path id="DejaVuSans-5b" d="M 550 4863 
L 1875 4863 
L 1875 4416 
L 1125 4416 
L 1125 -397 
L 1875 -397 
L 1875 -844 
L 550 -844 
L 550 4863 
z
" transform="scale(0.015625)"/>
       <path id="DejaVuSans-5d" d="M 1947 4863 
L 1947 -844 
L 622 -844 
L 622 -397 
L 1369 -397 
L 1369 4416 
L 622 4416 
L 622 4863 
L 1947 4863 
z
" transform="scale(0.015625)"/>
      </defs>
      <use xlink:href="#DejaVuSans-32" transform="translate(0 0.015625)"/>
      <use xlink:href="#DejaVuSans-Oblique-55" transform="translate(63.623047 0.015625)"/>
      <use xlink:href="#DejaVuSans-Oblique-61" transform="translate(136.816406 -16.390625) scale(0.7)"/>
      <use xlink:href="#DejaVuSans-5b" transform="translate(214.916667 0.015625)"/>
      <use xlink:href="#DejaVuSans-Oblique-56" transform="translate(253.930339 0.015625)"/>
      <use xlink:href="#DejaVuSans-5d" transform="translate(322.338542 0.015625)"/>
     </g>
    </g>
   </g>
   <g id="LineCollection_1">
    <path d="M 202.244632 268.348652 
L 210.187636 268.348652 
" clip-path="url(#pfdb57d12e0)" style="fill: none; stroke: #808080; stroke-width: 1.5"/>
    <path d="M 336.771389 246.992628 
L 353.035636 246.992628 
" clip-path="url(#pfdb57d12e0)" style="fill: none; stroke: #808080; stroke-width: 1.5"/>
    <path d="M 312.311979 252.025903 
L 327.063273 252.025903 
" clip-path="url(#pfdb57d12e0)" style="fill: none; stroke: #808080; stroke-width: 1.5"/>
    <path d="M 318.426831 258.561099 
L 333.556364 258.561099 
" clip-path="url(#pfdb57d12e0)" style="fill: none; stroke: #808080; stroke-width: 1.5"/>
    <path d="M 379.575357 244.307196 
L 398.487273 244.307196 
" clip-path="url(#pfdb57d12e0)" style="fill: none; stroke: #808080; stroke-width: 1.5"/>
    <path d="M 379.575357 235.463284 
L 398.487273 235.463284 
" clip-path="url(#pfdb57d12e0)" style="fill: none; stroke: #808080; stroke-width: 1.5"/>
    <path d="M 257.278305 269.90045 
L 268.625455 269.90045 
" clip-path="url(#pfdb57d12e0)" style="fill: none; stroke: #808080; stroke-width: 1.5"/>
    <path d="M 379.575357 247.622655 
L 398.487273 247.622655 
" clip-path="url(#pfdb57d12e0)" style="fill: none; stroke: #808080; stroke-width: 1.5"/>
    <path d="M 379.575357 134.10999 
L 398.487273 134.10999 
" clip-path="url(#pfdb57d12e0)" style="fill: none; stroke: #808080; stroke-width: 1.5"/>
    <path d="M 342.886242 232.086677 
L 359.528727 232.086677 
" clip-path="url(#pfdb57d12e0)" style="fill: none; stroke: #808080; stroke-width: 1.5"/>
   </g>
   <g id="LineCollection_2">
    <path d="M 206.216134 283.184414 
L 206.216134 253.51289 
" clip-path="url(#pfdb57d12e0)" style="fill: none; stroke: #808080; stroke-width: 1.5"/>
    <path d="M 344.903513 264.837619 
L 344.903513 229.147637 
" clip-path="url(#pfdb57d12e0)" style="fill: none; stroke: #808080; stroke-width: 1.5"/>
    <path d="M 319.687626 268.286423 
L 319.687626 235.765384 
" clip-path="url(#pfdb57d12e0)" style="fill: none; stroke: #808080; stroke-width: 1.5"/>
    <path d="M 325.991598 272.958259 
L 325.991598 244.163939 
" clip-path="url(#pfdb57d12e0)" style="fill: none; stroke: #808080; stroke-width: 1.5"/>
    <path d="M 389.031315 262.626839 
L 389.031315 225.987552 
" clip-path="url(#pfdb57d12e0)" style="fill: none; stroke: #808080; stroke-width: 1.5"/>
    <path d="M 389.031315 256.178977 
L 389.031315 214.747592 
" clip-path="url(#pfdb57d12e0)" style="fill: none; stroke: #808080; stroke-width: 1.5"/>
    <path d="M 262.95188 281.023561 
L 262.95188 258.777339 
" clip-path="url(#pfdb57d12e0)" style="fill: none; stroke: #808080; stroke-width: 1.5"/>
    <path d="M 389.031315 264.878244 
L 389.031315 230.367067 
" clip-path="url(#pfdb57d12e0)" style="fill: none; stroke: #808080; stroke-width: 1.5"/>
    <path d="M 389.031315 214.65198 
L 389.031315 53.568 
" clip-path="url(#pfdb57d12e0)" style="fill: none; stroke: #808080; stroke-width: 1.5"/>
    <path d="M 351.207485 254.296098 
L 351.207485 209.877257 
" clip-path="url(#pfdb57d12e0)" style="fill: none; stroke: #808080; stroke-width: 1.5"/>
   </g>
   <g id="line2d_21">
    <defs>
     <path id="m8315713e23" d="M 0 3 
L 0 -3 
" style="stroke: #808080"/>
    </defs>
    <g clip-path="url(#pfdb57d12e0)">
     <use xlink:href="#m8315713e23" x="202.244632" y="268.348652" style="fill: #808080; stroke: #808080"/>
     <use xlink:href="#m8315713e23" x="336.771389" y="246.992628" style="fill: #808080; stroke: #808080"/>
     <use xlink:href="#m8315713e23" x="312.311979" y="252.025903" style="fill: #808080; stroke: #808080"/>
     <use xlink:href="#m8315713e23" x="318.426831" y="258.561099" style="fill: #808080; stroke: #808080"/>
     <use xlink:href="#m8315713e23" x="379.575357" y="244.307196" style="fill: #808080; stroke: #808080"/>
     <use xlink:href="#m8315713e23" x="379.575357" y="235.463284" style="fill: #808080; stroke: #808080"/>
     <use xlink:href="#m8315713e23" x="257.278305" y="269.90045" style="fill: #808080; stroke: #808080"/>
     <use xlink:href="#m8315713e23" x="379.575357" y="247.622655" style="fill: #808080; stroke: #808080"/>
     <use xlink:href="#m8315713e23" x="379.575357" y="134.10999" style="fill: #808080; stroke: #808080"/>
     <use xlink:href="#m8315713e23" x="342.886242" y="232.086677" style="fill: #808080; stroke: #808080"/>
    </g>
   </g>
   <g id="line2d_22">
    <g clip-path="url(#pfdb57d12e0)">
     <use xlink:href="#m8315713e23" x="210.187636" y="268.348652" style="fill: #808080; stroke: #808080"/>
     <use xlink:href="#m8315713e23" x="353.035636" y="246.992628" style="fill: #808080; stroke: #808080"/>
     <use xlink:href="#m8315713e23" x="327.063273" y="252.025903" style="fill: #808080; stroke: #808080"/>
     <use xlink:href="#m8315713e23" x="333.556364" y="258.561099" style="fill: #808080; stroke: #808080"/>
     <use xlink:href="#m8315713e23" x="398.487273" y="244.307196" style="fill: #808080; stroke: #808080"/>
     <use xlink:href="#m8315713e23" x="398.487273" y="235.463284" style="fill: #808080; stroke: #808080"/>
     <use xlink:href="#m8315713e23" x="268.625455" y="269.90045" style="fill: #808080; stroke: #808080"/>
     <use xlink:href="#m8315713e23" x="398.487273" y="247.622655" style="fill: #808080; stroke: #808080"/>
     <use xlink:href="#m8315713e23" x="398.487273" y="134.10999" style="fill: #808080; stroke: #808080"/>
     <use xlink:href="#m8315713e23" x="359.528727" y="232.086677" style="fill: #808080; stroke: #808080"/>
    </g>
   </g>
   <g id="line2d_23">
    <defs>
     <path id="m76459aa6ed" d="M 3 0 
L -3 -0 
" style="stroke: #808080"/>
    </defs>
    <g clip-path="url(#pfdb57d12e0)">
     <use xlink:href="#m76459aa6ed" x="206.216134" y="283.184414" style="fill: #808080; stroke: #808080"/>
     <use xlink:href="#m76459aa6ed" x="344.903513" y="264.837619" style="fill: #808080; stroke: #808080"/>
     <use xlink:href="#m76459aa6ed" x="319.687626" y="268.286423" style="fill: #808080; stroke: #808080"/>
     <use xlink:href="#m76459aa6ed" x="325.991598" y="272.958259" style="fill: #808080; stroke: #808080"/>
     <use xlink:href="#m76459aa6ed" x="389.031315" y="262.626839" style="fill: #808080; stroke: #808080"/>
     <use xlink:href="#m76459aa6ed" x="389.031315" y="256.178977" style="fill: #808080; stroke: #808080"/>
     <use xlink:href="#m76459aa6ed" x="262.95188" y="281.023561" style="fill: #808080; stroke: #808080"/>
     <use xlink:href="#m76459aa6ed" x="389.031315" y="264.878244" style="fill: #808080; stroke: #808080"/>
     <use xlink:href="#m76459aa6ed" x="389.031315" y="214.65198" style="fill: #808080; stroke: #808080"/>
     <use xlink:href="#m76459aa6ed" x="351.207485" y="254.296098" style="fill: #808080; stroke: #808080"/>
    </g>
   </g>
   <g id="line2d_24">
    <g clip-path="url(#pfdb57d12e0)">
     <use xlink:href="#m76459aa6ed" x="206.216134" y="253.51289" style="fill: #808080; stroke: #808080"/>
     <use xlink:href="#m76459aa6ed" x="344.903513" y="229.147637" style="fill: #808080; stroke: #808080"/>
     <use xlink:href="#m76459aa6ed" x="319.687626" y="235.765384" style="fill: #808080; stroke: #808080"/>
     <use xlink:href="#m76459aa6ed" x="325.991598" y="244.163939" style="fill: #808080; stroke: #808080"/>
     <use xlink:href="#m76459aa6ed" x="389.031315" y="225.987552" style="fill: #808080; stroke: #808080"/>
     <use xlink:href="#m76459aa6ed" x="389.031315" y="214.747592" style="fill: #808080; stroke: #808080"/>
     <use xlink:href="#m76459aa6ed" x="262.95188" y="258.777339" style="fill: #808080; stroke: #808080"/>
     <use xlink:href="#m76459aa6ed" x="389.031315" y="230.367067" style="fill: #808080; stroke: #808080"/>
     <use xlink:href="#m76459aa6ed" x="389.031315" y="53.568" style="fill: #808080; stroke: #808080"/>
     <use xlink:href="#m76459aa6ed" x="351.207485" y="209.877257" style="fill: #808080; stroke: #808080"/>
    </g>
   </g>
   <g id="line2d_25">
    <path d="M 73.832727 295.488 
L 77.016551 294.931917 
L 80.200376 294.375833 
L 83.3842 293.81975 
L 86.568024 293.263667 
L 89.751848 292.707584 
L 92.935672 292.1515 
L 96.119496 291.595417 
L 99.30332 291.039334 
L 102.487144 290.483251 
L 105.670968 289.927167 
L 108.854793 289.371084 
L 112.038617 288.815001 
L 115.222441 288.258918 
L 118.406265 287.702834 
L 121.590089 287.146751 
L 124.773913 286.590668 
L 127.957737 286.034585 
L 131.141561 285.478501 
L 134.325386 284.922418 
L 137.50921 284.366335 
L 140.693034 283.810252 
L 143.876858 283.254168 
L 147.060682 282.698085 
L 150.244506 282.142002 
L 153.42833 281.585919 
L 156.612154 281.029835 
L 159.795978 280.473752 
L 162.979803 279.917669 
L 166.163627 279.361586 
L 169.347451 278.805502 
L 172.531275 278.249419 
L 175.715099 277.693336 
L 178.898923 277.137253 
L 182.082747 276.581169 
L 185.266571 276.025086 
L 188.450396 275.469003 
L 191.63422 274.91292 
L 194.818044 274.356836 
L 198.001868 273.800753 
L 201.185692 273.24467 
L 204.369516 272.688587 
L 207.55334 272.132503 
L 210.737164 271.57642 
L 213.920989 271.020337 
L 217.104813 270.464254 
L 220.288637 269.90817 
L 223.472461 269.352087 
L 226.656285 268.796004 
L 229.840109 268.239921 
L 233.023933 267.683837 
L 236.207757 267.127754 
L 239.391581 266.571671 
L 242.575406 266.015588 
L 245.75923 265.459504 
L 248.943054 264.903421 
L 252.126878 264.347338 
L 255.310702 263.791255 
L 258.494526 263.235171 
L 261.67835 262.679088 
L 264.862174 262.123005 
L 268.045999 261.566922 
L 271.229823 261.010838 
L 274.413647 260.454755 
L 277.597471 259.898672 
L 280.781295 259.342589 
L 283.965119 258.786505 
L 287.148943 258.230422 
L 290.332767 257.674339 
L 293.516592 257.118256 
L 296.700416 256.562172 
L 299.88424 256.006089 
L 303.068064 255.450006 
L 306.251888 254.893923 
L 309.435712 254.337839 
L 312.619536 253.781756 
L 315.80336 253.225673 
L 318.987184 252.66959 
L 322.171009 252.113506 
L 325.354833 251.557423 
L 328.538657 251.00134 
L 331.722481 250.445257 
L 334.906305 249.889173 
L 338.090129 249.33309 
L 341.273953 248.777007 
L 344.457777 248.220924 
L 347.641602 247.66484 
L 350.825426 247.108757 
L 354.00925 246.552674 
L 357.193074 245.996591 
L 360.376898 245.440507 
L 363.560722 244.884424 
L 366.744546 244.328341 
L 369.92837 243.772258 
L 373.112194 243.216174 
L 376.296019 242.660091 
L 379.479843 242.104008 
L 382.663667 241.547925 
L 385.847491 240.991841 
L 389.031315 240.435758 
" clip-path="url(#pfdb57d12e0)" style="fill: none; stroke: #ff0000; stroke-width: 1.5; stroke-linecap: square"/>
   </g>
   <g id="line2d_26">
    <defs>
     <path id="m204f423e90" d="M 0 3 
C 0.795609 3 1.55874 2.683901 2.12132 2.12132 
C 2.683901 1.55874 3 0.795609 3 0 
C 3 -0.795609 2.683901 -1.55874 2.12132 -2.12132 
C 1.55874 -2.683901 0.795609 -3 0 -3 
C -0.795609 -3 -1.55874 -2.683901 -2.12132 -2.12132 
C -2.683901 -1.55874 -3 -0.795609 -3 0 
C -3 0.795609 -2.683901 1.55874 -2.12132 2.12132 
C -1.55874 2.683901 -0.795609 3 0 3 
z
" style="stroke: #1f77b4"/>
    </defs>
    <g clip-path="url(#pfdb57d12e0)">
     <use xlink:href="#m204f423e90" x="206.216134" y="268.348652" style="fill: #1f77b4; stroke: #1f77b4"/>
     <use xlink:href="#m204f423e90" x="344.903513" y="246.992628" style="fill: #1f77b4; stroke: #1f77b4"/>
     <use xlink:href="#m204f423e90" x="319.687626" y="252.025903" style="fill: #1f77b4; stroke: #1f77b4"/>
     <use xlink:href="#m204f423e90" x="325.991598" y="258.561099" style="fill: #1f77b4; stroke: #1f77b4"/>
     <use xlink:href="#m204f423e90" x="389.031315" y="244.307196" style="fill: #1f77b4; stroke: #1f77b4"/>
     <use xlink:href="#m204f423e90" x="389.031315" y="235.463284" style="fill: #1f77b4; stroke: #1f77b4"/>
     <use xlink:href="#m204f423e90" x="262.95188" y="269.90045" style="fill: #1f77b4; stroke: #1f77b4"/>
     <use xlink:href="#m204f423e90" x="389.031315" y="247.622655" style="fill: #1f77b4; stroke: #1f77b4"/>
     <use xlink:href="#m204f423e90" x="389.031315" y="134.10999" style="fill: #1f77b4; stroke: #1f77b4"/>
     <use xlink:href="#m204f423e90" x="351.207485" y="232.086677" style="fill: #1f77b4; stroke: #1f77b4"/>
    </g>
   </g>
   <g id="patch_3">
    <path d="M 57.6 307.584 
L 57.6 41.472 
" style="fill: none; stroke: #000000; stroke-width: 0.8; stroke-linejoin: miter; stroke-linecap: square"/>
   </g>
   <g id="patch_4">
    <path d="M 414.72 307.584 
L 414.72 41.472 
" style="fill: none; stroke: #000000; stroke-width: 0.8; stroke-linejoin: miter; stroke-linecap: square"/>
   </g>
   <g id="patch_5">
    <path d="M 57.6 307.584 
L 414.72 307.584 
" style="fill: none; stroke: #000000; stroke-width: 0.8; stroke-linejoin: miter; stroke-linecap: square"/>
   </g>
   <g id="patch_6">
    <path d="M 57.6 41.472 
L 414.72 41.472 
" style="fill: none; stroke: #000000; stroke-width: 0.8; stroke-linejoin: miter; stroke-linecap: square"/>
   </g>
   <g id="legend_1">
    <g id="patch_7">
     <path d="M 64.6 82.550125 
L 256.5 82.550125 
Q 258.5 82.550125 258.5 80.550125 
L 258.5 48.472 
Q 258.5 46.472 256.5 46.472 
L 64.6 46.472 
Q 62.6 46.472 62.6 48.472 
L 62.6 80.550125 
Q 62.6 82.550125 64.6 82.550125 
z
" style="fill: #ffffff; opacity: 0.8; stroke: #cccccc; stroke-linejoin: miter"/>
    </g>
    <g id="line2d_27">
     <path d="M 66.6 56.472 
L 76.6 56.472 
L 86.6 56.472 
" style="fill: none; stroke: #ff0000; stroke-width: 1.5; stroke-linecap: square"/>
    </g>
    <g id="text_14">
     <!-- $2 U_a = 1.007 \cdot 10^{11} \frac{E}{B} + 2.669 \cdot 10^{2}$ -->
     <g transform="translate(94.6 59.972) scale(0.1 -0.1)">
      <defs>
       <path id="DejaVuSans-3d" d="M 678 2906 
L 4684 2906 
L 4684 2381 
L 678 2381 
L 678 2906 
z
M 678 1631 
L 4684 1631 
L 4684 1100 
L 678 1100 
L 678 1631 
z
" transform="scale(0.015625)"/>
       <path id="DejaVuSans-37" d="M 525 4666 
L 3525 4666 
L 3525 4397 
L 1831 0 
L 1172 0 
L 2766 4134 
L 525 4134 
L 525 4666 
z
" transform="scale(0.015625)"/>
       <path id="DejaVuSans-22c5" d="M 684 2619 
L 1344 2619 
L 1344 1825 
L 684 1825 
L 684 2619 
z
" transform="scale(0.015625)"/>
       <path id="DejaVuSans-2b" d="M 2944 4013 
L 2944 2272 
L 4684 2272 
L 4684 1741 
L 2944 1741 
L 2944 0 
L 2419 0 
L 2419 1741 
L 678 1741 
L 678 2272 
L 2419 2272 
L 2419 4013 
L 2944 4013 
z
" transform="scale(0.015625)"/>
       <path id="DejaVuSans-39" d="M 703 97 
L 703 672 
Q 941 559 1184 500 
Q 1428 441 1663 441 
Q 2288 441 2617 861 
Q 2947 1281 2994 2138 
Q 2813 1869 2534 1725 
Q 2256 1581 1919 1581 
Q 1219 1581 811 2004 
Q 403 2428 403 3163 
Q 403 3881 828 4315 
Q 1253 4750 1959 4750 
Q 2769 4750 3195 4129 
Q 3622 3509 3622 2328 
Q 3622 1225 3098 567 
Q 2575 -91 1691 -91 
Q 1453 -91 1209 -44 
Q 966 3 703 97 
z
M 1959 2075 
Q 2384 2075 2632 2365 
Q 2881 2656 2881 3163 
Q 2881 3666 2632 3958 
Q 2384 4250 1959 4250 
Q 1534 4250 1286 3958 
Q 1038 3666 1038 3163 
Q 1038 2656 1286 2365 
Q 1534 2075 1959 2075 
z
" transform="scale(0.015625)"/>
      </defs>
      <use xlink:href="#DejaVuSans-32" transform="translate(0 0.16875)"/>
      <use xlink:href="#DejaVuSans-Oblique-55" transform="translate(63.623047 0.16875)"/>
      <use xlink:href="#DejaVuSans-Oblique-61" transform="translate(136.816406 -16.2375) scale(0.7)"/>
      <use xlink:href="#DejaVuSans-3d" transform="translate(201.928711 0.16875)"/>
      <use xlink:href="#DejaVuSans-31" transform="translate(305.200195 0.16875)"/>
      <use xlink:href="#DejaVuSans-2e" transform="translate(368.823242 0.16875)"/>
      <use xlink:href="#DejaVuSans-30" transform="translate(400.610352 0.16875)"/>
      <use xlink:href="#DejaVuSans-30" transform="translate(464.233398 0.16875)"/>
      <use xlink:href="#DejaVuSans-37" transform="translate(527.856445 0.16875)"/>
      <use xlink:href="#DejaVuSans-22c5" transform="translate(610.961914 0.16875)"/>
      <use xlink:href="#DejaVuSans-31" transform="translate(662.231445 0.16875)"/>
      <use xlink:href="#DejaVuSans-30" transform="translate(725.854492 0.16875)"/>
      <use xlink:href="#DejaVuSans-31" transform="translate(790.43457 38.45) scale(0.7)"/>
      <use xlink:href="#DejaVuSans-31" transform="translate(834.970703 38.45) scale(0.7)"/>
      <use xlink:href="#DejaVuSans-Oblique-45" transform="translate(884.241211 43.965625) scale(0.7)"/>
      <use xlink:href="#DejaVuSans-Oblique-42" transform="translate(882.241211 -38.31875) scale(0.7)"/>
      <use xlink:href="#DejaVuSans-2b" transform="translate(962.246094 0.16875)"/>
      <use xlink:href="#DejaVuSans-32" transform="translate(1065.517578 0.16875)"/>
      <use xlink:href="#DejaVuSans-2e" transform="translate(1129.140625 0.16875)"/>
      <use xlink:href="#DejaVuSans-36" transform="translate(1160.927734 0.16875)"/>
      <use xlink:href="#DejaVuSans-36" transform="translate(1224.550781 0.16875)"/>
      <use xlink:href="#DejaVuSans-39" transform="translate(1288.173828 0.16875)"/>
      <use xlink:href="#DejaVuSans-22c5" transform="translate(1371.279297 0.16875)"/>
      <use xlink:href="#DejaVuSans-31" transform="translate(1422.548828 0.16875)"/>
      <use xlink:href="#DejaVuSans-30" transform="translate(1486.171875 0.16875)"/>
      <use xlink:href="#DejaVuSans-32" transform="translate(1550.751953 38.45) scale(0.7)"/>
      <path d="M 882.241211 18.965625 
L 882.241211 25.215625 
L 930.263672 25.215625 
L 930.263672 18.965625 
L 882.241211 18.965625 
z
"/>
     </g>
    </g>
    <g id="LineCollection_3">
     <path d="M 71.6 72.970438 
L 81.6 72.970438 
" style="fill: none; stroke: #808080; stroke-width: 1.5"/>
    </g>
    <g id="LineCollection_4">
     <path d="M 76.6 77.970438 
L 76.6 67.970438 
" style="fill: none; stroke: #808080; stroke-width: 1.5"/>
    </g>
    <g id="line2d_28">
     <g>
      <use xlink:href="#m8315713e23" x="71.6" y="72.970438" style="fill: #808080; stroke: #808080"/>
     </g>
    </g>
    <g id="line2d_29">
     <g>
      <use xlink:href="#m8315713e23" x="81.6" y="72.970438" style="fill: #808080; stroke: #808080"/>
     </g>
    </g>
    <g id="line2d_30">
     <g>
      <use xlink:href="#m76459aa6ed" x="76.6" y="77.970438" style="fill: #808080; stroke: #808080"/>
     </g>
    </g>
    <g id="line2d_31">
     <g>
      <use xlink:href="#m76459aa6ed" x="76.6" y="67.970438" style="fill: #808080; stroke: #808080"/>
     </g>
    </g>
    <g id="line2d_32"/>
    <g id="line2d_33">
     <g>
      <use xlink:href="#m204f423e90" x="76.6" y="72.970438" style="fill: #1f77b4; stroke: #1f77b4"/>
     </g>
    </g>
    <g id="text_15">
     <!-- Measurements -->
     <g transform="translate(94.6 76.470438) scale(0.1 -0.1)">
      <defs>
       <path id="DejaVuSans-4d" d="M 628 4666 
L 1569 4666 
L 2759 1491 
L 3956 4666 
L 4897 4666 
L 4897 0 
L 4281 0 
L 4281 4097 
L 3078 897 
L 2444 897 
L 1241 4097 
L 1241 0 
L 628 0 
L 628 4666 
z
" transform="scale(0.015625)"/>
       <path id="DejaVuSans-61" d="M 2194 1759 
Q 1497 1759 1228 1600 
Q 959 1441 959 1056 
Q 959 750 1161 570 
Q 1363 391 1709 391 
Q 2188 391 2477 730 
Q 2766 1069 2766 1631 
L 2766 1759 
L 2194 1759 
z
M 3341 1997 
L 3341 0 
L 2766 0 
L 2766 531 
Q 2569 213 2275 61 
Q 1981 -91 1556 -91 
Q 1019 -91 701 211 
Q 384 513 384 1019 
Q 384 1609 779 1909 
Q 1175 2209 1959 2209 
L 2766 2209 
L 2766 2266 
Q 2766 2663 2505 2880 
Q 2244 3097 1772 3097 
Q 1472 3097 1187 3025 
Q 903 2953 641 2809 
L 641 3341 
Q 956 3463 1253 3523 
Q 1550 3584 1831 3584 
Q 2591 3584 2966 3190 
Q 3341 2797 3341 1997 
z
" transform="scale(0.015625)"/>
       <path id="DejaVuSans-73" d="M 2834 3397 
L 2834 2853 
Q 2591 2978 2328 3040 
Q 2066 3103 1784 3103 
Q 1356 3103 1142 2972 
Q 928 2841 928 2578 
Q 928 2378 1081 2264 
Q 1234 2150 1697 2047 
L 1894 2003 
Q 2506 1872 2764 1633 
Q 3022 1394 3022 966 
Q 3022 478 2636 193 
Q 2250 -91 1575 -91 
Q 1294 -91 989 -36 
Q 684 19 347 128 
L 347 722 
Q 666 556 975 473 
Q 1284 391 1588 391 
Q 1994 391 2212 530 
Q 2431 669 2431 922 
Q 2431 1156 2273 1281 
Q 2116 1406 1581 1522 
L 1381 1569 
Q 847 1681 609 1914 
Q 372 2147 372 2553 
Q 372 3047 722 3315 
Q 1072 3584 1716 3584 
Q 2034 3584 2315 3537 
Q 2597 3491 2834 3397 
z
" transform="scale(0.015625)"/>
       <path id="DejaVuSans-75" d="M 544 1381 
L 544 3500 
L 1119 3500 
L 1119 1403 
Q 1119 906 1312 657 
Q 1506 409 1894 409 
Q 2359 409 2629 706 
Q 2900 1003 2900 1516 
L 2900 3500 
L 3475 3500 
L 3475 0 
L 2900 0 
L 2900 538 
Q 2691 219 2414 64 
Q 2138 -91 1772 -91 
Q 1169 -91 856 284 
Q 544 659 544 1381 
z
M 1991 3584 
L 1991 3584 
z
" transform="scale(0.015625)"/>
       <path id="DejaVuSans-72" d="M 2631 2963 
Q 2534 3019 2420 3045 
Q 2306 3072 2169 3072 
Q 1681 3072 1420 2755 
Q 1159 2438 1159 1844 
L 1159 0 
L 581 0 
L 581 3500 
L 1159 3500 
L 1159 2956 
Q 1341 3275 1631 3429 
Q 1922 3584 2338 3584 
Q 2397 3584 2469 3576 
Q 2541 3569 2628 3553 
L 2631 2963 
z
" transform="scale(0.015625)"/>
       <path id="DejaVuSans-6d" d="M 3328 2828 
Q 3544 3216 3844 3400 
Q 4144 3584 4550 3584 
Q 5097 3584 5394 3201 
Q 5691 2819 5691 2113 
L 5691 0 
L 5113 0 
L 5113 2094 
Q 5113 2597 4934 2840 
Q 4756 3084 4391 3084 
Q 3944 3084 3684 2787 
Q 3425 2491 3425 1978 
L 3425 0 
L 2847 0 
L 2847 2094 
Q 2847 2600 2669 2842 
Q 2491 3084 2119 3084 
Q 1678 3084 1418 2786 
Q 1159 2488 1159 1978 
L 1159 0 
L 581 0 
L 581 3500 
L 1159 3500 
L 1159 2956 
Q 1356 3278 1631 3431 
Q 1906 3584 2284 3584 
Q 2666 3584 2933 3390 
Q 3200 3197 3328 2828 
z
" transform="scale(0.015625)"/>
       <path id="DejaVuSans-6e" d="M 3513 2113 
L 3513 0 
L 2938 0 
L 2938 2094 
Q 2938 2591 2744 2837 
Q 2550 3084 2163 3084 
Q 1697 3084 1428 2787 
Q 1159 2491 1159 1978 
L 1159 0 
L 581 0 
L 581 3500 
L 1159 3500 
L 1159 2956 
Q 1366 3272 1645 3428 
Q 1925 3584 2291 3584 
Q 2894 3584 3203 3211 
Q 3513 2838 3513 2113 
z
" transform="scale(0.015625)"/>
       <path id="DejaVuSans-74" d="M 1172 4494 
L 1172 3500 
L 2356 3500 
L 2356 3053 
L 1172 3053 
L 1172 1153 
Q 1172 725 1289 603 
Q 1406 481 1766 481 
L 2356 481 
L 2356 0 
L 1766 0 
Q 1100 0 847 248 
Q 594 497 594 1153 
L 594 3053 
L 172 3053 
L 172 3500 
L 594 3500 
L 594 4494 
L 1172 4494 
z
" transform="scale(0.015625)"/>
      </defs>
      <use xlink:href="#DejaVuSans-4d"/>
      <use xlink:href="#DejaVuSans-65" transform="translate(86.279297 0)"/>
      <use xlink:href="#DejaVuSans-61" transform="translate(147.802734 0)"/>
      <use xlink:href="#DejaVuSans-73" transform="translate(209.082031 0)"/>
      <use xlink:href="#DejaVuSans-75" transform="translate(261.181641 0)"/>
      <use xlink:href="#DejaVuSans-72" transform="translate(324.560547 0)"/>
      <use xlink:href="#DejaVuSans-65" transform="translate(363.423828 0)"/>
      <use xlink:href="#DejaVuSans-6d" transform="translate(424.947266 0)"/>
      <use xlink:href="#DejaVuSans-65" transform="translate(522.359375 0)"/>
      <use xlink:href="#DejaVuSans-6e" transform="translate(583.882812 0)"/>
      <use xlink:href="#DejaVuSans-74" transform="translate(647.261719 0)"/>
      <use xlink:href="#DejaVuSans-73" transform="translate(686.470703 0)"/>
     </g>
    </g>
   </g>
  </g>
 </g>
 <defs>
  <clipPath id="pfdb57d12e0">
   <rect x="57.6" y="41.472" width="357.12" height="266.112"/>
  </clipPath>
 </defs>
</svg>
