<?xml version="1.0" encoding="utf-8" standalone="no"?>
<!DOCTYPE svg PUBLIC "-//W3C//DTD SVG 1.1//EN"
  "http://www.w3.org/Graphics/SVG/1.1/DTD/svg11.dtd">
<svg xmlns:xlink="http://www.w3.org/1999/xlink" width="460.8pt" height="345.6pt" viewBox="0 0 460.8 345.6" xmlns="http://www.w3.org/2000/svg" version="1.1">
 <metadata>
  <rdf:RDF xmlns:dc="http://purl.org/dc/elements/1.1/" xmlns:cc="http://creativecommons.org/ns#" xmlns:rdf="http://www.w3.org/1999/02/22-rdf-syntax-ns#">
   <cc:Work>
    <dc:type rdf:resource="http://purl.org/dc/dcmitype/StillImage"/>
    <dc:date>2025-05-19T09:39:03.845281</dc:date>
    <dc:format>image/svg+xml</dc:format>
    <dc:creator>
     <cc:Agent>
      <dc:title>Matplotlib v3.10.1, https://matplotlib.org/</dc:title>
     </cc:Agent>
    </dc:creator>
   </cc:Work>
  </rdf:RDF>
 </metadata>
 <defs>
  <style type="text/css">*{stroke-linejoin: round; stroke-linecap: butt}</style>
 </defs>
 <g id="figure_1">
  <g id="patch_1">
   <path d="M 0 345.6 
L 460.8 345.6 
L 460.8 0 
L 0 0 
z
" style="fill: #ffffff"/>
  </g>
  <g id="axes_1">
   <g id="patch_2">
    <path d="M 57.6 307.584 
L 414.72 307.584 
L 414.72 41.472 
L 57.6 41.472 
z
" style="fill: #ffffff"/>
   </g>
   <g id="matplotlib.axis_1">
    <g id="xtick_1">
     <g id="line2d_1">
      <path d="M 57.6 307.584 
L 57.6 41.472 
" clip-path="url(#p73cb614178)" style="fill: none; stroke: #b0b0b0; stroke-width: 0.8; stroke-linecap: square"/>
     </g>
     <g id="line2d_2">
      <defs>
       <path id="mbf7750e3f7" d="M 0 0 
L 0 3.5 
" style="stroke: #000000; stroke-width: 0.8"/>
      </defs>
      <g>
       <use xlink:href="#mbf7750e3f7" x="57.6" y="307.584" style="stroke: #000000; stroke-width: 0.8"/>
      </g>
     </g>
     <g id="text_1">
      <!-- 0.00 -->
      <g transform="translate(46.467188 322.182437) scale(0.1 -0.1)">
       <defs>
        <path id="DejaVuSans-30" d="M 2034 4250 
Q 1547 4250 1301 3770 
Q 1056 3291 1056 2328 
Q 1056 1369 1301 889 
Q 1547 409 2034 409 
Q 2525 409 2770 889 
Q 3016 1369 3016 2328 
Q 3016 3291 2770 3770 
Q 2525 4250 2034 4250 
z
M 2034 4750 
Q 2819 4750 3233 4129 
Q 3647 3509 3647 2328 
Q 3647 1150 3233 529 
Q 2819 -91 2034 -91 
Q 1250 -91 836 529 
Q 422 1150 422 2328 
Q 422 3509 836 4129 
Q 1250 4750 2034 4750 
z
" transform="scale(0.015625)"/>
        <path id="DejaVuSans-2e" d="M 684 794 
L 1344 794 
L 1344 0 
L 684 0 
L 684 794 
z
" transform="scale(0.015625)"/>
       </defs>
       <use xlink:href="#DejaVuSans-30"/>
       <use xlink:href="#DejaVuSans-2e" transform="translate(63.623047 0)"/>
       <use xlink:href="#DejaVuSans-30" transform="translate(95.410156 0)"/>
       <use xlink:href="#DejaVuSans-30" transform="translate(159.033203 0)"/>
      </g>
     </g>
    </g>
    <g id="xtick_2">
     <g id="line2d_3">
      <path d="M 125.558135 307.584 
L 125.558135 41.472 
" clip-path="url(#p73cb614178)" style="fill: none; stroke: #b0b0b0; stroke-width: 0.8; stroke-linecap: square"/>
     </g>
     <g id="line2d_4">
      <g>
       <use xlink:href="#mbf7750e3f7" x="125.558135" y="307.584" style="stroke: #000000; stroke-width: 0.8"/>
      </g>
     </g>
     <g id="text_2">
      <!-- 0.01 -->
      <g transform="translate(114.425323 322.182437) scale(0.1 -0.1)">
       <defs>
        <path id="DejaVuSans-31" d="M 794 531 
L 1825 531 
L 1825 4091 
L 703 3866 
L 703 4441 
L 1819 4666 
L 2450 4666 
L 2450 531 
L 3481 531 
L 3481 0 
L 794 0 
L 794 531 
z
" transform="scale(0.015625)"/>
       </defs>
       <use xlink:href="#DejaVuSans-30"/>
       <use xlink:href="#DejaVuSans-2e" transform="translate(63.623047 0)"/>
       <use xlink:href="#DejaVuSans-30" transform="translate(95.410156 0)"/>
       <use xlink:href="#DejaVuSans-31" transform="translate(159.033203 0)"/>
      </g>
     </g>
    </g>
    <g id="xtick_3">
     <g id="line2d_5">
      <path d="M 193.51627 307.584 
L 193.51627 41.472 
" clip-path="url(#p73cb614178)" style="fill: none; stroke: #b0b0b0; stroke-width: 0.8; stroke-linecap: square"/>
     </g>
     <g id="line2d_6">
      <g>
       <use xlink:href="#mbf7750e3f7" x="193.51627" y="307.584" style="stroke: #000000; stroke-width: 0.8"/>
      </g>
     </g>
     <g id="text_3">
      <!-- 0.02 -->
      <g transform="translate(182.383458 322.182437) scale(0.1 -0.1)">
       <defs>
        <path id="DejaVuSans-32" d="M 1228 531 
L 3431 531 
L 3431 0 
L 469 0 
L 469 531 
Q 828 903 1448 1529 
Q 2069 2156 2228 2338 
Q 2531 2678 2651 2914 
Q 2772 3150 2772 3378 
Q 2772 3750 2511 3984 
Q 2250 4219 1831 4219 
Q 1534 4219 1204 4116 
Q 875 4013 500 3803 
L 500 4441 
Q 881 4594 1212 4672 
Q 1544 4750 1819 4750 
Q 2544 4750 2975 4387 
Q 3406 4025 3406 3419 
Q 3406 3131 3298 2873 
Q 3191 2616 2906 2266 
Q 2828 2175 2409 1742 
Q 1991 1309 1228 531 
z
" transform="scale(0.015625)"/>
       </defs>
       <use xlink:href="#DejaVuSans-30"/>
       <use xlink:href="#DejaVuSans-2e" transform="translate(63.623047 0)"/>
       <use xlink:href="#DejaVuSans-30" transform="translate(95.410156 0)"/>
       <use xlink:href="#DejaVuSans-32" transform="translate(159.033203 0)"/>
      </g>
     </g>
    </g>
    <g id="xtick_4">
     <g id="line2d_7">
      <path d="M 261.474405 307.584 
L 261.474405 41.472 
" clip-path="url(#p73cb614178)" style="fill: none; stroke: #b0b0b0; stroke-width: 0.8; stroke-linecap: square"/>
     </g>
     <g id="line2d_8">
      <g>
       <use xlink:href="#mbf7750e3f7" x="261.474405" y="307.584" style="stroke: #000000; stroke-width: 0.8"/>
      </g>
     </g>
     <g id="text_4">
      <!-- 0.03 -->
      <g transform="translate(250.341593 322.182437) scale(0.1 -0.1)">
       <defs>
        <path id="DejaVuSans-33" d="M 2597 2516 
Q 3050 2419 3304 2112 
Q 3559 1806 3559 1356 
Q 3559 666 3084 287 
Q 2609 -91 1734 -91 
Q 1441 -91 1130 -33 
Q 819 25 488 141 
L 488 750 
Q 750 597 1062 519 
Q 1375 441 1716 441 
Q 2309 441 2620 675 
Q 2931 909 2931 1356 
Q 2931 1769 2642 2001 
Q 2353 2234 1838 2234 
L 1294 2234 
L 1294 2753 
L 1863 2753 
Q 2328 2753 2575 2939 
Q 2822 3125 2822 3475 
Q 2822 3834 2567 4026 
Q 2313 4219 1838 4219 
Q 1578 4219 1281 4162 
Q 984 4106 628 3988 
L 628 4550 
Q 988 4650 1302 4700 
Q 1616 4750 1894 4750 
Q 2613 4750 3031 4423 
Q 3450 4097 3450 3541 
Q 3450 3153 3228 2886 
Q 3006 2619 2597 2516 
z
" transform="scale(0.015625)"/>
       </defs>
       <use xlink:href="#DejaVuSans-30"/>
       <use xlink:href="#DejaVuSans-2e" transform="translate(63.623047 0)"/>
       <use xlink:href="#DejaVuSans-30" transform="translate(95.410156 0)"/>
       <use xlink:href="#DejaVuSans-33" transform="translate(159.033203 0)"/>
      </g>
     </g>
    </g>
    <g id="xtick_5">
     <g id="line2d_9">
      <path d="M 329.43254 307.584 
L 329.43254 41.472 
" clip-path="url(#p73cb614178)" style="fill: none; stroke: #b0b0b0; stroke-width: 0.8; stroke-linecap: square"/>
     </g>
     <g id="line2d_10">
      <g>
       <use xlink:href="#mbf7750e3f7" x="329.43254" y="307.584" style="stroke: #000000; stroke-width: 0.8"/>
      </g>
     </g>
     <g id="text_5">
      <!-- 0.04 -->
      <g transform="translate(318.299728 322.182437) scale(0.1 -0.1)">
       <defs>
        <path id="DejaVuSans-34" d="M 2419 4116 
L 825 1625 
L 2419 1625 
L 2419 4116 
z
M 2253 4666 
L 3047 4666 
L 3047 1625 
L 3713 1625 
L 3713 1100 
L 3047 1100 
L 3047 0 
L 2419 0 
L 2419 1100 
L 313 1100 
L 313 1709 
L 2253 4666 
z
" transform="scale(0.015625)"/>
       </defs>
       <use xlink:href="#DejaVuSans-30"/>
       <use xlink:href="#DejaVuSans-2e" transform="translate(63.623047 0)"/>
       <use xlink:href="#DejaVuSans-30" transform="translate(95.410156 0)"/>
       <use xlink:href="#DejaVuSans-34" transform="translate(159.033203 0)"/>
      </g>
     </g>
    </g>
    <g id="xtick_6">
     <g id="line2d_11">
      <path d="M 397.390676 307.584 
L 397.390676 41.472 
" clip-path="url(#p73cb614178)" style="fill: none; stroke: #b0b0b0; stroke-width: 0.8; stroke-linecap: square"/>
     </g>
     <g id="line2d_12">
      <g>
       <use xlink:href="#mbf7750e3f7" x="397.390676" y="307.584" style="stroke: #000000; stroke-width: 0.8"/>
      </g>
     </g>
     <g id="text_6">
      <!-- 0.05 -->
      <g transform="translate(386.257863 322.182437) scale(0.1 -0.1)">
       <defs>
        <path id="DejaVuSans-35" d="M 691 4666 
L 3169 4666 
L 3169 4134 
L 1269 4134 
L 1269 2991 
Q 1406 3038 1543 3061 
Q 1681 3084 1819 3084 
Q 2600 3084 3056 2656 
Q 3513 2228 3513 1497 
Q 3513 744 3044 326 
Q 2575 -91 1722 -91 
Q 1428 -91 1123 -41 
Q 819 9 494 109 
L 494 744 
Q 775 591 1075 516 
Q 1375 441 1709 441 
Q 2250 441 2565 725 
Q 2881 1009 2881 1497 
Q 2881 1984 2565 2268 
Q 2250 2553 1709 2553 
Q 1456 2553 1204 2497 
Q 953 2441 691 2322 
L 691 4666 
z
" transform="scale(0.015625)"/>
       </defs>
       <use xlink:href="#DejaVuSans-30"/>
       <use xlink:href="#DejaVuSans-2e" transform="translate(63.623047 0)"/>
       <use xlink:href="#DejaVuSans-30" transform="translate(95.410156 0)"/>
       <use xlink:href="#DejaVuSans-35" transform="translate(159.033203 0)"/>
      </g>
     </g>
    </g>
    <g id="text_7">
     <!-- Distance from ground [m] -->
     <g transform="translate(171.437344 335.860562) scale(0.1 -0.1)">
      <defs>
       <path id="DejaVuSans-44" d="M 1259 4147 
L 1259 519 
L 2022 519 
Q 2988 519 3436 956 
Q 3884 1394 3884 2338 
Q 3884 3275 3436 3711 
Q 2988 4147 2022 4147 
L 1259 4147 
z
M 628 4666 
L 1925 4666 
Q 3281 4666 3915 4102 
Q 4550 3538 4550 2338 
Q 4550 1131 3912 565 
Q 3275 0 1925 0 
L 628 0 
L 628 4666 
z
" transform="scale(0.015625)"/>
       <path id="DejaVuSans-69" d="M 603 3500 
L 1178 3500 
L 1178 0 
L 603 0 
L 603 3500 
z
M 603 4863 
L 1178 4863 
L 1178 4134 
L 603 4134 
L 603 4863 
z
" transform="scale(0.015625)"/>
       <path id="DejaVuSans-73" d="M 2834 3397 
L 2834 2853 
Q 2591 2978 2328 3040 
Q 2066 3103 1784 3103 
Q 1356 3103 1142 2972 
Q 928 2841 928 2578 
Q 928 2378 1081 2264 
Q 1234 2150 1697 2047 
L 1894 2003 
Q 2506 1872 2764 1633 
Q 3022 1394 3022 966 
Q 3022 478 2636 193 
Q 2250 -91 1575 -91 
Q 1294 -91 989 -36 
Q 684 19 347 128 
L 347 722 
Q 666 556 975 473 
Q 1284 391 1588 391 
Q 1994 391 2212 530 
Q 2431 669 2431 922 
Q 2431 1156 2273 1281 
Q 2116 1406 1581 1522 
L 1381 1569 
Q 847 1681 609 1914 
Q 372 2147 372 2553 
Q 372 3047 722 3315 
Q 1072 3584 1716 3584 
Q 2034 3584 2315 3537 
Q 2597 3491 2834 3397 
z
" transform="scale(0.015625)"/>
       <path id="DejaVuSans-74" d="M 1172 4494 
L 1172 3500 
L 2356 3500 
L 2356 3053 
L 1172 3053 
L 1172 1153 
Q 1172 725 1289 603 
Q 1406 481 1766 481 
L 2356 481 
L 2356 0 
L 1766 0 
Q 1100 0 847 248 
Q 594 497 594 1153 
L 594 3053 
L 172 3053 
L 172 3500 
L 594 3500 
L 594 4494 
L 1172 4494 
z
" transform="scale(0.015625)"/>
       <path id="DejaVuSans-61" d="M 2194 1759 
Q 1497 1759 1228 1600 
Q 959 1441 959 1056 
Q 959 750 1161 570 
Q 1363 391 1709 391 
Q 2188 391 2477 730 
Q 2766 1069 2766 1631 
L 2766 1759 
L 2194 1759 
z
M 3341 1997 
L 3341 0 
L 2766 0 
L 2766 531 
Q 2569 213 2275 61 
Q 1981 -91 1556 -91 
Q 1019 -91 701 211 
Q 384 513 384 1019 
Q 384 1609 779 1909 
Q 1175 2209 1959 2209 
L 2766 2209 
L 2766 2266 
Q 2766 2663 2505 2880 
Q 2244 3097 1772 3097 
Q 1472 3097 1187 3025 
Q 903 2953 641 2809 
L 641 3341 
Q 956 3463 1253 3523 
Q 1550 3584 1831 3584 
Q 2591 3584 2966 3190 
Q 3341 2797 3341 1997 
z
" transform="scale(0.015625)"/>
       <path id="DejaVuSans-6e" d="M 3513 2113 
L 3513 0 
L 2938 0 
L 2938 2094 
Q 2938 2591 2744 2837 
Q 2550 3084 2163 3084 
Q 1697 3084 1428 2787 
Q 1159 2491 1159 1978 
L 1159 0 
L 581 0 
L 581 3500 
L 1159 3500 
L 1159 2956 
Q 1366 3272 1645 3428 
Q 1925 3584 2291 3584 
Q 2894 3584 3203 3211 
Q 3513 2838 3513 2113 
z
" transform="scale(0.015625)"/>
       <path id="DejaVuSans-63" d="M 3122 3366 
L 3122 2828 
Q 2878 2963 2633 3030 
Q 2388 3097 2138 3097 
Q 1578 3097 1268 2742 
Q 959 2388 959 1747 
Q 959 1106 1268 751 
Q 1578 397 2138 397 
Q 2388 397 2633 464 
Q 2878 531 3122 666 
L 3122 134 
Q 2881 22 2623 -34 
Q 2366 -91 2075 -91 
Q 1284 -91 818 406 
Q 353 903 353 1747 
Q 353 2603 823 3093 
Q 1294 3584 2113 3584 
Q 2378 3584 2631 3529 
Q 2884 3475 3122 3366 
z
" transform="scale(0.015625)"/>
       <path id="DejaVuSans-65" d="M 3597 1894 
L 3597 1613 
L 953 1613 
Q 991 1019 1311 708 
Q 1631 397 2203 397 
Q 2534 397 2845 478 
Q 3156 559 3463 722 
L 3463 178 
Q 3153 47 2828 -22 
Q 2503 -91 2169 -91 
Q 1331 -91 842 396 
Q 353 884 353 1716 
Q 353 2575 817 3079 
Q 1281 3584 2069 3584 
Q 2775 3584 3186 3129 
Q 3597 2675 3597 1894 
z
M 3022 2063 
Q 3016 2534 2758 2815 
Q 2500 3097 2075 3097 
Q 1594 3097 1305 2825 
Q 1016 2553 972 2059 
L 3022 2063 
z
" transform="scale(0.015625)"/>
       <path id="DejaVuSans-20" transform="scale(0.015625)"/>
       <path id="DejaVuSans-66" d="M 2375 4863 
L 2375 4384 
L 1825 4384 
Q 1516 4384 1395 4259 
Q 1275 4134 1275 3809 
L 1275 3500 
L 2222 3500 
L 2222 3053 
L 1275 3053 
L 1275 0 
L 697 0 
L 697 3053 
L 147 3053 
L 147 3500 
L 697 3500 
L 697 3744 
Q 697 4328 969 4595 
Q 1241 4863 1831 4863 
L 2375 4863 
z
" transform="scale(0.015625)"/>
       <path id="DejaVuSans-72" d="M 2631 2963 
Q 2534 3019 2420 3045 
Q 2306 3072 2169 3072 
Q 1681 3072 1420 2755 
Q 1159 2438 1159 1844 
L 1159 0 
L 581 0 
L 581 3500 
L 1159 3500 
L 1159 2956 
Q 1341 3275 1631 3429 
Q 1922 3584 2338 3584 
Q 2397 3584 2469 3576 
Q 2541 3569 2628 3553 
L 2631 2963 
z
" transform="scale(0.015625)"/>
       <path id="DejaVuSans-6f" d="M 1959 3097 
Q 1497 3097 1228 2736 
Q 959 2375 959 1747 
Q 959 1119 1226 758 
Q 1494 397 1959 397 
Q 2419 397 2687 759 
Q 2956 1122 2956 1747 
Q 2956 2369 2687 2733 
Q 2419 3097 1959 3097 
z
M 1959 3584 
Q 2709 3584 3137 3096 
Q 3566 2609 3566 1747 
Q 3566 888 3137 398 
Q 2709 -91 1959 -91 
Q 1206 -91 779 398 
Q 353 888 353 1747 
Q 353 2609 779 3096 
Q 1206 3584 1959 3584 
z
" transform="scale(0.015625)"/>
       <path id="DejaVuSans-6d" d="M 3328 2828 
Q 3544 3216 3844 3400 
Q 4144 3584 4550 3584 
Q 5097 3584 5394 3201 
Q 5691 2819 5691 2113 
L 5691 0 
L 5113 0 
L 5113 2094 
Q 5113 2597 4934 2840 
Q 4756 3084 4391 3084 
Q 3944 3084 3684 2787 
Q 3425 2491 3425 1978 
L 3425 0 
L 2847 0 
L 2847 2094 
Q 2847 2600 2669 2842 
Q 2491 3084 2119 3084 
Q 1678 3084 1418 2786 
Q 1159 2488 1159 1978 
L 1159 0 
L 581 0 
L 581 3500 
L 1159 3500 
L 1159 2956 
Q 1356 3278 1631 3431 
Q 1906 3584 2284 3584 
Q 2666 3584 2933 3390 
Q 3200 3197 3328 2828 
z
" transform="scale(0.015625)"/>
       <path id="DejaVuSans-67" d="M 2906 1791 
Q 2906 2416 2648 2759 
Q 2391 3103 1925 3103 
Q 1463 3103 1205 2759 
Q 947 2416 947 1791 
Q 947 1169 1205 825 
Q 1463 481 1925 481 
Q 2391 481 2648 825 
Q 2906 1169 2906 1791 
z
M 3481 434 
Q 3481 -459 3084 -895 
Q 2688 -1331 1869 -1331 
Q 1566 -1331 1297 -1286 
Q 1028 -1241 775 -1147 
L 775 -588 
Q 1028 -725 1275 -790 
Q 1522 -856 1778 -856 
Q 2344 -856 2625 -561 
Q 2906 -266 2906 331 
L 2906 616 
Q 2728 306 2450 153 
Q 2172 0 1784 0 
Q 1141 0 747 490 
Q 353 981 353 1791 
Q 353 2603 747 3093 
Q 1141 3584 1784 3584 
Q 2172 3584 2450 3431 
Q 2728 3278 2906 2969 
L 2906 3500 
L 3481 3500 
L 3481 434 
z
" transform="scale(0.015625)"/>
       <path id="DejaVuSans-75" d="M 544 1381 
L 544 3500 
L 1119 3500 
L 1119 1403 
Q 1119 906 1312 657 
Q 1506 409 1894 409 
Q 2359 409 2629 706 
Q 2900 1003 2900 1516 
L 2900 3500 
L 3475 3500 
L 3475 0 
L 2900 0 
L 2900 538 
Q 2691 219 2414 64 
Q 2138 -91 1772 -91 
Q 1169 -91 856 284 
Q 544 659 544 1381 
z
M 1991 3584 
L 1991 3584 
z
" transform="scale(0.015625)"/>
       <path id="DejaVuSans-64" d="M 2906 2969 
L 2906 4863 
L 3481 4863 
L 3481 0 
L 2906 0 
L 2906 525 
Q 2725 213 2448 61 
Q 2172 -91 1784 -91 
Q 1150 -91 751 415 
Q 353 922 353 1747 
Q 353 2572 751 3078 
Q 1150 3584 1784 3584 
Q 2172 3584 2448 3432 
Q 2725 3281 2906 2969 
z
M 947 1747 
Q 947 1113 1208 752 
Q 1469 391 1925 391 
Q 2381 391 2643 752 
Q 2906 1113 2906 1747 
Q 2906 2381 2643 2742 
Q 2381 3103 1925 3103 
Q 1469 3103 1208 2742 
Q 947 2381 947 1747 
z
" transform="scale(0.015625)"/>
       <path id="DejaVuSans-5b" d="M 550 4863 
L 1875 4863 
L 1875 4416 
L 1125 4416 
L 1125 -397 
L 1875 -397 
L 1875 -844 
L 550 -844 
L 550 4863 
z
" transform="scale(0.015625)"/>
       <path id="DejaVuSans-5d" d="M 1947 4863 
L 1947 -844 
L 622 -844 
L 622 -397 
L 1369 -397 
L 1369 4416 
L 622 4416 
L 622 4863 
L 1947 4863 
z
" transform="scale(0.015625)"/>
      </defs>
      <use xlink:href="#DejaVuSans-44"/>
      <use xlink:href="#DejaVuSans-69" transform="translate(77.001953 0)"/>
      <use xlink:href="#DejaVuSans-73" transform="translate(104.785156 0)"/>
      <use xlink:href="#DejaVuSans-74" transform="translate(156.884766 0)"/>
      <use xlink:href="#DejaVuSans-61" transform="translate(196.09375 0)"/>
      <use xlink:href="#DejaVuSans-6e" transform="translate(257.373047 0)"/>
      <use xlink:href="#DejaVuSans-63" transform="translate(320.751953 0)"/>
      <use xlink:href="#DejaVuSans-65" transform="translate(375.732422 0)"/>
      <use xlink:href="#DejaVuSans-20" transform="translate(437.255859 0)"/>
      <use xlink:href="#DejaVuSans-66" transform="translate(469.042969 0)"/>
      <use xlink:href="#DejaVuSans-72" transform="translate(504.248047 0)"/>
      <use xlink:href="#DejaVuSans-6f" transform="translate(543.111328 0)"/>
      <use xlink:href="#DejaVuSans-6d" transform="translate(604.292969 0)"/>
      <use xlink:href="#DejaVuSans-20" transform="translate(701.705078 0)"/>
      <use xlink:href="#DejaVuSans-67" transform="translate(733.492188 0)"/>
      <use xlink:href="#DejaVuSans-72" transform="translate(796.96875 0)"/>
      <use xlink:href="#DejaVuSans-6f" transform="translate(835.832031 0)"/>
      <use xlink:href="#DejaVuSans-75" transform="translate(897.013672 0)"/>
      <use xlink:href="#DejaVuSans-6e" transform="translate(960.392578 0)"/>
      <use xlink:href="#DejaVuSans-64" transform="translate(1023.771484 0)"/>
      <use xlink:href="#DejaVuSans-20" transform="translate(1087.248047 0)"/>
      <use xlink:href="#DejaVuSans-5b" transform="translate(1119.035156 0)"/>
      <use xlink:href="#DejaVuSans-6d" transform="translate(1158.048828 0)"/>
      <use xlink:href="#DejaVuSans-5d" transform="translate(1255.460938 0)"/>
     </g>
    </g>
   </g>
   <g id="matplotlib.axis_2">
    <g id="ytick_1">
     <g id="line2d_13">
      <path d="M 57.6 305.017252 
L 414.72 305.017252 
" clip-path="url(#p73cb614178)" style="fill: none; stroke: #b0b0b0; stroke-width: 0.8; stroke-linecap: square"/>
     </g>
     <g id="line2d_14">
      <defs>
       <path id="m59325b52ff" d="M 0 0 
L -3.5 0 
" style="stroke: #000000; stroke-width: 0.8"/>
      </defs>
      <g>
       <use xlink:href="#m59325b52ff" x="57.6" y="305.017252" style="stroke: #000000; stroke-width: 0.8"/>
      </g>
     </g>
     <g id="text_8">
      <!-- 0.00 -->
      <g transform="translate(28.334375 308.816471) scale(0.1 -0.1)">
       <use xlink:href="#DejaVuSans-30"/>
       <use xlink:href="#DejaVuSans-2e" transform="translate(63.623047 0)"/>
       <use xlink:href="#DejaVuSans-30" transform="translate(95.410156 0)"/>
       <use xlink:href="#DejaVuSans-30" transform="translate(159.033203 0)"/>
      </g>
     </g>
    </g>
    <g id="ytick_2">
     <g id="line2d_15">
      <path d="M 57.6 268.213405 
L 414.72 268.213405 
" clip-path="url(#p73cb614178)" style="fill: none; stroke: #b0b0b0; stroke-width: 0.8; stroke-linecap: square"/>
     </g>
     <g id="line2d_16">
      <g>
       <use xlink:href="#m59325b52ff" x="57.6" y="268.213405" style="stroke: #000000; stroke-width: 0.8"/>
      </g>
     </g>
     <g id="text_9">
      <!-- 0.25 -->
      <g transform="translate(28.334375 272.012624) scale(0.1 -0.1)">
       <use xlink:href="#DejaVuSans-30"/>
       <use xlink:href="#DejaVuSans-2e" transform="translate(63.623047 0)"/>
       <use xlink:href="#DejaVuSans-32" transform="translate(95.410156 0)"/>
       <use xlink:href="#DejaVuSans-35" transform="translate(159.033203 0)"/>
      </g>
     </g>
    </g>
    <g id="ytick_3">
     <g id="line2d_17">
      <path d="M 57.6 231.409558 
L 414.72 231.409558 
" clip-path="url(#p73cb614178)" style="fill: none; stroke: #b0b0b0; stroke-width: 0.8; stroke-linecap: square"/>
     </g>
     <g id="line2d_18">
      <g>
       <use xlink:href="#m59325b52ff" x="57.6" y="231.409558" style="stroke: #000000; stroke-width: 0.8"/>
      </g>
     </g>
     <g id="text_10">
      <!-- 0.50 -->
      <g transform="translate(28.334375 235.208777) scale(0.1 -0.1)">
       <use xlink:href="#DejaVuSans-30"/>
       <use xlink:href="#DejaVuSans-2e" transform="translate(63.623047 0)"/>
       <use xlink:href="#DejaVuSans-35" transform="translate(95.410156 0)"/>
       <use xlink:href="#DejaVuSans-30" transform="translate(159.033203 0)"/>
      </g>
     </g>
    </g>
    <g id="ytick_4">
     <g id="line2d_19">
      <path d="M 57.6 194.605712 
L 414.72 194.605712 
" clip-path="url(#p73cb614178)" style="fill: none; stroke: #b0b0b0; stroke-width: 0.8; stroke-linecap: square"/>
     </g>
     <g id="line2d_20">
      <g>
       <use xlink:href="#m59325b52ff" x="57.6" y="194.605712" style="stroke: #000000; stroke-width: 0.8"/>
      </g>
     </g>
     <g id="text_11">
      <!-- 0.75 -->
      <g transform="translate(28.334375 198.40493) scale(0.1 -0.1)">
       <defs>
        <path id="DejaVuSans-37" d="M 525 4666 
L 3525 4666 
L 3525 4397 
L 1831 0 
L 1172 0 
L 2766 4134 
L 525 4134 
L 525 4666 
z
" transform="scale(0.015625)"/>
       </defs>
       <use xlink:href="#DejaVuSans-30"/>
       <use xlink:href="#DejaVuSans-2e" transform="translate(63.623047 0)"/>
       <use xlink:href="#DejaVuSans-37" transform="translate(95.410156 0)"/>
       <use xlink:href="#DejaVuSans-35" transform="translate(159.033203 0)"/>
      </g>
     </g>
    </g>
    <g id="ytick_5">
     <g id="line2d_21">
      <path d="M 57.6 157.801865 
L 414.72 157.801865 
" clip-path="url(#p73cb614178)" style="fill: none; stroke: #b0b0b0; stroke-width: 0.8; stroke-linecap: square"/>
     </g>
     <g id="line2d_22">
      <g>
       <use xlink:href="#m59325b52ff" x="57.6" y="157.801865" style="stroke: #000000; stroke-width: 0.8"/>
      </g>
     </g>
     <g id="text_12">
      <!-- 1.00 -->
      <g transform="translate(28.334375 161.601084) scale(0.1 -0.1)">
       <use xlink:href="#DejaVuSans-31"/>
       <use xlink:href="#DejaVuSans-2e" transform="translate(63.623047 0)"/>
       <use xlink:href="#DejaVuSans-30" transform="translate(95.410156 0)"/>
       <use xlink:href="#DejaVuSans-30" transform="translate(159.033203 0)"/>
      </g>
     </g>
    </g>
    <g id="ytick_6">
     <g id="line2d_23">
      <path d="M 57.6 120.998018 
L 414.72 120.998018 
" clip-path="url(#p73cb614178)" style="fill: none; stroke: #b0b0b0; stroke-width: 0.8; stroke-linecap: square"/>
     </g>
     <g id="line2d_24">
      <g>
       <use xlink:href="#m59325b52ff" x="57.6" y="120.998018" style="stroke: #000000; stroke-width: 0.8"/>
      </g>
     </g>
     <g id="text_13">
      <!-- 1.25 -->
      <g transform="translate(28.334375 124.797237) scale(0.1 -0.1)">
       <use xlink:href="#DejaVuSans-31"/>
       <use xlink:href="#DejaVuSans-2e" transform="translate(63.623047 0)"/>
       <use xlink:href="#DejaVuSans-32" transform="translate(95.410156 0)"/>
       <use xlink:href="#DejaVuSans-35" transform="translate(159.033203 0)"/>
      </g>
     </g>
    </g>
    <g id="ytick_7">
     <g id="line2d_25">
      <path d="M 57.6 84.194171 
L 414.72 84.194171 
" clip-path="url(#p73cb614178)" style="fill: none; stroke: #b0b0b0; stroke-width: 0.8; stroke-linecap: square"/>
     </g>
     <g id="line2d_26">
      <g>
       <use xlink:href="#m59325b52ff" x="57.6" y="84.194171" style="stroke: #000000; stroke-width: 0.8"/>
      </g>
     </g>
     <g id="text_14">
      <!-- 1.50 -->
      <g transform="translate(28.334375 87.99339) scale(0.1 -0.1)">
       <use xlink:href="#DejaVuSans-31"/>
       <use xlink:href="#DejaVuSans-2e" transform="translate(63.623047 0)"/>
       <use xlink:href="#DejaVuSans-35" transform="translate(95.410156 0)"/>
       <use xlink:href="#DejaVuSans-30" transform="translate(159.033203 0)"/>
      </g>
     </g>
    </g>
    <g id="ytick_8">
     <g id="line2d_27">
      <path d="M 57.6 47.390325 
L 414.72 47.390325 
" clip-path="url(#p73cb614178)" style="fill: none; stroke: #b0b0b0; stroke-width: 0.8; stroke-linecap: square"/>
     </g>
     <g id="line2d_28">
      <g>
       <use xlink:href="#m59325b52ff" x="57.6" y="47.390325" style="stroke: #000000; stroke-width: 0.8"/>
      </g>
     </g>
     <g id="text_15">
      <!-- 1.75 -->
      <g transform="translate(28.334375 51.189543) scale(0.1 -0.1)">
       <use xlink:href="#DejaVuSans-31"/>
       <use xlink:href="#DejaVuSans-2e" transform="translate(63.623047 0)"/>
       <use xlink:href="#DejaVuSans-37" transform="translate(95.410156 0)"/>
       <use xlink:href="#DejaVuSans-35" transform="translate(159.033203 0)"/>
      </g>
     </g>
    </g>
    <g id="text_16">
     <!-- Relative potential -->
     <g transform="translate(22.254687 218.522531) rotate(-90) scale(0.1 -0.1)">
      <defs>
       <path id="DejaVuSans-52" d="M 2841 2188 
Q 3044 2119 3236 1894 
Q 3428 1669 3622 1275 
L 4263 0 
L 3584 0 
L 2988 1197 
Q 2756 1666 2539 1819 
Q 2322 1972 1947 1972 
L 1259 1972 
L 1259 0 
L 628 0 
L 628 4666 
L 2053 4666 
Q 2853 4666 3247 4331 
Q 3641 3997 3641 3322 
Q 3641 2881 3436 2590 
Q 3231 2300 2841 2188 
z
M 1259 4147 
L 1259 2491 
L 2053 2491 
Q 2509 2491 2742 2702 
Q 2975 2913 2975 3322 
Q 2975 3731 2742 3939 
Q 2509 4147 2053 4147 
L 1259 4147 
z
" transform="scale(0.015625)"/>
       <path id="DejaVuSans-6c" d="M 603 4863 
L 1178 4863 
L 1178 0 
L 603 0 
L 603 4863 
z
" transform="scale(0.015625)"/>
       <path id="DejaVuSans-76" d="M 191 3500 
L 800 3500 
L 1894 563 
L 2988 3500 
L 3597 3500 
L 2284 0 
L 1503 0 
L 191 3500 
z
" transform="scale(0.015625)"/>
       <path id="DejaVuSans-70" d="M 1159 525 
L 1159 -1331 
L 581 -1331 
L 581 3500 
L 1159 3500 
L 1159 2969 
Q 1341 3281 1617 3432 
Q 1894 3584 2278 3584 
Q 2916 3584 3314 3078 
Q 3713 2572 3713 1747 
Q 3713 922 3314 415 
Q 2916 -91 2278 -91 
Q 1894 -91 1617 61 
Q 1341 213 1159 525 
z
M 3116 1747 
Q 3116 2381 2855 2742 
Q 2594 3103 2138 3103 
Q 1681 3103 1420 2742 
Q 1159 2381 1159 1747 
Q 1159 1113 1420 752 
Q 1681 391 2138 391 
Q 2594 391 2855 752 
Q 3116 1113 3116 1747 
z
" transform="scale(0.015625)"/>
      </defs>
      <use xlink:href="#DejaVuSans-52"/>
      <use xlink:href="#DejaVuSans-65" transform="translate(64.982422 0)"/>
      <use xlink:href="#DejaVuSans-6c" transform="translate(126.505859 0)"/>
      <use xlink:href="#DejaVuSans-61" transform="translate(154.289062 0)"/>
      <use xlink:href="#DejaVuSans-74" transform="translate(215.568359 0)"/>
      <use xlink:href="#DejaVuSans-69" transform="translate(254.777344 0)"/>
      <use xlink:href="#DejaVuSans-76" transform="translate(282.560547 0)"/>
      <use xlink:href="#DejaVuSans-65" transform="translate(341.740234 0)"/>
      <use xlink:href="#DejaVuSans-20" transform="translate(403.263672 0)"/>
      <use xlink:href="#DejaVuSans-70" transform="translate(435.050781 0)"/>
      <use xlink:href="#DejaVuSans-6f" transform="translate(498.527344 0)"/>
      <use xlink:href="#DejaVuSans-74" transform="translate(559.708984 0)"/>
      <use xlink:href="#DejaVuSans-65" transform="translate(598.917969 0)"/>
      <use xlink:href="#DejaVuSans-6e" transform="translate(660.441406 0)"/>
      <use xlink:href="#DejaVuSans-74" transform="translate(723.820312 0)"/>
      <use xlink:href="#DejaVuSans-69" transform="translate(763.029297 0)"/>
      <use xlink:href="#DejaVuSans-61" transform="translate(790.8125 0)"/>
      <use xlink:href="#DejaVuSans-6c" transform="translate(852.091797 0)"/>
     </g>
    </g>
   </g>
   <g id="line2d_29">
    <defs>
     <path id="md90f60fea4" d="M 0 3 
C 0.795609 3 1.55874 2.683901 2.12132 2.12132 
C 2.683901 1.55874 3 0.795609 3 0 
C 3 -0.795609 2.683901 -1.55874 2.12132 -2.12132 
C 1.55874 -2.683901 0.795609 -3 0 -3 
C -0.795609 -3 -1.55874 -2.683901 -2.12132 -2.12132 
C -2.683901 -1.55874 -3 -0.795609 -3 0 
C -3 0.795609 -2.683901 1.55874 -2.12132 2.12132 
C -1.55874 2.683901 -0.795609 3 0 3 
z
" style="stroke: #1f77b4"/>
    </defs>
    <g clip-path="url(#p73cb614178)">
     <use xlink:href="#md90f60fea4" x="57.6" y="293.240021" style="fill: #1f77b4; stroke: #1f77b4"/>
     <use xlink:href="#md90f60fea4" x="91.579068" y="287.307241" style="fill: #1f77b4; stroke: #1f77b4"/>
     <use xlink:href="#md90f60fea4" x="125.558135" y="277.296595" style="fill: #1f77b4; stroke: #1f77b4"/>
     <use xlink:href="#md90f60fea4" x="159.537203" y="267.68343" style="fill: #1f77b4; stroke: #1f77b4"/>
     <use xlink:href="#md90f60fea4" x="193.51627" y="255.773705" style="fill: #1f77b4; stroke: #1f77b4"/>
     <use xlink:href="#md90f60fea4" x="227.495338" y="246.418167" style="fill: #1f77b4; stroke: #1f77b4"/>
     <use xlink:href="#md90f60fea4" x="261.474405" y="232.881712" style="fill: #1f77b4; stroke: #1f77b4"/>
     <use xlink:href="#md90f60fea4" x="295.453473" y="218.012958" style="fill: #1f77b4; stroke: #1f77b4"/>
     <use xlink:href="#md90f60fea4" x="329.43254" y="193.501596" style="fill: #1f77b4; stroke: #1f77b4"/>
     <use xlink:href="#md90f60fea4" x="346.422074" y="179.957781" style="fill: #1f77b4; stroke: #1f77b4"/>
    </g>
   </g>
   <g id="line2d_30">
    <path d="M 397.390676 307.584 
L 397.390676 41.472 
" clip-path="url(#p73cb614178)" style="fill: none; stroke-dasharray: 5.55,2.4; stroke-dashoffset: 0; stroke: #ff0000; stroke-width: 1.5"/>
   </g>
   <g id="LineCollection_1">
    <path d="M 50.804186 293.240021 
L 64.395814 293.240021 
" clip-path="url(#p73cb614178)" style="fill: none; stroke: #39ff14; stroke-width: 1.5"/>
    <path d="M 84.783254 287.307241 
L 98.374881 287.307241 
" clip-path="url(#p73cb614178)" style="fill: none; stroke: #39ff14; stroke-width: 1.5"/>
    <path d="M 118.762322 277.296595 
L 132.353949 277.296595 
" clip-path="url(#p73cb614178)" style="fill: none; stroke: #39ff14; stroke-width: 1.5"/>
    <path d="M 152.741389 267.68343 
L 166.333016 267.68343 
" clip-path="url(#p73cb614178)" style="fill: none; stroke: #39ff14; stroke-width: 1.5"/>
    <path d="M 186.720457 255.773705 
L 200.312084 255.773705 
" clip-path="url(#p73cb614178)" style="fill: none; stroke: #39ff14; stroke-width: 1.5"/>
    <path d="M 220.699524 246.418167 
L 234.291151 246.418167 
" clip-path="url(#p73cb614178)" style="fill: none; stroke: #39ff14; stroke-width: 1.5"/>
    <path d="M 254.678592 232.881712 
L 268.270219 232.881712 
" clip-path="url(#p73cb614178)" style="fill: none; stroke: #39ff14; stroke-width: 1.5"/>
    <path d="M 288.657659 218.012958 
L 302.249286 218.012958 
" clip-path="url(#p73cb614178)" style="fill: none; stroke: #39ff14; stroke-width: 1.5"/>
    <path d="M 322.636727 193.501596 
L 336.228354 193.501596 
" clip-path="url(#p73cb614178)" style="fill: none; stroke: #39ff14; stroke-width: 1.5"/>
    <path d="M 339.626261 179.957781 
L 353.217888 179.957781 
" clip-path="url(#p73cb614178)" style="fill: none; stroke: #39ff14; stroke-width: 1.5"/>
   </g>
   <g id="LineCollection_2">
    <path d="M 57.6 293.609826 
L 57.6 292.870216 
" clip-path="url(#p73cb614178)" style="fill: none; stroke: #39ff14; stroke-width: 1.5"/>
    <path d="M 91.579068 287.677936 
L 91.579068 286.936546 
" clip-path="url(#p73cb614178)" style="fill: none; stroke: #39ff14; stroke-width: 1.5"/>
    <path d="M 125.558135 277.668791 
L 125.558135 276.924398 
" clip-path="url(#p73cb614178)" style="fill: none; stroke: #39ff14; stroke-width: 1.5"/>
    <path d="M 159.537203 268.057068 
L 159.537203 267.309791 
" clip-path="url(#p73cb614178)" style="fill: none; stroke: #39ff14; stroke-width: 1.5"/>
    <path d="M 193.51627 256.14913 
L 193.51627 255.39828 
" clip-path="url(#p73cb614178)" style="fill: none; stroke: #39ff14; stroke-width: 1.5"/>
    <path d="M 227.495338 246.794996 
L 227.495338 246.041339 
" clip-path="url(#p73cb614178)" style="fill: none; stroke: #39ff14; stroke-width: 1.5"/>
    <path d="M 261.474405 233.260571 
L 261.474405 232.502854 
" clip-path="url(#p73cb614178)" style="fill: none; stroke: #39ff14; stroke-width: 1.5"/>
    <path d="M 295.453473 218.394047 
L 295.453473 217.631869 
" clip-path="url(#p73cb614178)" style="fill: none; stroke: #39ff14; stroke-width: 1.5"/>
    <path d="M 329.43254 193.886362 
L 329.43254 193.11683 
" clip-path="url(#p73cb614178)" style="fill: none; stroke: #39ff14; stroke-width: 1.5"/>
    <path d="M 346.422074 180.344578 
L 346.422074 179.570983 
" clip-path="url(#p73cb614178)" style="fill: none; stroke: #39ff14; stroke-width: 1.5"/>
   </g>
   <g id="line2d_31">
    <path d="M 57.6 295.488 
L 64.465159 293.640974 
L 71.330317 291.792438 
L 78.195476 289.940875 
L 85.060634 288.084754 
L 91.925793 286.22252 
L 98.790951 284.352588 
L 105.65611 282.473334 
L 112.521268 280.583086 
L 119.386427 278.680114 
L 126.251585 276.762623 
L 133.116744 274.828736 
L 139.981903 272.876487 
L 146.847061 270.903805 
L 153.71222 268.908499 
L 160.577378 266.88824 
L 167.442537 264.840546 
L 174.307695 262.762751 
L 181.172854 260.651992 
L 188.038012 258.505167 
L 194.903171 256.318913 
L 201.768329 254.089558 
L 208.633488 251.813078 
L 215.498647 249.485045 
L 222.363805 247.100556 
L 229.228964 244.654162 
L 236.094122 242.13977 
L 242.959281 239.550528 
L 249.824439 236.87869 
L 256.689598 234.115439 
L 263.554756 231.25067 
L 270.419915 228.272722 
L 277.285073 225.168021 
L 284.150232 221.920638 
L 291.015391 218.511688 
L 297.880549 214.918541 
L 304.745708 211.11375 
L 311.610866 207.063562 
L 318.476025 202.725806 
L 325.341183 198.046821 
L 332.206342 192.956839 
L 339.0715 187.362786 
L 345.936659 181.136566 
L 352.801818 174.094884 
L 359.666976 165.962084 
L 366.532135 156.295259 
L 373.397293 144.313643 
L 380.262452 128.433319 
L 387.12761 104.554134 
L 393.992769 53.568 
" clip-path="url(#p73cb614178)" style="fill: none; stroke: #800080; stroke-opacity: 0.7; stroke-width: 1.5; stroke-linecap: square"/>
   </g>
   <g id="patch_3">
    <path d="M 72.317863 291.239372 
L 73.048974 291.991213 
Q 69.05225 292.513683 65.077448 293.425326 
L 67.115586 295.373139 
Q 63.516946 295.534896 59.498632 294.856582 
Q 62.366354 291.933118 65.665169 290.171572 
L 64.927845 292.906463 
Q 68.786227 291.559579 72.637426 290.238892 
L 72.317863 291.239372 
z
" style="fill: #daa520; stroke: #daa520; stroke-linecap: round"/>
   </g>
   <g id="text_17">
    <g id="patch_4">
     <path d="M 77.987441 299.341923 
L 217.667441 299.341923 
Q 220.367441 299.341923 220.367441 296.641923 
L 220.367441 287.931611 
Q 220.367441 285.231611 217.667441 285.231611 
L 77.987441 285.231611 
Q 75.287441 285.231611 75.287441 287.931611 
L 75.287441 296.641923 
Q 75.287441 299.341923 77.987441 299.341923 
z
" style="fill: #fffacd; stroke: #daa520; stroke-linejoin: miter"/>
    </g>
    <!-- Intercept = $0.06473\pm0.00505$ -->
    <g style="fill: #b8860b" transform="translate(77.987441 294.751923) scale(0.09 -0.09)">
     <defs>
      <path id="DejaVuSans-49" d="M 628 4666 
L 1259 4666 
L 1259 0 
L 628 0 
L 628 4666 
z
" transform="scale(0.015625)"/>
      <path id="DejaVuSans-3d" d="M 678 2906 
L 4684 2906 
L 4684 2381 
L 678 2381 
L 678 2906 
z
M 678 1631 
L 4684 1631 
L 4684 1100 
L 678 1100 
L 678 1631 
z
" transform="scale(0.015625)"/>
      <path id="DejaVuSans-36" d="M 2113 2584 
Q 1688 2584 1439 2293 
Q 1191 2003 1191 1497 
Q 1191 994 1439 701 
Q 1688 409 2113 409 
Q 2538 409 2786 701 
Q 3034 994 3034 1497 
Q 3034 2003 2786 2293 
Q 2538 2584 2113 2584 
z
M 3366 4563 
L 3366 3988 
Q 3128 4100 2886 4159 
Q 2644 4219 2406 4219 
Q 1781 4219 1451 3797 
Q 1122 3375 1075 2522 
Q 1259 2794 1537 2939 
Q 1816 3084 2150 3084 
Q 2853 3084 3261 2657 
Q 3669 2231 3669 1497 
Q 3669 778 3244 343 
Q 2819 -91 2113 -91 
Q 1303 -91 875 529 
Q 447 1150 447 2328 
Q 447 3434 972 4092 
Q 1497 4750 2381 4750 
Q 2619 4750 2861 4703 
Q 3103 4656 3366 4563 
z
" transform="scale(0.015625)"/>
      <path id="DejaVuSans-b1" d="M 2944 4013 
L 2944 2803 
L 4684 2803 
L 4684 2272 
L 2944 2272 
L 2944 1063 
L 2419 1063 
L 2419 2272 
L 678 2272 
L 678 2803 
L 2419 2803 
L 2419 4013 
L 2944 4013 
z
M 678 531 
L 4684 531 
L 4684 0 
L 678 0 
L 678 531 
z
" transform="scale(0.015625)"/>
     </defs>
     <use xlink:href="#DejaVuSans-49" transform="translate(0 0.78125)"/>
     <use xlink:href="#DejaVuSans-6e" transform="translate(29.492188 0.78125)"/>
     <use xlink:href="#DejaVuSans-74" transform="translate(92.871094 0.78125)"/>
     <use xlink:href="#DejaVuSans-65" transform="translate(132.080078 0.78125)"/>
     <use xlink:href="#DejaVuSans-72" transform="translate(193.603516 0.78125)"/>
     <use xlink:href="#DejaVuSans-63" transform="translate(234.716797 0.78125)"/>
     <use xlink:href="#DejaVuSans-65" transform="translate(289.697266 0.78125)"/>
     <use xlink:href="#DejaVuSans-70" transform="translate(351.220703 0.78125)"/>
     <use xlink:href="#DejaVuSans-74" transform="translate(414.697266 0.78125)"/>
     <use xlink:href="#DejaVuSans-20" transform="translate(453.90625 0.78125)"/>
     <use xlink:href="#DejaVuSans-3d" transform="translate(485.693359 0.78125)"/>
     <use xlink:href="#DejaVuSans-20" transform="translate(569.482422 0.78125)"/>
     <use xlink:href="#DejaVuSans-30" transform="translate(601.269531 0.78125)"/>
     <use xlink:href="#DejaVuSans-2e" transform="translate(664.892578 0.78125)"/>
     <use xlink:href="#DejaVuSans-30" transform="translate(696.679688 0.78125)"/>
     <use xlink:href="#DejaVuSans-36" transform="translate(760.302734 0.78125)"/>
     <use xlink:href="#DejaVuSans-34" transform="translate(823.925781 0.78125)"/>
     <use xlink:href="#DejaVuSans-37" transform="translate(887.548828 0.78125)"/>
     <use xlink:href="#DejaVuSans-33" transform="translate(951.171875 0.78125)"/>
     <use xlink:href="#DejaVuSans-b1" transform="translate(1034.277344 0.78125)"/>
     <use xlink:href="#DejaVuSans-30" transform="translate(1137.548828 0.78125)"/>
     <use xlink:href="#DejaVuSans-2e" transform="translate(1201.171875 0.78125)"/>
     <use xlink:href="#DejaVuSans-30" transform="translate(1232.958984 0.78125)"/>
     <use xlink:href="#DejaVuSans-30" transform="translate(1296.582031 0.78125)"/>
     <use xlink:href="#DejaVuSans-35" transform="translate(1360.205078 0.78125)"/>
     <use xlink:href="#DejaVuSans-30" transform="translate(1423.828125 0.78125)"/>
     <use xlink:href="#DejaVuSans-35" transform="translate(1487.451172 0.78125)"/>
    </g>
   </g>
   <g id="line2d_32"/>
   <g id="patch_5">
    <path d="M 57.6 307.584 
L 57.6 41.472 
" style="fill: none; stroke: #000000; stroke-width: 0.8; stroke-linejoin: miter; stroke-linecap: square"/>
   </g>
   <g id="patch_6">
    <path d="M 414.72 307.584 
L 414.72 41.472 
" style="fill: none; stroke: #000000; stroke-width: 0.8; stroke-linejoin: miter; stroke-linecap: square"/>
   </g>
   <g id="patch_7">
    <path d="M 57.6 307.584 
L 414.72 307.584 
" style="fill: none; stroke: #000000; stroke-width: 0.8; stroke-linejoin: miter; stroke-linecap: square"/>
   </g>
   <g id="patch_8">
    <path d="M 57.6 41.472 
L 414.72 41.472 
" style="fill: none; stroke: #000000; stroke-width: 0.8; stroke-linejoin: miter; stroke-linecap: square"/>
   </g>
   <g id="legend_1">
    <g id="patch_9">
     <path d="M 63.9 105.762937 
L 381.15 105.762937 
Q 382.95 105.762937 382.95 103.962937 
L 382.95 47.772 
Q 382.95 45.972 381.15 45.972 
L 63.9 45.972 
Q 62.1 45.972 62.1 47.772 
L 62.1 103.962937 
Q 62.1 105.762937 63.9 105.762937 
z
" style="fill: #ffffff; opacity: 0.8; stroke: #cccccc; stroke-linejoin: miter"/>
    </g>
    <g id="line2d_33">
     <g>
      <use xlink:href="#md90f60fea4" x="74.7" y="53.260594" style="fill: #1f77b4; stroke: #1f77b4"/>
     </g>
    </g>
    <g id="text_18">
     <!-- measurements -->
     <g transform="translate(90.9 56.410594) scale(0.09 -0.09)">
      <use xlink:href="#DejaVuSans-6d"/>
      <use xlink:href="#DejaVuSans-65" transform="translate(97.412109 0)"/>
      <use xlink:href="#DejaVuSans-61" transform="translate(158.935547 0)"/>
      <use xlink:href="#DejaVuSans-73" transform="translate(220.214844 0)"/>
      <use xlink:href="#DejaVuSans-75" transform="translate(272.314453 0)"/>
      <use xlink:href="#DejaVuSans-72" transform="translate(335.693359 0)"/>
      <use xlink:href="#DejaVuSans-65" transform="translate(374.556641 0)"/>
      <use xlink:href="#DejaVuSans-6d" transform="translate(436.080078 0)"/>
      <use xlink:href="#DejaVuSans-65" transform="translate(533.492188 0)"/>
      <use xlink:href="#DejaVuSans-6e" transform="translate(595.015625 0)"/>
      <use xlink:href="#DejaVuSans-74" transform="translate(658.394531 0)"/>
      <use xlink:href="#DejaVuSans-73" transform="translate(697.603516 0)"/>
     </g>
    </g>
    <g id="line2d_34">
     <path d="M 65.7 66.470906 
L 74.7 66.470906 
L 83.7 66.470906 
" style="fill: none; stroke-dasharray: 5.55,2.4; stroke-dashoffset: 0; stroke: #ff0000; stroke-width: 1.5"/>
    </g>
    <g id="text_19">
     <!-- Positive electrode ("charge") -->
     <g transform="translate(90.9 69.620906) scale(0.09 -0.09)">
      <defs>
       <path id="DejaVuSans-50" d="M 1259 4147 
L 1259 2394 
L 2053 2394 
Q 2494 2394 2734 2622 
Q 2975 2850 2975 3272 
Q 2975 3691 2734 3919 
Q 2494 4147 2053 4147 
L 1259 4147 
z
M 628 4666 
L 2053 4666 
Q 2838 4666 3239 4311 
Q 3641 3956 3641 3272 
Q 3641 2581 3239 2228 
Q 2838 1875 2053 1875 
L 1259 1875 
L 1259 0 
L 628 0 
L 628 4666 
z
" transform="scale(0.015625)"/>
       <path id="DejaVuSans-28" d="M 1984 4856 
Q 1566 4138 1362 3434 
Q 1159 2731 1159 2009 
Q 1159 1288 1364 580 
Q 1569 -128 1984 -844 
L 1484 -844 
Q 1016 -109 783 600 
Q 550 1309 550 2009 
Q 550 2706 781 3412 
Q 1013 4119 1484 4856 
L 1984 4856 
z
" transform="scale(0.015625)"/>
       <path id="DejaVuSans-22" d="M 1147 4666 
L 1147 2931 
L 616 2931 
L 616 4666 
L 1147 4666 
z
M 2328 4666 
L 2328 2931 
L 1797 2931 
L 1797 4666 
L 2328 4666 
z
" transform="scale(0.015625)"/>
       <path id="DejaVuSans-68" d="M 3513 2113 
L 3513 0 
L 2938 0 
L 2938 2094 
Q 2938 2591 2744 2837 
Q 2550 3084 2163 3084 
Q 1697 3084 1428 2787 
Q 1159 2491 1159 1978 
L 1159 0 
L 581 0 
L 581 4863 
L 1159 4863 
L 1159 2956 
Q 1366 3272 1645 3428 
Q 1925 3584 2291 3584 
Q 2894 3584 3203 3211 
Q 3513 2838 3513 2113 
z
" transform="scale(0.015625)"/>
       <path id="DejaVuSans-29" d="M 513 4856 
L 1013 4856 
Q 1481 4119 1714 3412 
Q 1947 2706 1947 2009 
Q 1947 1309 1714 600 
Q 1481 -109 1013 -844 
L 513 -844 
Q 928 -128 1133 580 
Q 1338 1288 1338 2009 
Q 1338 2731 1133 3434 
Q 928 4138 513 4856 
z
" transform="scale(0.015625)"/>
      </defs>
      <use xlink:href="#DejaVuSans-50"/>
      <use xlink:href="#DejaVuSans-6f" transform="translate(56.677734 0)"/>
      <use xlink:href="#DejaVuSans-73" transform="translate(117.859375 0)"/>
      <use xlink:href="#DejaVuSans-69" transform="translate(169.958984 0)"/>
      <use xlink:href="#DejaVuSans-74" transform="translate(197.742188 0)"/>
      <use xlink:href="#DejaVuSans-69" transform="translate(236.951172 0)"/>
      <use xlink:href="#DejaVuSans-76" transform="translate(264.734375 0)"/>
      <use xlink:href="#DejaVuSans-65" transform="translate(323.914062 0)"/>
      <use xlink:href="#DejaVuSans-20" transform="translate(385.4375 0)"/>
      <use xlink:href="#DejaVuSans-65" transform="translate(417.224609 0)"/>
      <use xlink:href="#DejaVuSans-6c" transform="translate(478.748047 0)"/>
      <use xlink:href="#DejaVuSans-65" transform="translate(506.53125 0)"/>
      <use xlink:href="#DejaVuSans-63" transform="translate(568.054688 0)"/>
      <use xlink:href="#DejaVuSans-74" transform="translate(623.035156 0)"/>
      <use xlink:href="#DejaVuSans-72" transform="translate(662.244141 0)"/>
      <use xlink:href="#DejaVuSans-6f" transform="translate(701.107422 0)"/>
      <use xlink:href="#DejaVuSans-64" transform="translate(762.289062 0)"/>
      <use xlink:href="#DejaVuSans-65" transform="translate(825.765625 0)"/>
      <use xlink:href="#DejaVuSans-20" transform="translate(887.289062 0)"/>
      <use xlink:href="#DejaVuSans-28" transform="translate(919.076172 0)"/>
      <use xlink:href="#DejaVuSans-22" transform="translate(958.089844 0)"/>
      <use xlink:href="#DejaVuSans-63" transform="translate(1004.085938 0)"/>
      <use xlink:href="#DejaVuSans-68" transform="translate(1059.066406 0)"/>
      <use xlink:href="#DejaVuSans-61" transform="translate(1122.445312 0)"/>
      <use xlink:href="#DejaVuSans-72" transform="translate(1183.724609 0)"/>
      <use xlink:href="#DejaVuSans-67" transform="translate(1223.087891 0)"/>
      <use xlink:href="#DejaVuSans-65" transform="translate(1286.564453 0)"/>
      <use xlink:href="#DejaVuSans-22" transform="translate(1348.087891 0)"/>
      <use xlink:href="#DejaVuSans-29" transform="translate(1394.083984 0)"/>
     </g>
    </g>
    <g id="line2d_35">
     <path d="M 65.7 81.662625 
L 74.7 81.662625 
L 83.7 81.662625 
" style="fill: none; stroke: #800080; stroke-opacity: 0.7; stroke-width: 1.5; stroke-linecap: square"/>
    </g>
    <g id="text_20">
     <!-- $\phi_\mathrm{normalized} = (-0.31045\pm0.00371)\cdot\ln\frac{a-y}{a+y} + (0.06473\pm0.00505)$ -->
     <g transform="translate(90.9 84.812625) scale(0.09 -0.09)">
      <defs>
       <path id="DejaVuSans-Oblique-3d5" d="M 2991 4863 
L 2738 3572 
Q 3363 3572 3684 3094 
Q 4016 2606 3850 1747 
Q 3681 888 3159 400 
Q 2653 -78 2028 -78 
L 1784 -1331 
L 1213 -1331 
L 1456 -78 
Q 834 -78 509 400 
Q 178 888 347 1747 
Q 513 2606 1034 3094 
Q 1544 3572 2166 3572 
L 2419 4863 
L 2991 4863 
z
M 2128 434 
Q 2481 434 2784 756 
Q 3116 1116 3244 1747 
Q 3369 2372 3169 2738 
Q 2991 3059 2638 3059 
L 2128 434 
z
M 1556 434 
L 2066 3059 
Q 1716 3059 1413 2738 
Q 1072 2372 953 1747 
Q 834 1116 1028 756 
Q 1203 434 1556 434 
z
" transform="scale(0.015625)"/>
       <path id="DejaVuSans-7a" d="M 353 3500 
L 3084 3500 
L 3084 2975 
L 922 459 
L 3084 459 
L 3084 0 
L 275 0 
L 275 525 
L 2438 3041 
L 353 3041 
L 353 3500 
z
" transform="scale(0.015625)"/>
       <path id="DejaVuSans-2212" d="M 678 2272 
L 4684 2272 
L 4684 1741 
L 678 1741 
L 678 2272 
z
" transform="scale(0.015625)"/>
       <path id="DejaVuSans-22c5" d="M 684 2619 
L 1344 2619 
L 1344 1825 
L 684 1825 
L 684 2619 
z
" transform="scale(0.015625)"/>
       <path id="DejaVuSans-Oblique-61" d="M 3438 1997 
L 3047 0 
L 2472 0 
L 2578 531 
Q 2325 219 2001 64 
Q 1678 -91 1281 -91 
Q 834 -91 548 182 
Q 263 456 263 884 
Q 263 1497 752 1853 
Q 1241 2209 2100 2209 
L 2900 2209 
L 2931 2363 
Q 2938 2388 2941 2417 
Q 2944 2447 2944 2509 
Q 2944 2788 2717 2942 
Q 2491 3097 2081 3097 
Q 1800 3097 1504 3025 
Q 1209 2953 897 2809 
L 997 3341 
Q 1322 3463 1633 3523 
Q 1944 3584 2234 3584 
Q 2853 3584 3176 3315 
Q 3500 3047 3500 2534 
Q 3500 2431 3484 2292 
Q 3469 2153 3438 1997 
z
M 2816 1759 
L 2241 1759 
Q 1534 1759 1195 1570 
Q 856 1381 856 984 
Q 856 709 1029 553 
Q 1203 397 1509 397 
Q 1978 397 2328 733 
Q 2678 1069 2791 1631 
L 2816 1759 
z
" transform="scale(0.015625)"/>
       <path id="DejaVuSans-Oblique-79" d="M 1588 -325 
Q 1188 -997 936 -1164 
Q 684 -1331 294 -1331 
L -159 -1331 
L -63 -850 
L 269 -850 
Q 509 -850 678 -719 
Q 847 -588 1056 -206 
L 1234 128 
L 459 3500 
L 1069 3500 
L 1650 819 
L 3256 3500 
L 3859 3500 
L 1588 -325 
z
" transform="scale(0.015625)"/>
       <path id="DejaVuSans-2b" d="M 2944 4013 
L 2944 2272 
L 4684 2272 
L 4684 1741 
L 2944 1741 
L 2944 0 
L 2419 0 
L 2419 1741 
L 678 1741 
L 678 2272 
L 2419 2272 
L 2419 4013 
L 2944 4013 
z
" transform="scale(0.015625)"/>
      </defs>
      <use xlink:href="#DejaVuSans-Oblique-3d5" transform="translate(0 0.445312)"/>
      <use xlink:href="#DejaVuSans-6e" transform="translate(65.966797 -15.960938) scale(0.7)"/>
      <use xlink:href="#DejaVuSans-6f" transform="translate(110.332031 -15.960938) scale(0.7)"/>
      <use xlink:href="#DejaVuSans-72" transform="translate(153.15918 -15.960938) scale(0.7)"/>
      <use xlink:href="#DejaVuSans-6d" transform="translate(181.938477 -15.960938) scale(0.7)"/>
      <use xlink:href="#DejaVuSans-61" transform="translate(250.126953 -15.960938) scale(0.7)"/>
      <use xlink:href="#DejaVuSans-6c" transform="translate(293.022461 -15.960938) scale(0.7)"/>
      <use xlink:href="#DejaVuSans-69" transform="translate(312.470703 -15.960938) scale(0.7)"/>
      <use xlink:href="#DejaVuSans-7a" transform="translate(331.918945 -15.960938) scale(0.7)"/>
      <use xlink:href="#DejaVuSans-65" transform="translate(368.662109 -15.960938) scale(0.7)"/>
      <use xlink:href="#DejaVuSans-64" transform="translate(411.728516 -15.960938) scale(0.7)"/>
      <use xlink:href="#DejaVuSans-3d" transform="translate(478.378906 0.445312)"/>
      <use xlink:href="#DejaVuSans-28" transform="translate(581.650391 0.445312)"/>
      <use xlink:href="#DejaVuSans-2212" transform="translate(620.664062 0.445312)"/>
      <use xlink:href="#DejaVuSans-30" transform="translate(704.453125 0.445312)"/>
      <use xlink:href="#DejaVuSans-2e" transform="translate(768.076172 0.445312)"/>
      <use xlink:href="#DejaVuSans-33" transform="translate(799.863281 0.445312)"/>
      <use xlink:href="#DejaVuSans-31" transform="translate(863.486328 0.445312)"/>
      <use xlink:href="#DejaVuSans-30" transform="translate(927.109375 0.445312)"/>
      <use xlink:href="#DejaVuSans-34" transform="translate(990.732422 0.445312)"/>
      <use xlink:href="#DejaVuSans-35" transform="translate(1054.355469 0.445312)"/>
      <use xlink:href="#DejaVuSans-b1" transform="translate(1137.460938 0.445312)"/>
      <use xlink:href="#DejaVuSans-30" transform="translate(1240.732422 0.445312)"/>
      <use xlink:href="#DejaVuSans-2e" transform="translate(1304.355469 0.445312)"/>
      <use xlink:href="#DejaVuSans-30" transform="translate(1336.142578 0.445312)"/>
      <use xlink:href="#DejaVuSans-30" transform="translate(1399.765625 0.445312)"/>
      <use xlink:href="#DejaVuSans-33" transform="translate(1463.388672 0.445312)"/>
      <use xlink:href="#DejaVuSans-37" transform="translate(1527.011719 0.445312)"/>
      <use xlink:href="#DejaVuSans-31" transform="translate(1590.634766 0.445312)"/>
      <use xlink:href="#DejaVuSans-29" transform="translate(1654.257812 0.445312)"/>
      <use xlink:href="#DejaVuSans-22c5" transform="translate(1712.753906 0.445312)"/>
      <use xlink:href="#DejaVuSans-6c" transform="translate(1764.023438 0.445312)"/>
      <use xlink:href="#DejaVuSans-6e" transform="translate(1791.806641 0.445312)"/>
      <use xlink:href="#DejaVuSans-Oblique-61" transform="translate(1871.421223 58.8) scale(0.7)"/>
      <use xlink:href="#DejaVuSans-2212" transform="translate(1927.954426 58.8) scale(0.7)"/>
      <use xlink:href="#DejaVuSans-Oblique-79" transform="translate(2000.244465 58.8) scale(0.7)"/>
      <use xlink:href="#DejaVuSans-Oblique-61" transform="translate(1871.421223 -30.9) scale(0.7)"/>
      <use xlink:href="#DejaVuSans-2b" transform="translate(1927.954426 -30.9) scale(0.7)"/>
      <use xlink:href="#DejaVuSans-Oblique-79" transform="translate(2000.244465 -30.9) scale(0.7)"/>
      <use xlink:href="#DejaVuSans-2b" transform="translate(2073.652668 0.445312)"/>
      <use xlink:href="#DejaVuSans-28" transform="translate(2176.924153 0.445312)"/>
      <use xlink:href="#DejaVuSans-30" transform="translate(2215.937825 0.445312)"/>
      <use xlink:href="#DejaVuSans-2e" transform="translate(2279.560872 0.445312)"/>
      <use xlink:href="#DejaVuSans-30" transform="translate(2311.347981 0.445312)"/>
      <use xlink:href="#DejaVuSans-36" transform="translate(2374.971028 0.445312)"/>
      <use xlink:href="#DejaVuSans-34" transform="translate(2438.594075 0.445312)"/>
      <use xlink:href="#DejaVuSans-37" transform="translate(2502.217122 0.445312)"/>
      <use xlink:href="#DejaVuSans-33" transform="translate(2565.840168 0.445312)"/>
      <use xlink:href="#DejaVuSans-b1" transform="translate(2648.945637 0.445312)"/>
      <use xlink:href="#DejaVuSans-30" transform="translate(2752.217122 0.445312)"/>
      <use xlink:href="#DejaVuSans-2e" transform="translate(2815.840168 0.445312)"/>
      <use xlink:href="#DejaVuSans-30" transform="translate(2847.627278 0.445312)"/>
      <use xlink:href="#DejaVuSans-30" transform="translate(2911.250325 0.445312)"/>
      <use xlink:href="#DejaVuSans-35" transform="translate(2974.873372 0.445312)"/>
      <use xlink:href="#DejaVuSans-30" transform="translate(3038.496418 0.445312)"/>
      <use xlink:href="#DejaVuSans-35" transform="translate(3102.119465 0.445312)"/>
      <use xlink:href="#DejaVuSans-29" transform="translate(3165.742512 0.445312)"/>
      <path d="M 1871.421223 19.242188 
L 1871.421223 25.492188 
L 2041.670247 25.492188 
L 2041.670247 19.242188 
L 1871.421223 19.242188 
z
"/>
     </g>
    </g>
    <g id="LineCollection_3">
     <path d="M 70.2 97.141219 
L 79.2 97.141219 
" style="fill: none; stroke: #39ff14; stroke-width: 1.5"/>
    </g>
    <g id="LineCollection_4">
     <path d="M 74.7 101.641219 
L 74.7 92.641219 
" style="fill: none; stroke: #39ff14; stroke-width: 1.5"/>
    </g>
    <g id="line2d_36"/>
    <g id="line2d_37"/>
    <g id="text_21">
     <!-- Error bars -->
     <g transform="translate(90.9 100.291219) scale(0.09 -0.09)">
      <defs>
       <path id="DejaVuSans-45" d="M 628 4666 
L 3578 4666 
L 3578 4134 
L 1259 4134 
L 1259 2753 
L 3481 2753 
L 3481 2222 
L 1259 2222 
L 1259 531 
L 3634 531 
L 3634 0 
L 628 0 
L 628 4666 
z
" transform="scale(0.015625)"/>
       <path id="DejaVuSans-62" d="M 3116 1747 
Q 3116 2381 2855 2742 
Q 2594 3103 2138 3103 
Q 1681 3103 1420 2742 
Q 1159 2381 1159 1747 
Q 1159 1113 1420 752 
Q 1681 391 2138 391 
Q 2594 391 2855 752 
Q 3116 1113 3116 1747 
z
M 1159 2969 
Q 1341 3281 1617 3432 
Q 1894 3584 2278 3584 
Q 2916 3584 3314 3078 
Q 3713 2572 3713 1747 
Q 3713 922 3314 415 
Q 2916 -91 2278 -91 
Q 1894 -91 1617 61 
Q 1341 213 1159 525 
L 1159 0 
L 581 0 
L 581 4863 
L 1159 4863 
L 1159 2969 
z
" transform="scale(0.015625)"/>
      </defs>
      <use xlink:href="#DejaVuSans-45"/>
      <use xlink:href="#DejaVuSans-72" transform="translate(63.183594 0)"/>
      <use xlink:href="#DejaVuSans-72" transform="translate(102.546875 0)"/>
      <use xlink:href="#DejaVuSans-6f" transform="translate(141.410156 0)"/>
      <use xlink:href="#DejaVuSans-72" transform="translate(202.591797 0)"/>
      <use xlink:href="#DejaVuSans-20" transform="translate(243.705078 0)"/>
      <use xlink:href="#DejaVuSans-62" transform="translate(275.492188 0)"/>
      <use xlink:href="#DejaVuSans-61" transform="translate(338.96875 0)"/>
      <use xlink:href="#DejaVuSans-72" transform="translate(400.248047 0)"/>
      <use xlink:href="#DejaVuSans-73" transform="translate(441.361328 0)"/>
     </g>
    </g>
   </g>
  </g>
 </g>
 <defs>
  <clipPath id="p73cb614178">
   <rect x="57.6" y="41.472" width="357.12" height="266.112"/>
  </clipPath>
 </defs>
</svg>
