<svg width="1059" height="763" xmlns="http://www.w3.org/2000/svg" xmlns:xlink="http://www.w3.org/1999/xlink" xml:space="preserve" overflow="hidden"><g transform="translate(-877 -369)"><path d="M1360.5 369.5 1360.5 1128.5" stroke="#000000" stroke-width="6.875" stroke-miterlimit="8" fill="none" fill-rule="evenodd"/><path d="M1013.29 483.104 1027.62 483.104 1027.23 484.85C1026.32 485.04 1025.68 485.254 1025.28 485.492 1024.89 485.729 1024.54 486.086 1024.22 486.561 1023.89 487.036 1023.57 487.779 1023.25 488.789 1022.93 489.799 1022.52 491.444 1022.02 493.726L1017.57 513.687C1017.26 515.041 1017.01 516.33 1016.84 517.554 1016.66 518.778 1016.57 520.043 1016.57 521.35 1016.57 523.94 1017.21 525.901 1018.48 527.231 1019.75 528.562 1021.67 529.228 1024.23 529.228 1026.66 529.228 1028.68 528.729 1030.29 527.73 1031.91 526.732 1033.2 525.295 1034.18 523.417 1035.15 521.54 1035.97 519.104 1036.64 516.11L1041.59 493.69C1042.11 491.314 1042.38 489.401 1042.38 487.951 1042.38 486.834 1042.1 486.056 1041.54 485.616 1040.98 485.177 1040.09 484.921 1038.88 484.85L1039.27 483.104 1052.82 483.104 1052.43 484.85C1051.55 485.04 1050.9 485.26 1050.49 485.51 1050.07 485.759 1049.7 486.121 1049.38 486.597 1049.06 487.072 1048.74 487.82 1048.44 488.842 1048.13 489.864 1047.72 491.492 1047.22 493.726L1042.59 515.077C1041.66 519.33 1040.36 522.716 1038.67 525.235 1036.98 527.754 1034.87 529.572 1032.34 530.689 1029.81 531.806 1026.72 532.364 1023.06 532.364 1018.95 532.364 1015.8 531.372 1013.61 529.388 1011.42 527.404 1010.33 524.511 1010.33 520.708 1010.33 519.378 1010.47 517.851 1010.74 516.128 1011.01 514.405 1011.4 512.463 1011.9 510.3L1015.61 493.69C1016.15 491.242 1016.43 489.329 1016.43 487.951 1016.43 486.882 1016.15 486.115 1015.61 485.652 1015.06 485.189 1014.16 484.921 1012.9 484.85Z" fill-rule="evenodd"/><text fill="#000000" fill-opacity="0" font-family="Arial,Arial_MSFontService,sans-serif" font-size="49.2607" x="1010.33" y="526.207">𝑈</text><path d="M1066.58 512.762 1068.19 512.762C1068.15 513.729 1068.13 514.594 1068.11 515.359 1068.09 516.124 1068.08 516.866 1068.07 517.587 1068.06 518.308 1068.06 519.02 1068.06 519.723L1068.06 539.762C1068.06 540.307 1068.07 540.777 1068.11 541.173 1068.14 541.568 1068.2 541.902 1068.28 542.175 1068.36 542.447 1068.46 542.68 1068.6 542.873 1068.73 543.067 1068.88 543.234 1069.06 543.374 1069.27 543.585 1069.55 543.748 1069.9 543.862 1070.25 543.976 1070.7 544.073 1071.25 544.152 1071.79 544.231 1072.45 544.293 1073.21 544.337 1073.98 544.381 1074.89 544.411 1075.97 544.429L1075.97 546.723 1055.06 546.723 1055.06 544.429C1056.09 544.394 1056.97 544.354 1057.69 544.31 1058.41 544.266 1059.03 544.205 1059.54 544.126 1060.05 544.047 1060.46 543.959 1060.77 543.862 1061.07 543.765 1061.34 543.647 1061.57 543.506 1061.82 543.348 1062.03 543.177 1062.2 542.992 1062.38 542.807 1062.52 542.574 1062.62 542.293 1062.73 542.012 1062.81 541.669 1062.87 541.265 1062.94 540.861 1062.97 540.36 1062.97 539.762L1062.97 520.857C1062.97 520.171 1062.83 519.688 1062.57 519.406 1062.31 519.125 1061.93 518.985 1061.44 518.985 1060.89 518.985 1060.08 519.266 1059.01 519.828 1057.94 520.391 1056.55 521.226 1054.85 522.333 1054.62 521.929 1054.41 521.525 1054.21 521.12 1054.02 520.716 1053.82 520.303 1053.61 519.881 1055.79 518.686 1057.94 517.495 1060.08 516.308 1062.22 515.122 1064.38 513.94 1066.58 512.762Z" fill-rule="evenodd"/><text fill="#000000" fill-opacity="0" font-family="Arial,Arial_MSFontService,sans-serif" font-size="33.9609" x="1053.61" y="542.478">1</text><path d="M1040.56 891.337C1042.06 891.337 1043.15 891.728 1043.81 892.509 1044.48 893.291 1044.81 894.337 1044.81 895.65 1044.81 896.65 1044.64 897.796 1044.28 899.087 1043.93 900.379 1043.43 901.744 1042.78 903.181 1042.14 904.619 1041.36 906.093 1040.47 907.603 1039.57 909.114 1038.58 910.582 1037.5 912.009 1036.42 913.436 1035.26 914.78 1034.03 916.041 1032.8 917.301 1031.53 918.4 1030.2 919.337 1028.88 920.275 1027.54 921.02 1026.17 921.572 1024.81 922.124 1023.45 922.4 1022.09 922.4 1021.49 922.4 1020.98 922.249 1020.58 921.947 1020.17 921.645 1019.84 921.218 1019.59 920.666 1019.34 920.114 1019.17 919.462 1019.06 918.712 1018.96 917.962 1018.91 917.14 1018.91 916.244 1018.91 915.056 1018.98 913.785 1019.12 912.431 1019.27 911.077 1019.46 909.712 1019.69 908.337L1021 899.681C1021.08 899.181 1021.15 898.707 1021.2 898.259 1021.26 897.811 1021.28 897.483 1021.28 897.275 1021.28 896.629 1021.18 896.098 1020.97 895.681 1020.76 895.265 1020.41 895.056 1019.91 895.056 1019.51 895.056 1019.08 895.176 1018.62 895.416 1018.17 895.655 1017.7 895.962 1017.23 896.337 1016.77 896.712 1016.31 897.114 1015.87 897.541 1015.44 897.968 1015.03 898.369 1014.66 898.744L1013.16 896.994C1013.8 896.327 1014.49 895.666 1015.22 895.009 1015.95 894.353 1016.72 893.759 1017.53 893.228 1018.34 892.697 1019.2 892.27 1020.09 891.947 1020.99 891.624 1021.91 891.462 1022.84 891.462 1023.64 891.462 1024.28 891.593 1024.78 891.853 1025.28 892.114 1025.67 892.457 1025.95 892.884 1026.23 893.311 1026.43 893.78 1026.53 894.291 1026.64 894.801 1026.69 895.306 1026.69 895.806 1026.69 896.098 1026.68 896.379 1026.66 896.65 1026.64 896.921 1026.6 897.171 1026.56 897.4L1024.81 908.712C1024.62 909.9 1024.47 911.061 1024.34 912.197 1024.22 913.332 1024.16 914.337 1024.16 915.212 1024.16 916.087 1024.21 916.796 1024.31 917.337 1024.42 917.879 1024.61 918.15 1024.91 918.15 1025.59 918.15 1026.46 917.874 1027.5 917.322 1028.54 916.77 1029.64 916.009 1030.78 915.041 1031.93 914.072 1033.07 912.926 1034.22 911.603 1035.36 910.28 1036.4 908.848 1037.31 907.306 1038.23 905.765 1038.97 904.14 1039.55 902.431 1040.12 900.723 1040.41 899.004 1040.41 897.275 1040.41 896.525 1040.24 895.947 1039.92 895.541 1039.6 895.134 1039.09 894.931 1038.41 894.931 1037.53 894.931 1036.72 895.27 1035.98 895.947 1035.24 896.624 1034.48 897.515 1033.69 898.619L1031.91 897.025C1032.41 896.275 1032.99 895.556 1033.67 894.869 1034.35 894.181 1035.07 893.577 1035.83 893.056 1036.59 892.535 1037.37 892.119 1038.19 891.806 1039 891.494 1039.79 891.337 1040.56 891.337Z" fill-rule="evenodd"/><text fill="#000000" fill-opacity="0" font-family="Arial,Arial_MSFontService,sans-serif" font-size="31.0625" x="1013.16" y="918.517">𝑣</text><path d="M1059.25 905.396 1060.65 905.396C1060.62 906.237 1060.6 906.99 1060.58 907.656 1060.57 908.322 1060.56 908.968 1060.55 909.595 1060.54 910.222 1060.54 910.842 1060.54 911.454L1060.54 928.896C1060.54 929.37 1060.55 929.779 1060.58 930.123 1060.61 930.468 1060.66 930.758 1060.73 930.995 1060.8 931.232 1060.89 931.435 1061.01 931.604 1061.12 931.772 1061.26 931.917 1061.41 932.04 1061.59 932.223 1061.84 932.365 1062.14 932.464 1062.45 932.564 1062.84 932.648 1063.32 932.717 1063.79 932.785 1064.36 932.839 1065.02 932.877 1065.69 932.915 1066.49 932.942 1067.42 932.958L1067.42 934.954 1049.22 934.954 1049.22 932.958C1050.13 932.927 1050.89 932.893 1051.52 932.854 1052.15 932.816 1052.68 932.762 1053.13 932.694 1053.57 932.625 1053.93 932.548 1054.19 932.464 1054.46 932.38 1054.69 932.277 1054.89 932.154 1055.11 932.017 1055.29 931.867 1055.44 931.707 1055.6 931.546 1055.72 931.343 1055.81 931.099 1055.9 930.854 1055.98 930.555 1056.03 930.204 1056.08 929.852 1056.11 929.416 1056.11 928.896L1056.11 912.441C1056.11 911.844 1055.99 911.424 1055.76 911.179 1055.54 910.934 1055.21 910.812 1054.78 910.812 1054.3 910.812 1053.6 911.056 1052.67 911.546 1051.73 912.035 1050.52 912.762 1049.04 913.726 1048.84 913.374 1048.66 913.022 1048.49 912.67 1048.32 912.319 1048.15 911.959 1047.96 911.592 1049.86 910.551 1051.74 909.515 1053.6 908.482 1055.46 907.449 1057.34 906.421 1059.25 905.396Z" fill-rule="evenodd"/><text fill="#000000" fill-opacity="0" font-family="Arial,Arial_MSFontService,sans-serif" font-size="29.5586" x="1047.96" y="931.259">1</text><path d="M1065.62 871.448 1073.47 878.229 1073.47 880.042 1065.62 886.823 1063.97 884.948 1068.97 880.604 1056.07 880.604 1049.9 880.604 1047.3 880.604 1038.52 880.604 1037.32 880.604 1029.74 880.604 1028.55 880.604 1019.77 880.604 1010.99 880.604 1010.99 877.667 1019.77 877.667 1028.55 877.667 1029.74 877.667 1037.32 877.667 1038.52 877.667 1047.3 877.667 1049.9 877.667 1056.07 877.667 1068.97 877.667 1063.97 873.323Z" fill-rule="evenodd"/><path d="M2.44525-4.53957 442.205 232.338 437.315 241.417-2.44525 4.53957ZM442.557 220.814 462.458 249.104 427.885 248.051Z" fill="#4EA72E" transform="matrix(1 0 0 -1 880 1086.1)"/><path d="M1649.07 480.354 1663.4 480.354 1663 482.1C1662.1 482.29 1661.45 482.504 1661.06 482.742 1660.67 482.979 1660.31 483.336 1659.99 483.811 1659.67 484.286 1659.35 485.029 1659.03 486.039 1658.71 487.049 1658.3 488.694 1657.8 490.976L1653.34 510.937C1653.04 512.291 1652.79 513.58 1652.61 514.804 1652.44 516.028 1652.35 517.293 1652.35 518.6 1652.35 521.19 1652.98 523.151 1654.25 524.481 1655.52 525.812 1657.44 526.478 1660.01 526.478 1662.43 526.478 1664.45 525.979 1666.07 524.98 1667.69 523.982 1668.98 522.545 1669.95 520.667 1670.93 518.79 1671.75 516.354 1672.41 513.36L1677.37 490.94C1677.89 488.564 1678.15 486.651 1678.15 485.201 1678.15 484.084 1677.87 483.306 1677.32 482.866 1676.76 482.427 1675.87 482.171 1674.66 482.1L1675.05 480.354 1688.6 480.354 1688.2 482.1C1687.33 482.29 1686.68 482.51 1686.26 482.76 1685.85 483.009 1685.48 483.371 1685.16 483.847 1684.84 484.322 1684.52 485.07 1684.21 486.092 1683.9 487.114 1683.5 488.742 1683 490.976L1678.37 512.327C1677.44 516.58 1676.13 519.966 1674.45 522.485 1672.76 525.004 1670.65 526.822 1668.12 527.939 1665.59 529.056 1662.49 529.614 1658.83 529.614 1654.72 529.614 1651.57 528.622 1649.39 526.638 1647.2 524.654 1646.11 521.761 1646.11 517.958 1646.11 516.628 1646.25 515.101 1646.52 513.378 1646.79 511.655 1647.18 509.713 1647.68 507.55L1651.38 490.94C1651.93 488.492 1652.2 486.579 1652.2 485.201 1652.2 484.132 1651.93 483.365 1651.38 482.902 1650.84 482.439 1649.93 482.171 1648.67 482.1Z" fill-rule="evenodd"/><text fill="#000000" fill-opacity="0" font-family="Arial,Arial_MSFontService,sans-serif" font-size="49.2607" x="1646.11" y="523.457">𝑈</text><path d="M1702 509.827C1703.82 509.827 1705.38 510.034 1706.68 510.447 1707.97 510.86 1709.02 511.418 1709.83 512.121 1710.63 512.824 1711.22 513.668 1711.58 514.653 1711.94 515.637 1712.12 516.7 1712.12 517.843 1712.12 518.529 1712.07 519.166 1711.98 519.755 1711.88 520.344 1711.71 520.924 1711.47 521.495 1711.24 522.066 1710.92 522.642 1710.54 523.222 1710.15 523.802 1709.67 524.417 1709.09 525.068 1708.65 525.63 1708.08 526.281 1707.37 527.019 1706.67 527.757 1705.9 528.548 1705.07 529.392 1704.23 530.236 1703.36 531.115 1702.44 532.029 1701.53 532.943 1700.64 533.848 1699.78 534.744 1698.92 535.641 1698.13 536.511 1697.41 537.355 1696.69 538.198 1696.1 538.972 1695.64 539.675L1705.4 539.675C1706.22 539.675 1706.88 539.644 1707.37 539.583 1707.87 539.521 1708.28 539.385 1708.6 539.174 1708.93 538.963 1709.2 538.642 1709.43 538.212 1709.66 537.781 1709.92 537.188 1710.22 536.432L1712.67 536.432C1712.59 537.68 1712.5 538.937 1712.42 540.202 1712.34 541.468 1712.26 542.725 1712.17 543.973L1689.84 543.973 1689.84 542.602C1690.26 541.653 1690.75 540.717 1691.32 539.794 1691.88 538.871 1692.51 537.935 1693.21 536.986 1693.92 536.036 1694.72 535.056 1695.61 534.046 1696.51 533.035 1697.5 531.985 1698.59 530.895 1700.25 529.242 1701.59 527.832 1702.63 526.663 1703.67 525.494 1704.48 524.452 1705.08 523.538 1705.68 522.624 1706.09 521.781 1706.31 521.007 1706.53 520.234 1706.64 519.407 1706.64 518.529 1706.64 517.632 1706.51 516.806 1706.25 516.05 1706 515.294 1705.63 514.653 1705.16 514.125 1704.68 513.598 1704.08 513.185 1703.35 512.886 1702.62 512.587 1701.78 512.438 1700.84 512.438 1699.2 512.438 1697.83 512.882 1696.72 513.769 1695.61 514.657 1694.75 515.945 1694.14 517.632L1690.68 517.632 1690.68 512.49C1692.93 511.559 1695 510.882 1696.89 510.46 1698.78 510.038 1700.48 509.827 1702 509.827Z" fill-rule="evenodd"/><text fill="#000000" fill-opacity="0" font-family="Arial,Arial_MSFontService,sans-serif" font-size="34.1455" x="1689.84" y="539.705">2</text><path d="M1676.43 690.587C1677.93 690.587 1679.01 690.978 1679.68 691.759 1680.35 692.541 1680.68 693.587 1680.68 694.9 1680.68 695.9 1680.5 697.046 1680.15 698.337 1679.8 699.629 1679.3 700.994 1678.65 702.431 1678 703.869 1677.23 705.343 1676.34 706.853 1675.44 708.364 1674.45 709.832 1673.37 711.259 1672.29 712.686 1671.13 714.03 1669.9 715.291 1668.67 716.551 1667.39 717.65 1666.07 718.587 1664.75 719.525 1663.41 720.27 1662.04 720.822 1660.68 721.374 1659.32 721.65 1657.96 721.65 1657.36 721.65 1656.85 721.499 1656.45 721.197 1656.04 720.895 1655.71 720.468 1655.46 719.916 1655.21 719.364 1655.04 718.712 1654.93 717.962 1654.83 717.212 1654.77 716.39 1654.77 715.494 1654.77 714.306 1654.85 713.035 1654.99 711.681 1655.14 710.327 1655.33 708.962 1655.56 707.587L1656.87 698.931C1656.95 698.431 1657.02 697.957 1657.07 697.509 1657.12 697.061 1657.15 696.733 1657.15 696.525 1657.15 695.879 1657.05 695.348 1656.84 694.931 1656.63 694.515 1656.27 694.306 1655.77 694.306 1655.38 694.306 1654.95 694.426 1654.49 694.666 1654.04 694.905 1653.57 695.212 1653.1 695.587 1652.63 695.962 1652.18 696.364 1651.74 696.791 1651.31 697.218 1650.9 697.619 1650.52 697.994L1649.02 696.244C1649.67 695.577 1650.36 694.916 1651.09 694.259 1651.82 693.603 1652.59 693.009 1653.4 692.478 1654.21 691.947 1655.07 691.52 1655.96 691.197 1656.86 690.874 1657.77 690.712 1658.71 690.712 1659.5 690.712 1660.15 690.843 1660.65 691.103 1661.15 691.364 1661.54 691.707 1661.82 692.134 1662.1 692.561 1662.3 693.03 1662.4 693.541 1662.5 694.051 1662.56 694.556 1662.56 695.056 1662.56 695.348 1662.55 695.629 1662.52 695.9 1662.5 696.171 1662.47 696.421 1662.43 696.65L1660.68 707.962C1660.49 709.15 1660.34 710.311 1660.21 711.447 1660.09 712.582 1660.02 713.587 1660.02 714.462 1660.02 715.337 1660.08 716.046 1660.18 716.587 1660.29 717.129 1660.48 717.4 1660.77 717.4 1661.46 717.4 1662.33 717.124 1663.37 716.572 1664.41 716.02 1665.5 715.259 1666.65 714.291 1667.8 713.322 1668.94 712.176 1670.09 710.853 1671.23 709.53 1672.26 708.098 1673.18 706.556 1674.1 705.015 1674.84 703.39 1675.42 701.681 1675.99 699.973 1676.27 698.254 1676.27 696.525 1676.27 695.775 1676.11 695.197 1675.79 694.791 1675.47 694.384 1674.96 694.181 1674.27 694.181 1673.4 694.181 1672.59 694.52 1671.85 695.197 1671.11 695.874 1670.35 696.765 1669.56 697.869L1667.77 696.275C1668.27 695.525 1668.86 694.806 1669.54 694.119 1670.22 693.431 1670.94 692.827 1671.7 692.306 1672.46 691.785 1673.24 691.369 1674.06 691.056 1674.87 690.744 1675.66 690.587 1676.43 690.587Z" fill-rule="evenodd"/><text fill="#000000" fill-opacity="0" font-family="Arial,Arial_MSFontService,sans-serif" font-size="31.0625" x="1649.02" y="717.767">𝑣</text><path d="M1694.82 704.485C1696.41 704.485 1697.77 704.665 1698.89 705.024 1700.02 705.384 1700.93 705.869 1701.64 706.481 1702.34 707.093 1702.85 707.828 1703.16 708.685 1703.48 709.541 1703.63 710.467 1703.63 711.461 1703.63 712.058 1703.59 712.613 1703.51 713.125 1703.42 713.638 1703.28 714.143 1703.07 714.64 1702.87 715.137 1702.59 715.638 1702.26 716.143 1701.92 716.648 1701.5 717.183 1700.99 717.75 1700.61 718.239 1700.11 718.805 1699.5 719.448 1698.89 720.09 1698.22 720.779 1697.49 721.513 1696.77 722.248 1696.01 723.013 1695.21 723.808 1694.42 724.604 1693.64 725.392 1692.89 726.172 1692.14 726.952 1691.46 727.709 1690.83 728.444 1690.2 729.178 1689.69 729.851 1689.29 730.463L1697.78 730.463C1698.5 730.463 1699.07 730.437 1699.5 730.383 1699.93 730.33 1700.29 730.211 1700.57 730.027 1700.85 729.844 1701.09 729.565 1701.29 729.19 1701.49 728.815 1701.72 728.299 1701.98 727.641L1704.12 727.641C1704.04 728.727 1703.97 729.821 1703.9 730.922 1703.83 732.024 1703.76 733.118 1703.68 734.204L1684.24 734.204 1684.24 733.011C1684.61 732.185 1685.04 731.37 1685.53 730.567 1686.02 729.763 1686.57 728.949 1687.18 728.123 1687.79 727.296 1688.49 726.443 1689.27 725.564 1690.05 724.684 1690.91 723.77 1691.86 722.821 1693.3 721.383 1694.47 720.155 1695.37 719.138 1696.27 718.121 1696.99 717.214 1697.51 716.418 1698.03 715.623 1698.38 714.888 1698.57 714.215 1698.76 713.542 1698.86 712.823 1698.86 712.058 1698.86 711.278 1698.75 710.559 1698.53 709.901 1698.31 709.243 1697.99 708.685 1697.58 708.226 1697.16 707.767 1696.64 707.407 1696 707.147 1695.37 706.887 1694.64 706.757 1693.81 706.757 1692.39 706.757 1691.2 707.143 1690.23 707.916 1689.27 708.688 1688.52 709.809 1687.98 711.278L1684.98 711.278 1684.98 706.803C1686.93 705.992 1688.74 705.403 1690.38 705.036 1692.03 704.668 1693.51 704.485 1694.82 704.485Z" fill-rule="evenodd"/><text fill="#000000" fill-opacity="0" font-family="Arial,Arial_MSFontService,sans-serif" font-size="29.7192" x="1684.24" y="730.489">2</text><path d="M1702.96 670.698 1710.8 677.479 1710.8 679.292 1702.96 686.073 1701.3 684.198 1706.3 679.854 1693.41 679.854 1687.24 679.854 1684.15 679.854 1674.89 679.854 1674.66 679.854 1665.61 679.854 1665.4 679.854 1656.14 679.854 1646.86 679.854 1646.86 676.917 1656.14 676.917 1665.4 676.917 1665.61 676.917 1674.66 676.917 1674.89 676.917 1684.15 676.917 1687.24 676.917 1693.41 676.917 1706.3 676.917 1701.3 672.573Z" fill-rule="evenodd"/><path d="M1.13839-5.02901 492.306 106.154 490.029 116.212-1.13839 5.02901ZM489.554 94.9576 516.312 116.875 482.723 125.132Z" fill="#4EA72E" transform="matrix(1 0 0 -1 1389 837.875)"/></g></svg>