<?xml version="1.0" encoding="utf-8" standalone="no"?>
<!DOCTYPE svg PUBLIC "-//W3C//DTD SVG 1.1//EN"
  "http://www.w3.org/Graphics/SVG/1.1/DTD/svg11.dtd">
<svg xmlns:xlink="http://www.w3.org/1999/xlink" width="432pt" height="432pt" viewBox="0 0 432 432" xmlns="http://www.w3.org/2000/svg" version="1.1">
 <metadata>
  <rdf:RDF xmlns:dc="http://purl.org/dc/elements/1.1/" xmlns:cc="http://creativecommons.org/ns#" xmlns:rdf="http://www.w3.org/1999/02/22-rdf-syntax-ns#">
   <cc:Work>
    <dc:type rdf:resource="http://purl.org/dc/dcmitype/StillImage"/>
    <dc:date>2026-01-15T23:57:05.821432</dc:date>
    <dc:format>image/svg+xml</dc:format>
    <dc:creator>
     <cc:Agent>
      <dc:title>Matplotlib v3.10.8, https://matplotlib.org/</dc:title>
     </cc:Agent>
    </dc:creator>
   </cc:Work>
  </rdf:RDF>
 </metadata>
 <defs>
  <style type="text/css">*{stroke-linejoin: round; stroke-linecap: butt}</style>
 </defs>
 <g id="figure_1">
  <g id="patch_1">
   <path d="M 0 432 
L 432 432 
L 432 0 
L 0 0 
z
" style="fill: #ffffff"/>
  </g>
  <g id="axes_1">
   <g id="patch_2">
    <path d="M 382.827 238.528 
C 382.827 217.040043 378.594341 195.761029 370.371256 175.908745 
C 362.14817 156.056461 350.094577 138.016984 334.900297 122.822703 
C 319.706016 107.628423 301.666539 95.57483 281.814255 87.351744 
C 261.961971 79.128659 240.682957 74.896 219.195 74.896 
C 197.707043 74.896 176.428029 79.128659 156.575745 87.351744 
C 136.723461 95.57483 118.683984 107.628423 103.489703 122.822703 
C 88.295423 138.016984 76.24183 156.056461 68.018744 175.908745 
C 59.795659 195.761029 55.563 217.040043 55.563 238.528 
C 55.563 260.015957 59.795659 281.294971 68.018744 301.147255 
C 76.24183 320.999539 88.295423 339.039016 103.489703 354.233297 
C 118.683984 369.427577 136.723461 381.48117 156.575745 389.704256 
C 176.428029 397.927341 197.707043 402.16 219.195 402.16 
C 240.682957 402.16 261.961971 397.927341 281.814255 389.704256 
C 301.666539 381.48117 319.706016 369.427577 334.900297 354.233297 
C 350.094577 339.039016 362.14817 320.999539 370.371256 301.147255 
C 378.594341 281.294971 382.827 260.015957 382.827 238.528 
M 219.195 238.528 
C 219.195 238.528 219.195 238.528 219.195 238.528 
C 219.195 238.528 219.195 238.528 219.195 238.528 
C 219.195 238.528 219.195 238.528 219.195 238.528 
C 219.195 238.528 219.195 238.528 219.195 238.528 
C 219.195 238.528 219.195 238.528 219.195 238.528 
C 219.195 238.528 219.195 238.528 219.195 238.528 
C 219.195 238.528 219.195 238.528 219.195 238.528 
C 219.195 238.528 219.195 238.528 219.195 238.528 
C 219.195 238.528 219.195 238.528 219.195 238.528 
C 219.195 238.528 219.195 238.528 219.195 238.528 
C 219.195 238.528 219.195 238.528 219.195 238.528 
C 219.195 238.528 219.195 238.528 219.195 238.528 
C 219.195 238.528 219.195 238.528 219.195 238.528 
C 219.195 238.528 219.195 238.528 219.195 238.528 
C 219.195 238.528 219.195 238.528 219.195 238.528 
C 219.195 238.528 219.195 238.528 219.195 238.528 
z
" style="fill: #ffffff"/>
   </g>
   <g id="matplotlib.axis_1">
    <g id="xtick_1">
     <g id="line2d_1">
      <path d="M 219.195 238.528 
L 382.827 238.528 
" clip-path="url(#p31027b3b0b)" style="fill: none; stroke: #b0b0b0; stroke-width: 0.8; stroke-linecap: square"/>
     </g>
     <g id="text_1">
      <!-- 0° -->
      <g transform="translate(391.14575 241.287375) scale(0.1 -0.1)">
       <defs>
        <path id="DejaVuSans-30" d="M 2034 4250 
Q 1547 4250 1301 3770 
Q 1056 3291 1056 2328 
Q 1056 1369 1301 889 
Q 1547 409 2034 409 
Q 2525 409 2770 889 
Q 3016 1369 3016 2328 
Q 3016 3291 2770 3770 
Q 2525 4250 2034 4250 
z
M 2034 4750 
Q 2819 4750 3233 4129 
Q 3647 3509 3647 2328 
Q 3647 1150 3233 529 
Q 2819 -91 2034 -91 
Q 1250 -91 836 529 
Q 422 1150 422 2328 
Q 422 3509 836 4129 
Q 1250 4750 2034 4750 
z
" transform="scale(0.015625)"/>
        <path id="DejaVuSans-b0" d="M 1600 4347 
Q 1350 4347 1178 4173 
Q 1006 4000 1006 3750 
Q 1006 3503 1178 3333 
Q 1350 3163 1600 3163 
Q 1850 3163 2022 3333 
Q 2194 3503 2194 3750 
Q 2194 3997 2020 4172 
Q 1847 4347 1600 4347 
z
M 1600 4750 
Q 1800 4750 1984 4673 
Q 2169 4597 2303 4453 
Q 2447 4313 2519 4134 
Q 2591 3956 2591 3750 
Q 2591 3338 2302 3052 
Q 2013 2766 1594 2766 
Q 1172 2766 890 3047 
Q 609 3328 609 3750 
Q 609 4169 896 4459 
Q 1184 4750 1600 4750 
z
" transform="scale(0.015625)"/>
       </defs>
       <use xlink:href="#DejaVuSans-30"/>
       <use xlink:href="#DejaVuSans-b0" transform="translate(63.623047 0)"/>
      </g>
     </g>
    </g>
    <g id="xtick_2">
     <g id="line2d_2">
      <path d="M 219.195 238.528 
L 334.900297 122.822703 
" clip-path="url(#p31027b3b0b)" style="fill: none; stroke: #b0b0b0; stroke-width: 0.8; stroke-linecap: square"/>
     </g>
     <g id="text_2">
      <!-- 45° -->
      <g transform="translate(335.937292 115.682583) scale(0.1 -0.1)">
       <defs>
        <path id="DejaVuSans-34" d="M 2419 4116 
L 825 1625 
L 2419 1625 
L 2419 4116 
z
M 2253 4666 
L 3047 4666 
L 3047 1625 
L 3713 1625 
L 3713 1100 
L 3047 1100 
L 3047 0 
L 2419 0 
L 2419 1100 
L 313 1100 
L 313 1709 
L 2253 4666 
z
" transform="scale(0.015625)"/>
        <path id="DejaVuSans-35" d="M 691 4666 
L 3169 4666 
L 3169 4134 
L 1269 4134 
L 1269 2991 
Q 1406 3038 1543 3061 
Q 1681 3084 1819 3084 
Q 2600 3084 3056 2656 
Q 3513 2228 3513 1497 
Q 3513 744 3044 326 
Q 2575 -91 1722 -91 
Q 1428 -91 1123 -41 
Q 819 9 494 109 
L 494 744 
Q 775 591 1075 516 
Q 1375 441 1709 441 
Q 2250 441 2565 725 
Q 2881 1009 2881 1497 
Q 2881 1984 2565 2268 
Q 2250 2553 1709 2553 
Q 1456 2553 1204 2497 
Q 953 2441 691 2322 
L 691 4666 
z
" transform="scale(0.015625)"/>
       </defs>
       <use xlink:href="#DejaVuSans-34"/>
       <use xlink:href="#DejaVuSans-35" transform="translate(63.623047 0)"/>
       <use xlink:href="#DejaVuSans-b0" transform="translate(127.246094 0)"/>
      </g>
     </g>
    </g>
    <g id="xtick_3">
     <g id="line2d_3">
      <path d="M 219.195 238.528 
L 219.195 74.896 
" clip-path="url(#p31027b3b0b)" style="fill: none; stroke: #b0b0b0; stroke-width: 0.8; stroke-linecap: square"/>
     </g>
     <g id="text_3">
      <!-- 90° -->
      <g transform="translate(210.3325 63.655375) scale(0.1 -0.1)">
       <defs>
        <path id="DejaVuSans-39" d="M 703 97 
L 703 672 
Q 941 559 1184 500 
Q 1428 441 1663 441 
Q 2288 441 2617 861 
Q 2947 1281 2994 2138 
Q 2813 1869 2534 1725 
Q 2256 1581 1919 1581 
Q 1219 1581 811 2004 
Q 403 2428 403 3163 
Q 403 3881 828 4315 
Q 1253 4750 1959 4750 
Q 2769 4750 3195 4129 
Q 3622 3509 3622 2328 
Q 3622 1225 3098 567 
Q 2575 -91 1691 -91 
Q 1453 -91 1209 -44 
Q 966 3 703 97 
z
M 1959 2075 
Q 2384 2075 2632 2365 
Q 2881 2656 2881 3163 
Q 2881 3666 2632 3958 
Q 2384 4250 1959 4250 
Q 1534 4250 1286 3958 
Q 1038 3666 1038 3163 
Q 1038 2656 1286 2365 
Q 1534 2075 1959 2075 
z
" transform="scale(0.015625)"/>
       </defs>
       <use xlink:href="#DejaVuSans-39"/>
       <use xlink:href="#DejaVuSans-30" transform="translate(63.623047 0)"/>
       <use xlink:href="#DejaVuSans-b0" transform="translate(127.246094 0)"/>
      </g>
     </g>
    </g>
    <g id="xtick_4">
     <g id="line2d_4">
      <path d="M 219.195 238.528 
L 103.489703 122.822703 
" clip-path="url(#p31027b3b0b)" style="fill: none; stroke: #b0b0b0; stroke-width: 0.8; stroke-linecap: square"/>
     </g>
     <g id="text_4">
      <!-- 135° -->
      <g transform="translate(81.546458 115.682583) scale(0.1 -0.1)">
       <defs>
        <path id="DejaVuSans-31" d="M 794 531 
L 1825 531 
L 1825 4091 
L 703 3866 
L 703 4441 
L 1819 4666 
L 2450 4666 
L 2450 531 
L 3481 531 
L 3481 0 
L 794 0 
L 794 531 
z
" transform="scale(0.015625)"/>
        <path id="DejaVuSans-33" d="M 2597 2516 
Q 3050 2419 3304 2112 
Q 3559 1806 3559 1356 
Q 3559 666 3084 287 
Q 2609 -91 1734 -91 
Q 1441 -91 1130 -33 
Q 819 25 488 141 
L 488 750 
Q 750 597 1062 519 
Q 1375 441 1716 441 
Q 2309 441 2620 675 
Q 2931 909 2931 1356 
Q 2931 1769 2642 2001 
Q 2353 2234 1838 2234 
L 1294 2234 
L 1294 2753 
L 1863 2753 
Q 2328 2753 2575 2939 
Q 2822 3125 2822 3475 
Q 2822 3834 2567 4026 
Q 2313 4219 1838 4219 
Q 1578 4219 1281 4162 
Q 984 4106 628 3988 
L 628 4550 
Q 988 4650 1302 4700 
Q 1616 4750 1894 4750 
Q 2613 4750 3031 4423 
Q 3450 4097 3450 3541 
Q 3450 3153 3228 2886 
Q 3006 2619 2597 2516 
z
" transform="scale(0.015625)"/>
       </defs>
       <use xlink:href="#DejaVuSans-31"/>
       <use xlink:href="#DejaVuSans-33" transform="translate(63.623047 0)"/>
       <use xlink:href="#DejaVuSans-35" transform="translate(127.246094 0)"/>
       <use xlink:href="#DejaVuSans-b0" transform="translate(190.869141 0)"/>
      </g>
     </g>
    </g>
    <g id="xtick_5">
     <g id="line2d_5">
      <path d="M 219.195 238.528 
L 55.563 238.528 
" clip-path="url(#p31027b3b0b)" style="fill: none; stroke: #b0b0b0; stroke-width: 0.8; stroke-linecap: square"/>
     </g>
     <g id="text_5">
      <!-- 180° -->
      <g transform="translate(29.51925 241.287375) scale(0.1 -0.1)">
       <defs>
        <path id="DejaVuSans-38" d="M 2034 2216 
Q 1584 2216 1326 1975 
Q 1069 1734 1069 1313 
Q 1069 891 1326 650 
Q 1584 409 2034 409 
Q 2484 409 2743 651 
Q 3003 894 3003 1313 
Q 3003 1734 2745 1975 
Q 2488 2216 2034 2216 
z
M 1403 2484 
Q 997 2584 770 2862 
Q 544 3141 544 3541 
Q 544 4100 942 4425 
Q 1341 4750 2034 4750 
Q 2731 4750 3128 4425 
Q 3525 4100 3525 3541 
Q 3525 3141 3298 2862 
Q 3072 2584 2669 2484 
Q 3125 2378 3379 2068 
Q 3634 1759 3634 1313 
Q 3634 634 3220 271 
Q 2806 -91 2034 -91 
Q 1263 -91 848 271 
Q 434 634 434 1313 
Q 434 1759 690 2068 
Q 947 2378 1403 2484 
z
M 1172 3481 
Q 1172 3119 1398 2916 
Q 1625 2713 2034 2713 
Q 2441 2713 2670 2916 
Q 2900 3119 2900 3481 
Q 2900 3844 2670 4047 
Q 2441 4250 2034 4250 
Q 1625 4250 1398 4047 
Q 1172 3844 1172 3481 
z
" transform="scale(0.015625)"/>
       </defs>
       <use xlink:href="#DejaVuSans-31"/>
       <use xlink:href="#DejaVuSans-38" transform="translate(63.623047 0)"/>
       <use xlink:href="#DejaVuSans-30" transform="translate(127.246094 0)"/>
       <use xlink:href="#DejaVuSans-b0" transform="translate(190.869141 0)"/>
      </g>
     </g>
    </g>
    <g id="xtick_6">
     <g id="line2d_6">
      <path d="M 219.195 238.528 
L 103.489703 354.233297 
" clip-path="url(#p31027b3b0b)" style="fill: none; stroke: #b0b0b0; stroke-width: 0.8; stroke-linecap: square"/>
     </g>
     <g id="text_6">
      <!-- 225° -->
      <g transform="translate(81.546458 366.892167) scale(0.1 -0.1)">
       <defs>
        <path id="DejaVuSans-32" d="M 1228 531 
L 3431 531 
L 3431 0 
L 469 0 
L 469 531 
Q 828 903 1448 1529 
Q 2069 2156 2228 2338 
Q 2531 2678 2651 2914 
Q 2772 3150 2772 3378 
Q 2772 3750 2511 3984 
Q 2250 4219 1831 4219 
Q 1534 4219 1204 4116 
Q 875 4013 500 3803 
L 500 4441 
Q 881 4594 1212 4672 
Q 1544 4750 1819 4750 
Q 2544 4750 2975 4387 
Q 3406 4025 3406 3419 
Q 3406 3131 3298 2873 
Q 3191 2616 2906 2266 
Q 2828 2175 2409 1742 
Q 1991 1309 1228 531 
z
" transform="scale(0.015625)"/>
       </defs>
       <use xlink:href="#DejaVuSans-32"/>
       <use xlink:href="#DejaVuSans-32" transform="translate(63.623047 0)"/>
       <use xlink:href="#DejaVuSans-35" transform="translate(127.246094 0)"/>
       <use xlink:href="#DejaVuSans-b0" transform="translate(190.869141 0)"/>
      </g>
     </g>
    </g>
    <g id="xtick_7">
     <g id="line2d_7">
      <path d="M 219.195 238.528 
L 219.195 402.16 
" clip-path="url(#p31027b3b0b)" style="fill: none; stroke: #b0b0b0; stroke-width: 0.8; stroke-linecap: square"/>
     </g>
     <g id="text_7">
      <!-- 270° -->
      <g transform="translate(207.15125 418.919375) scale(0.1 -0.1)">
       <defs>
        <path id="DejaVuSans-37" d="M 525 4666 
L 3525 4666 
L 3525 4397 
L 1831 0 
L 1172 0 
L 2766 4134 
L 525 4134 
L 525 4666 
z
" transform="scale(0.015625)"/>
       </defs>
       <use xlink:href="#DejaVuSans-32"/>
       <use xlink:href="#DejaVuSans-37" transform="translate(63.623047 0)"/>
       <use xlink:href="#DejaVuSans-30" transform="translate(127.246094 0)"/>
       <use xlink:href="#DejaVuSans-b0" transform="translate(190.869141 0)"/>
      </g>
     </g>
    </g>
    <g id="xtick_8">
     <g id="line2d_8">
      <path d="M 219.195 238.528 
L 334.900297 354.233297 
" clip-path="url(#p31027b3b0b)" style="fill: none; stroke: #b0b0b0; stroke-width: 0.8; stroke-linecap: square"/>
     </g>
     <g id="text_8">
      <!-- 315° -->
      <g transform="translate(332.756042 366.892167) scale(0.1 -0.1)">
       <use xlink:href="#DejaVuSans-33"/>
       <use xlink:href="#DejaVuSans-31" transform="translate(63.623047 0)"/>
       <use xlink:href="#DejaVuSans-35" transform="translate(127.246094 0)"/>
       <use xlink:href="#DejaVuSans-b0" transform="translate(190.869141 0)"/>
      </g>
     </g>
    </g>
   </g>
   <g id="matplotlib.axis_2">
    <g id="ytick_1">
     <g id="line2d_9">
      <path d="M 251.303688 238.528 
C 251.303688 234.311526 250.473134 230.136051 248.85956 226.240537 
C 247.245985 222.345023 244.880768 218.805227 241.899271 215.823729 
C 238.917773 212.842232 235.377977 210.477015 231.482463 208.86344 
C 227.586949 207.249866 223.411474 206.419312 219.195 206.419312 
C 214.978526 206.419312 210.803051 207.249866 206.907537 208.86344 
C 203.012023 210.477015 199.472227 212.842232 196.490729 215.823729 
C 193.509232 218.805227 191.144015 222.345023 189.53044 226.240537 
C 187.916866 230.136051 187.086312 234.311526 187.086312 238.528 
C 187.086312 242.744474 187.916866 246.919949 189.53044 250.815463 
C 191.144015 254.710977 193.509232 258.250773 196.490729 261.232271 
C 199.472227 264.213768 203.012023 266.578985 206.907537 268.19256 
C 210.803051 269.806134 214.978526 270.636688 219.195 270.636688 
C 223.411474 270.636688 227.586949 269.806134 231.482463 268.19256 
C 235.377977 266.578985 238.917773 264.213768 241.899271 261.232271 
C 244.880768 258.250773 247.245985 254.710977 248.85956 250.815463 
C 250.473134 246.919949 251.303688 242.744474 251.303688 238.528 
" clip-path="url(#p31027b3b0b)" style="fill: none; stroke: #b0b0b0; stroke-width: 0.8; stroke-linecap: square"/>
     </g>
    </g>
    <g id="ytick_2">
     <g id="line2d_10">
      <path d="M 283.412376 238.528 
C 283.412376 230.095051 281.751269 221.744103 278.524119 213.953074 
C 275.296969 206.162046 270.566537 199.082453 264.603542 193.119458 
C 258.640547 187.156463 251.560954 182.426031 243.769926 179.198881 
C 235.978897 175.971731 227.627949 174.310624 219.195 174.310624 
C 210.762051 174.310624 202.411103 175.971731 194.620074 179.198881 
C 186.829046 182.426031 179.749453 187.156463 173.786458 193.119458 
C 167.823463 199.082453 163.093031 206.162046 159.865881 213.953074 
C 156.638731 221.744103 154.977624 230.095051 154.977624 238.528 
C 154.977624 246.960949 156.638731 255.311897 159.865881 263.102926 
C 163.093031 270.893954 167.823463 277.973547 173.786458 283.936542 
C 179.749453 289.899537 186.829046 294.629969 194.620074 297.857119 
C 202.411103 301.084269 210.762051 302.745376 219.195 302.745376 
C 227.627949 302.745376 235.978897 301.084269 243.769926 297.857119 
C 251.560954 294.629969 258.640547 289.899537 264.603542 283.936542 
C 270.566537 277.973547 275.296969 270.893954 278.524119 263.102926 
C 281.751269 255.311897 283.412376 246.960949 283.412376 238.528 
" clip-path="url(#p31027b3b0b)" style="fill: none; stroke: #b0b0b0; stroke-width: 0.8; stroke-linecap: square"/>
     </g>
    </g>
    <g id="ytick_3">
     <g id="line2d_11">
      <path d="M 315.521064 238.528 
C 315.521064 225.878577 313.029403 213.352154 308.188679 201.665611 
C 303.347954 189.979069 296.252305 179.35968 287.307813 170.415187 
C 278.36332 161.470695 267.743931 154.375046 256.057389 149.534321 
C 244.370846 144.693597 231.844423 142.201936 219.195 142.201936 
C 206.545577 142.201936 194.019154 144.693597 182.332611 149.534321 
C 170.646069 154.375046 160.02668 161.470695 151.082187 170.415187 
C 142.137695 179.35968 135.042046 189.979069 130.201321 201.665611 
C 125.360597 213.352154 122.868936 225.878577 122.868936 238.528 
C 122.868936 251.177423 125.360597 263.703846 130.201321 275.390389 
C 135.042046 287.076931 142.137695 297.69632 151.082187 306.640813 
C 160.02668 315.585305 170.646069 322.680954 182.332611 327.521679 
C 194.019154 332.362403 206.545577 334.854064 219.195 334.854064 
C 231.844423 334.854064 244.370846 332.362403 256.057389 327.521679 
C 267.743931 322.680954 278.36332 315.585305 287.307813 306.640813 
C 296.252305 297.69632 303.347954 287.076931 308.188679 275.390389 
C 313.029403 263.703846 315.521064 251.177423 315.521064 238.528 
" clip-path="url(#p31027b3b0b)" style="fill: none; stroke: #b0b0b0; stroke-width: 0.8; stroke-linecap: square"/>
     </g>
    </g>
    <g id="ytick_4">
     <g id="line2d_12">
      <path d="M 347.629752 238.528 
C 347.629752 221.662103 344.307538 204.960206 337.853238 189.378148 
C 331.398939 173.796091 321.938074 159.636906 310.012084 147.710916 
C 298.086094 135.784926 283.926909 126.324061 268.344852 119.869762 
C 252.762794 113.415462 236.060897 110.093248 219.195 110.093248 
C 202.329103 110.093248 185.627206 113.415462 170.045148 119.869762 
C 154.463091 126.324061 140.303906 135.784926 128.377916 147.710916 
C 116.451926 159.636906 106.991061 173.796091 100.536762 189.378148 
C 94.082462 204.960206 90.760248 221.662103 90.760248 238.528 
C 90.760248 255.393897 94.082462 272.095794 100.536762 287.677852 
C 106.991061 303.259909 116.451926 317.419094 128.377916 329.345084 
C 140.303906 341.271074 154.463091 350.731939 170.045148 357.186238 
C 185.627206 363.640538 202.329103 366.962752 219.195 366.962752 
C 236.060897 366.962752 252.762794 363.640538 268.344852 357.186238 
C 283.926909 350.731939 298.086094 341.271074 310.012084 329.345084 
C 321.938074 317.419094 331.398939 303.259909 337.853238 287.677852 
C 344.307538 272.095794 347.629752 255.393897 347.629752 238.528 
" clip-path="url(#p31027b3b0b)" style="fill: none; stroke: #b0b0b0; stroke-width: 0.8; stroke-linecap: square"/>
     </g>
    </g>
    <g id="ytick_5">
     <g id="line2d_13">
      <path d="M 379.738439 238.528 
C 379.738439 217.445629 375.585672 196.568257 367.517798 177.090686 
C 359.449924 157.613114 347.623842 139.914133 332.716355 125.006645 
C 317.808867 110.099158 300.109886 98.273076 280.632314 90.205202 
C 261.154743 82.137328 240.277371 77.984561 219.195 77.984561 
C 198.112629 77.984561 177.235257 82.137328 157.757686 90.205202 
C 138.280114 98.273076 120.581133 110.099158 105.673645 125.006645 
C 90.766158 139.914133 78.940076 157.613114 70.872202 177.090686 
C 62.804328 196.568257 58.651561 217.445629 58.651561 238.528 
C 58.651561 259.610371 62.804328 280.487743 70.872202 299.965314 
C 78.940076 319.442886 90.766158 337.141867 105.673645 352.049355 
C 120.581133 366.956842 138.280114 378.782924 157.757686 386.850798 
C 177.235257 394.918672 198.112629 399.071439 219.195 399.071439 
C 240.277371 399.071439 261.154743 394.918672 280.632314 386.850798 
C 300.109886 378.782924 317.808867 366.956842 332.716355 352.049355 
C 347.623842 337.141867 359.449924 319.442886 367.517798 299.965314 
C 375.585672 280.487743 379.738439 259.610371 379.738439 238.528 
" clip-path="url(#p31027b3b0b)" style="fill: none; stroke: #b0b0b0; stroke-width: 0.8; stroke-linecap: square"/>
     </g>
    </g>
   </g>
   <g id="line2d_14">
    <path d="M 379.738439 238.528 
L 379.63624 233.485426 
L 379.329916 228.452155 
L 378.820291 223.437449 
L 378.10873 218.450498 
L 377.197135 213.500376 
L 376.087929 208.596008 
L 374.784044 203.746135 
L 373.288904 198.959281 
L 371.606404 194.24372 
L 369.740887 189.607447 
L 367.697119 185.05815 
L 365.480262 180.603187 
L 363.095849 176.249563 
L 360.549748 172.00391 
L 357.848135 167.872468 
L 354.99746 163.861075 
L 352.004419 159.975154 
L 348.875912 156.219702 
L 344.952872 151.891784 
L 340.857472 147.765371 
L 336.602437 143.84664 
L 332.200637 140.140875 
L 327.665014 136.652484 
L 323.00851 133.385016 
L 318.244002 130.341186 
L 313.384243 127.522907 
L 308.441803 124.93132 
L 303.429019 122.566835 
L 298.357951 120.429169 
L 293.240337 118.517388 
L 288.087566 116.829954 
L 282.910638 115.364765 
L 277.720149 114.119204 
L 272.526263 113.090184 
L 267.338703 112.274192 
L 262.166734 111.667331 
L 257.019161 111.265368 
L 251.904323 111.063771 
L 246.830093 111.057751 
L 240.971343 111.291222 
L 235.188915 111.775801 
L 229.492964 112.502955 
L 223.892836 113.463945 
L 218.397101 114.649892 
L 213.01358 116.051832 
L 207.749376 117.660768 
L 202.610913 119.467707 
L 197.603971 121.463709 
L 192.733722 123.639915 
L 188.004769 125.987579 
L 183.421183 128.498093 
L 178.986537 131.163008 
L 174.703949 133.974051 
L 170.57611 136.92314 
L 166.605326 140.002395 
L 162.262078 143.6711 
L 158.128884 147.488696 
L 154.207637 151.444447 
L 150.499789 155.527991 
L 147.006402 159.729332 
L 143.728195 164.03884 
L 140.665589 168.44724 
L 137.818746 172.945599 
L 135.187608 177.525313 
L 132.771929 182.178094 
L 130.571306 186.89595 
L 128.58521 191.671173 
L 126.813006 196.496312 
L 125.253979 201.364161 
L 123.907352 206.267736 
L 122.772303 211.200258 
L 121.847981 216.155126 
L 121.133519 221.125906 
L 120.628043 226.106301 
L 120.330681 231.090137 
L 120.240574 236.071341 
L 120.356873 241.043919 
L 120.678752 246.001935 
L 121.205402 250.939496 
L 121.936034 255.850727 
L 122.869877 260.729751 
L 124.006177 265.570674 
L 125.344188 270.367561 
L 126.883168 275.114421 
L 128.622372 279.805184 
L 130.561038 284.433685 
L 132.69838 288.993647 
L 135.033574 293.47866 
L 137.565738 297.882166 
L 140.29392 302.197443 
L 143.217078 306.417589 
L 146.334055 310.535504 
L 149.643561 314.543879 
L 153.144141 318.435182 
L 156.834152 322.201646 
L 160.711727 325.83526 
L 164.774748 329.327759 
L 169.020804 332.670618 
L 173.447154 335.855048 
L 178.050687 338.871997 
L 182.827878 341.712148 
L 187.774736 344.365927 
L 192.886762 346.823515 
L 197.491306 348.805066 
L 202.21466 350.621843 
L 207.052653 352.26686 
L 212.000695 353.733036 
L 217.053743 355.013212 
L 222.206275 356.100169 
L 227.452256 356.986657 
L 232.78511 357.665426 
L 238.197688 358.129252 
L 243.682241 358.370982 
L 249.23039 358.383571 
L 254.833104 358.16013 
L 260.480676 357.693977 
L 266.162702 356.978692 
L 271.868065 356.008177 
L 277.584926 354.776723 
L 282.484736 353.509509 
L 287.375428 352.043716 
L 292.248269 350.376664 
L 297.094141 348.506035 
L 301.90355 346.429904 
L 306.66664 344.146784 
L 311.373208 341.655663 
L 316.012727 338.956045 
L 320.574371 336.047985 
L 325.047042 332.932135 
L 329.419408 329.609777 
L 333.679941 326.082858 
L 337.816959 322.354028 
L 341.818677 318.42667 
L 345.673257 314.304926 
L 349.368872 309.993724 
L 352.89376 305.498793 
L 356.236294 300.826683 
L 359.385052 295.984771 
L 362.328886 290.981262 
L 365.056995 285.825187 
L 367.158132 281.418993 
L 369.096506 276.919791 
L 370.866648 272.334076 
L 372.46339 267.668699 
L 373.881897 262.930857 
L 375.117694 258.128073 
L 376.166696 253.268173 
L 377.025229 248.359266 
L 377.690062 243.409715 
L 378.158423 238.42811 
L 378.428022 233.42324 
L 378.49707 228.404056 
L 378.364293 223.379639 
L 378.028942 218.359169 
L 377.490807 213.351882 
L 376.750219 208.367036 
L 375.808055 203.413873 
L 374.665739 198.50158 
L 373.325232 193.639253 
L 371.789034 188.835858 
L 370.060165 184.100193 
L 368.142157 179.440855 
L 366.039035 174.866204 
L 363.755297 170.38433 
L 361.295894 166.003025 
L 358.666205 161.729751 
L 355.872006 157.571616 
L 352.919445 153.53535 
L 349.815013 149.627283 
L 346.565506 145.853328 
L 343.177997 142.218968 
L 339.659801 138.729238 
L 336.018439 135.388723 
L 332.261606 132.201544 
L 328.397133 129.171361 
L 324.432959 126.30137 
L 319.555621 123.072649 
L 314.560151 120.08237 
L 309.460456 117.333457 
L 304.270372 114.827927 
L 299.003596 112.566922 
L 293.67362 110.550745 
L 288.293672 108.778896 
L 282.876666 107.25012 
L 277.435152 105.962451 
L 271.981276 104.913261 
L 266.526744 104.099312 
L 261.082793 103.516804 
L 255.660167 103.16143 
L 250.269098 103.028425 
L 244.919291 103.112617 
L 239.619919 103.408477 
L 234.379614 103.910168 
L 229.20647 104.611586 
L 224.108044 105.50641 
L 219.091364 106.588141 
L 214.162939 107.85014 
L 208.532629 109.541314 
L 203.039271 111.457857 
L 197.690666 113.588892 
L 192.493773 115.923542 
L 187.454753 118.450984 
L 182.579011 121.160495 
L 177.871239 124.041496 
L 173.335463 127.083585 
L 168.975087 130.276569 
L 164.792942 133.610486 
L 160.791324 137.075627 
L 156.972042 140.662551 
L 153.336457 144.362098 
L 149.885523 148.165396 
L 146.619826 152.063865 
L 143.539619 156.049221 
L 140.246442 160.700074 
L 137.194981 165.442532 
L 134.384352 170.265629 
L 131.813329 175.158876 
L 129.480398 180.112246 
L 127.383796 185.116157 
L 125.521557 190.161453 
L 123.891547 195.239378 
L 122.491497 200.341559 
L 121.319033 205.459982 
L 120.371704 210.586964 
L 119.647 215.715132 
L 119.142378 220.8374 
L 118.855275 225.946939 
L 118.783122 231.037161 
L 118.92336 236.101687 
L 119.273446 241.134328 
L 119.830861 246.129061 
L 120.593117 251.080008 
L 121.55776 255.981407 
L 122.72237 260.827601 
L 124.084563 265.613005 
L 125.641989 270.332097 
L 127.392328 274.979389 
L 129.333285 279.549411 
L 131.462584 284.036693 
L 133.777962 288.435747 
L 136.277157 292.741047 
L 138.957896 296.947013 
L 141.817889 301.047997 
L 144.854806 305.038266 
L 148.066269 308.911986 
L 151.449832 312.663209 
L 155.00296 316.285864 
L 158.723013 319.773738 
L 162.607219 323.120472 
L 166.652655 326.319548 
L 170.856215 329.364283 
L 175.214587 332.24782 
L 179.724219 334.963127 
L 184.381293 337.502994 
L 189.181682 339.86003 
L 194.120924 342.026671 
L 199.194174 343.995178 
L 204.396173 345.757655 
L 209.7212 347.306055 
L 215.163032 348.632197 
L 220.714895 349.727792 
L 225.65726 350.490732 
L 230.672901 351.065101 
L 235.75608 351.445239 
L 240.900634 351.625496 
L 246.099951 351.600256 
L 251.346945 351.363967 
L 256.634032 350.911169 
L 261.953111 350.236532 
L 267.29554 349.334892 
L 272.652121 348.201296 
L 278.013078 346.83105 
L 283.368052 345.219764 
L 288.706083 343.363409 
L 294.015608 341.258378 
L 299.28446 338.901542 
L 304.499874 336.290319 
L 308.917588 333.848145 
L 313.277491 331.216772 
L 317.570539 328.395761 
L 321.787405 325.385107 
L 325.918497 322.185277 
L 329.953978 318.797241 
L 333.883793 315.222512 
L 337.697697 311.46317 
L 341.385291 307.521904 
L 344.936056 303.402034 
L 348.339397 299.107545 
L 351.584688 294.643107 
L 354.661324 290.014105 
L 357.558772 285.226651 
L 360.26663 280.2876 
L 362.774689 275.204563 
L 365.072995 269.985909 
L 367.151917 264.640763 
L 369.002214 259.178999 
L 370.615107 253.611226 
L 371.982347 247.948766 
L 372.928525 243.166364 
L 373.694714 238.33383 
L 374.277191 233.458756 
L 374.67261 228.549009 
L 374.878025 223.612712 
L 374.890916 218.658216 
L 374.709209 213.694076 
L 374.331298 208.729023 
L 373.756061 203.771929 
L 372.982875 198.831779 
L 372.011631 193.917634 
L 370.842743 189.038597 
L 369.477152 184.203777 
L 367.916335 179.422251 
L 366.162301 174.703025 
L 364.21759 170.054999 
L 362.085271 165.486931 
L 359.768924 161.007394 
L 357.272636 156.624746 
L 354.600983 152.347091 
L 351.759008 148.182249 
L 348.752204 144.137721 
L 345.586487 140.220663 
L 342.268172 136.437857 
L 338.803942 132.795683 
L 335.200817 129.300104 
L 331.466126 125.95664 
L 327.607465 122.770355 
L 323.632673 119.745844 
L 319.549788 116.887221 
L 315.367015 114.198113 
L 311.092688 111.681655 
L 306.735237 109.340492 
L 302.303151 107.176775 
L 297.804945 105.192173 
L 293.249124 103.387873 
L 288.644153 101.764595 
L 283.065122 100.055951 
L 277.441706 98.607951 
L 271.787937 97.419335 
L 266.117514 96.488011 
L 260.44374 95.811107 
L 254.779478 95.385018 
L 249.137107 95.205466 
L 243.528486 95.267554 
L 237.964922 95.565827 
L 232.457147 96.094325 
L 227.015303 96.846642 
L 221.648926 97.815987 
L 216.36694 98.995234 
L 211.177654 100.376975 
L 206.088768 101.953576 
L 201.107376 103.717221 
L 196.239976 105.659961 
L 191.492484 107.773755 
L 186.870253 110.050509 
L 182.378085 112.482117 
L 178.020258 115.060489 
L 173.110922 118.243362 
L 168.394716 121.602428 
L 163.875961 125.125249 
L 159.558195 128.799628 
L 155.444218 132.613642 
L 151.536154 136.55568 
L 147.8355 140.61446 
L 144.343181 144.779058 
L 141.059599 149.038916 
L 137.984681 153.383855 
L 135.117931 157.804079 
L 132.458467 162.290182 
L 130.005071 166.833141 
L 127.756222 171.424317 
L 125.710138 176.055446 
L 123.864806 180.718631 
L 121.998835 186.077585 
L 120.38862 191.457874 
L 119.030369 196.849365 
L 117.9201 202.242461 
L 117.053688 207.628079 
L 116.426901 212.997615 
L 116.035431 218.342915 
L 115.874925 223.656249 
L 115.941009 228.930275 
L 116.229309 234.158013 
L 116.735466 239.332812 
L 117.455156 244.448325 
L 118.384097 249.498477 
L 119.518062 254.477438 
L 120.852881 259.379598 
L 122.38445 264.199538 
L 124.108729 268.93201 
L 126.021749 273.571909 
L 128.119603 278.11425 
L 130.398447 282.554148 
L 132.854496 286.886796 
L 135.484016 291.107447 
L 138.283317 295.211389 
L 141.248745 299.193936 
L 144.37667 303.050401 
L 147.663477 306.77609 
L 151.10555 310.366277 
L 154.699259 313.816198 
L 158.440949 317.121032 
L 162.326914 320.275894 
L 166.353388 323.275821 
L 170.516521 326.115762 
L 174.812359 328.790573 
L 179.236822 331.295007 
L 183.785682 333.62371 
L 188.454536 335.771216 
L 193.23878 337.731947 
L 198.133582 339.500211 
L 203.133853 341.070207 
L 208.234216 342.436025 
L 213.428973 343.591657 
L 218.712072 344.531007 
L 224.077074 345.247901 
L 229.517117 345.736108 
L 235.024875 345.989356 
L 240.592527 346.001362 
L 246.211716 345.765857 
L 251.873509 345.27662 
L 256.85504 344.635577 
L 261.855095 343.79155 
L 266.866475 342.74062 
L 271.881566 341.478999 
L 276.892321 340.003066 
L 281.890245 338.309397 
L 286.866383 336.394808 
L 291.811306 334.256393 
L 296.715105 331.891569 
L 301.567384 329.298123 
L 306.357261 326.474265 
L 311.073364 323.418675 
L 315.703846 320.130568 
L 320.236389 316.609744 
L 324.658227 312.856654 
L 328.95617 308.872462 
L 332.531222 305.274947 
L 335.996507 301.51076 
L 339.343089 297.582089 
L 342.561886 293.491636 
L 345.643696 289.242638 
L 348.579232 284.838899 
L 351.359156 280.284813 
L 353.974114 275.58539 
L 356.414786 270.746271 
L 358.671926 265.773753 
L 360.736414 260.674797 
L 362.599307 255.457046 
L 364.251898 250.128822 
L 365.685771 244.699135 
L 366.892864 239.177678 
L 367.865527 233.574814 
L 368.596593 227.901561 
L 369.079435 222.169575 
L 369.308032 216.391114 
L 369.277035 210.579008 
L 368.981824 204.746613 
L 368.531196 199.880752 
L 367.892642 195.018633 
L 367.064819 190.168666 
L 366.046833 185.339414 
L 364.838254 180.539559 
L 363.439133 175.777878 
L 361.85001 171.063204 
L 360.07193 166.404397 
L 358.106448 161.810306 
L 355.955631 157.289733 
L 353.622063 152.851401 
L 351.108841 148.503908 
L 348.419574 144.255701 
L 345.558368 140.115031 
L 342.529821 136.08992 
L 339.339008 132.188128 
L 335.991459 128.417116 
L 332.493144 124.784014 
L 328.850448 121.295595 
L 325.070143 117.958239 
L 321.159363 114.777915 
L 317.125572 111.760154 
L 312.976534 108.910028 
L 308.720275 106.232133 
L 304.365053 103.730576 
L 299.919319 101.408963 
L 295.39168 99.270388 
L 290.790865 97.317434 
L 286.125684 95.552164 
L 281.404995 93.97613 
L 276.637668 92.59037 
L 271.832546 91.395421 
L 266.998414 90.391325 
L 262.143968 89.577645 
L 257.277779 88.953477 
L 252.408269 88.51747 
L 246.572065 88.240095 
L 240.756791 88.227233 
L 234.975819 88.474239 
L 229.241997 88.975737 
L 223.567598 89.725678 
L 217.964293 90.717403 
L 212.443112 91.943713 
L 207.014432 93.396923 
L 201.687952 95.068935 
L 196.472689 96.951296 
L 191.376972 99.035259 
L 186.408445 101.311845 
L 181.57407 103.771893 
L 176.880141 106.406118 
L 172.332295 109.205158 
L 167.935534 112.159623 
L 163.694244 115.260134 
L 159.612216 118.497366 
L 155.692675 121.86208 
L 151.938305 125.345157 
L 148.351279 128.937626 
L 144.380144 133.255372 
L 140.640964 137.696407 
L 137.134865 142.247492 
L 133.862259 146.895817 
L 130.822906 151.629024 
L 128.015976 156.435225 
L 125.440107 161.303017 
L 123.093462 166.221483 
L 120.97378 171.180202 
L 119.078432 176.169238 
L 117.404464 181.179143 
L 115.948642 186.200943 
L 114.707498 191.226128 
L 113.67736 196.246638 
L 112.854395 201.254851 
L 112.234635 206.243562 
L 111.769934 211.912356 
L 111.559125 217.53726 
L 111.595923 223.109343 
L 111.873994 228.620253 
L 112.386991 234.062175 
L 113.128581 239.427799 
L 114.092474 244.710273 
L 115.272439 249.903176 
L 116.662323 255.000475 
L 118.256065 259.996492 
L 120.047705 264.885874 
L 122.03139 269.663555 
L 124.201381 274.324731 
L 126.552052 278.864824 
L 129.077895 283.27946 
L 131.773512 287.564441 
L 134.633615 291.715719 
L 137.653018 295.729371 
L 140.826635 299.601581 
L 144.149463 303.328615 
L 147.616583 306.906806 
L 151.223139 310.33253 
L 154.964334 313.602197 
L 158.835412 316.712228 
L 162.831645 319.659046 
L 166.94832 322.439061 
L 171.18072 325.048658 
L 175.524107 327.48419 
L 179.973709 329.741964 
L 184.524692 331.818238 
L 189.172149 333.709214 
L 193.911073 335.41103 
L 198.736338 336.919761 
L 203.642674 338.231417 
L 208.624647 339.341943 
L 213.676628 340.24722 
L 218.792775 340.943071 
L 223.966998 341.425267 
L 229.192938 341.689538 
L 234.463937 341.731582 
L 239.773007 341.547081 
L 245.112803 341.13172 
L 250.47559 340.481203 
L 255.85322 339.591286 
L 261.23709 338.457797 
L 266.618126 337.076674 
L 271.986741 335.443999 
L 277.332818 333.556044 
L 281.983762 331.691917 
L 286.601759 329.627496 
L 291.178928 327.360811 
L 295.707028 324.890123 
L 300.177441 322.213956 
L 304.581172 319.331133 
L 308.908843 316.240815 
L 313.15069 312.942545 
L 317.29657 309.436292 
L 321.335965 305.722495 
L 325.257988 301.802116 
L 329.051405 297.676686 
L 332.70465 293.348361 
L 336.205852 288.819972 
L 339.542865 284.095083 
L 342.703308 279.17804 
L 345.262196 274.814397 
L 347.674122 270.317157 
L 349.931034 265.690603 
L 352.024864 260.939546 
L 353.947558 256.069342 
L 355.691117 251.085909 
L 357.247628 245.995745 
L 358.609318 240.805942 
L 359.768591 235.524193 
L 360.718079 230.1588 
L 361.450696 224.718679 
L 361.959684 219.213353 
L 362.238677 213.652949 
L 362.281748 208.048184 
L 362.083475 202.410347 
L 361.638992 196.751279 
L 360.94405 191.083336 
L 359.995073 185.41936 
L 358.78921 179.772633 
L 357.324392 174.156829 
L 355.599379 168.585957 
L 353.962816 163.988187 
L 352.145564 159.439917 
L 350.148348 154.949598 
L 347.972364 150.525725 
L 345.619285 146.176798 
L 343.091267 141.911294 
L 340.390958 137.737633 
L 337.521494 133.664138 
L 334.486506 129.699004 
L 331.290109 125.850262 
L 327.936897 122.125739 
L 324.431936 118.533027 
L 320.780745 115.079446 
L 316.989287 111.772012 
L 313.063944 108.617403 
L 309.011496 105.621928 
L 304.839098 102.791501 
L 300.554255 100.13161 
L 296.164784 97.647298 
L 291.678795 95.343137 
L 287.104644 93.22321 
L 282.45091 91.291099 
L 277.726351 89.549868 
L 272.939872 88.002055 
L 268.100485 86.649668 
L 263.217271 85.494179 
L 258.299345 84.536528 
L 253.355817 83.777122 
L 248.395753 83.215848 
L 243.428147 82.852078 
L 238.461879 82.684683 
L 233.505686 82.712048 
L 228.568133 82.932092 
L 223.657578 83.342283 
L 218.782152 83.939666 
L 213.949731 84.720882 
L 208.218271 85.895714 
L 202.572227 87.322746 
L 197.023509 88.994198 
L 191.583331 90.901698 
L 186.262189 93.036354 
L 181.069841 95.388822 
L 176.01529 97.949378 
L 171.10678 100.707985 
L 166.351797 103.654359 
L 161.757068 106.778037 
L 157.32858 110.06843 
L 153.071588 113.514888 
L 148.990639 117.106749 
L 145.089593 120.833389 
L 141.371648 124.68427 
L 137.839372 128.648979 
L 134.494732 132.717265 
L 131.339126 136.879072 
L 128.373416 141.124572 
L 125.597964 145.444182 
L 123.012664 149.828592 
L 120.236074 155.013615 
L 117.716021 160.260761 
L 115.450308 165.556802 
L 113.436138 170.889109 
L 111.670191 176.245657 
L 110.14868 181.615031 
L 108.867417 186.986419 
L 107.821867 192.34961 
L 107.007204 197.694981 
L 106.418357 203.013482 
L 106.050061 208.296617 
L 105.896893 213.53643 
L 105.953312 218.72548 
L 106.213695 223.856817 
L 106.672366 228.923964 
L 107.323622 233.920886 
L 108.296417 239.538484 
L 109.504823 245.049293 
L 110.940429 250.446195 
L 112.594919 255.722648 
L 114.460104 260.872647 
L 116.527934 265.890675 
L 118.790515 270.771661 
L 121.240123 275.510941 
L 123.869208 280.104212 
L 126.670401 284.547504 
L 129.636513 288.837136 
L 132.760537 292.969686 
L 136.035641 296.94196 
L 139.455166 300.750963 
L 143.012621 304.393871 
L 146.701666 307.868003 
L 150.516112 311.170802 
L 154.449904 314.29981 
L 158.497111 317.252651 
L 162.651911 320.027008 
L 166.908578 322.620612 
L 171.261467 325.031224 
L 175.704999 327.25662 
L 180.233642 329.294584 
L 184.841897 331.142893 
L 189.524277 332.799311 
L 194.275293 334.261581 
L 199.089428 335.527418 
L 203.961125 336.594508 
L 208.884763 337.4605 
L 213.854634 338.123012 
L 218.864928 338.579624 
L 223.909705 338.827888 
L 228.982875 338.865326 
L 234.078176 338.68944 
L 239.189151 338.297717 
L 244.309122 337.687644 
L 249.431168 336.856718 
L 254.5481 335.80246 
L 259.652437 334.522437 
L 264.736384 333.014279 
L 269.791803 331.275706 
L 274.810194 329.304554 
L 279.782672 327.098806 
L 284.699941 324.656626 
L 289.552277 321.976398 
L 294.329509 319.056769 
L 299.021002 315.896693 
L 303.046998 312.933839 
L 306.991093 309.786162 
L 310.845243 306.453738 
L 314.601111 302.936947 
L 318.250065 299.236513 
L 321.783186 295.353538 
L 325.191271 291.289538 
L 328.464844 287.046489 
L 331.594163 282.626866 
L 334.569246 278.033686 
L 337.379886 273.270551 
L 340.015677 268.341696 
L 342.466049 263.252033 
L 344.720303 258.007192 
L 346.767651 252.613572 
L 348.597271 247.078379 
L 349.984029 242.227329 
L 351.19612 237.283757 
L 352.226858 232.253748 
L 353.069663 227.143892 
L 353.718103 221.961299 
L 354.165928 216.713608 
L 354.407116 211.408991 
L 354.435914 206.056159 
L 354.246888 200.664358 
L 353.834966 195.243367 
L 353.195491 189.803484 
L 352.324269 184.355516 
L 351.217624 178.910758 
L 349.872444 173.480968 
L 348.286237 168.078336 
L 346.457178 162.715449 
L 344.384156 157.40525 
L 342.066826 152.160987 
L 339.505644 146.996163 
L 336.701912 141.924472 
L 333.657811 136.959742 
L 330.376428 132.115855 
L 327.463558 128.181604 
L 324.391514 124.348889 
L 321.163586 120.625613 
L 317.783529 117.019572 
L 314.255559 113.538415 
L 310.584352 110.189613 
L 306.775033 106.980424 
L 302.83317 103.917858 
L 298.76476 101.008644 
L 294.576215 98.259198 
L 290.274339 95.67559 
L 285.866312 93.263511 
L 281.359663 91.028252 
L 276.762242 88.974669 
L 272.082197 87.107163 
L 267.327937 85.42966 
L 262.5081 83.945585 
L 257.631523 82.657855 
L 252.7072 81.568857 
L 247.74425 80.680445 
L 242.751875 79.99393 
L 237.739327 79.510077 
L 232.715866 79.229105 
L 227.690723 79.150693 
L 222.673064 79.273981 
L 217.671952 79.597587 
L 212.696316 80.119614 
L 207.754909 80.837669 
L 202.856285 81.748878 
L 198.008765 82.84991 
L 193.220407 84.137001 
L 188.498986 85.605972 
L 183.851966 87.252263 
L 179.28648 89.070958 
L 174.809316 91.056813 
L 170.426895 93.204287 
L 165.301539 95.986397 
L 160.331015 98.982383 
L 155.524221 102.181351 
L 150.889223 105.572071 
L 146.433259 109.143047 
L 142.162736 112.882591 
L 138.083245 116.778892 
L 134.19957 120.820078 
L 130.515715 124.994283 
L 127.034924 129.289699 
L 123.759712 133.694632 
L 120.691895 138.197548 
L 117.832627 142.787117 
L 115.182433 147.452253 
L 112.741252 152.182145 
L 110.50847 156.966289 
L 108.482966 161.794511 
L 106.663146 166.656987 
L 105.046988 171.54426 
L 103.632077 176.447254 
L 102.415645 181.357279 
L 101.243196 187.083483 
L 100.33131 192.795494 
L 99.674162 198.481552 
L 99.265547 204.130627 
L 99.098949 209.732401 
L 99.167596 215.277256 
L 99.464519 220.756247 
L 99.982598 226.161086 
L 100.714614 231.484112 
L 101.653285 236.718262 
L 102.791307 241.857046 
L 104.121382 246.894514 
L 105.636251 251.825226 
L 107.328718 256.64422 
L 109.191668 261.346985 
L 111.218089 265.929426 
L 113.72533 271.014431 
L 116.426997 275.932494 
L 119.313246 280.679216 
L 122.374481 285.250706 
L 125.601371 289.643532 
L 128.984849 293.854672 
L 132.516115 297.881471 
L 136.186639 301.721602 
L 139.988148 305.373022 
L 143.912627 308.83394 
L 147.952308 312.102784 
L 152.099655 315.178169 
L 156.34736 318.058868 
L 160.688324 320.743788 
L 165.115643 323.231945 
L 169.622594 325.522445 
L 174.202621 327.614463 
L 178.849313 329.507227 
L 183.556392 331.200003 
L 188.317691 332.69208 
L 193.12714 333.982762 
L 197.978742 335.071355 
L 202.866561 335.957162 
L 207.784695 336.639473 
L 212.727266 337.117566 
L 217.688389 337.390697 
L 222.662164 337.458106 
L 227.642647 337.31901 
L 232.623834 336.972612 
L 237.599642 336.418097 
L 242.563884 335.654646 
L 247.510253 334.681435 
L 252.432298 333.497648 
L 257.323408 332.102489 
L 262.176786 330.495193 
L 266.985434 328.675041 
L 271.74213 326.641378 
L 276.43941 324.393636 
L 281.069547 321.931349 
L 285.624535 319.254188 
L 290.09607 316.36198 
L 294.475536 313.254745 
L 298.753986 309.932728 
L 302.922134 306.396436 
L 306.97034 302.646679 
L 310.888604 298.684617 
L 314.666556 294.511802 
L 318.293462 290.130235 
L 321.334378 286.127075 
L 324.243487 281.968023 
L 327.012917 277.655463 
L 329.634597 273.192172 
L 332.100274 268.581356 
L 334.401517 263.826681 
L 336.529746 258.932312 
L 338.476245 253.902948 
L 340.232194 248.743863 
L 341.788693 243.460938 
L 343.136805 238.060701 
L 344.267588 232.550365 
L 345.172145 226.937857 
L 345.841672 221.231855 
L 346.267516 215.441815 
L 346.441236 209.578 
L 346.383271 204.501538 
L 346.129132 199.386484 
L 345.674106 194.240777 
L 345.013745 189.072819 
L 344.143905 183.891473 
L 343.060785 178.706064 
L 341.760975 173.526367 
L 340.241494 168.362597 
L 338.499839 163.225391 
L 336.53403 158.125793 
L 334.342652 153.07522 
L 331.924903 148.08544 
L 329.280635 143.168529 
L 326.410399 138.336836 
L 323.31548 133.602934 
L 319.99794 128.979566 
L 316.460643 124.479593 
L 312.707292 120.115929 
L 308.742448 115.901478 
L 304.57155 111.849061 
L 300.200927 107.97134 
L 296.411358 104.882334 
L 292.492749 101.930316 
L 288.450181 99.122136 
L 284.289161 96.464427 
L 280.015604 93.963576 
L 275.635829 91.625687 
L 271.156541 89.456553 
L 266.584813 87.461624 
L 261.928068 85.645978 
L 257.194054 84.014289 
L 252.39082 82.570807 
L 247.526691 81.319327 
L 242.610231 80.263171 
L 237.650219 79.405166 
L 232.655611 78.747629 
L 227.635506 78.29235 
L 222.599107 78.040584 
L 217.555689 77.993042 
L 212.514557 78.149886 
L 207.485008 78.510729 
L 202.476297 79.074635 
L 197.497591 79.840128 
L 192.557942 80.805197 
L 187.666242 81.967312 
L 182.831195 83.323436 
L 178.06128 84.870043 
L 173.364721 86.603141 
L 168.749456 88.518294 
L 164.223115 90.610644 
L 159.792988 92.874944 
L 155.466011 95.305583 
L 151.248742 97.896617 
L 147.147343 100.641799 
L 143.167572 103.534615 
L 139.314768 106.568312 
L 135.593845 109.735934 
L 131.309099 113.703816 
L 127.227612 117.841702 
L 123.355407 122.136809 
L 119.697612 126.576219 
L 116.258482 131.146953 
L 113.041413 135.836043 
L 110.048969 140.630597 
L 107.282915 145.517857 
L 104.744248 150.485256 
L 102.433239 155.520469 
L 100.349469 160.611457 
L 98.491873 165.746508 
L 96.858789 170.91427 
L 95.447996 176.10378 
L 94.256763 181.304491 
L 93.281896 186.506286 
L 92.519781 191.6995 
L 91.966427 196.874924 
L 91.617511 202.023814 
L 91.46842 207.137896 
L 91.514288 212.209362 
L 91.807418 218.06244 
L 92.350616 223.836661 
L 93.135255 229.521981 
L 94.152515 235.109163 
L 95.393441 240.589747 
L 96.849007 245.956021 
L 98.510154 251.200987 
L 100.367844 256.318327 
L 102.413092 261.302365 
L 104.637003 266.148027 
L 107.030801 270.850809 
L 109.585853 275.406736 
L 112.293689 279.812323 
L 115.146022 284.064543 
L 118.134759 288.160788 
L 121.25201 292.098837 
L 124.96211 296.403371 
L 128.818936 300.496574 
L 132.811753 304.376657 
L 136.930203 308.04227 
L 141.164298 311.492446 
L 145.504419 314.726558 
L 149.941302 317.744271 
L 154.466026 320.545506 
L 159.070005 323.130398 
L 163.744965 325.499267 
L 168.48293 327.652585 
L 173.276207 329.59095 
L 178.117363 331.31506 
L 182.999207 332.825691 
L 187.914772 334.123679 
L 192.857292 335.2099 
L 197.820182 336.085261 
L 202.797021 336.750681 
L 207.781525 337.207084 
L 212.767532 337.45539 
L 217.74898 337.49651 
L 222.719885 337.331336 
L 227.67432 336.960744 
L 232.6064 336.385589 
L 237.510256 335.606706 
L 242.380019 334.624912 
L 247.209798 333.441008 
L 251.993663 332.055789 
L 256.725626 330.470044 
L 261.399619 328.684568 
L 266.009481 326.700172 
L 270.548933 324.517694 
L 275.011567 322.138014 
L 279.390827 319.562068 
L 283.679991 316.790865 
L 287.872156 313.825508 
L 291.960224 310.667215 
L 295.936887 307.317344 
L 299.794615 303.777416 
L 303.525646 300.049146 
L 307.121971 296.134475 
L 310.575333 292.035601 
L 313.877214 287.755016 
L 317.018838 283.295547 
L 319.991165 278.660394 
L 322.784897 273.853178 
L 325.390483 268.877985 
L 327.798127 263.739418 
L 329.734568 259.113205 
L 331.504944 254.369711 
L 333.102299 249.513183 
L 334.519585 244.548289 
L 335.749679 239.480151 
L 336.785406 234.314376 
L 337.619566 229.05708 
L 338.244959 223.714927 
L 338.654424 218.295153 
L 338.840876 212.805594 
L 338.797342 207.254715 
L 338.517017 201.651637 
L 337.993308 196.006154 
L 337.219895 190.328755 
L 336.190786 184.630642 
L 334.900389 178.923734 
L 333.582471 174.034666 
L 332.065894 169.156806 
L 330.34807 164.29893 
L 328.426774 159.470196 
L 326.300185 154.680134 
L 323.966919 149.938633 
L 321.426076 145.255921 
L 318.677274 140.642547 
L 315.72069 136.109353 
L 312.557101 131.667445 
L 309.187915 127.328156 
L 305.615214 123.103009 
L 301.841782 119.00367 
L 297.871139 115.041901 
L 293.707568 111.229507 
L 289.356135 107.578272 
L 284.822714 104.099906 
L 280.113993 100.805972 
L 275.237488 97.707818 
L 270.201541 94.816509 
L 265.015318 92.142747 
L 260.585841 90.088217 
L 256.065109 88.197575 
L 251.459683 86.476218 
L 246.776481 84.929236 
L 242.022761 83.561383 
L 237.206103 82.377046 
L 232.334386 81.38022 
L 227.415766 80.574483 
L 222.458648 79.962968 
L 217.47166 79.548345 
L 212.463619 79.3328 
L 207.4435 79.318013 
L 202.420404 79.505151 
L 197.403519 79.894851 
L 192.402086 80.487212 
L 187.425358 81.281791 
L 182.48257 82.277598 
L 177.58289 83.4731 
L 172.735389 84.866223 
L 167.949004 86.454361 
L 163.232493 88.234386 
L 158.594411 90.202665 
L 154.043067 92.35507 
L 149.586494 94.687008 
L 145.232422 97.193433 
L 140.988246 99.868882 
L 136.861002 102.707493 
L 132.857342 105.70304 
L 128.983516 108.84896 
L 125.245354 112.138388 
L 121.648249 115.564192 
L 118.197148 119.119 
L 114.896542 122.795243 
L 111.750459 126.585182 
L 108.762465 130.480947 
L 105.935657 134.474571 
L 102.759936 139.38478 
L 99.823785 144.410398 
L 97.129965 149.537498 
L 94.68033 154.752234 
L 92.475864 160.040911 
L 90.516711 165.39005 
L 88.802224 170.786443 
L 87.330999 176.217207 
L 86.100932 181.66983 
L 85.109261 187.132214 
L 84.352619 192.592705 
L 83.827087 198.040124 
L 83.528244 203.463792 
L 83.451218 208.853545 
L 83.590737 214.199751 
L 83.941181 219.493314 
L 84.496625 224.725678 
L 85.25089 229.888832 
L 86.197581 234.975299 
L 87.330135 239.978133 
L 88.641853 244.890911 
L 90.389568 250.500797 
L 92.361006 255.971523 
L 94.545226 261.295418 
L 96.931296 266.465649 
L 99.508349 271.476182 
L 102.265626 276.321734 
L 105.192517 280.997733 
L 108.2786 285.500268 
L 111.513664 289.826044 
L 114.887737 293.972341 
L 118.391106 297.936964 
L 122.01433 301.718204 
L 125.74825 305.314794 
L 129.584002 308.72587 
L 133.513018 311.950932 
L 137.527026 314.98981 
L 142.208322 318.235003 
L 146.978793 321.237785 
L 151.827501 323.999143 
L 156.743989 326.520402 
L 161.71826 328.803167 
L 166.740768 330.849288 
L 171.802388 332.660812 
L 176.8944 334.23995 
L 182.008466 335.589044 
L 187.136605 336.710534 
L 192.271168 337.606938 
L 197.404817 338.280825 
L 202.530495 338.734798 
L 207.641407 338.971475 
L 212.730995 338.993475 
L 217.792909 338.803411 
L 222.82099 338.403874 
L 227.80924 337.797428 
L 232.751807 336.986609 
L 237.642955 335.973915 
L 242.477049 334.76181 
L 247.248528 333.352722 
L 251.951889 331.749043 
L 256.581665 329.953136 
L 261.132405 327.96734 
L 265.598657 325.793972 
L 269.974951 323.435341 
L 274.255775 320.893754 
L 278.435568 318.171526 
L 282.508696 315.270998 
L 286.46944 312.194545 
L 290.31198 308.944595 
L 294.030386 305.523647 
L 297.618599 301.934287 
L 301.070423 298.179211 
L 304.379515 294.261246 
L 307.539372 290.183379 
L 310.54333 285.948775 
L 313.384552 281.560811 
L 316.056027 277.023106 
L 318.550567 272.339551 
L 320.86081 267.514343 
L 322.979217 262.552023 
L 324.898084 257.457513 
L 326.60955 252.236156 
L 328.105609 246.893758 
L 329.378124 241.43663 
L 330.418857 235.871637 
L 331.132826 230.919634 
L 331.657363 225.89615 
L 331.986857 220.806989 
L 332.115707 215.65838 
L 332.038355 210.457002 
L 331.749308 205.210012 
L 331.243175 199.92506 
L 330.514696 194.610317 
L 329.55879 189.274492 
L 328.370588 183.926853 
L 326.945488 178.577238 
L 325.279201 173.236074 
L 323.367808 167.914381 
L 321.207814 162.623779 
L 318.796215 157.376489 
L 316.130561 152.185328 
L 313.642102 147.790577 
L 310.964883 143.455668 
L 308.098562 139.189666 
L 305.043235 135.001913 
L 301.799475 130.902011 
L 298.368361 126.899803 
L 294.751518 123.005342 
L 290.951144 119.228865 
L 286.970046 115.580758 
L 282.811667 112.071517 
L 278.480114 108.711708 
L 273.980185 105.511919 
L 269.31739 102.482707 
L 264.497967 99.634552 
L 259.5289 96.977788 
L 254.417924 94.52255 
L 249.173531 92.278708 
L 243.804965 90.255798 
L 238.322219 88.462956 
L 232.736012 86.908846 
L 227.057774 85.601594 
L 222.264322 84.70623 
L 217.422704 83.991516 
L 212.540561 83.461089 
L 207.625804 83.118205 
L 202.686596 82.965714 
L 197.731324 83.006041 
L 192.768572 83.241158 
L 187.807092 83.672568 
L 182.855775 84.301288 
L 177.923617 85.127832 
L 173.019682 86.152203 
L 168.153072 87.373876 
L 163.332887 88.791799 
L 158.568185 90.404388 
L 153.867953 92.209523 
L 149.24106 94.204556 
L 144.696226 96.386314 
L 140.241982 98.75111 
L 135.886636 101.294757 
L 131.638236 104.012582 
L 127.50454 106.899448 
L 123.492982 109.94977 
L 119.610645 113.157549 
L 115.864231 116.516388 
L 112.260041 120.019529 
L 108.803948 123.659882 
L 105.501384 127.430057 
L 102.357319 131.322395 
L 99.376251 135.32901 
L 96.562196 139.441817 
L 93.918682 143.652574 
L 91.448743 147.952912 
L 89.154921 152.334376 
L 87.039266 156.788458 
L 85.103344 161.30663 
L 83.348241 165.880378 
L 81.774579 170.501238 
L 80.125886 176.09665 
L 78.73813 181.733535 
L 77.60989 187.397889 
L 76.738918 193.076054 
L 76.12219 198.754773 
L 75.755959 204.42124 
L 75.63581 210.063139 
L 75.756719 215.668684 
L 76.113108 221.226644 
L 76.698905 226.726368 
L 77.507599 232.157802 
L 78.532302 237.511499 
L 79.765798 242.77863 
L 81.200601 247.950978 
L 82.829002 253.020941 
L 84.64312 257.981524 
L 86.634947 262.826326 
L 88.796391 267.549528 
L 91.119316 272.145876 
L 93.595575 276.610663 
L 96.217048 280.939706 
L 99.448211 285.813812 
L 102.853388 290.493149 
L 106.420119 294.973536 
L 110.136191 299.251572 
L 113.989674 303.324587 
L 117.968955 307.190581 
L 122.062761 310.848178 
L 126.260176 314.296569 
L 130.550658 317.535459 
L 134.924049 320.565026 
L 139.370576 323.385865 
L 143.880859 325.99895 
L 148.445904 328.405588 
L 153.057104 330.607382 
L 157.706228 332.606195 
L 162.385413 334.404109 
L 167.760256 336.215803 
L 173.153929 337.771737 
L 178.556352 339.075799 
L 183.957987 340.13205 
L 189.349801 340.944697 
L 194.723247 341.518043 
L 200.070225 341.856463 
L 205.383056 341.964374 
L 210.654451 341.846211 
L 215.87748 341.506402 
L 221.045542 340.949357 
L 226.152335 340.179451 
L 231.191831 339.201011 
L 236.158243 338.01831 
L 241.046005 336.63556 
L 245.84974 335.056905 
L 250.564237 333.286422 
L 255.184429 331.328123 
L 259.705367 329.185948 
L 264.122203 326.86378 
L 268.430163 324.365438 
L 272.62453 321.694695 
L 276.700626 318.855274 
L 280.653792 315.850867 
L 284.479374 312.68514 
L 288.172702 309.361746 
L 291.729081 305.884339 
L 295.143773 302.256587 
L 298.411984 298.482188 
L 301.528857 294.564887 
L 304.489454 290.508495 
L 307.288754 286.316905 
L 309.921638 281.994118 
L 312.382888 277.544261 
L 314.667181 272.971614 
L 316.769081 268.28063 
L 318.683042 263.475969 
L 320.403408 258.562517 
L 321.924412 253.545423 
L 323.240184 248.430123 
L 324.34476 243.22238 
L 325.232087 237.928308 
L 325.896042 232.554415 
L 326.330446 227.107632 
L 326.529087 221.595354 
L 326.485744 216.025477 
L 326.194217 210.406431 
L 325.648361 204.747224 
L 324.95735 199.77002 
L 324.063021 194.776273 
L 322.961517 189.773232 
L 321.64912 184.768562 
L 320.122282 179.770362 
L 318.37766 174.787175 
L 316.412154 169.828006 
L 314.22295 164.902329 
L 311.807561 160.020097 
L 309.163879 155.191748 
L 306.290221 150.428203 
L 303.185387 145.740865 
L 299.848712 141.141613 
L 296.280127 136.642786 
L 292.480221 132.257168 
L 288.450299 127.997961 
L 284.814565 124.458114 
L 281.013163 121.029879 
L 277.048384 117.722182 
L 272.923031 114.544093 
L 268.640447 111.504791 
L 264.204545 108.613536 
L 259.619829 105.879634 
L 254.891418 103.312394 
L 250.025067 100.92109 
L 245.027182 98.71491 
L 239.90484 96.702908 
L 234.66579 94.893952 
L 229.318467 93.296669 
L 223.871986 91.919381 
L 218.336143 90.770051 
L 212.7214 89.856217 
L 207.03887 89.18493 
L 201.300297 88.762689 
L 195.51802 88.595378 
L 189.704942 88.688203 
L 183.874486 89.045632 
L 179.012505 89.548291 
L 174.156352 90.238943 
L 169.31446 91.11883 
L 164.495407 92.188748 
L 159.707886 93.449023 
L 154.960677 94.899502 
L 150.262613 96.539536 
L 145.622543 98.367976 
L 141.049302 100.383161 
L 136.551671 102.582917 
L 132.138343 104.964554 
L 127.817883 107.524871 
L 123.598694 110.260158 
L 119.48898 113.166206 
L 115.49671 116.238322 
L 111.62958 119.471336 
L 107.894986 122.859626 
L 104.299986 126.397138 
L 100.851274 130.077404 
L 97.555149 133.893575 
L 94.417492 137.838446 
L 91.443742 141.904488 
L 88.638876 146.083877 
L 86.007393 150.368533 
L 83.553299 154.750151 
L 81.280096 159.220241 
L 79.190774 163.770161 
L 77.287809 168.391156 
L 75.573159 173.074394 
L 74.048268 177.811003 
L 72.714068 182.592108 
L 71.570991 187.408863 
L 70.618975 192.252489 
L 69.857479 197.114303 
L 69.285501 201.98575 
L 68.90159 206.85843 
L 68.686475 212.695724 
L 68.735443 218.509181 
L 69.0437 224.285496 
L 69.605725 230.011898 
L 70.415336 235.676195 
L 71.465747 241.266808 
L 72.74964 246.772801 
L 74.259223 252.1839 
L 75.986298 257.490509 
L 77.922322 262.683719 
L 80.058467 267.755311 
L 82.38568 272.697754 
L 84.894736 277.504198 
L 87.576295 282.168462 
L 90.420948 286.685021 
L 93.419263 291.048986 
L 96.56183 295.256081 
L 99.839298 299.302623 
L 103.242407 303.185492 
L 106.762027 306.902109 
L 110.389178 310.450403 
L 114.74503 314.37524 
L 119.22164 318.06707 
L 123.80578 321.52491 
L 128.484659 324.748484 
L 133.245945 327.738161 
L 138.07778 330.494895 
L 142.968796 333.020164 
L 147.908118 335.315915 
L 152.885365 337.38451 
L 157.890648 339.228677 
L 162.914567 340.85146 
L 167.948197 342.256176 
L 172.983078 343.446375 
L 178.011204 344.425799 
L 183.025003 345.198352 
L 188.017323 345.768064 
L 193.687888 346.176088 
L 199.312126 346.330854 
L 204.881184 346.23872 
L 210.386783 345.90609 
L 215.821185 345.339373 
L 221.177149 344.544957 
L 226.447894 343.529188 
L 231.627066 342.298342 
L 236.708699 340.858618 
L 241.687179 339.216119 
L 246.557212 337.376842 
L 251.313792 335.346676 
L 255.952172 333.131395 
L 260.467829 330.736653 
L 264.856441 328.167992 
L 269.113861 325.430837 
L 273.236088 322.530504 
L 277.219248 319.472205 
L 281.059568 316.261055 
L 284.75336 312.90208 
L 288.296996 309.400229 
L 291.686896 305.760381 
L 294.919506 301.987361 
L 297.991289 298.085953 
L 300.898704 294.060911 
L 303.638199 289.916977 
L 306.206196 285.658899 
L 308.599084 281.291443 
L 310.813206 276.819415 
L 312.844858 272.24768 
L 314.690278 267.58118 
L 316.345642 262.824958 
L 317.807065 257.984177 
L 319.070595 253.064144 
L 320.132219 248.070336 
L 320.98786 243.008422 
L 321.564329 238.528 
L 321.564329 238.528 
" clip-path="url(#p31027b3b0b)" style="fill: none; stroke: #ff7f0e; stroke-linecap: square"/>
   </g>
   <g id="patch_3">
    <path d="M 382.827 238.528 
C 382.827 217.040043 378.594341 195.761029 370.371256 175.908745 
C 362.14817 156.056461 350.094577 138.016984 334.900297 122.822703 
C 319.706016 107.628423 301.666539 95.57483 281.814255 87.351744 
C 261.961971 79.128659 240.682957 74.896 219.195 74.896 
C 197.707043 74.896 176.428029 79.128659 156.575745 87.351744 
C 136.723461 95.57483 118.683984 107.628423 103.489703 122.822703 
C 88.295423 138.016984 76.24183 156.056461 68.018744 175.908745 
C 59.795659 195.761029 55.563 217.040043 55.563 238.528 
C 55.563 260.015957 59.795659 281.294971 68.018744 301.147255 
C 76.24183 320.999539 88.295423 339.039016 103.489703 354.233297 
C 118.683984 369.427577 136.723461 381.48117 156.575745 389.704256 
C 176.428029 397.927341 197.707043 402.16 219.195 402.16 
C 240.682957 402.16 261.961971 397.927341 281.814255 389.704256 
C 301.666539 381.48117 319.706016 369.427577 334.900297 354.233297 
C 350.094577 339.039016 362.14817 320.999539 370.371256 301.147255 
C 378.594341 281.294971 382.827 260.015957 382.827 238.528 
" style="fill: none; stroke: #000000; stroke-width: 0.8; stroke-linejoin: miter; stroke-linecap: square"/>
   </g>
   <g id="text_9">
    <!-- Mercury Orbit (Precession) -->
    <g transform="translate(139.442813 22.619563) scale(0.12 -0.12)">
     <defs>
      <path id="DejaVuSans-4d" d="M 628 4666 
L 1569 4666 
L 2759 1491 
L 3956 4666 
L 4897 4666 
L 4897 0 
L 4281 0 
L 4281 4097 
L 3078 897 
L 2444 897 
L 1241 4097 
L 1241 0 
L 628 0 
L 628 4666 
z
" transform="scale(0.015625)"/>
      <path id="DejaVuSans-65" d="M 3597 1894 
L 3597 1613 
L 953 1613 
Q 991 1019 1311 708 
Q 1631 397 2203 397 
Q 2534 397 2845 478 
Q 3156 559 3463 722 
L 3463 178 
Q 3153 47 2828 -22 
Q 2503 -91 2169 -91 
Q 1331 -91 842 396 
Q 353 884 353 1716 
Q 353 2575 817 3079 
Q 1281 3584 2069 3584 
Q 2775 3584 3186 3129 
Q 3597 2675 3597 1894 
z
M 3022 2063 
Q 3016 2534 2758 2815 
Q 2500 3097 2075 3097 
Q 1594 3097 1305 2825 
Q 1016 2553 972 2059 
L 3022 2063 
z
" transform="scale(0.015625)"/>
      <path id="DejaVuSans-72" d="M 2631 2963 
Q 2534 3019 2420 3045 
Q 2306 3072 2169 3072 
Q 1681 3072 1420 2755 
Q 1159 2438 1159 1844 
L 1159 0 
L 581 0 
L 581 3500 
L 1159 3500 
L 1159 2956 
Q 1341 3275 1631 3429 
Q 1922 3584 2338 3584 
Q 2397 3584 2469 3576 
Q 2541 3569 2628 3553 
L 2631 2963 
z
" transform="scale(0.015625)"/>
      <path id="DejaVuSans-63" d="M 3122 3366 
L 3122 2828 
Q 2878 2963 2633 3030 
Q 2388 3097 2138 3097 
Q 1578 3097 1268 2742 
Q 959 2388 959 1747 
Q 959 1106 1268 751 
Q 1578 397 2138 397 
Q 2388 397 2633 464 
Q 2878 531 3122 666 
L 3122 134 
Q 2881 22 2623 -34 
Q 2366 -91 2075 -91 
Q 1284 -91 818 406 
Q 353 903 353 1747 
Q 353 2603 823 3093 
Q 1294 3584 2113 3584 
Q 2378 3584 2631 3529 
Q 2884 3475 3122 3366 
z
" transform="scale(0.015625)"/>
      <path id="DejaVuSans-75" d="M 544 1381 
L 544 3500 
L 1119 3500 
L 1119 1403 
Q 1119 906 1312 657 
Q 1506 409 1894 409 
Q 2359 409 2629 706 
Q 2900 1003 2900 1516 
L 2900 3500 
L 3475 3500 
L 3475 0 
L 2900 0 
L 2900 538 
Q 2691 219 2414 64 
Q 2138 -91 1772 -91 
Q 1169 -91 856 284 
Q 544 659 544 1381 
z
M 1991 3584 
L 1991 3584 
z
" transform="scale(0.015625)"/>
      <path id="DejaVuSans-79" d="M 2059 -325 
Q 1816 -950 1584 -1140 
Q 1353 -1331 966 -1331 
L 506 -1331 
L 506 -850 
L 844 -850 
Q 1081 -850 1212 -737 
Q 1344 -625 1503 -206 
L 1606 56 
L 191 3500 
L 800 3500 
L 1894 763 
L 2988 3500 
L 3597 3500 
L 2059 -325 
z
" transform="scale(0.015625)"/>
      <path id="DejaVuSans-20" transform="scale(0.015625)"/>
      <path id="DejaVuSans-4f" d="M 2522 4238 
Q 1834 4238 1429 3725 
Q 1025 3213 1025 2328 
Q 1025 1447 1429 934 
Q 1834 422 2522 422 
Q 3209 422 3611 934 
Q 4013 1447 4013 2328 
Q 4013 3213 3611 3725 
Q 3209 4238 2522 4238 
z
M 2522 4750 
Q 3503 4750 4090 4092 
Q 4678 3434 4678 2328 
Q 4678 1225 4090 567 
Q 3503 -91 2522 -91 
Q 1538 -91 948 565 
Q 359 1222 359 2328 
Q 359 3434 948 4092 
Q 1538 4750 2522 4750 
z
" transform="scale(0.015625)"/>
      <path id="DejaVuSans-62" d="M 3116 1747 
Q 3116 2381 2855 2742 
Q 2594 3103 2138 3103 
Q 1681 3103 1420 2742 
Q 1159 2381 1159 1747 
Q 1159 1113 1420 752 
Q 1681 391 2138 391 
Q 2594 391 2855 752 
Q 3116 1113 3116 1747 
z
M 1159 2969 
Q 1341 3281 1617 3432 
Q 1894 3584 2278 3584 
Q 2916 3584 3314 3078 
Q 3713 2572 3713 1747 
Q 3713 922 3314 415 
Q 2916 -91 2278 -91 
Q 1894 -91 1617 61 
Q 1341 213 1159 525 
L 1159 0 
L 581 0 
L 581 4863 
L 1159 4863 
L 1159 2969 
z
" transform="scale(0.015625)"/>
      <path id="DejaVuSans-69" d="M 603 3500 
L 1178 3500 
L 1178 0 
L 603 0 
L 603 3500 
z
M 603 4863 
L 1178 4863 
L 1178 4134 
L 603 4134 
L 603 4863 
z
" transform="scale(0.015625)"/>
      <path id="DejaVuSans-74" d="M 1172 4494 
L 1172 3500 
L 2356 3500 
L 2356 3053 
L 1172 3053 
L 1172 1153 
Q 1172 725 1289 603 
Q 1406 481 1766 481 
L 2356 481 
L 2356 0 
L 1766 0 
Q 1100 0 847 248 
Q 594 497 594 1153 
L 594 3053 
L 172 3053 
L 172 3500 
L 594 3500 
L 594 4494 
L 1172 4494 
z
" transform="scale(0.015625)"/>
      <path id="DejaVuSans-28" d="M 1984 4856 
Q 1566 4138 1362 3434 
Q 1159 2731 1159 2009 
Q 1159 1288 1364 580 
Q 1569 -128 1984 -844 
L 1484 -844 
Q 1016 -109 783 600 
Q 550 1309 550 2009 
Q 550 2706 781 3412 
Q 1013 4119 1484 4856 
L 1984 4856 
z
" transform="scale(0.015625)"/>
      <path id="DejaVuSans-50" d="M 1259 4147 
L 1259 2394 
L 2053 2394 
Q 2494 2394 2734 2622 
Q 2975 2850 2975 3272 
Q 2975 3691 2734 3919 
Q 2494 4147 2053 4147 
L 1259 4147 
z
M 628 4666 
L 2053 4666 
Q 2838 4666 3239 4311 
Q 3641 3956 3641 3272 
Q 3641 2581 3239 2228 
Q 2838 1875 2053 1875 
L 1259 1875 
L 1259 0 
L 628 0 
L 628 4666 
z
" transform="scale(0.015625)"/>
      <path id="DejaVuSans-73" d="M 2834 3397 
L 2834 2853 
Q 2591 2978 2328 3040 
Q 2066 3103 1784 3103 
Q 1356 3103 1142 2972 
Q 928 2841 928 2578 
Q 928 2378 1081 2264 
Q 1234 2150 1697 2047 
L 1894 2003 
Q 2506 1872 2764 1633 
Q 3022 1394 3022 966 
Q 3022 478 2636 193 
Q 2250 -91 1575 -91 
Q 1294 -91 989 -36 
Q 684 19 347 128 
L 347 722 
Q 666 556 975 473 
Q 1284 391 1588 391 
Q 1994 391 2212 530 
Q 2431 669 2431 922 
Q 2431 1156 2273 1281 
Q 2116 1406 1581 1522 
L 1381 1569 
Q 847 1681 609 1914 
Q 372 2147 372 2553 
Q 372 3047 722 3315 
Q 1072 3584 1716 3584 
Q 2034 3584 2315 3537 
Q 2597 3491 2834 3397 
z
" transform="scale(0.015625)"/>
      <path id="DejaVuSans-6f" d="M 1959 3097 
Q 1497 3097 1228 2736 
Q 959 2375 959 1747 
Q 959 1119 1226 758 
Q 1494 397 1959 397 
Q 2419 397 2687 759 
Q 2956 1122 2956 1747 
Q 2956 2369 2687 2733 
Q 2419 3097 1959 3097 
z
M 1959 3584 
Q 2709 3584 3137 3096 
Q 3566 2609 3566 1747 
Q 3566 888 3137 398 
Q 2709 -91 1959 -91 
Q 1206 -91 779 398 
Q 353 888 353 1747 
Q 353 2609 779 3096 
Q 1206 3584 1959 3584 
z
" transform="scale(0.015625)"/>
      <path id="DejaVuSans-6e" d="M 3513 2113 
L 3513 0 
L 2938 0 
L 2938 2094 
Q 2938 2591 2744 2837 
Q 2550 3084 2163 3084 
Q 1697 3084 1428 2787 
Q 1159 2491 1159 1978 
L 1159 0 
L 581 0 
L 581 3500 
L 1159 3500 
L 1159 2956 
Q 1366 3272 1645 3428 
Q 1925 3584 2291 3584 
Q 2894 3584 3203 3211 
Q 3513 2838 3513 2113 
z
" transform="scale(0.015625)"/>
      <path id="DejaVuSans-29" d="M 513 4856 
L 1013 4856 
Q 1481 4119 1714 3412 
Q 1947 2706 1947 2009 
Q 1947 1309 1714 600 
Q 1481 -109 1013 -844 
L 513 -844 
Q 928 -128 1133 580 
Q 1338 1288 1338 2009 
Q 1338 2731 1133 3434 
Q 928 4138 513 4856 
z
" transform="scale(0.015625)"/>
     </defs>
     <use xlink:href="#DejaVuSans-4d"/>
     <use xlink:href="#DejaVuSans-65" transform="translate(86.279297 0)"/>
     <use xlink:href="#DejaVuSans-72" transform="translate(147.802734 0)"/>
     <use xlink:href="#DejaVuSans-63" transform="translate(186.666016 0)"/>
     <use xlink:href="#DejaVuSans-75" transform="translate(241.646484 0)"/>
     <use xlink:href="#DejaVuSans-72" transform="translate(305.025391 0)"/>
     <use xlink:href="#DejaVuSans-79" transform="translate(346.138672 0)"/>
     <use xlink:href="#DejaVuSans-20" transform="translate(405.318359 0)"/>
     <use xlink:href="#DejaVuSans-4f" transform="translate(437.105469 0)"/>
     <use xlink:href="#DejaVuSans-72" transform="translate(515.816406 0)"/>
     <use xlink:href="#DejaVuSans-62" transform="translate(556.929688 0)"/>
     <use xlink:href="#DejaVuSans-69" transform="translate(620.40625 0)"/>
     <use xlink:href="#DejaVuSans-74" transform="translate(648.189453 0)"/>
     <use xlink:href="#DejaVuSans-20" transform="translate(687.398438 0)"/>
     <use xlink:href="#DejaVuSans-28" transform="translate(719.185547 0)"/>
     <use xlink:href="#DejaVuSans-50" transform="translate(758.199219 0)"/>
     <use xlink:href="#DejaVuSans-72" transform="translate(816.751953 0)"/>
     <use xlink:href="#DejaVuSans-65" transform="translate(855.615234 0)"/>
     <use xlink:href="#DejaVuSans-63" transform="translate(917.138672 0)"/>
     <use xlink:href="#DejaVuSans-65" transform="translate(972.119141 0)"/>
     <use xlink:href="#DejaVuSans-73" transform="translate(1033.642578 0)"/>
     <use xlink:href="#DejaVuSans-73" transform="translate(1085.742188 0)"/>
     <use xlink:href="#DejaVuSans-69" transform="translate(1137.841797 0)"/>
     <use xlink:href="#DejaVuSans-6f" transform="translate(1165.625 0)"/>
     <use xlink:href="#DejaVuSans-6e" transform="translate(1226.806641 0)"/>
     <use xlink:href="#DejaVuSans-29" transform="translate(1290.185547 0)"/>
    </g>
    <!-- b=0.01 -->
    <g transform="translate(196.99875 36.056938) scale(0.12 -0.12)">
     <defs>
      <path id="DejaVuSans-3d" d="M 678 2906 
L 4684 2906 
L 4684 2381 
L 678 2381 
L 678 2906 
z
M 678 1631 
L 4684 1631 
L 4684 1100 
L 678 1100 
L 678 1631 
z
" transform="scale(0.015625)"/>
      <path id="DejaVuSans-2e" d="M 684 794 
L 1344 794 
L 1344 0 
L 684 0 
L 684 794 
z
" transform="scale(0.015625)"/>
     </defs>
     <use xlink:href="#DejaVuSans-62"/>
     <use xlink:href="#DejaVuSans-3d" transform="translate(63.476562 0)"/>
     <use xlink:href="#DejaVuSans-30" transform="translate(147.265625 0)"/>
     <use xlink:href="#DejaVuSans-2e" transform="translate(210.888672 0)"/>
     <use xlink:href="#DejaVuSans-30" transform="translate(242.675781 0)"/>
     <use xlink:href="#DejaVuSans-31" transform="translate(306.298828 0)"/>
    </g>
   </g>
  </g>
 </g>
 <defs>
  <clipPath id="p31027b3b0b">
   <path d="M 382.827 238.528 
C 382.827 217.040043 378.594341 195.761029 370.371256 175.908745 
C 362.14817 156.056461 350.094577 138.016984 334.900297 122.822703 
C 319.706016 107.628423 301.666539 95.57483 281.814255 87.351744 
C 261.961971 79.128659 240.682957 74.896 219.195 74.896 
C 197.707043 74.896 176.428029 79.128659 156.575745 87.351744 
C 136.723461 95.57483 118.683984 107.628423 103.489703 122.822703 
C 88.295423 138.016984 76.24183 156.056461 68.018744 175.908745 
C 59.795659 195.761029 55.563 217.040043 55.563 238.528 
C 55.563 260.015957 59.795659 281.294971 68.018744 301.147255 
C 76.24183 320.999539 88.295423 339.039016 103.489703 354.233297 
C 118.683984 369.427577 136.723461 381.48117 156.575745 389.704256 
C 176.428029 397.927341 197.707043 402.16 219.195 402.16 
C 240.682957 402.16 261.961971 397.927341 281.814255 389.704256 
C 301.666539 381.48117 319.706016 369.427577 334.900297 354.233297 
C 350.094577 339.039016 362.14817 320.999539 370.371256 301.147255 
C 378.594341 281.294971 382.827 260.015957 382.827 238.528 
M 219.195 238.528 
C 219.195 238.528 219.195 238.528 219.195 238.528 
C 219.195 238.528 219.195 238.528 219.195 238.528 
C 219.195 238.528 219.195 238.528 219.195 238.528 
C 219.195 238.528 219.195 238.528 219.195 238.528 
C 219.195 238.528 219.195 238.528 219.195 238.528 
C 219.195 238.528 219.195 238.528 219.195 238.528 
C 219.195 238.528 219.195 238.528 219.195 238.528 
C 219.195 238.528 219.195 238.528 219.195 238.528 
C 219.195 238.528 219.195 238.528 219.195 238.528 
C 219.195 238.528 219.195 238.528 219.195 238.528 
C 219.195 238.528 219.195 238.528 219.195 238.528 
C 219.195 238.528 219.195 238.528 219.195 238.528 
C 219.195 238.528 219.195 238.528 219.195 238.528 
C 219.195 238.528 219.195 238.528 219.195 238.528 
C 219.195 238.528 219.195 238.528 219.195 238.528 
C 219.195 238.528 219.195 238.528 219.195 238.528 
z
"/>
  </clipPath>
 </defs>
</svg>
