<?xml version="1.0" encoding="utf-8" standalone="no"?>
<!DOCTYPE svg PUBLIC "-//W3C//DTD SVG 1.1//EN"
  "http://www.w3.org/Graphics/SVG/1.1/DTD/svg11.dtd">
<svg xmlns:xlink="http://www.w3.org/1999/xlink" width="432pt" height="432pt" viewBox="0 0 432 432" xmlns="http://www.w3.org/2000/svg" version="1.1">
 <metadata>
  <rdf:RDF xmlns:dc="http://purl.org/dc/elements/1.1/" xmlns:cc="http://creativecommons.org/ns#" xmlns:rdf="http://www.w3.org/1999/02/22-rdf-syntax-ns#">
   <cc:Work>
    <dc:type rdf:resource="http://purl.org/dc/dcmitype/StillImage"/>
    <dc:date>2026-01-15T23:57:05.983229</dc:date>
    <dc:format>image/svg+xml</dc:format>
    <dc:creator>
     <cc:Agent>
      <dc:title>Matplotlib v3.10.8, https://matplotlib.org/</dc:title>
     </cc:Agent>
    </dc:creator>
   </cc:Work>
  </rdf:RDF>
 </metadata>
 <defs>
  <style type="text/css">*{stroke-linejoin: round; stroke-linecap: butt}</style>
 </defs>
 <g id="figure_1">
  <g id="patch_1">
   <path d="M 0 432 
L 432 432 
L 432 0 
L 0 0 
z
" style="fill: #ffffff"/>
  </g>
  <g id="axes_1">
   <g id="patch_2">
    <path d="M 382.827 238.528 
C 382.827 217.040043 378.594341 195.761029 370.371256 175.908745 
C 362.14817 156.056461 350.094577 138.016984 334.900297 122.822703 
C 319.706016 107.628423 301.666539 95.57483 281.814255 87.351744 
C 261.961971 79.128659 240.682957 74.896 219.195 74.896 
C 197.707043 74.896 176.428029 79.128659 156.575745 87.351744 
C 136.723461 95.57483 118.683984 107.628423 103.489703 122.822703 
C 88.295423 138.016984 76.24183 156.056461 68.018744 175.908745 
C 59.795659 195.761029 55.563 217.040043 55.563 238.528 
C 55.563 260.015957 59.795659 281.294971 68.018744 301.147255 
C 76.24183 320.999539 88.295423 339.039016 103.489703 354.233297 
C 118.683984 369.427577 136.723461 381.48117 156.575745 389.704256 
C 176.428029 397.927341 197.707043 402.16 219.195 402.16 
C 240.682957 402.16 261.961971 397.927341 281.814255 389.704256 
C 301.666539 381.48117 319.706016 369.427577 334.900297 354.233297 
C 350.094577 339.039016 362.14817 320.999539 370.371256 301.147255 
C 378.594341 281.294971 382.827 260.015957 382.827 238.528 
M 219.195 238.528 
C 219.195 238.528 219.195 238.528 219.195 238.528 
C 219.195 238.528 219.195 238.528 219.195 238.528 
C 219.195 238.528 219.195 238.528 219.195 238.528 
C 219.195 238.528 219.195 238.528 219.195 238.528 
C 219.195 238.528 219.195 238.528 219.195 238.528 
C 219.195 238.528 219.195 238.528 219.195 238.528 
C 219.195 238.528 219.195 238.528 219.195 238.528 
C 219.195 238.528 219.195 238.528 219.195 238.528 
C 219.195 238.528 219.195 238.528 219.195 238.528 
C 219.195 238.528 219.195 238.528 219.195 238.528 
C 219.195 238.528 219.195 238.528 219.195 238.528 
C 219.195 238.528 219.195 238.528 219.195 238.528 
C 219.195 238.528 219.195 238.528 219.195 238.528 
C 219.195 238.528 219.195 238.528 219.195 238.528 
C 219.195 238.528 219.195 238.528 219.195 238.528 
C 219.195 238.528 219.195 238.528 219.195 238.528 
z
" style="fill: #ffffff"/>
   </g>
   <g id="matplotlib.axis_1">
    <g id="xtick_1">
     <g id="line2d_1">
      <path d="M 219.195 238.528 
L 382.827 238.528 
" clip-path="url(#p6ed729dd29)" style="fill: none; stroke: #b0b0b0; stroke-width: 0.8; stroke-linecap: square"/>
     </g>
     <g id="text_1">
      <!-- 0° -->
      <g transform="translate(391.14575 241.287375) scale(0.1 -0.1)">
       <defs>
        <path id="DejaVuSans-30" d="M 2034 4250 
Q 1547 4250 1301 3770 
Q 1056 3291 1056 2328 
Q 1056 1369 1301 889 
Q 1547 409 2034 409 
Q 2525 409 2770 889 
Q 3016 1369 3016 2328 
Q 3016 3291 2770 3770 
Q 2525 4250 2034 4250 
z
M 2034 4750 
Q 2819 4750 3233 4129 
Q 3647 3509 3647 2328 
Q 3647 1150 3233 529 
Q 2819 -91 2034 -91 
Q 1250 -91 836 529 
Q 422 1150 422 2328 
Q 422 3509 836 4129 
Q 1250 4750 2034 4750 
z
" transform="scale(0.015625)"/>
        <path id="DejaVuSans-b0" d="M 1600 4347 
Q 1350 4347 1178 4173 
Q 1006 4000 1006 3750 
Q 1006 3503 1178 3333 
Q 1350 3163 1600 3163 
Q 1850 3163 2022 3333 
Q 2194 3503 2194 3750 
Q 2194 3997 2020 4172 
Q 1847 4347 1600 4347 
z
M 1600 4750 
Q 1800 4750 1984 4673 
Q 2169 4597 2303 4453 
Q 2447 4313 2519 4134 
Q 2591 3956 2591 3750 
Q 2591 3338 2302 3052 
Q 2013 2766 1594 2766 
Q 1172 2766 890 3047 
Q 609 3328 609 3750 
Q 609 4169 896 4459 
Q 1184 4750 1600 4750 
z
" transform="scale(0.015625)"/>
       </defs>
       <use xlink:href="#DejaVuSans-30"/>
       <use xlink:href="#DejaVuSans-b0" transform="translate(63.623047 0)"/>
      </g>
     </g>
    </g>
    <g id="xtick_2">
     <g id="line2d_2">
      <path d="M 219.195 238.528 
L 334.900297 122.822703 
" clip-path="url(#p6ed729dd29)" style="fill: none; stroke: #b0b0b0; stroke-width: 0.8; stroke-linecap: square"/>
     </g>
     <g id="text_2">
      <!-- 45° -->
      <g transform="translate(335.937292 115.682583) scale(0.1 -0.1)">
       <defs>
        <path id="DejaVuSans-34" d="M 2419 4116 
L 825 1625 
L 2419 1625 
L 2419 4116 
z
M 2253 4666 
L 3047 4666 
L 3047 1625 
L 3713 1625 
L 3713 1100 
L 3047 1100 
L 3047 0 
L 2419 0 
L 2419 1100 
L 313 1100 
L 313 1709 
L 2253 4666 
z
" transform="scale(0.015625)"/>
        <path id="DejaVuSans-35" d="M 691 4666 
L 3169 4666 
L 3169 4134 
L 1269 4134 
L 1269 2991 
Q 1406 3038 1543 3061 
Q 1681 3084 1819 3084 
Q 2600 3084 3056 2656 
Q 3513 2228 3513 1497 
Q 3513 744 3044 326 
Q 2575 -91 1722 -91 
Q 1428 -91 1123 -41 
Q 819 9 494 109 
L 494 744 
Q 775 591 1075 516 
Q 1375 441 1709 441 
Q 2250 441 2565 725 
Q 2881 1009 2881 1497 
Q 2881 1984 2565 2268 
Q 2250 2553 1709 2553 
Q 1456 2553 1204 2497 
Q 953 2441 691 2322 
L 691 4666 
z
" transform="scale(0.015625)"/>
       </defs>
       <use xlink:href="#DejaVuSans-34"/>
       <use xlink:href="#DejaVuSans-35" transform="translate(63.623047 0)"/>
       <use xlink:href="#DejaVuSans-b0" transform="translate(127.246094 0)"/>
      </g>
     </g>
    </g>
    <g id="xtick_3">
     <g id="line2d_3">
      <path d="M 219.195 238.528 
L 219.195 74.896 
" clip-path="url(#p6ed729dd29)" style="fill: none; stroke: #b0b0b0; stroke-width: 0.8; stroke-linecap: square"/>
     </g>
     <g id="text_3">
      <!-- 90° -->
      <g transform="translate(210.3325 63.655375) scale(0.1 -0.1)">
       <defs>
        <path id="DejaVuSans-39" d="M 703 97 
L 703 672 
Q 941 559 1184 500 
Q 1428 441 1663 441 
Q 2288 441 2617 861 
Q 2947 1281 2994 2138 
Q 2813 1869 2534 1725 
Q 2256 1581 1919 1581 
Q 1219 1581 811 2004 
Q 403 2428 403 3163 
Q 403 3881 828 4315 
Q 1253 4750 1959 4750 
Q 2769 4750 3195 4129 
Q 3622 3509 3622 2328 
Q 3622 1225 3098 567 
Q 2575 -91 1691 -91 
Q 1453 -91 1209 -44 
Q 966 3 703 97 
z
M 1959 2075 
Q 2384 2075 2632 2365 
Q 2881 2656 2881 3163 
Q 2881 3666 2632 3958 
Q 2384 4250 1959 4250 
Q 1534 4250 1286 3958 
Q 1038 3666 1038 3163 
Q 1038 2656 1286 2365 
Q 1534 2075 1959 2075 
z
" transform="scale(0.015625)"/>
       </defs>
       <use xlink:href="#DejaVuSans-39"/>
       <use xlink:href="#DejaVuSans-30" transform="translate(63.623047 0)"/>
       <use xlink:href="#DejaVuSans-b0" transform="translate(127.246094 0)"/>
      </g>
     </g>
    </g>
    <g id="xtick_4">
     <g id="line2d_4">
      <path d="M 219.195 238.528 
L 103.489703 122.822703 
" clip-path="url(#p6ed729dd29)" style="fill: none; stroke: #b0b0b0; stroke-width: 0.8; stroke-linecap: square"/>
     </g>
     <g id="text_4">
      <!-- 135° -->
      <g transform="translate(81.546458 115.682583) scale(0.1 -0.1)">
       <defs>
        <path id="DejaVuSans-31" d="M 794 531 
L 1825 531 
L 1825 4091 
L 703 3866 
L 703 4441 
L 1819 4666 
L 2450 4666 
L 2450 531 
L 3481 531 
L 3481 0 
L 794 0 
L 794 531 
z
" transform="scale(0.015625)"/>
        <path id="DejaVuSans-33" d="M 2597 2516 
Q 3050 2419 3304 2112 
Q 3559 1806 3559 1356 
Q 3559 666 3084 287 
Q 2609 -91 1734 -91 
Q 1441 -91 1130 -33 
Q 819 25 488 141 
L 488 750 
Q 750 597 1062 519 
Q 1375 441 1716 441 
Q 2309 441 2620 675 
Q 2931 909 2931 1356 
Q 2931 1769 2642 2001 
Q 2353 2234 1838 2234 
L 1294 2234 
L 1294 2753 
L 1863 2753 
Q 2328 2753 2575 2939 
Q 2822 3125 2822 3475 
Q 2822 3834 2567 4026 
Q 2313 4219 1838 4219 
Q 1578 4219 1281 4162 
Q 984 4106 628 3988 
L 628 4550 
Q 988 4650 1302 4700 
Q 1616 4750 1894 4750 
Q 2613 4750 3031 4423 
Q 3450 4097 3450 3541 
Q 3450 3153 3228 2886 
Q 3006 2619 2597 2516 
z
" transform="scale(0.015625)"/>
       </defs>
       <use xlink:href="#DejaVuSans-31"/>
       <use xlink:href="#DejaVuSans-33" transform="translate(63.623047 0)"/>
       <use xlink:href="#DejaVuSans-35" transform="translate(127.246094 0)"/>
       <use xlink:href="#DejaVuSans-b0" transform="translate(190.869141 0)"/>
      </g>
     </g>
    </g>
    <g id="xtick_5">
     <g id="line2d_5">
      <path d="M 219.195 238.528 
L 55.563 238.528 
" clip-path="url(#p6ed729dd29)" style="fill: none; stroke: #b0b0b0; stroke-width: 0.8; stroke-linecap: square"/>
     </g>
     <g id="text_5">
      <!-- 180° -->
      <g transform="translate(29.51925 241.287375) scale(0.1 -0.1)">
       <defs>
        <path id="DejaVuSans-38" d="M 2034 2216 
Q 1584 2216 1326 1975 
Q 1069 1734 1069 1313 
Q 1069 891 1326 650 
Q 1584 409 2034 409 
Q 2484 409 2743 651 
Q 3003 894 3003 1313 
Q 3003 1734 2745 1975 
Q 2488 2216 2034 2216 
z
M 1403 2484 
Q 997 2584 770 2862 
Q 544 3141 544 3541 
Q 544 4100 942 4425 
Q 1341 4750 2034 4750 
Q 2731 4750 3128 4425 
Q 3525 4100 3525 3541 
Q 3525 3141 3298 2862 
Q 3072 2584 2669 2484 
Q 3125 2378 3379 2068 
Q 3634 1759 3634 1313 
Q 3634 634 3220 271 
Q 2806 -91 2034 -91 
Q 1263 -91 848 271 
Q 434 634 434 1313 
Q 434 1759 690 2068 
Q 947 2378 1403 2484 
z
M 1172 3481 
Q 1172 3119 1398 2916 
Q 1625 2713 2034 2713 
Q 2441 2713 2670 2916 
Q 2900 3119 2900 3481 
Q 2900 3844 2670 4047 
Q 2441 4250 2034 4250 
Q 1625 4250 1398 4047 
Q 1172 3844 1172 3481 
z
" transform="scale(0.015625)"/>
       </defs>
       <use xlink:href="#DejaVuSans-31"/>
       <use xlink:href="#DejaVuSans-38" transform="translate(63.623047 0)"/>
       <use xlink:href="#DejaVuSans-30" transform="translate(127.246094 0)"/>
       <use xlink:href="#DejaVuSans-b0" transform="translate(190.869141 0)"/>
      </g>
     </g>
    </g>
    <g id="xtick_6">
     <g id="line2d_6">
      <path d="M 219.195 238.528 
L 103.489703 354.233297 
" clip-path="url(#p6ed729dd29)" style="fill: none; stroke: #b0b0b0; stroke-width: 0.8; stroke-linecap: square"/>
     </g>
     <g id="text_6">
      <!-- 225° -->
      <g transform="translate(81.546458 366.892167) scale(0.1 -0.1)">
       <defs>
        <path id="DejaVuSans-32" d="M 1228 531 
L 3431 531 
L 3431 0 
L 469 0 
L 469 531 
Q 828 903 1448 1529 
Q 2069 2156 2228 2338 
Q 2531 2678 2651 2914 
Q 2772 3150 2772 3378 
Q 2772 3750 2511 3984 
Q 2250 4219 1831 4219 
Q 1534 4219 1204 4116 
Q 875 4013 500 3803 
L 500 4441 
Q 881 4594 1212 4672 
Q 1544 4750 1819 4750 
Q 2544 4750 2975 4387 
Q 3406 4025 3406 3419 
Q 3406 3131 3298 2873 
Q 3191 2616 2906 2266 
Q 2828 2175 2409 1742 
Q 1991 1309 1228 531 
z
" transform="scale(0.015625)"/>
       </defs>
       <use xlink:href="#DejaVuSans-32"/>
       <use xlink:href="#DejaVuSans-32" transform="translate(63.623047 0)"/>
       <use xlink:href="#DejaVuSans-35" transform="translate(127.246094 0)"/>
       <use xlink:href="#DejaVuSans-b0" transform="translate(190.869141 0)"/>
      </g>
     </g>
    </g>
    <g id="xtick_7">
     <g id="line2d_7">
      <path d="M 219.195 238.528 
L 219.195 402.16 
" clip-path="url(#p6ed729dd29)" style="fill: none; stroke: #b0b0b0; stroke-width: 0.8; stroke-linecap: square"/>
     </g>
     <g id="text_7">
      <!-- 270° -->
      <g transform="translate(207.15125 418.919375) scale(0.1 -0.1)">
       <defs>
        <path id="DejaVuSans-37" d="M 525 4666 
L 3525 4666 
L 3525 4397 
L 1831 0 
L 1172 0 
L 2766 4134 
L 525 4134 
L 525 4666 
z
" transform="scale(0.015625)"/>
       </defs>
       <use xlink:href="#DejaVuSans-32"/>
       <use xlink:href="#DejaVuSans-37" transform="translate(63.623047 0)"/>
       <use xlink:href="#DejaVuSans-30" transform="translate(127.246094 0)"/>
       <use xlink:href="#DejaVuSans-b0" transform="translate(190.869141 0)"/>
      </g>
     </g>
    </g>
    <g id="xtick_8">
     <g id="line2d_8">
      <path d="M 219.195 238.528 
L 334.900297 354.233297 
" clip-path="url(#p6ed729dd29)" style="fill: none; stroke: #b0b0b0; stroke-width: 0.8; stroke-linecap: square"/>
     </g>
     <g id="text_8">
      <!-- 315° -->
      <g transform="translate(332.756042 366.892167) scale(0.1 -0.1)">
       <use xlink:href="#DejaVuSans-33"/>
       <use xlink:href="#DejaVuSans-31" transform="translate(63.623047 0)"/>
       <use xlink:href="#DejaVuSans-35" transform="translate(127.246094 0)"/>
       <use xlink:href="#DejaVuSans-b0" transform="translate(190.869141 0)"/>
      </g>
     </g>
    </g>
   </g>
   <g id="matplotlib.axis_2">
    <g id="ytick_1">
     <g id="line2d_9">
      <path d="M 250.363 238.528 
C 250.363 234.435056 249.556779 230.38191 247.990477 226.600523 
C 246.424175 222.819135 244.128253 219.383044 241.234104 216.488896 
C 238.339956 213.594747 234.903865 211.298825 231.122477 209.732523 
C 227.34109 208.166221 223.287944 207.36 219.195 207.36 
C 215.102056 207.36 211.04891 208.166221 207.267523 209.732523 
C 203.486135 211.298825 200.050044 213.594747 197.155896 216.488896 
C 194.261747 219.383044 191.965825 222.819135 190.399523 226.600523 
C 188.833221 230.38191 188.027 234.435056 188.027 238.528 
C 188.027 242.620944 188.833221 246.67409 190.399523 250.455477 
C 191.965825 254.236865 194.261747 257.672956 197.155896 260.567104 
C 200.050044 263.461253 203.486135 265.757175 207.267523 267.323477 
C 211.04891 268.889779 215.102056 269.696 219.195 269.696 
C 223.287944 269.696 227.34109 268.889779 231.122477 267.323477 
C 234.903865 265.757175 238.339956 263.461253 241.234104 260.567104 
C 244.128253 257.672956 246.424175 254.236865 247.990477 250.455477 
C 249.556779 246.67409 250.363 242.620944 250.363 238.528 
" clip-path="url(#p6ed729dd29)" style="fill: none; stroke: #b0b0b0; stroke-width: 0.8; stroke-linecap: square"/>
     </g>
    </g>
    <g id="ytick_2">
     <g id="line2d_10">
      <path d="M 281.531 238.528 
C 281.531 230.342111 279.918559 222.23582 276.785955 214.673046 
C 273.653351 207.110271 269.061506 200.238089 263.273208 194.449792 
C 257.484911 188.661494 250.612729 184.069649 243.049954 180.937045 
C 235.48718 177.804441 227.380889 176.192 219.195 176.192 
C 211.009111 176.192 202.90282 177.804441 195.340046 180.937045 
C 187.777271 184.069649 180.905089 188.661494 175.116792 194.449792 
C 169.328494 200.238089 164.736649 207.110271 161.604045 214.673046 
C 158.471441 222.23582 156.859 230.342111 156.859 238.528 
C 156.859 246.713889 158.471441 254.82018 161.604045 262.382954 
C 164.736649 269.945729 169.328494 276.817911 175.116792 282.606208 
C 180.905089 288.394506 187.777271 292.986351 195.340046 296.118955 
C 202.90282 299.251559 211.009111 300.864 219.195 300.864 
C 227.380889 300.864 235.48718 299.251559 243.049954 296.118955 
C 250.612729 292.986351 257.484911 288.394506 263.273208 282.606208 
C 269.061506 276.817911 273.653351 269.945729 276.785955 262.382954 
C 279.918559 254.82018 281.531 246.713889 281.531 238.528 
" clip-path="url(#p6ed729dd29)" style="fill: none; stroke: #b0b0b0; stroke-width: 0.8; stroke-linecap: square"/>
     </g>
    </g>
    <g id="ytick_3">
     <g id="line2d_11">
      <path d="M 312.699 238.528 
C 312.699 226.249167 310.280338 214.089731 305.581432 202.745568 
C 300.882526 191.401406 293.994758 181.093133 285.312313 172.410687 
C 276.629867 163.728242 266.321594 156.840474 254.977432 152.141568 
C 243.633269 147.442662 231.473833 145.024 219.195 145.024 
C 206.916167 145.024 194.756731 147.442662 183.412568 152.141568 
C 172.068406 156.840474 161.760133 163.728242 153.077687 172.410687 
C 144.395242 181.093133 137.507474 191.401406 132.808568 202.745568 
C 128.109662 214.089731 125.691 226.249167 125.691 238.528 
C 125.691 250.806833 128.109662 262.966269 132.808568 274.310432 
C 137.507474 285.654594 144.395242 295.962867 153.077687 304.645313 
C 161.760133 313.327758 172.068406 320.215526 183.412568 324.914432 
C 194.756731 329.613338 206.916167 332.032 219.195 332.032 
C 231.473833 332.032 243.633269 329.613338 254.977432 324.914432 
C 266.321594 320.215526 276.629867 313.327758 285.312313 304.645313 
C 293.994758 295.962867 300.882526 285.654594 305.581432 274.310432 
C 310.280338 262.966269 312.699 250.806833 312.699 238.528 
" clip-path="url(#p6ed729dd29)" style="fill: none; stroke: #b0b0b0; stroke-width: 0.8; stroke-linecap: square"/>
     </g>
    </g>
    <g id="ytick_4">
     <g id="line2d_12">
      <path d="M 343.867 238.528 
C 343.867 222.156223 340.642117 205.943641 334.376909 190.818091 
C 328.111701 175.692541 318.928011 161.948178 307.351417 150.371583 
C 295.774822 138.794989 282.030459 129.611299 266.904909 123.346091 
C 251.779359 117.080883 235.566777 113.856 219.195 113.856 
C 202.823223 113.856 186.610641 117.080883 171.485091 123.346091 
C 156.359541 129.611299 142.615178 138.794989 131.038583 150.371583 
C 119.461989 161.948178 110.278299 175.692541 104.013091 190.818091 
C 97.747883 205.943641 94.523 222.156223 94.523 238.528 
C 94.523 254.899777 97.747883 271.112359 104.013091 286.237909 
C 110.278299 301.363459 119.461989 315.107822 131.038583 326.684417 
C 142.615178 338.261011 156.359541 347.444701 171.485091 353.709909 
C 186.610641 359.975117 202.823223 363.2 219.195 363.2 
C 235.566777 363.2 251.779359 359.975117 266.904909 353.709909 
C 282.030459 347.444701 295.774822 338.261011 307.351417 326.684417 
C 318.928011 315.107822 328.111701 301.363459 334.376909 286.237909 
C 340.642117 271.112359 343.867 254.899777 343.867 238.528 
" clip-path="url(#p6ed729dd29)" style="fill: none; stroke: #b0b0b0; stroke-width: 0.8; stroke-linecap: square"/>
     </g>
    </g>
    <g id="ytick_5">
     <g id="line2d_13">
      <path d="M 375.035 238.528 
C 375.035 218.063279 371.003896 197.797551 363.172386 178.890614 
C 355.340877 159.983677 343.861264 142.803222 329.390521 128.332479 
C 314.919778 113.861736 297.739323 102.382123 278.832386 94.550614 
C 259.925449 86.719104 239.659721 82.688 219.195 82.688 
C 198.730279 82.688 178.464551 86.719104 159.557614 94.550614 
C 140.650677 102.382123 123.470222 113.861736 108.999479 128.332479 
C 94.528736 142.803222 83.049123 159.983677 75.217614 178.890614 
C 67.386104 197.797551 63.355 218.063279 63.355 238.528 
C 63.355 258.992721 67.386104 279.258449 75.217614 298.165386 
C 83.049123 317.072323 94.528736 334.252778 108.999479 348.723521 
C 123.470222 363.194264 140.650677 374.673877 159.557614 382.505386 
C 178.464551 390.336896 198.730279 394.368 219.195 394.368 
C 239.659721 394.368 259.925449 390.336896 278.832386 382.505386 
C 297.739323 374.673877 314.919778 363.194264 329.390521 348.723521 
C 343.861264 334.252778 355.340877 317.072323 363.172386 298.165386 
C 371.003896 279.258449 375.035 258.992721 375.035 238.528 
" clip-path="url(#p6ed729dd29)" style="fill: none; stroke: #b0b0b0; stroke-width: 0.8; stroke-linecap: square"/>
     </g>
    </g>
   </g>
   <g id="line2d_14">
    <path d="M 375.035 238.528 
L 374.924447 233.829416 
L 374.593203 229.142276 
L 374.042514 224.477958 
L 373.274444 219.847709 
L 372.291859 215.262577 
L 371.071324 210.639667 
L 369.635716 206.086161 
L 367.990481 201.612795 
L 366.141789 197.229846 
L 364.096482 192.947078 
L 361.814504 188.68973 
L 359.344096 184.555429 
L 356.694317 180.55264 
L 353.816633 176.613323 
L 350.772768 172.826352 
L 347.573596 169.198375 
L 344.163337 165.669007 
L 340.615217 162.316313 
L 336.869569 159.085551 
L 333.006213 156.046743 
L 328.96222 153.151023 
L 324.822889 150.459733 
L 320.52266 147.930043 
L 316.151111 145.614151 
L 311.640687 143.475368 
L 307.002294 141.524193 
L 302.329953 139.798607 
L 297.554632 138.271207 
L 292.689053 136.949898 
L 287.828852 135.858197 
L 282.904869 134.977833 
L 277.930865 134.313898 
L 272.920985 133.870481 
L 267.889664 133.650645 
L 262.929629 133.654603 
L 257.974687 133.878347 
L 253.039049 134.322168 
L 248.136883 134.985386 
L 243.282237 135.866363 
L 238.488965 136.962534 
L 233.770654 138.270435 
L 229.140565 139.785738 
L 224.611573 141.503289 
L 220.196116 143.417152 
L 215.90615 145.520648 
L 211.753114 147.806403 
L 207.747891 150.266388 
L 203.900782 152.891963 
L 200.221486 155.673921 
L 196.719072 158.602526 
L 193.401973 161.66755 
L 190.277962 164.858313 
L 187.354148 168.16371 
L 184.63696 171.57225 
L 182.132137 175.072079 
L 179.84472 178.651011 
L 177.779037 182.296551 
L 175.938692 185.99592 
L 174.326551 189.736082 
L 172.944723 193.503764 
L 171.794541 197.285482 
L 170.876543 201.067568 
L 170.190445 204.836199 
L 169.735115 208.577427 
L 169.508545 212.277214 
L 169.50782 215.921472 
L 169.729082 219.496112 
L 170.167503 222.98709 
L 170.817248 226.380469 
L 171.671445 229.662487 
L 172.722152 232.819629 
L 173.960336 235.838712 
L 175.375846 238.706979 
L 176.957402 241.412204 
L 178.692586 243.942797 
L 180.567849 246.287935 
L 182.568523 248.437685 
L 184.678856 250.38315 
L 186.902932 252.131714 
L 189.202949 253.657501 
L 191.559714 254.955604 
L 193.953261 256.022816 
L 196.384423 256.864163 
L 198.810067 257.469715 
L 201.228924 257.844693 
L 203.597185 257.988295 
L 205.911782 257.907006 
L 208.148155 257.606284 
L 210.2818 257.095042 
L 212.288796 256.385825 
L 214.146406 255.494905 
L 215.846006 254.433615 
L 217.353616 253.232592 
L 218.671688 251.899384 
L 219.771538 250.473088 
L 220.647199 248.977641 
L 221.292128 247.440929 
L 221.701216 245.896336 
L 221.87368 244.383751 
L 221.816849 242.94966 
L 221.544844 241.625745 
L 221.08436 240.468198 
L 220.474318 239.521764 
L 219.783768 238.845481 
L 219.195003 238.528001 
L 219.195003 238.528001 
" clip-path="url(#p6ed729dd29)" style="fill: none; stroke: #d62728; stroke-width: 2; stroke-linecap: square"/>
   </g>
   <g id="patch_3">
    <path d="M 382.827 238.528 
C 382.827 217.040043 378.594341 195.761029 370.371256 175.908745 
C 362.14817 156.056461 350.094577 138.016984 334.900297 122.822703 
C 319.706016 107.628423 301.666539 95.57483 281.814255 87.351744 
C 261.961971 79.128659 240.682957 74.896 219.195 74.896 
C 197.707043 74.896 176.428029 79.128659 156.575745 87.351744 
C 136.723461 95.57483 118.683984 107.628423 103.489703 122.822703 
C 88.295423 138.016984 76.24183 156.056461 68.018744 175.908745 
C 59.795659 195.761029 55.563 217.040043 55.563 238.528 
C 55.563 260.015957 59.795659 281.294971 68.018744 301.147255 
C 76.24183 320.999539 88.295423 339.039016 103.489703 354.233297 
C 118.683984 369.427577 136.723461 381.48117 156.575745 389.704256 
C 176.428029 397.927341 197.707043 402.16 219.195 402.16 
C 240.682957 402.16 261.961971 397.927341 281.814255 389.704256 
C 301.666539 381.48117 319.706016 369.427577 334.900297 354.233297 
C 350.094577 339.039016 362.14817 320.999539 370.371256 301.147255 
C 378.594341 281.294971 382.827 260.015957 382.827 238.528 
" style="fill: none; stroke: #000000; stroke-width: 0.8; stroke-linejoin: miter; stroke-linecap: square"/>
   </g>
   <g id="text_9">
    <!-- Mercury Orbit (Decay) -->
    <g transform="translate(152.522812 22.619562) scale(0.12 -0.12)">
     <defs>
      <path id="DejaVuSans-4d" d="M 628 4666 
L 1569 4666 
L 2759 1491 
L 3956 4666 
L 4897 4666 
L 4897 0 
L 4281 0 
L 4281 4097 
L 3078 897 
L 2444 897 
L 1241 4097 
L 1241 0 
L 628 0 
L 628 4666 
z
" transform="scale(0.015625)"/>
      <path id="DejaVuSans-65" d="M 3597 1894 
L 3597 1613 
L 953 1613 
Q 991 1019 1311 708 
Q 1631 397 2203 397 
Q 2534 397 2845 478 
Q 3156 559 3463 722 
L 3463 178 
Q 3153 47 2828 -22 
Q 2503 -91 2169 -91 
Q 1331 -91 842 396 
Q 353 884 353 1716 
Q 353 2575 817 3079 
Q 1281 3584 2069 3584 
Q 2775 3584 3186 3129 
Q 3597 2675 3597 1894 
z
M 3022 2063 
Q 3016 2534 2758 2815 
Q 2500 3097 2075 3097 
Q 1594 3097 1305 2825 
Q 1016 2553 972 2059 
L 3022 2063 
z
" transform="scale(0.015625)"/>
      <path id="DejaVuSans-72" d="M 2631 2963 
Q 2534 3019 2420 3045 
Q 2306 3072 2169 3072 
Q 1681 3072 1420 2755 
Q 1159 2438 1159 1844 
L 1159 0 
L 581 0 
L 581 3500 
L 1159 3500 
L 1159 2956 
Q 1341 3275 1631 3429 
Q 1922 3584 2338 3584 
Q 2397 3584 2469 3576 
Q 2541 3569 2628 3553 
L 2631 2963 
z
" transform="scale(0.015625)"/>
      <path id="DejaVuSans-63" d="M 3122 3366 
L 3122 2828 
Q 2878 2963 2633 3030 
Q 2388 3097 2138 3097 
Q 1578 3097 1268 2742 
Q 959 2388 959 1747 
Q 959 1106 1268 751 
Q 1578 397 2138 397 
Q 2388 397 2633 464 
Q 2878 531 3122 666 
L 3122 134 
Q 2881 22 2623 -34 
Q 2366 -91 2075 -91 
Q 1284 -91 818 406 
Q 353 903 353 1747 
Q 353 2603 823 3093 
Q 1294 3584 2113 3584 
Q 2378 3584 2631 3529 
Q 2884 3475 3122 3366 
z
" transform="scale(0.015625)"/>
      <path id="DejaVuSans-75" d="M 544 1381 
L 544 3500 
L 1119 3500 
L 1119 1403 
Q 1119 906 1312 657 
Q 1506 409 1894 409 
Q 2359 409 2629 706 
Q 2900 1003 2900 1516 
L 2900 3500 
L 3475 3500 
L 3475 0 
L 2900 0 
L 2900 538 
Q 2691 219 2414 64 
Q 2138 -91 1772 -91 
Q 1169 -91 856 284 
Q 544 659 544 1381 
z
M 1991 3584 
L 1991 3584 
z
" transform="scale(0.015625)"/>
      <path id="DejaVuSans-79" d="M 2059 -325 
Q 1816 -950 1584 -1140 
Q 1353 -1331 966 -1331 
L 506 -1331 
L 506 -850 
L 844 -850 
Q 1081 -850 1212 -737 
Q 1344 -625 1503 -206 
L 1606 56 
L 191 3500 
L 800 3500 
L 1894 763 
L 2988 3500 
L 3597 3500 
L 2059 -325 
z
" transform="scale(0.015625)"/>
      <path id="DejaVuSans-20" transform="scale(0.015625)"/>
      <path id="DejaVuSans-4f" d="M 2522 4238 
Q 1834 4238 1429 3725 
Q 1025 3213 1025 2328 
Q 1025 1447 1429 934 
Q 1834 422 2522 422 
Q 3209 422 3611 934 
Q 4013 1447 4013 2328 
Q 4013 3213 3611 3725 
Q 3209 4238 2522 4238 
z
M 2522 4750 
Q 3503 4750 4090 4092 
Q 4678 3434 4678 2328 
Q 4678 1225 4090 567 
Q 3503 -91 2522 -91 
Q 1538 -91 948 565 
Q 359 1222 359 2328 
Q 359 3434 948 4092 
Q 1538 4750 2522 4750 
z
" transform="scale(0.015625)"/>
      <path id="DejaVuSans-62" d="M 3116 1747 
Q 3116 2381 2855 2742 
Q 2594 3103 2138 3103 
Q 1681 3103 1420 2742 
Q 1159 2381 1159 1747 
Q 1159 1113 1420 752 
Q 1681 391 2138 391 
Q 2594 391 2855 752 
Q 3116 1113 3116 1747 
z
M 1159 2969 
Q 1341 3281 1617 3432 
Q 1894 3584 2278 3584 
Q 2916 3584 3314 3078 
Q 3713 2572 3713 1747 
Q 3713 922 3314 415 
Q 2916 -91 2278 -91 
Q 1894 -91 1617 61 
Q 1341 213 1159 525 
L 1159 0 
L 581 0 
L 581 4863 
L 1159 4863 
L 1159 2969 
z
" transform="scale(0.015625)"/>
      <path id="DejaVuSans-69" d="M 603 3500 
L 1178 3500 
L 1178 0 
L 603 0 
L 603 3500 
z
M 603 4863 
L 1178 4863 
L 1178 4134 
L 603 4134 
L 603 4863 
z
" transform="scale(0.015625)"/>
      <path id="DejaVuSans-74" d="M 1172 4494 
L 1172 3500 
L 2356 3500 
L 2356 3053 
L 1172 3053 
L 1172 1153 
Q 1172 725 1289 603 
Q 1406 481 1766 481 
L 2356 481 
L 2356 0 
L 1766 0 
Q 1100 0 847 248 
Q 594 497 594 1153 
L 594 3053 
L 172 3053 
L 172 3500 
L 594 3500 
L 594 4494 
L 1172 4494 
z
" transform="scale(0.015625)"/>
      <path id="DejaVuSans-28" d="M 1984 4856 
Q 1566 4138 1362 3434 
Q 1159 2731 1159 2009 
Q 1159 1288 1364 580 
Q 1569 -128 1984 -844 
L 1484 -844 
Q 1016 -109 783 600 
Q 550 1309 550 2009 
Q 550 2706 781 3412 
Q 1013 4119 1484 4856 
L 1984 4856 
z
" transform="scale(0.015625)"/>
      <path id="DejaVuSans-44" d="M 1259 4147 
L 1259 519 
L 2022 519 
Q 2988 519 3436 956 
Q 3884 1394 3884 2338 
Q 3884 3275 3436 3711 
Q 2988 4147 2022 4147 
L 1259 4147 
z
M 628 4666 
L 1925 4666 
Q 3281 4666 3915 4102 
Q 4550 3538 4550 2338 
Q 4550 1131 3912 565 
Q 3275 0 1925 0 
L 628 0 
L 628 4666 
z
" transform="scale(0.015625)"/>
      <path id="DejaVuSans-61" d="M 2194 1759 
Q 1497 1759 1228 1600 
Q 959 1441 959 1056 
Q 959 750 1161 570 
Q 1363 391 1709 391 
Q 2188 391 2477 730 
Q 2766 1069 2766 1631 
L 2766 1759 
L 2194 1759 
z
M 3341 1997 
L 3341 0 
L 2766 0 
L 2766 531 
Q 2569 213 2275 61 
Q 1981 -91 1556 -91 
Q 1019 -91 701 211 
Q 384 513 384 1019 
Q 384 1609 779 1909 
Q 1175 2209 1959 2209 
L 2766 2209 
L 2766 2266 
Q 2766 2663 2505 2880 
Q 2244 3097 1772 3097 
Q 1472 3097 1187 3025 
Q 903 2953 641 2809 
L 641 3341 
Q 956 3463 1253 3523 
Q 1550 3584 1831 3584 
Q 2591 3584 2966 3190 
Q 3341 2797 3341 1997 
z
" transform="scale(0.015625)"/>
      <path id="DejaVuSans-29" d="M 513 4856 
L 1013 4856 
Q 1481 4119 1714 3412 
Q 1947 2706 1947 2009 
Q 1947 1309 1714 600 
Q 1481 -109 1013 -844 
L 513 -844 
Q 928 -128 1133 580 
Q 1338 1288 1338 2009 
Q 1338 2731 1133 3434 
Q 928 4138 513 4856 
z
" transform="scale(0.015625)"/>
     </defs>
     <use xlink:href="#DejaVuSans-4d"/>
     <use xlink:href="#DejaVuSans-65" transform="translate(86.279297 0)"/>
     <use xlink:href="#DejaVuSans-72" transform="translate(147.802734 0)"/>
     <use xlink:href="#DejaVuSans-63" transform="translate(186.666016 0)"/>
     <use xlink:href="#DejaVuSans-75" transform="translate(241.646484 0)"/>
     <use xlink:href="#DejaVuSans-72" transform="translate(305.025391 0)"/>
     <use xlink:href="#DejaVuSans-79" transform="translate(346.138672 0)"/>
     <use xlink:href="#DejaVuSans-20" transform="translate(405.318359 0)"/>
     <use xlink:href="#DejaVuSans-4f" transform="translate(437.105469 0)"/>
     <use xlink:href="#DejaVuSans-72" transform="translate(515.816406 0)"/>
     <use xlink:href="#DejaVuSans-62" transform="translate(556.929688 0)"/>
     <use xlink:href="#DejaVuSans-69" transform="translate(620.40625 0)"/>
     <use xlink:href="#DejaVuSans-74" transform="translate(648.189453 0)"/>
     <use xlink:href="#DejaVuSans-20" transform="translate(687.398438 0)"/>
     <use xlink:href="#DejaVuSans-28" transform="translate(719.185547 0)"/>
     <use xlink:href="#DejaVuSans-44" transform="translate(758.199219 0)"/>
     <use xlink:href="#DejaVuSans-65" transform="translate(835.201172 0)"/>
     <use xlink:href="#DejaVuSans-63" transform="translate(896.724609 0)"/>
     <use xlink:href="#DejaVuSans-61" transform="translate(951.705078 0)"/>
     <use xlink:href="#DejaVuSans-79" transform="translate(1012.984375 0)"/>
     <use xlink:href="#DejaVuSans-29" transform="translate(1072.164062 0)"/>
    </g>
    <!-- b=0.1 -->
    <g transform="translate(200.81625 36.056937) scale(0.12 -0.12)">
     <defs>
      <path id="DejaVuSans-3d" d="M 678 2906 
L 4684 2906 
L 4684 2381 
L 678 2381 
L 678 2906 
z
M 678 1631 
L 4684 1631 
L 4684 1100 
L 678 1100 
L 678 1631 
z
" transform="scale(0.015625)"/>
      <path id="DejaVuSans-2e" d="M 684 794 
L 1344 794 
L 1344 0 
L 684 0 
L 684 794 
z
" transform="scale(0.015625)"/>
     </defs>
     <use xlink:href="#DejaVuSans-62"/>
     <use xlink:href="#DejaVuSans-3d" transform="translate(63.476562 0)"/>
     <use xlink:href="#DejaVuSans-30" transform="translate(147.265625 0)"/>
     <use xlink:href="#DejaVuSans-2e" transform="translate(210.888672 0)"/>
     <use xlink:href="#DejaVuSans-31" transform="translate(242.675781 0)"/>
    </g>
   </g>
  </g>
 </g>
 <defs>
  <clipPath id="p6ed729dd29">
   <path d="M 382.827 238.528 
C 382.827 217.040043 378.594341 195.761029 370.371256 175.908745 
C 362.14817 156.056461 350.094577 138.016984 334.900297 122.822703 
C 319.706016 107.628423 301.666539 95.57483 281.814255 87.351744 
C 261.961971 79.128659 240.682957 74.896 219.195 74.896 
C 197.707043 74.896 176.428029 79.128659 156.575745 87.351744 
C 136.723461 95.57483 118.683984 107.628423 103.489703 122.822703 
C 88.295423 138.016984 76.24183 156.056461 68.018744 175.908745 
C 59.795659 195.761029 55.563 217.040043 55.563 238.528 
C 55.563 260.015957 59.795659 281.294971 68.018744 301.147255 
C 76.24183 320.999539 88.295423 339.039016 103.489703 354.233297 
C 118.683984 369.427577 136.723461 381.48117 156.575745 389.704256 
C 176.428029 397.927341 197.707043 402.16 219.195 402.16 
C 240.682957 402.16 261.961971 397.927341 281.814255 389.704256 
C 301.666539 381.48117 319.706016 369.427577 334.900297 354.233297 
C 350.094577 339.039016 362.14817 320.999539 370.371256 301.147255 
C 378.594341 281.294971 382.827 260.015957 382.827 238.528 
M 219.195 238.528 
C 219.195 238.528 219.195 238.528 219.195 238.528 
C 219.195 238.528 219.195 238.528 219.195 238.528 
C 219.195 238.528 219.195 238.528 219.195 238.528 
C 219.195 238.528 219.195 238.528 219.195 238.528 
C 219.195 238.528 219.195 238.528 219.195 238.528 
C 219.195 238.528 219.195 238.528 219.195 238.528 
C 219.195 238.528 219.195 238.528 219.195 238.528 
C 219.195 238.528 219.195 238.528 219.195 238.528 
C 219.195 238.528 219.195 238.528 219.195 238.528 
C 219.195 238.528 219.195 238.528 219.195 238.528 
C 219.195 238.528 219.195 238.528 219.195 238.528 
C 219.195 238.528 219.195 238.528 219.195 238.528 
C 219.195 238.528 219.195 238.528 219.195 238.528 
C 219.195 238.528 219.195 238.528 219.195 238.528 
C 219.195 238.528 219.195 238.528 219.195 238.528 
C 219.195 238.528 219.195 238.528 219.195 238.528 
z
"/>
  </clipPath>
 </defs>
</svg>
