<?xml version="1.0" encoding="utf-8" standalone="no"?>
<!DOCTYPE svg PUBLIC "-//W3C//DTD SVG 1.1//EN"
  "http://www.w3.org/Graphics/SVG/1.1/DTD/svg11.dtd">
<svg xmlns:xlink="http://www.w3.org/1999/xlink" width="460.8pt" height="345.6pt" viewBox="0 0 460.8 345.6" xmlns="http://www.w3.org/2000/svg" version="1.1">
 <metadata>
  <rdf:RDF xmlns:dc="http://purl.org/dc/elements/1.1/" xmlns:cc="http://creativecommons.org/ns#" xmlns:rdf="http://www.w3.org/1999/02/22-rdf-syntax-ns#">
   <cc:Work>
    <dc:type rdf:resource="http://purl.org/dc/dcmitype/StillImage"/>
    <dc:date>2026-01-15T21:45:46.325734</dc:date>
    <dc:format>image/svg+xml</dc:format>
    <dc:creator>
     <cc:Agent>
      <dc:title>Matplotlib v3.10.8, https://matplotlib.org/</dc:title>
     </cc:Agent>
    </dc:creator>
   </cc:Work>
  </rdf:RDF>
 </metadata>
 <defs>
  <style type="text/css">*{stroke-linejoin: round; stroke-linecap: butt}</style>
 </defs>
 <g id="figure_1">
  <g id="patch_1">
   <path d="M 0 345.6 
L 460.8 345.6 
L 460.8 0 
L 0 0 
z
" style="fill: #ffffff"/>
  </g>
  <g id="axes_1">
   <g id="patch_2">
    <path d="M 57.6 307.584 
L 414.72 307.584 
L 414.72 41.472 
L 57.6 41.472 
z
" style="fill: #ffffff"/>
   </g>
   <g id="matplotlib.axis_1">
    <g id="xtick_1">
     <g id="line2d_1">
      <path d="M 73.832727 307.584 
L 73.832727 41.472 
" clip-path="url(#pb86efad1e8)" style="fill: none; stroke: #b0b0b0; stroke-width: 0.8; stroke-linecap: square"/>
     </g>
     <g id="line2d_2">
      <defs>
       <path id="mfd2021ca1c" d="M 0 0 
L 0 3.5 
" style="stroke: #000000; stroke-width: 0.8"/>
      </defs>
      <g>
       <use xlink:href="#mfd2021ca1c" x="73.832727" y="307.584" style="stroke: #000000; stroke-width: 0.8"/>
      </g>
     </g>
     <g id="text_1">
      <!-- 0 -->
      <g transform="translate(70.651477 322.182437) scale(0.1 -0.1)">
       <defs>
        <path id="DejaVuSans-30" d="M 2034 4250 
Q 1547 4250 1301 3770 
Q 1056 3291 1056 2328 
Q 1056 1369 1301 889 
Q 1547 409 2034 409 
Q 2525 409 2770 889 
Q 3016 1369 3016 2328 
Q 3016 3291 2770 3770 
Q 2525 4250 2034 4250 
z
M 2034 4750 
Q 2819 4750 3233 4129 
Q 3647 3509 3647 2328 
Q 3647 1150 3233 529 
Q 2819 -91 2034 -91 
Q 1250 -91 836 529 
Q 422 1150 422 2328 
Q 422 3509 836 4129 
Q 1250 4750 2034 4750 
z
" transform="scale(0.015625)"/>
       </defs>
       <use xlink:href="#DejaVuSans-30"/>
      </g>
     </g>
    </g>
    <g id="xtick_2">
     <g id="line2d_3">
      <path d="M 138.763636 307.584 
L 138.763636 41.472 
" clip-path="url(#pb86efad1e8)" style="fill: none; stroke: #b0b0b0; stroke-width: 0.8; stroke-linecap: square"/>
     </g>
     <g id="line2d_4">
      <g>
       <use xlink:href="#mfd2021ca1c" x="138.763636" y="307.584" style="stroke: #000000; stroke-width: 0.8"/>
      </g>
     </g>
     <g id="text_2">
      <!-- 2 -->
      <g transform="translate(135.582386 322.182437) scale(0.1 -0.1)">
       <defs>
        <path id="DejaVuSans-32" d="M 1228 531 
L 3431 531 
L 3431 0 
L 469 0 
L 469 531 
Q 828 903 1448 1529 
Q 2069 2156 2228 2338 
Q 2531 2678 2651 2914 
Q 2772 3150 2772 3378 
Q 2772 3750 2511 3984 
Q 2250 4219 1831 4219 
Q 1534 4219 1204 4116 
Q 875 4013 500 3803 
L 500 4441 
Q 881 4594 1212 4672 
Q 1544 4750 1819 4750 
Q 2544 4750 2975 4387 
Q 3406 4025 3406 3419 
Q 3406 3131 3298 2873 
Q 3191 2616 2906 2266 
Q 2828 2175 2409 1742 
Q 1991 1309 1228 531 
z
" transform="scale(0.015625)"/>
       </defs>
       <use xlink:href="#DejaVuSans-32"/>
      </g>
     </g>
    </g>
    <g id="xtick_3">
     <g id="line2d_5">
      <path d="M 203.694545 307.584 
L 203.694545 41.472 
" clip-path="url(#pb86efad1e8)" style="fill: none; stroke: #b0b0b0; stroke-width: 0.8; stroke-linecap: square"/>
     </g>
     <g id="line2d_6">
      <g>
       <use xlink:href="#mfd2021ca1c" x="203.694545" y="307.584" style="stroke: #000000; stroke-width: 0.8"/>
      </g>
     </g>
     <g id="text_3">
      <!-- 4 -->
      <g transform="translate(200.513295 322.182437) scale(0.1 -0.1)">
       <defs>
        <path id="DejaVuSans-34" d="M 2419 4116 
L 825 1625 
L 2419 1625 
L 2419 4116 
z
M 2253 4666 
L 3047 4666 
L 3047 1625 
L 3713 1625 
L 3713 1100 
L 3047 1100 
L 3047 0 
L 2419 0 
L 2419 1100 
L 313 1100 
L 313 1709 
L 2253 4666 
z
" transform="scale(0.015625)"/>
       </defs>
       <use xlink:href="#DejaVuSans-34"/>
      </g>
     </g>
    </g>
    <g id="xtick_4">
     <g id="line2d_7">
      <path d="M 268.625455 307.584 
L 268.625455 41.472 
" clip-path="url(#pb86efad1e8)" style="fill: none; stroke: #b0b0b0; stroke-width: 0.8; stroke-linecap: square"/>
     </g>
     <g id="line2d_8">
      <g>
       <use xlink:href="#mfd2021ca1c" x="268.625455" y="307.584" style="stroke: #000000; stroke-width: 0.8"/>
      </g>
     </g>
     <g id="text_4">
      <!-- 6 -->
      <g transform="translate(265.444205 322.182437) scale(0.1 -0.1)">
       <defs>
        <path id="DejaVuSans-36" d="M 2113 2584 
Q 1688 2584 1439 2293 
Q 1191 2003 1191 1497 
Q 1191 994 1439 701 
Q 1688 409 2113 409 
Q 2538 409 2786 701 
Q 3034 994 3034 1497 
Q 3034 2003 2786 2293 
Q 2538 2584 2113 2584 
z
M 3366 4563 
L 3366 3988 
Q 3128 4100 2886 4159 
Q 2644 4219 2406 4219 
Q 1781 4219 1451 3797 
Q 1122 3375 1075 2522 
Q 1259 2794 1537 2939 
Q 1816 3084 2150 3084 
Q 2853 3084 3261 2657 
Q 3669 2231 3669 1497 
Q 3669 778 3244 343 
Q 2819 -91 2113 -91 
Q 1303 -91 875 529 
Q 447 1150 447 2328 
Q 447 3434 972 4092 
Q 1497 4750 2381 4750 
Q 2619 4750 2861 4703 
Q 3103 4656 3366 4563 
z
" transform="scale(0.015625)"/>
       </defs>
       <use xlink:href="#DejaVuSans-36"/>
      </g>
     </g>
    </g>
    <g id="xtick_5">
     <g id="line2d_9">
      <path d="M 333.556364 307.584 
L 333.556364 41.472 
" clip-path="url(#pb86efad1e8)" style="fill: none; stroke: #b0b0b0; stroke-width: 0.8; stroke-linecap: square"/>
     </g>
     <g id="line2d_10">
      <g>
       <use xlink:href="#mfd2021ca1c" x="333.556364" y="307.584" style="stroke: #000000; stroke-width: 0.8"/>
      </g>
     </g>
     <g id="text_5">
      <!-- 8 -->
      <g transform="translate(330.375114 322.182437) scale(0.1 -0.1)">
       <defs>
        <path id="DejaVuSans-38" d="M 2034 2216 
Q 1584 2216 1326 1975 
Q 1069 1734 1069 1313 
Q 1069 891 1326 650 
Q 1584 409 2034 409 
Q 2484 409 2743 651 
Q 3003 894 3003 1313 
Q 3003 1734 2745 1975 
Q 2488 2216 2034 2216 
z
M 1403 2484 
Q 997 2584 770 2862 
Q 544 3141 544 3541 
Q 544 4100 942 4425 
Q 1341 4750 2034 4750 
Q 2731 4750 3128 4425 
Q 3525 4100 3525 3541 
Q 3525 3141 3298 2862 
Q 3072 2584 2669 2484 
Q 3125 2378 3379 2068 
Q 3634 1759 3634 1313 
Q 3634 634 3220 271 
Q 2806 -91 2034 -91 
Q 1263 -91 848 271 
Q 434 634 434 1313 
Q 434 1759 690 2068 
Q 947 2378 1403 2484 
z
M 1172 3481 
Q 1172 3119 1398 2916 
Q 1625 2713 2034 2713 
Q 2441 2713 2670 2916 
Q 2900 3119 2900 3481 
Q 2900 3844 2670 4047 
Q 2441 4250 2034 4250 
Q 1625 4250 1398 4047 
Q 1172 3844 1172 3481 
z
" transform="scale(0.015625)"/>
       </defs>
       <use xlink:href="#DejaVuSans-38"/>
      </g>
     </g>
    </g>
    <g id="xtick_6">
     <g id="line2d_11">
      <path d="M 398.487273 307.584 
L 398.487273 41.472 
" clip-path="url(#pb86efad1e8)" style="fill: none; stroke: #b0b0b0; stroke-width: 0.8; stroke-linecap: square"/>
     </g>
     <g id="line2d_12">
      <g>
       <use xlink:href="#mfd2021ca1c" x="398.487273" y="307.584" style="stroke: #000000; stroke-width: 0.8"/>
      </g>
     </g>
     <g id="text_6">
      <!-- 10 -->
      <g transform="translate(392.124773 322.182437) scale(0.1 -0.1)">
       <defs>
        <path id="DejaVuSans-31" d="M 794 531 
L 1825 531 
L 1825 4091 
L 703 3866 
L 703 4441 
L 1819 4666 
L 2450 4666 
L 2450 531 
L 3481 531 
L 3481 0 
L 794 0 
L 794 531 
z
" transform="scale(0.015625)"/>
       </defs>
       <use xlink:href="#DejaVuSans-31"/>
       <use xlink:href="#DejaVuSans-30" transform="translate(63.623047 0)"/>
      </g>
     </g>
    </g>
    <g id="text_7">
     <!-- Time (s) -->
     <g transform="translate(215.831094 335.860562) scale(0.1 -0.1)">
      <defs>
       <path id="DejaVuSans-54" d="M -19 4666 
L 3928 4666 
L 3928 4134 
L 2272 4134 
L 2272 0 
L 1638 0 
L 1638 4134 
L -19 4134 
L -19 4666 
z
" transform="scale(0.015625)"/>
       <path id="DejaVuSans-69" d="M 603 3500 
L 1178 3500 
L 1178 0 
L 603 0 
L 603 3500 
z
M 603 4863 
L 1178 4863 
L 1178 4134 
L 603 4134 
L 603 4863 
z
" transform="scale(0.015625)"/>
       <path id="DejaVuSans-6d" d="M 3328 2828 
Q 3544 3216 3844 3400 
Q 4144 3584 4550 3584 
Q 5097 3584 5394 3201 
Q 5691 2819 5691 2113 
L 5691 0 
L 5113 0 
L 5113 2094 
Q 5113 2597 4934 2840 
Q 4756 3084 4391 3084 
Q 3944 3084 3684 2787 
Q 3425 2491 3425 1978 
L 3425 0 
L 2847 0 
L 2847 2094 
Q 2847 2600 2669 2842 
Q 2491 3084 2119 3084 
Q 1678 3084 1418 2786 
Q 1159 2488 1159 1978 
L 1159 0 
L 581 0 
L 581 3500 
L 1159 3500 
L 1159 2956 
Q 1356 3278 1631 3431 
Q 1906 3584 2284 3584 
Q 2666 3584 2933 3390 
Q 3200 3197 3328 2828 
z
" transform="scale(0.015625)"/>
       <path id="DejaVuSans-65" d="M 3597 1894 
L 3597 1613 
L 953 1613 
Q 991 1019 1311 708 
Q 1631 397 2203 397 
Q 2534 397 2845 478 
Q 3156 559 3463 722 
L 3463 178 
Q 3153 47 2828 -22 
Q 2503 -91 2169 -91 
Q 1331 -91 842 396 
Q 353 884 353 1716 
Q 353 2575 817 3079 
Q 1281 3584 2069 3584 
Q 2775 3584 3186 3129 
Q 3597 2675 3597 1894 
z
M 3022 2063 
Q 3016 2534 2758 2815 
Q 2500 3097 2075 3097 
Q 1594 3097 1305 2825 
Q 1016 2553 972 2059 
L 3022 2063 
z
" transform="scale(0.015625)"/>
       <path id="DejaVuSans-20" transform="scale(0.015625)"/>
       <path id="DejaVuSans-28" d="M 1984 4856 
Q 1566 4138 1362 3434 
Q 1159 2731 1159 2009 
Q 1159 1288 1364 580 
Q 1569 -128 1984 -844 
L 1484 -844 
Q 1016 -109 783 600 
Q 550 1309 550 2009 
Q 550 2706 781 3412 
Q 1013 4119 1484 4856 
L 1984 4856 
z
" transform="scale(0.015625)"/>
       <path id="DejaVuSans-73" d="M 2834 3397 
L 2834 2853 
Q 2591 2978 2328 3040 
Q 2066 3103 1784 3103 
Q 1356 3103 1142 2972 
Q 928 2841 928 2578 
Q 928 2378 1081 2264 
Q 1234 2150 1697 2047 
L 1894 2003 
Q 2506 1872 2764 1633 
Q 3022 1394 3022 966 
Q 3022 478 2636 193 
Q 2250 -91 1575 -91 
Q 1294 -91 989 -36 
Q 684 19 347 128 
L 347 722 
Q 666 556 975 473 
Q 1284 391 1588 391 
Q 1994 391 2212 530 
Q 2431 669 2431 922 
Q 2431 1156 2273 1281 
Q 2116 1406 1581 1522 
L 1381 1569 
Q 847 1681 609 1914 
Q 372 2147 372 2553 
Q 372 3047 722 3315 
Q 1072 3584 1716 3584 
Q 2034 3584 2315 3537 
Q 2597 3491 2834 3397 
z
" transform="scale(0.015625)"/>
       <path id="DejaVuSans-29" d="M 513 4856 
L 1013 4856 
Q 1481 4119 1714 3412 
Q 1947 2706 1947 2009 
Q 1947 1309 1714 600 
Q 1481 -109 1013 -844 
L 513 -844 
Q 928 -128 1133 580 
Q 1338 1288 1338 2009 
Q 1338 2731 1133 3434 
Q 928 4138 513 4856 
z
" transform="scale(0.015625)"/>
      </defs>
      <use xlink:href="#DejaVuSans-54"/>
      <use xlink:href="#DejaVuSans-69" transform="translate(57.958984 0)"/>
      <use xlink:href="#DejaVuSans-6d" transform="translate(85.742188 0)"/>
      <use xlink:href="#DejaVuSans-65" transform="translate(183.154297 0)"/>
      <use xlink:href="#DejaVuSans-20" transform="translate(244.677734 0)"/>
      <use xlink:href="#DejaVuSans-28" transform="translate(276.464844 0)"/>
      <use xlink:href="#DejaVuSans-73" transform="translate(315.478516 0)"/>
      <use xlink:href="#DejaVuSans-29" transform="translate(367.578125 0)"/>
     </g>
    </g>
   </g>
   <g id="matplotlib.axis_2">
    <g id="ytick_1">
     <g id="line2d_13">
      <path d="M 57.6 295.488099 
L 414.72 295.488099 
" clip-path="url(#pb86efad1e8)" style="fill: none; stroke: #b0b0b0; stroke-width: 0.8; stroke-linecap: square"/>
     </g>
     <g id="line2d_14">
      <defs>
       <path id="m7b018d5920" d="M 0 0 
L -3.5 0 
" style="stroke: #000000; stroke-width: 0.8"/>
      </defs>
      <g>
       <use xlink:href="#m7b018d5920" x="57.6" y="295.488099" style="stroke: #000000; stroke-width: 0.8"/>
      </g>
     </g>
     <g id="text_8">
      <!-- −3 -->
      <g transform="translate(35.857813 299.287318) scale(0.1 -0.1)">
       <defs>
        <path id="DejaVuSans-2212" d="M 678 2272 
L 4684 2272 
L 4684 1741 
L 678 1741 
L 678 2272 
z
" transform="scale(0.015625)"/>
        <path id="DejaVuSans-33" d="M 2597 2516 
Q 3050 2419 3304 2112 
Q 3559 1806 3559 1356 
Q 3559 666 3084 287 
Q 2609 -91 1734 -91 
Q 1441 -91 1130 -33 
Q 819 25 488 141 
L 488 750 
Q 750 597 1062 519 
Q 1375 441 1716 441 
Q 2309 441 2620 675 
Q 2931 909 2931 1356 
Q 2931 1769 2642 2001 
Q 2353 2234 1838 2234 
L 1294 2234 
L 1294 2753 
L 1863 2753 
Q 2328 2753 2575 2939 
Q 2822 3125 2822 3475 
Q 2822 3834 2567 4026 
Q 2313 4219 1838 4219 
Q 1578 4219 1281 4162 
Q 984 4106 628 3988 
L 628 4550 
Q 988 4650 1302 4700 
Q 1616 4750 1894 4750 
Q 2613 4750 3031 4423 
Q 3450 4097 3450 3541 
Q 3450 3153 3228 2886 
Q 3006 2619 2597 2516 
z
" transform="scale(0.015625)"/>
       </defs>
       <use xlink:href="#DejaVuSans-2212"/>
       <use xlink:href="#DejaVuSans-33" transform="translate(83.789062 0)"/>
      </g>
     </g>
    </g>
    <g id="ytick_2">
     <g id="line2d_15">
      <path d="M 57.6 255.168083 
L 414.72 255.168083 
" clip-path="url(#pb86efad1e8)" style="fill: none; stroke: #b0b0b0; stroke-width: 0.8; stroke-linecap: square"/>
     </g>
     <g id="line2d_16">
      <g>
       <use xlink:href="#m7b018d5920" x="57.6" y="255.168083" style="stroke: #000000; stroke-width: 0.8"/>
      </g>
     </g>
     <g id="text_9">
      <!-- −2 -->
      <g transform="translate(35.857813 258.967301) scale(0.1 -0.1)">
       <use xlink:href="#DejaVuSans-2212"/>
       <use xlink:href="#DejaVuSans-32" transform="translate(83.789062 0)"/>
      </g>
     </g>
    </g>
    <g id="ytick_3">
     <g id="line2d_17">
      <path d="M 57.6 214.848066 
L 414.72 214.848066 
" clip-path="url(#pb86efad1e8)" style="fill: none; stroke: #b0b0b0; stroke-width: 0.8; stroke-linecap: square"/>
     </g>
     <g id="line2d_18">
      <g>
       <use xlink:href="#m7b018d5920" x="57.6" y="214.848066" style="stroke: #000000; stroke-width: 0.8"/>
      </g>
     </g>
     <g id="text_10">
      <!-- −1 -->
      <g transform="translate(35.857813 218.647285) scale(0.1 -0.1)">
       <use xlink:href="#DejaVuSans-2212"/>
       <use xlink:href="#DejaVuSans-31" transform="translate(83.789062 0)"/>
      </g>
     </g>
    </g>
    <g id="ytick_4">
     <g id="line2d_19">
      <path d="M 57.6 174.52805 
L 414.72 174.52805 
" clip-path="url(#pb86efad1e8)" style="fill: none; stroke: #b0b0b0; stroke-width: 0.8; stroke-linecap: square"/>
     </g>
     <g id="line2d_20">
      <g>
       <use xlink:href="#m7b018d5920" x="57.6" y="174.52805" style="stroke: #000000; stroke-width: 0.8"/>
      </g>
     </g>
     <g id="text_11">
      <!-- 0 -->
      <g transform="translate(44.2375 178.327268) scale(0.1 -0.1)">
       <use xlink:href="#DejaVuSans-30"/>
      </g>
     </g>
    </g>
    <g id="ytick_5">
     <g id="line2d_21">
      <path d="M 57.6 134.208033 
L 414.72 134.208033 
" clip-path="url(#pb86efad1e8)" style="fill: none; stroke: #b0b0b0; stroke-width: 0.8; stroke-linecap: square"/>
     </g>
     <g id="line2d_22">
      <g>
       <use xlink:href="#m7b018d5920" x="57.6" y="134.208033" style="stroke: #000000; stroke-width: 0.8"/>
      </g>
     </g>
     <g id="text_12">
      <!-- 1 -->
      <g transform="translate(44.2375 138.007252) scale(0.1 -0.1)">
       <use xlink:href="#DejaVuSans-31"/>
      </g>
     </g>
    </g>
    <g id="ytick_6">
     <g id="line2d_23">
      <path d="M 57.6 93.888017 
L 414.72 93.888017 
" clip-path="url(#pb86efad1e8)" style="fill: none; stroke: #b0b0b0; stroke-width: 0.8; stroke-linecap: square"/>
     </g>
     <g id="line2d_24">
      <g>
       <use xlink:href="#m7b018d5920" x="57.6" y="93.888017" style="stroke: #000000; stroke-width: 0.8"/>
      </g>
     </g>
     <g id="text_13">
      <!-- 2 -->
      <g transform="translate(44.2375 97.687235) scale(0.1 -0.1)">
       <use xlink:href="#DejaVuSans-32"/>
      </g>
     </g>
    </g>
    <g id="ytick_7">
     <g id="line2d_25">
      <path d="M 57.6 53.568 
L 414.72 53.568 
" clip-path="url(#pb86efad1e8)" style="fill: none; stroke: #b0b0b0; stroke-width: 0.8; stroke-linecap: square"/>
     </g>
     <g id="line2d_26">
      <g>
       <use xlink:href="#m7b018d5920" x="57.6" y="53.568" style="stroke: #000000; stroke-width: 0.8"/>
      </g>
     </g>
     <g id="text_14">
      <!-- 3 -->
      <g transform="translate(44.2375 57.367219) scale(0.1 -0.1)">
       <use xlink:href="#DejaVuSans-33"/>
      </g>
     </g>
    </g>
    <g id="text_15">
     <!-- Angular Displacement (rad) -->
     <g transform="translate(29.778125 243.714719) rotate(-90) scale(0.1 -0.1)">
      <defs>
       <path id="DejaVuSans-41" d="M 2188 4044 
L 1331 1722 
L 3047 1722 
L 2188 4044 
z
M 1831 4666 
L 2547 4666 
L 4325 0 
L 3669 0 
L 3244 1197 
L 1141 1197 
L 716 0 
L 50 0 
L 1831 4666 
z
" transform="scale(0.015625)"/>
       <path id="DejaVuSans-6e" d="M 3513 2113 
L 3513 0 
L 2938 0 
L 2938 2094 
Q 2938 2591 2744 2837 
Q 2550 3084 2163 3084 
Q 1697 3084 1428 2787 
Q 1159 2491 1159 1978 
L 1159 0 
L 581 0 
L 581 3500 
L 1159 3500 
L 1159 2956 
Q 1366 3272 1645 3428 
Q 1925 3584 2291 3584 
Q 2894 3584 3203 3211 
Q 3513 2838 3513 2113 
z
" transform="scale(0.015625)"/>
       <path id="DejaVuSans-67" d="M 2906 1791 
Q 2906 2416 2648 2759 
Q 2391 3103 1925 3103 
Q 1463 3103 1205 2759 
Q 947 2416 947 1791 
Q 947 1169 1205 825 
Q 1463 481 1925 481 
Q 2391 481 2648 825 
Q 2906 1169 2906 1791 
z
M 3481 434 
Q 3481 -459 3084 -895 
Q 2688 -1331 1869 -1331 
Q 1566 -1331 1297 -1286 
Q 1028 -1241 775 -1147 
L 775 -588 
Q 1028 -725 1275 -790 
Q 1522 -856 1778 -856 
Q 2344 -856 2625 -561 
Q 2906 -266 2906 331 
L 2906 616 
Q 2728 306 2450 153 
Q 2172 0 1784 0 
Q 1141 0 747 490 
Q 353 981 353 1791 
Q 353 2603 747 3093 
Q 1141 3584 1784 3584 
Q 2172 3584 2450 3431 
Q 2728 3278 2906 2969 
L 2906 3500 
L 3481 3500 
L 3481 434 
z
" transform="scale(0.015625)"/>
       <path id="DejaVuSans-75" d="M 544 1381 
L 544 3500 
L 1119 3500 
L 1119 1403 
Q 1119 906 1312 657 
Q 1506 409 1894 409 
Q 2359 409 2629 706 
Q 2900 1003 2900 1516 
L 2900 3500 
L 3475 3500 
L 3475 0 
L 2900 0 
L 2900 538 
Q 2691 219 2414 64 
Q 2138 -91 1772 -91 
Q 1169 -91 856 284 
Q 544 659 544 1381 
z
M 1991 3584 
L 1991 3584 
z
" transform="scale(0.015625)"/>
       <path id="DejaVuSans-6c" d="M 603 4863 
L 1178 4863 
L 1178 0 
L 603 0 
L 603 4863 
z
" transform="scale(0.015625)"/>
       <path id="DejaVuSans-61" d="M 2194 1759 
Q 1497 1759 1228 1600 
Q 959 1441 959 1056 
Q 959 750 1161 570 
Q 1363 391 1709 391 
Q 2188 391 2477 730 
Q 2766 1069 2766 1631 
L 2766 1759 
L 2194 1759 
z
M 3341 1997 
L 3341 0 
L 2766 0 
L 2766 531 
Q 2569 213 2275 61 
Q 1981 -91 1556 -91 
Q 1019 -91 701 211 
Q 384 513 384 1019 
Q 384 1609 779 1909 
Q 1175 2209 1959 2209 
L 2766 2209 
L 2766 2266 
Q 2766 2663 2505 2880 
Q 2244 3097 1772 3097 
Q 1472 3097 1187 3025 
Q 903 2953 641 2809 
L 641 3341 
Q 956 3463 1253 3523 
Q 1550 3584 1831 3584 
Q 2591 3584 2966 3190 
Q 3341 2797 3341 1997 
z
" transform="scale(0.015625)"/>
       <path id="DejaVuSans-72" d="M 2631 2963 
Q 2534 3019 2420 3045 
Q 2306 3072 2169 3072 
Q 1681 3072 1420 2755 
Q 1159 2438 1159 1844 
L 1159 0 
L 581 0 
L 581 3500 
L 1159 3500 
L 1159 2956 
Q 1341 3275 1631 3429 
Q 1922 3584 2338 3584 
Q 2397 3584 2469 3576 
Q 2541 3569 2628 3553 
L 2631 2963 
z
" transform="scale(0.015625)"/>
       <path id="DejaVuSans-44" d="M 1259 4147 
L 1259 519 
L 2022 519 
Q 2988 519 3436 956 
Q 3884 1394 3884 2338 
Q 3884 3275 3436 3711 
Q 2988 4147 2022 4147 
L 1259 4147 
z
M 628 4666 
L 1925 4666 
Q 3281 4666 3915 4102 
Q 4550 3538 4550 2338 
Q 4550 1131 3912 565 
Q 3275 0 1925 0 
L 628 0 
L 628 4666 
z
" transform="scale(0.015625)"/>
       <path id="DejaVuSans-70" d="M 1159 525 
L 1159 -1331 
L 581 -1331 
L 581 3500 
L 1159 3500 
L 1159 2969 
Q 1341 3281 1617 3432 
Q 1894 3584 2278 3584 
Q 2916 3584 3314 3078 
Q 3713 2572 3713 1747 
Q 3713 922 3314 415 
Q 2916 -91 2278 -91 
Q 1894 -91 1617 61 
Q 1341 213 1159 525 
z
M 3116 1747 
Q 3116 2381 2855 2742 
Q 2594 3103 2138 3103 
Q 1681 3103 1420 2742 
Q 1159 2381 1159 1747 
Q 1159 1113 1420 752 
Q 1681 391 2138 391 
Q 2594 391 2855 752 
Q 3116 1113 3116 1747 
z
" transform="scale(0.015625)"/>
       <path id="DejaVuSans-63" d="M 3122 3366 
L 3122 2828 
Q 2878 2963 2633 3030 
Q 2388 3097 2138 3097 
Q 1578 3097 1268 2742 
Q 959 2388 959 1747 
Q 959 1106 1268 751 
Q 1578 397 2138 397 
Q 2388 397 2633 464 
Q 2878 531 3122 666 
L 3122 134 
Q 2881 22 2623 -34 
Q 2366 -91 2075 -91 
Q 1284 -91 818 406 
Q 353 903 353 1747 
Q 353 2603 823 3093 
Q 1294 3584 2113 3584 
Q 2378 3584 2631 3529 
Q 2884 3475 3122 3366 
z
" transform="scale(0.015625)"/>
       <path id="DejaVuSans-74" d="M 1172 4494 
L 1172 3500 
L 2356 3500 
L 2356 3053 
L 1172 3053 
L 1172 1153 
Q 1172 725 1289 603 
Q 1406 481 1766 481 
L 2356 481 
L 2356 0 
L 1766 0 
Q 1100 0 847 248 
Q 594 497 594 1153 
L 594 3053 
L 172 3053 
L 172 3500 
L 594 3500 
L 594 4494 
L 1172 4494 
z
" transform="scale(0.015625)"/>
       <path id="DejaVuSans-64" d="M 2906 2969 
L 2906 4863 
L 3481 4863 
L 3481 0 
L 2906 0 
L 2906 525 
Q 2725 213 2448 61 
Q 2172 -91 1784 -91 
Q 1150 -91 751 415 
Q 353 922 353 1747 
Q 353 2572 751 3078 
Q 1150 3584 1784 3584 
Q 2172 3584 2448 3432 
Q 2725 3281 2906 2969 
z
M 947 1747 
Q 947 1113 1208 752 
Q 1469 391 1925 391 
Q 2381 391 2643 752 
Q 2906 1113 2906 1747 
Q 2906 2381 2643 2742 
Q 2381 3103 1925 3103 
Q 1469 3103 1208 2742 
Q 947 2381 947 1747 
z
" transform="scale(0.015625)"/>
      </defs>
      <use xlink:href="#DejaVuSans-41"/>
      <use xlink:href="#DejaVuSans-6e" transform="translate(68.408203 0)"/>
      <use xlink:href="#DejaVuSans-67" transform="translate(131.787109 0)"/>
      <use xlink:href="#DejaVuSans-75" transform="translate(195.263672 0)"/>
      <use xlink:href="#DejaVuSans-6c" transform="translate(258.642578 0)"/>
      <use xlink:href="#DejaVuSans-61" transform="translate(286.425781 0)"/>
      <use xlink:href="#DejaVuSans-72" transform="translate(347.705078 0)"/>
      <use xlink:href="#DejaVuSans-20" transform="translate(388.818359 0)"/>
      <use xlink:href="#DejaVuSans-44" transform="translate(420.605469 0)"/>
      <use xlink:href="#DejaVuSans-69" transform="translate(497.607422 0)"/>
      <use xlink:href="#DejaVuSans-73" transform="translate(525.390625 0)"/>
      <use xlink:href="#DejaVuSans-70" transform="translate(577.490234 0)"/>
      <use xlink:href="#DejaVuSans-6c" transform="translate(640.966797 0)"/>
      <use xlink:href="#DejaVuSans-61" transform="translate(668.75 0)"/>
      <use xlink:href="#DejaVuSans-63" transform="translate(730.029297 0)"/>
      <use xlink:href="#DejaVuSans-65" transform="translate(785.009766 0)"/>
      <use xlink:href="#DejaVuSans-6d" transform="translate(846.533203 0)"/>
      <use xlink:href="#DejaVuSans-65" transform="translate(943.945312 0)"/>
      <use xlink:href="#DejaVuSans-6e" transform="translate(1005.46875 0)"/>
      <use xlink:href="#DejaVuSans-74" transform="translate(1068.847656 0)"/>
      <use xlink:href="#DejaVuSans-20" transform="translate(1108.056641 0)"/>
      <use xlink:href="#DejaVuSans-28" transform="translate(1139.84375 0)"/>
      <use xlink:href="#DejaVuSans-72" transform="translate(1178.857422 0)"/>
      <use xlink:href="#DejaVuSans-61" transform="translate(1219.970703 0)"/>
      <use xlink:href="#DejaVuSans-64" transform="translate(1281.25 0)"/>
      <use xlink:href="#DejaVuSans-29" transform="translate(1344.726562 0)"/>
     </g>
    </g>
   </g>
   <g id="line2d_27">
    <path d="M 73.832727 134.208033 
L 74.807666 134.360953 
L 75.782604 134.818965 
L 76.757543 135.579797 
L 77.732482 136.639594 
L 78.70742 137.992807 
L 80.007338 140.240481 
L 81.307256 142.973373 
L 82.932154 147.025329 
L 84.557052 151.712379 
L 86.506929 158.039724 
L 89.106765 167.331505 
L 95.931335 192.302209 
L 97.881212 198.492727 
L 99.50611 203.038963 
L 101.131007 206.930687 
L 102.430925 209.524436 
L 103.730844 211.625527 
L 104.705782 212.865079 
L 105.680721 213.808842 
L 106.655659 214.451942 
L 107.630598 214.791151 
L 108.605536 214.824798 
L 109.580475 214.552718 
L 110.555414 213.976249 
L 111.530352 213.098269 
L 112.505291 211.923281 
L 113.805209 209.905677 
L 115.105127 207.391478 
L 116.405045 204.407453 
L 118.029943 200.069443 
L 119.97982 194.085625 
L 122.254676 186.266404 
L 125.829451 172.992564 
L 129.404226 159.901327 
L 131.679083 152.373653 
L 133.62896 146.72868 
L 135.253857 142.722877 
L 136.553776 140.030167 
L 137.853694 137.824898 
L 139.153612 136.129574 
L 140.12855 135.202736 
L 141.103489 134.576787 
L 142.078428 134.254865 
L 143.053366 134.238554 
L 144.028305 134.527934 
L 145.003243 135.121583 
L 145.978182 136.016531 
L 146.95312 137.208182 
L 148.253038 139.247347 
L 149.552957 141.782111 
L 150.852875 144.785404 
L 152.477772 149.145179 
L 154.427649 155.150826 
L 156.702506 162.988177 
L 160.277281 176.271415 
L 163.852056 189.347341 
L 166.126912 196.853692 
L 168.07679 202.474631 
L 169.701687 206.457229 
L 171.001605 209.129768 
L 172.301523 211.313773 
L 173.601441 212.98702 
L 174.57638 213.896917 
L 175.551319 214.505705 
L 176.526257 214.810335 
L 177.501196 214.80931 
L 178.476134 214.502633 
L 179.451073 213.891815 
L 180.426011 212.979913 
L 181.40095 211.771619 
L 182.700868 209.71093 
L 184.000786 207.155651 
L 185.300704 204.133152 
L 186.925602 199.75171 
L 188.875479 193.724382 
L 191.150336 185.869109 
L 195.05009 171.355806 
L 198.299885 159.516609 
L 200.574742 152.031776 
L 202.524619 146.435002 
L 204.149517 142.475695 
L 205.449435 139.823379 
L 206.749353 137.660678 
L 207.724292 136.373402 
L 208.69923 135.380954 
L 209.674169 134.688489 
L 210.649107 134.299495 
L 211.624046 134.215895 
L 212.598984 134.438096 
L 213.573923 134.965009 
L 214.548862 135.794012 
L 215.5238 136.920873 
L 216.498739 138.339644 
L 217.798657 140.671625 
L 219.098575 143.484227 
L 220.723473 147.627435 
L 222.34837 152.393954 
L 224.298247 158.797327 
L 226.898084 168.150864 
L 233.397674 191.952895 
L 235.347551 198.18157 
L 236.972449 202.766813 
L 238.597346 206.702746 
L 239.897265 209.334786 
L 241.197183 211.476144 
L 242.172121 212.74688 
L 243.14706 213.722448 
L 244.121998 214.397793 
L 245.096937 214.769516 
L 246.071876 214.835782 
L 247.046814 214.596269 
L 248.021753 214.05215 
L 248.996691 213.206139 
L 249.97163 212.062558 
L 250.946568 210.627459 
L 252.246486 208.274509 
L 253.546405 205.442119 
L 255.171302 201.276322 
L 256.7962 196.490218 
L 258.746077 190.068248 
L 261.345913 180.69992 
L 267.520524 158.017427 
L 269.795381 150.708882 
L 271.420278 146.144322 
L 273.045176 142.231847 
L 274.345094 139.620134 
L 275.645012 137.500159 
L 276.619951 136.245985 
L 277.594889 135.287312 
L 278.569828 134.629099 
L 279.544767 134.274653 
L 280.519705 134.225721 
L 281.494644 134.482544 
L 282.469582 135.043858 
L 283.444521 135.906865 
L 284.419459 137.067146 
L 285.394398 138.518547 
L 286.694316 140.892422 
L 287.994234 143.744542 
L 289.619132 147.932838 
L 291.244029 152.738414 
L 293.193907 159.178814 
L 295.793743 168.561671 
L 301.968354 191.226869 
L 303.918231 197.532492 
L 305.543129 202.197008 
L 307.168026 206.223199 
L 308.467944 208.93365 
L 309.767862 211.157633 
L 311.067781 212.872398 
L 312.042719 213.81416 
L 313.017658 214.455231 
L 313.992596 214.792395 
L 314.967535 214.823991 
L 315.942473 214.549864 
L 316.917412 213.971362 
L 317.892351 213.091374 
L 318.867289 211.914413 
L 320.167207 209.894256 
L 321.467125 207.377622 
L 322.767043 204.391314 
L 324.391941 200.050724 
L 326.341818 194.064315 
L 328.616675 186.242939 
L 332.19145 172.967967 
L 335.766224 159.878523 
L 338.041081 152.353361 
L 339.990958 146.711224 
L 341.615856 142.708162 
L 342.915774 140.017836 
L 344.215692 137.815081 
L 345.51561 136.122367 
L 346.490549 135.197533 
L 347.465487 134.573614 
L 348.440426 134.253737 
L 349.415364 134.239478 
L 350.390303 134.530904 
L 351.365242 135.126585 
L 352.34018 136.02354 
L 353.315119 137.217161 
L 354.615037 139.258874 
L 355.914955 141.796067 
L 357.214873 144.801636 
L 358.839771 149.163979 
L 360.789648 155.172199 
L 363.064505 163.011682 
L 366.964259 177.517426 
L 370.539034 190.493763 
L 372.81389 197.868125 
L 374.438788 202.491999 
L 376.063686 206.471845 
L 377.363604 209.141994 
L 378.663522 211.323481 
L 379.63846 212.625322 
L 380.613399 213.632639 
L 381.588337 214.34019 
L 382.563276 214.744405 
L 383.538215 214.843288 
L 384.513153 214.636353 
L 385.488092 214.124617 
L 386.46303 213.310623 
L 387.437969 212.198518 
L 388.412907 210.794164 
L 389.712826 208.480707 
L 391.012744 205.685599 
L 392.637641 201.562382 
L 394.262539 196.813226 
L 396.212416 190.426386 
L 398.487273 182.288728 
L 398.487273 182.288728 
" clip-path="url(#pb86efad1e8)" style="fill: none; stroke: #1f77b4; stroke-width: 1.5; stroke-linecap: square"/>
   </g>
   <g id="line2d_28">
    <path d="M 73.832727 93.888017 
L 74.807666 94.053382 
L 75.782604 94.550092 
L 76.757543 95.379962 
L 77.732482 96.54591 
L 78.70742 98.051793 
L 79.682359 99.902172 
L 80.982277 102.913781 
L 82.282195 106.558032 
L 83.582113 110.844007 
L 85.207011 117.109194 
L 86.831908 124.370899 
L 88.456806 132.585584 
L 90.406683 143.576461 
L 93.006519 159.730467 
L 100.481048 207.59875 
L 102.430925 218.37423 
L 104.380803 227.870465 
L 106.0057 234.714685 
L 107.630598 240.554206 
L 108.930516 244.500648 
L 110.230434 247.809709 
L 111.530352 250.492015 
L 112.505291 252.099504 
L 113.480229 253.365765 
L 114.455168 254.294894 
L 115.430106 254.890107 
L 116.405045 255.15356 
L 117.379984 255.086228 
L 118.354922 254.687861 
L 119.329861 253.956993 
L 120.304799 252.891018 
L 121.279738 251.486337 
L 122.254676 249.738568 
L 123.554595 246.866074 
L 124.854513 243.363361 
L 126.154431 239.220606 
L 127.779328 233.134598 
L 129.404226 226.047986 
L 131.029124 217.997827 
L 132.979001 207.178728 
L 135.253857 193.258865 
L 139.478591 165.604996 
L 142.728387 145.081994 
L 145.003243 132.202219 
L 146.95312 122.506333 
L 148.578018 115.485501 
L 150.202916 109.466557 
L 151.502834 105.377292 
L 152.802752 101.927382 
L 154.10267 99.106762 
L 155.402588 96.90377 
L 156.377527 95.650033 
L 157.352465 94.733291 
L 158.327404 94.150366 
L 159.302342 93.899144 
L 160.277281 93.978694 
L 161.252219 94.389312 
L 162.227158 95.132508 
L 163.202097 96.210927 
L 164.177035 97.628201 
L 165.151974 99.388738 
L 166.451892 102.27854 
L 167.75181 105.79887 
L 169.051728 109.959463 
L 170.676626 116.06782 
L 172.301523 123.176325 
L 173.926421 131.24713 
L 175.876298 142.087922 
L 178.151155 156.026333 
L 182.700868 185.810543 
L 185.625684 204.189509 
L 187.900541 217.044917 
L 189.850418 226.716073 
L 191.475315 233.714945 
L 193.100213 239.711529 
L 194.400131 243.782973 
L 195.700049 247.215298 
L 196.999967 250.018645 
L 198.299885 252.204689 
L 199.274824 253.445908 
L 200.249762 254.350266 
L 201.224701 254.920906 
L 202.19964 255.159898 
L 203.174578 255.06813 
L 204.149517 254.645259 
L 205.124455 253.889732 
L 206.099394 252.798864 
L 207.074333 251.36899 
L 208.049271 249.59568 
L 209.349189 246.688559 
L 210.649107 243.150605 
L 211.949025 238.972169 
L 213.573923 232.841467 
L 215.198821 225.711088 
L 216.823718 217.619675 
L 218.773595 206.757268 
L 221.048452 192.800447 
L 225.598165 163.010847 
L 228.522981 144.651519 
L 230.797838 131.820576 
L 232.747715 122.174196 
L 234.372613 115.197301 
L 235.99751 109.223079 
L 237.297428 105.169451 
L 238.597346 101.754703 
L 239.897265 98.96862 
L 241.197183 96.799516 
L 242.172121 95.570809 
L 243.14706 94.67883 
L 244.121998 94.120473 
L 245.096937 93.893709 
L 246.071876 93.997696 
L 247.046814 94.432822 
L 248.021753 95.200684 
L 248.996691 96.304006 
L 249.97163 97.746485 
L 250.946568 99.532576 
L 252.246486 102.457024 
L 253.546405 106.01261 
L 254.846323 110.208894 
L 256.47122 116.361937 
L 258.096118 123.514171 
L 259.721016 131.626154 
L 261.670893 142.510096 
L 263.945749 156.485189 
L 272.720197 212.129214 
L 274.670074 222.404834 
L 276.294971 229.94827 
L 277.919869 236.504011 
L 279.544767 242.052276 
L 280.844685 245.767669 
L 282.144603 248.849245 
L 283.444521 251.30828 
L 284.419459 252.751042 
L 285.394398 253.854642 
L 286.369337 254.62278 
L 287.344275 255.05818 
L 288.319214 255.162441 
L 289.294152 254.935951 
L 290.269091 254.377868 
L 291.244029 253.486166 
L 292.218968 252.257739 
L 293.193907 250.688578 
L 294.493825 248.058228 
L 295.793743 244.802093 
L 297.093661 240.909368 
L 298.393579 236.372599 
L 300.018477 229.795138 
L 301.643374 222.230756 
L 303.593251 211.932281 
L 305.868108 198.476767 
L 308.792924 179.657625 
L 313.667617 148.141331 
L 315.942473 134.930206 
L 317.892351 124.892182 
L 319.517248 117.564851 
L 321.142146 111.232241 
L 322.767043 105.907884 
L 324.066962 102.369536 
L 325.36688 99.462028 
L 326.666798 97.173785 
L 327.641736 95.857092 
L 328.616675 94.87809 
L 329.591613 94.233418 
L 330.566552 93.920754 
L 331.541491 93.938943 
L 332.516429 94.288053 
L 333.491368 94.96937 
L 334.466306 95.98534 
L 335.441245 97.339425 
L 336.416183 99.03591 
L 337.716102 101.83887 
L 339.01602 105.270802 
L 340.315938 109.341847 
L 341.615856 114.058023 
L 343.240753 120.857575 
L 344.865651 128.635114 
L 346.815528 139.16435 
L 349.090385 152.829983 
L 352.34018 173.927559 
L 356.564914 201.134636 
L 358.839771 214.322864 
L 360.789648 224.336867 
L 362.414545 231.642506 
L 364.039443 237.952814 
L 365.664341 243.25485 
L 366.964259 246.775573 
L 368.264177 249.665763 
L 369.564095 251.937014 
L 370.539034 253.24116 
L 371.513972 254.207757 
L 372.488911 254.840128 
L 373.463849 255.140555 
L 374.438788 255.110149 
L 375.413726 254.748797 
L 376.388665 254.055165 
L 377.363604 253.026771 
L 378.338542 251.660116 
L 379.313481 249.950892 
L 380.613399 247.130658 
L 381.913317 243.681141 
L 383.213235 239.592276 
L 384.513153 234.8582 
L 386.138051 228.036554 
L 387.762948 220.237913 
L 389.712826 209.686021 
L 391.987682 196.000111 
L 395.562457 172.742732 
L 398.487273 153.745648 
L 398.487273 153.745648 
" clip-path="url(#pb86efad1e8)" style="fill: none; stroke: #ff7f0e; stroke-width: 1.5; stroke-linecap: square"/>
   </g>
   <g id="line2d_29">
    <path d="M 73.832727 73.728008 
L 74.807666 73.836878 
L 75.782604 74.164273 
L 76.757543 74.712545 
L 77.732482 75.485601 
L 78.70742 76.488878 
L 80.007338 78.196885 
L 81.307256 80.347005 
L 82.607174 82.963712 
L 83.907093 86.07498 
L 85.207011 89.71133 
L 86.831908 95.043371 
L 88.456806 101.304638 
L 90.081704 108.543904 
L 91.706601 116.78805 
L 93.656478 127.991733 
L 95.606355 140.514243 
L 98.206192 158.821008 
L 105.680721 212.722318 
L 107.630598 224.838473 
L 109.580475 235.585962 
L 111.205373 243.439036 
L 112.83027 250.294222 
L 114.455168 256.188417 
L 116.080066 261.175681 
L 117.379984 264.553484 
L 118.679902 267.421247 
L 119.97982 269.808401 
L 121.279738 271.741318 
L 122.579656 273.242533 
L 123.879574 274.330242 
L 124.854513 274.88299 
L 125.829451 275.214797 
L 126.80439 275.328047 
L 127.779328 275.223557 
L 128.754267 274.900573 
L 129.729206 274.356775 
L 130.704144 273.588286 
L 131.679083 272.589701 
L 132.979001 270.888194 
L 134.278919 268.744912 
L 135.578837 266.135441 
L 136.878755 263.031852 
L 138.178673 259.403653 
L 139.478591 255.219178 
L 141.103489 249.159548 
L 142.728387 242.130859 
L 144.353284 234.100503 
L 146.303161 223.145019 
L 148.253038 210.841788 
L 150.527895 195.085352 
L 155.402588 159.10718 
L 158.327404 138.604312 
L 160.60226 124.332832 
L 162.552138 113.571023 
L 164.177035 105.705796 
L 165.801933 98.838746 
L 167.42683 92.933258 
L 169.051728 87.935412 
L 170.351646 84.549682 
L 171.651564 81.674453 
L 172.951482 79.280258 
L 174.2514 77.340669 
L 175.551319 75.833092 
L 176.851237 74.73926 
L 177.826175 74.182035 
L 178.801114 73.845815 
L 179.776052 73.728184 
L 180.750991 73.828295 
L 181.72593 74.146868 
L 182.700868 74.686194 
L 183.675807 75.450117 
L 184.650745 76.444013 
L 185.950663 78.139026 
L 187.250581 80.275475 
L 188.5505 82.877717 
L 189.850418 85.973635 
L 191.150336 89.593688 
L 192.450254 93.769542 
L 194.075152 99.817772 
L 195.700049 106.834527 
L 197.324947 114.85272 
L 199.274824 125.793996 
L 201.224701 138.084541 
L 203.499558 153.829935 
L 208.049271 187.424437 
L 210.974087 208.145946 
L 213.248943 222.675309 
L 215.198821 233.687534 
L 216.823718 241.766542 
L 218.448616 248.84302 
L 220.073514 254.948324 
L 221.698411 260.13366 
L 223.323309 264.459234 
L 224.623227 267.341935 
L 225.923145 269.743179 
L 227.223063 271.689444 
L 228.522981 273.203388 
L 229.822899 274.303345 
L 230.797838 274.865049 
L 231.772776 275.205683 
L 232.747715 275.327695 
L 233.722654 275.231964 
L 234.697592 274.9178 
L 235.672531 274.382944 
L 236.647469 273.623585 
L 237.622408 272.634375 
L 238.922326 270.945853 
L 240.222244 268.816231 
L 241.522162 266.22121 
L 242.82208 263.132958 
L 244.121998 259.521041 
L 245.421916 255.353803 
L 247.046814 249.316964 
L 248.671712 242.312139 
L 250.296609 234.306108 
L 252.246486 223.37905 
L 254.196364 211.101212 
L 256.47122 195.366903 
L 261.020934 161.775714 
L 263.945749 141.042341 
L 266.220606 126.498558 
L 268.170483 115.472172 
L 269.795381 107.381001 
L 271.420278 100.292565 
L 273.045176 94.175823 
L 274.670074 88.97974 
L 276.294971 84.644164 
L 277.594889 81.753984 
L 278.894808 79.345686 
L 280.194726 77.39274 
L 281.494644 75.872424 
L 282.794562 74.766338 
L 283.7695 74.200155 
L 284.744439 73.855105 
L 285.719378 73.728712 
L 286.694316 73.820064 
L 287.669255 74.12982 
L 288.644193 74.660206 
L 289.619132 75.415005 
L 290.59407 76.399531 
L 291.893989 78.081568 
L 293.193907 80.204368 
L 294.493825 82.792172 
L 295.793743 85.872767 
L 297.093661 89.476553 
L 298.393579 93.635184 
L 300.018477 99.660639 
L 301.643374 106.65354 
L 303.268272 114.647409 
L 305.218149 125.560241 
L 307.168026 137.82535 
L 309.442883 153.54853 
L 313.992596 187.136289 
L 316.917412 207.881463 
L 319.192269 222.439636 
L 321.142146 233.480175 
L 322.767043 241.583508 
L 324.391941 248.683908 
L 326.016839 254.812095 
L 327.641736 260.018934 
L 329.266634 264.364521 
L 330.566552 267.262186 
L 331.86647 269.677544 
L 333.166388 271.637177 
L 334.466306 273.163868 
L 335.766224 274.276085 
L 336.741163 274.846751 
L 337.716102 275.196216 
L 338.69104 275.326991 
L 339.665979 275.240018 
L 340.640917 274.93467 
L 341.615856 274.408751 
L 342.590794 273.658511 
L 343.565733 272.678665 
L 344.865651 271.00311 
L 346.165569 268.887126 
L 347.465487 266.306531 
L 348.765405 263.233587 
L 350.065324 259.637923 
L 351.365242 255.487893 
L 352.990139 249.473814 
L 354.615037 242.492833 
L 356.239934 234.511126 
L 358.189812 223.612528 
L 360.139689 211.36017 
L 362.414545 195.648162 
L 366.639279 164.460019 
L 369.889075 141.307039 
L 372.163931 126.734504 
L 374.113808 115.679823 
L 375.738706 107.564327 
L 377.363604 100.451959 
L 378.988501 94.31232 
L 380.613399 89.094716 
L 382.238296 84.739109 
L 383.538215 81.833951 
L 384.838133 79.411527 
L 386.138051 77.445202 
L 387.437969 75.912132 
L 388.737887 74.79378 
L 389.712826 74.218631 
L 390.687764 73.864749 
L 391.662703 73.729592 
L 392.637641 73.812187 
L 393.61258 74.113128 
L 394.587518 74.634581 
L 395.562457 75.380264 
L 396.537396 76.355432 
L 397.837314 78.024511 
L 398.487273 79.02267 
L 398.487273 79.02267 
" clip-path="url(#pb86efad1e8)" style="fill: none; stroke: #2ca02c; stroke-width: 1.5; stroke-linecap: square"/>
   </g>
   <g id="line2d_30">
    <path d="M 73.832727 63.648004 
L 75.132645 63.771512 
L 76.432563 64.143865 
L 77.732482 64.770566 
L 79.0324 65.660828 
L 80.332318 66.827626 
L 81.632236 68.287759 
L 82.932154 70.061898 
L 84.232072 72.174596 
L 85.53199 74.654223 
L 86.831908 77.532776 
L 88.456806 81.745876 
L 90.081704 86.711615 
L 91.706601 92.506592 
L 93.331499 99.204075 
L 94.956396 106.865287 
L 96.581294 115.527501 
L 98.531171 127.23792 
L 100.481048 140.277068 
L 103.080885 159.277967 
L 110.230434 212.690851 
L 112.505291 227.345132 
L 114.455168 238.40469 
L 116.080066 246.515199 
L 117.704963 253.641355 
L 119.329861 259.835232 
L 120.954758 265.165929 
L 122.579656 269.709422 
L 124.204554 273.541497 
L 125.829451 276.733226 
L 127.454349 279.348309 
L 128.754267 281.062424 
L 130.054185 282.466664 
L 131.354103 283.580978 
L 132.654021 284.421452 
L 133.953939 285.000358 
L 135.253857 285.326216 
L 136.553776 285.403845 
L 137.853694 285.234396 
L 139.153612 284.815358 
L 140.45353 284.140544 
L 141.753448 283.200047 
L 143.053366 281.980186 
L 144.353284 280.463448 
L 145.653202 278.628439 
L 146.95312 276.44989 
L 148.253038 273.898737 
L 149.552957 270.942349 
L 151.177854 266.622284 
L 152.802752 261.53825 
L 154.427649 255.613711 
L 156.052547 248.776563 
L 157.677445 240.968306 
L 159.302342 232.156428 
L 161.252219 220.27308 
L 163.527076 204.775187 
L 166.451892 182.990652 
L 171.976544 141.451419 
L 174.2514 126.239845 
L 176.201278 114.643255 
L 178.151155 104.48662 
L 179.776052 97.116852 
L 181.40095 90.694534 
L 183.025848 85.153765 
L 184.650745 80.419519 
L 186.275643 76.415449 
L 187.900541 73.068984 
L 189.525438 70.3144 
L 190.825356 68.498124 
L 192.125274 66.998797 
L 193.425192 65.795249 
L 194.725111 64.870185 
L 196.025029 64.210141 
L 197.324947 63.805422 
L 198.624865 63.65005 
L 199.924783 63.741724 
L 201.224701 64.081802 
L 202.524619 64.675312 
L 203.824537 65.530987 
L 205.124455 66.661314 
L 206.424373 68.082597 
L 207.724292 69.815006 
L 209.02421 71.882595 
L 210.324128 74.313251 
L 211.624046 77.138521 
L 213.248943 81.278376 
L 214.873841 86.163046 
L 216.498739 91.869097 
L 218.123636 98.470487 
L 219.748534 106.03018 
L 221.373432 114.588553 
L 223.323309 126.17804 
L 225.273186 139.110768 
L 227.873022 158.014215 
L 235.347551 213.762092 
L 237.297428 226.329098 
L 239.247305 237.512024 
L 240.872203 245.725823 
L 242.497101 252.951376 
L 244.121998 259.238297 
L 245.746896 264.654456 
L 247.371794 269.275496 
L 248.996691 273.177468 
L 250.621589 276.432081 
L 252.246486 279.103874 
L 253.546405 280.859542 
L 254.846323 282.302484 
L 256.146241 283.453149 
L 257.446159 284.328118 
L 258.746077 284.940149 
L 260.045995 285.298244 
L 261.345913 285.407696 
L 262.645831 285.270127 
L 263.945749 284.883498 
L 265.245667 284.242098 
L 266.545586 283.3365 
L 267.845504 282.153514 
L 269.145422 280.676122 
L 270.44534 278.883433 
L 271.745258 276.750674 
L 273.045176 274.249261 
L 274.345094 271.347001 
L 275.969992 267.101319 
L 277.594889 262.099533 
L 279.219787 256.26505 
L 280.844685 249.524939 
L 282.469582 241.81878 
L 284.09448 233.110725 
L 286.044357 221.347164 
L 288.319214 205.967852 
L 291.244029 184.271791 
L 296.768681 142.633604 
L 299.043538 127.300305 
L 300.993415 115.582826 
L 302.943292 105.301734 
L 304.56819 97.831304 
L 306.193088 91.314185 
L 307.817985 85.685986 
L 309.442883 80.87221 
L 311.067781 76.796367 
L 312.692678 73.385328 
L 314.317576 70.572567 
L 315.617494 68.713738 
L 316.917412 67.174867 
L 318.21733 65.934283 
L 319.517248 64.974194 
L 320.817166 64.280645 
L 322.117084 63.843461 
L 323.417002 63.656187 
L 324.716921 63.71605 
L 326.016839 64.023936 
L 327.316757 64.584401 
L 328.616675 65.405696 
L 329.916593 66.499823 
L 331.216511 67.88259 
L 332.516429 69.573667 
L 333.816347 71.59661 
L 335.116265 73.978819 
L 336.416183 76.751385 
L 338.041081 80.81878 
L 339.665979 85.623198 
L 341.290876 91.241115 
L 342.915774 97.747093 
L 344.540672 105.205707 
L 346.165569 113.660289 
L 348.115446 125.12815 
L 350.065324 137.952723 
L 352.66516 156.754736 
L 360.464668 214.825486 
L 362.414545 227.285912 
L 364.364423 238.352706 
L 365.98932 246.469258 
L 367.614218 253.60122 
L 369.239115 259.800526 
L 370.864013 265.136205 
L 372.488911 269.684217 
L 374.113808 273.520365 
L 375.738706 276.715758 
L 377.363604 279.334146 
L 378.663522 281.050684 
L 379.96344 282.457181 
L 381.263358 283.573617 
L 382.563276 284.416105 
L 383.863194 284.996947 
L 385.163112 285.32469 
L 386.46303 285.404182 
L 387.762948 285.236601 
L 389.062867 284.819465 
L 390.362785 284.146612 
L 391.662703 283.208165 
L 392.962621 281.990472 
L 394.262539 280.476047 
L 395.562457 278.643527 
L 396.862375 276.467673 
L 398.162293 273.919449 
L 398.487273 273.220462 
L 398.487273 273.220462 
" clip-path="url(#pb86efad1e8)" style="fill: none; stroke: #d62728; stroke-width: 1.5; stroke-linecap: square"/>
   </g>
   <g id="line2d_31">
    <path d="M 73.832727 53.568 
L 75.782604 53.67093 
L 77.732482 53.983406 
L 79.682359 54.516607 
L 81.632236 55.289577 
L 83.582113 56.329847 
L 85.207011 57.427234 
L 86.831908 58.762527 
L 88.456806 60.368151 
L 90.081704 62.282692 
L 91.706601 64.551504 
L 93.331499 67.227271 
L 94.956396 70.370431 
L 96.581294 74.04929 
L 98.206192 78.339562 
L 99.831089 83.322988 
L 101.455987 89.084476 
L 103.080885 95.707148 
L 104.705782 103.264568 
L 106.33068 111.809652 
L 108.280557 123.389354 
L 110.230434 136.345525 
L 112.83027 155.378033 
L 120.954758 216.763183 
L 122.904636 229.31834 
L 124.854513 240.462718 
L 126.47941 248.645241 
L 128.104308 255.856068 
L 129.729206 262.157105 
L 131.354103 267.626486 
L 132.979001 272.348715 
L 134.603898 276.407998 
L 136.228796 279.884131 
L 137.853694 282.850243 
L 139.478591 285.371799 
L 141.103489 287.506393 
L 142.728387 289.303989 
L 144.353284 290.807417 
L 145.978182 292.052958 
L 147.928059 293.249525 
L 149.877936 294.160435 
L 151.827813 294.818062 
L 153.77769 295.245865 
L 155.727568 295.459137 
L 157.677445 295.465512 
L 159.627322 295.265217 
L 161.577199 294.851083 
L 163.527076 294.208304 
L 165.476953 293.313949 
L 167.42683 292.136221 
L 169.051728 290.908591 
L 170.676626 289.425529 
L 172.301523 287.651217 
L 173.926421 285.543334 
L 175.551319 283.052465 
L 177.176216 280.121597 
L 178.801114 276.68585 
L 180.426011 272.672643 
L 182.050909 268.002618 
L 183.675807 262.591784 
L 185.300704 256.355463 
L 186.925602 249.214749 
L 188.5505 241.106116 
L 190.500377 230.051483 
L 192.450254 217.580561 
L 194.725111 201.456377 
L 197.974906 176.51159 
L 202.19964 144.15932 
L 204.474496 128.355331 
L 206.424373 116.216023 
L 208.374251 105.509694 
L 209.999148 97.685309 
L 211.624046 90.812801 
L 213.248943 84.823021 
L 214.873841 79.634565 
L 216.498739 75.162412 
L 218.123636 71.323595 
L 219.748534 68.040554 
L 221.373432 65.242874 
L 222.998329 62.867951 
L 224.623227 60.861004 
L 226.248124 59.174723 
L 227.873022 57.768722 
L 229.822899 56.403951 
L 231.772776 55.34599 
L 233.722654 54.557334 
L 235.672531 54.0099 
L 237.622408 53.684139 
L 239.572285 53.568396 
L 241.522162 53.658527 
L 243.472039 53.95776 
L 245.421916 54.476801 
L 247.371794 55.234192 
L 249.321671 56.256912 
L 250.946568 57.337732 
L 252.571466 58.654275 
L 254.196364 60.23853 
L 255.821261 62.128606 
L 257.446159 64.36933 
L 259.071057 67.012826 
L 260.695954 70.118945 
L 262.320852 73.755413 
L 263.945749 77.997429 
L 265.570647 82.926359 
L 267.195545 88.627018 
L 268.820442 95.182889 
L 270.44534 102.668586 
L 272.070238 111.139021 
L 274.020115 122.629799 
L 275.969992 135.505115 
L 278.244848 152.001202 
L 282.469582 184.77385 
L 285.719378 209.14299 
L 287.994234 224.517396 
L 289.944111 236.230002 
L 291.893989 246.498539 
L 293.518886 253.970837 
L 295.143784 260.514241 
L 296.768681 266.203558 
L 298.393579 271.122333 
L 300.018477 275.355359 
L 301.643374 278.983933 
L 303.268272 282.083156 
L 304.89317 284.720644 
L 306.518067 286.956139 
L 308.142965 288.84166 
L 309.767862 290.421937 
L 311.39276 291.734987 
L 313.342637 293.002441 
L 315.292514 293.97548 
L 317.242391 294.688653 
L 319.192269 295.16738 
L 321.142146 295.428768 
L 323.092023 295.482171 
L 325.0419 295.329501 
L 326.991777 294.965293 
L 328.941654 294.376521 
L 330.891532 293.542167 
L 332.841409 292.432542 
L 334.466306 291.26954 
L 336.091204 289.85988 
L 337.716102 288.169421 
L 339.340999 286.157687 
L 340.965897 283.777264 
L 342.590794 280.973266 
L 344.215692 277.682978 
L 345.84059 273.83588 
L 347.465487 269.354321 
L 349.090385 264.155277 
L 350.715283 258.153733 
L 352.34018 251.268389 
L 353.965078 243.430343 
L 355.589975 234.59517 
L 357.539853 222.673584 
L 359.814709 207.086462 
L 362.414545 187.5864 
L 368.914136 138.039897 
L 371.188993 122.866713 
L 373.13887 111.348106 
L 375.088747 101.275215 
L 376.713645 93.958569 
L 378.338542 87.559642 
L 379.96344 82.001563 
L 381.588337 77.200152 
L 383.213235 73.070924 
L 384.838133 69.533452 
L 386.46303 66.513796 
L 388.087928 63.945612 
L 389.712826 61.770435 
L 391.337723 59.937468 
L 392.962621 58.403115 
L 394.587518 57.130394 
L 396.537396 55.905264 
L 398.487273 54.96929 
L 398.487273 54.96929 
" clip-path="url(#pb86efad1e8)" style="fill: none; stroke: #9467bd; stroke-width: 1.5; stroke-linecap: square"/>
   </g>
   <g id="patch_3">
    <path d="M 57.6 307.584 
L 57.6 41.472 
" style="fill: none; stroke: #000000; stroke-width: 0.8; stroke-linejoin: miter; stroke-linecap: square"/>
   </g>
   <g id="patch_4">
    <path d="M 414.72 307.584 
L 414.72 41.472 
" style="fill: none; stroke: #000000; stroke-width: 0.8; stroke-linejoin: miter; stroke-linecap: square"/>
   </g>
   <g id="patch_5">
    <path d="M 57.6 307.584 
L 414.72 307.584 
" style="fill: none; stroke: #000000; stroke-width: 0.8; stroke-linejoin: miter; stroke-linecap: square"/>
   </g>
   <g id="patch_6">
    <path d="M 57.6 41.472 
L 414.72 41.472 
" style="fill: none; stroke: #000000; stroke-width: 0.8; stroke-linejoin: miter; stroke-linecap: square"/>
   </g>
   <g id="text_16">
    <!-- 1 -->
    <g style="fill: #1f77b4" transform="translate(104.801651 206.318006) scale(0.1 -0.1)">
     <defs>
      <path id="DejaVuSans-Bold-31" d="M 750 831 
L 1813 831 
L 1813 3847 
L 722 3622 
L 722 4441 
L 1806 4666 
L 2950 4666 
L 2950 831 
L 4013 831 
L 4013 0 
L 750 0 
L 750 831 
z
" transform="scale(0.015625)"/>
     </defs>
     <use xlink:href="#DejaVuSans-Bold-31"/>
    </g>
   </g>
   <g id="text_17">
    <!-- 2 -->
    <g style="fill: #1f77b4" transform="translate(173.37233 206.314417) scale(0.1 -0.1)">
     <defs>
      <path id="DejaVuSans-Bold-32" d="M 1844 884 
L 3897 884 
L 3897 0 
L 506 0 
L 506 884 
L 2209 2388 
Q 2438 2594 2547 2791 
Q 2656 2988 2656 3200 
Q 2656 3528 2436 3728 
Q 2216 3928 1850 3928 
Q 1569 3928 1234 3808 
Q 900 3688 519 3450 
L 519 4475 
Q 925 4609 1322 4679 
Q 1719 4750 2100 4750 
Q 2938 4750 3402 4381 
Q 3866 4013 3866 3353 
Q 3866 2972 3669 2642 
Q 3472 2313 2841 1759 
L 1844 884 
z
" transform="scale(0.015625)"/>
     </defs>
     <use xlink:href="#DejaVuSans-Bold-32"/>
    </g>
   </g>
   <g id="text_18">
    <!-- 3 -->
    <g style="fill: #1f77b4" transform="translate(242.26799 206.318115) scale(0.1 -0.1)">
     <defs>
      <path id="DejaVuSans-Bold-33" d="M 2981 2516 
Q 3453 2394 3698 2092 
Q 3944 1791 3944 1325 
Q 3944 631 3412 270 
Q 2881 -91 1863 -91 
Q 1503 -91 1142 -33 
Q 781 25 428 141 
L 428 1069 
Q 766 900 1098 814 
Q 1431 728 1753 728 
Q 2231 728 2486 893 
Q 2741 1059 2741 1369 
Q 2741 1688 2480 1852 
Q 2219 2016 1709 2016 
L 1228 2016 
L 1228 2791 
L 1734 2791 
Q 2188 2791 2409 2933 
Q 2631 3075 2631 3366 
Q 2631 3634 2415 3781 
Q 2200 3928 1806 3928 
Q 1516 3928 1219 3862 
Q 922 3797 628 3669 
L 628 4550 
Q 984 4650 1334 4700 
Q 1684 4750 2022 4750 
Q 2931 4750 3382 4451 
Q 3834 4153 3834 3553 
Q 3834 3144 3618 2883 
Q 3403 2622 2981 2516 
z
" transform="scale(0.015625)"/>
     </defs>
     <use xlink:href="#DejaVuSans-Bold-33"/>
    </g>
   </g>
   <g id="text_19">
    <!-- 4 -->
    <g style="fill: #1f77b4" transform="translate(311.163649 206.317882) scale(0.1 -0.1)">
     <defs>
      <path id="DejaVuSans-Bold-34" d="M 2356 3675 
L 1038 1722 
L 2356 1722 
L 2356 3675 
z
M 2156 4666 
L 3494 4666 
L 3494 1722 
L 4159 1722 
L 4159 850 
L 3494 850 
L 3494 0 
L 2356 0 
L 2356 850 
L 288 850 
L 288 1881 
L 2156 4666 
z
" transform="scale(0.015625)"/>
     </defs>
     <use xlink:href="#DejaVuSans-Bold-34"/>
    </g>
   </g>
   <g id="text_20">
    <!-- 5 -->
    <g style="fill: #1f77b4" transform="translate(379.734329 206.314744) scale(0.1 -0.1)">
     <defs>
      <path id="DejaVuSans-Bold-35" d="M 678 4666 
L 3669 4666 
L 3669 3781 
L 1638 3781 
L 1638 3059 
Q 1775 3097 1914 3117 
Q 2053 3138 2203 3138 
Q 3056 3138 3531 2711 
Q 4006 2284 4006 1522 
Q 4006 766 3489 337 
Q 2972 -91 2053 -91 
Q 1656 -91 1267 -14 
Q 878 63 494 219 
L 494 1166 
Q 875 947 1217 837 
Q 1559 728 1863 728 
Q 2300 728 2551 942 
Q 2803 1156 2803 1522 
Q 2803 1891 2551 2103 
Q 2300 2316 1863 2316 
Q 1603 2316 1309 2248 
Q 1016 2181 678 2041 
L 678 4666 
z
" transform="scale(0.015625)"/>
     </defs>
     <use xlink:href="#DejaVuSans-Bold-35"/>
    </g>
   </g>
   <g id="text_21">
    <!-- 1 -->
    <g style="fill: #ff7f0e" transform="translate(113.251118 246.638288) scale(0.1 -0.1)">
     <use xlink:href="#DejaVuSans-Bold-31"/>
    </g>
   </g>
   <g id="text_22">
    <!-- 2 -->
    <g style="fill: #ff7f0e" transform="translate(199.045713 246.636482) scale(0.1 -0.1)">
     <use xlink:href="#DejaVuSans-Bold-32"/>
    </g>
   </g>
   <g id="text_23">
    <!-- 3 -->
    <g style="fill: #ff7f0e" transform="translate(284.515328 246.634862) scale(0.1 -0.1)">
     <use xlink:href="#DejaVuSans-Bold-33"/>
    </g>
   </g>
   <g id="text_24">
    <!-- 4 -->
    <g style="fill: #ff7f0e" transform="translate(370.309923 246.63759) scale(0.1 -0.1)">
     <use xlink:href="#DejaVuSans-Bold-34"/>
    </g>
   </g>
   <g id="text_25">
    <!-- 1 -->
    <g style="fill: #2ca02c" transform="translate(123.325484 266.798478) scale(0.1 -0.1)">
     <use xlink:href="#DejaVuSans-Bold-31"/>
    </g>
   </g>
   <g id="text_26">
    <!-- 2 -->
    <g style="fill: #2ca02c" transform="translate(229.268809 266.798126) scale(0.1 -0.1)">
     <use xlink:href="#DejaVuSans-Bold-32"/>
    </g>
   </g>
   <g id="text_27">
    <!-- 3 -->
    <g style="fill: #2ca02c" transform="translate(335.212134 266.797422) scale(0.1 -0.1)">
     <use xlink:href="#DejaVuSans-Bold-33"/>
    </g>
   </g>
   <g id="text_28">
    <!-- 1 -->
    <g style="fill: #d62728" transform="translate(132.74989 276.878014) scale(0.1 -0.1)">
     <use xlink:href="#DejaVuSans-Bold-31"/>
    </g>
   </g>
   <g id="text_29">
    <!-- 2 -->
    <g style="fill: #d62728" transform="translate(257.867007 276.878127) scale(0.1 -0.1)">
     <use xlink:href="#DejaVuSans-Bold-32"/>
    </g>
   </g>
   <g id="text_30">
    <!-- 3 -->
    <g style="fill: #d62728" transform="translate(382.659145 276.877887) scale(0.1 -0.1)">
     <use xlink:href="#DejaVuSans-Bold-33"/>
    </g>
   </g>
   <g id="text_31">
    <!-- 1 -->
    <g style="fill: #9467bd" transform="translate(153.2236 286.958431) scale(0.1 -0.1)">
     <use xlink:href="#DejaVuSans-Bold-31"/>
    </g>
   </g>
   <g id="text_32">
    <!-- 2 -->
    <g style="fill: #9467bd" transform="translate(319.288137 286.957972) scale(0.1 -0.1)">
     <use xlink:href="#DejaVuSans-Bold-32"/>
    </g>
   </g>
   <g id="PathCollection_1">
    <defs>
     <path id="me79238a686" d="M 0 -3.535534 
L -3.535534 3.535534 
L 3.535534 3.535534 
z
" style="stroke: #1f77b4"/>
    </defs>
    <g clip-path="url(#pb86efad1e8)">
     <use xlink:href="#me79238a686" x="108.280557" y="214.847575" style="fill: #1f77b4; stroke: #1f77b4"/>
     <use xlink:href="#me79238a686" x="176.851237" y="214.843986" style="fill: #1f77b4; stroke: #1f77b4"/>
     <use xlink:href="#me79238a686" x="245.746896" y="214.847684" style="fill: #1f77b4; stroke: #1f77b4"/>
     <use xlink:href="#me79238a686" x="314.642555" y="214.847451" style="fill: #1f77b4; stroke: #1f77b4"/>
     <use xlink:href="#me79238a686" x="383.213235" y="214.844313" style="fill: #1f77b4; stroke: #1f77b4"/>
    </g>
   </g>
   <g id="PathCollection_2">
    <defs>
     <path id="mb170d8ee9c" d="M 0 -3.535534 
L -3.535534 3.535534 
L 3.535534 3.535534 
z
" style="stroke: #ff7f0e"/>
    </defs>
    <g clip-path="url(#pb86efad1e8)">
     <use xlink:href="#mb170d8ee9c" x="116.730025" y="255.167857" style="fill: #ff7f0e; stroke: #ff7f0e"/>
     <use xlink:href="#mb170d8ee9c" x="202.524619" y="255.166052" style="fill: #ff7f0e; stroke: #ff7f0e"/>
     <use xlink:href="#mb170d8ee9c" x="287.994234" y="255.164431" style="fill: #ff7f0e; stroke: #ff7f0e"/>
     <use xlink:href="#mb170d8ee9c" x="373.788829" y="255.167159" style="fill: #ff7f0e; stroke: #ff7f0e"/>
    </g>
   </g>
   <g id="PathCollection_3">
    <defs>
     <path id="m01ec092057" d="M 0 -3.535534 
L -3.535534 3.535534 
L 3.535534 3.535534 
z
" style="stroke: #2ca02c"/>
    </defs>
    <g clip-path="url(#pb86efad1e8)">
     <use xlink:href="#m01ec092057" x="126.80439" y="275.328047" style="fill: #2ca02c; stroke: #2ca02c"/>
     <use xlink:href="#m01ec092057" x="232.747715" y="275.327695" style="fill: #2ca02c; stroke: #2ca02c"/>
     <use xlink:href="#m01ec092057" x="338.69104" y="275.326991" style="fill: #2ca02c; stroke: #2ca02c"/>
    </g>
   </g>
   <g id="PathCollection_4">
    <defs>
     <path id="m70f1764980" d="M 0 -3.535534 
L -3.535534 3.535534 
L 3.535534 3.535534 
z
" style="stroke: #d62728"/>
    </defs>
    <g clip-path="url(#pb86efad1e8)">
     <use xlink:href="#m70f1764980" x="136.228796" y="285.407583" style="fill: #d62728; stroke: #d62728"/>
     <use xlink:href="#m70f1764980" x="261.345913" y="285.407696" style="fill: #d62728; stroke: #d62728"/>
     <use xlink:href="#m70f1764980" x="386.138051" y="285.407456" style="fill: #d62728; stroke: #d62728"/>
    </g>
   </g>
   <g id="PathCollection_5">
    <defs>
     <path id="mfb7ba715e6" d="M 0 -3.535534 
L -3.535534 3.535534 
L 3.535534 3.535534 
z
" style="stroke: #9467bd"/>
    </defs>
    <g clip-path="url(#pb86efad1e8)">
     <use xlink:href="#mfb7ba715e6" x="156.702506" y="295.488" style="fill: #9467bd; stroke: #9467bd"/>
     <use xlink:href="#mfb7ba715e6" x="322.767043" y="295.487541" style="fill: #9467bd; stroke: #9467bd"/>
    </g>
   </g>
   <g id="legend_1">
    <g id="patch_7">
     <path d="M 64.6 122.862625 
L 155.3 122.862625 
Q 157.3 122.862625 157.3 120.862625 
L 157.3 48.472 
Q 157.3 46.472 155.3 46.472 
L 64.6 46.472 
Q 62.6 46.472 62.6 48.472 
L 62.6 120.862625 
Q 62.6 122.862625 64.6 122.862625 
z
" style="fill: #ffffff; opacity: 0.8; stroke: #cccccc; stroke-linejoin: miter"/>
    </g>
    <g id="line2d_32">
     <path d="M 66.6 54.570438 
L 76.6 54.570438 
L 86.6 54.570438 
" style="fill: none; stroke: #1f77b4; stroke-width: 1.5; stroke-linecap: square"/>
    </g>
    <g id="text_33">
     <!-- $\theta_0$: 1 rad -->
     <g transform="translate(94.6 58.070438) scale(0.1 -0.1)">
      <defs>
       <path id="DejaVuSans-Oblique-3b8" d="M 2913 2219 
L 925 2219 
Q 791 1284 928 888 
Q 1100 400 1566 400 
Q 2034 400 2391 891 
Q 2703 1322 2913 2219 
z
M 3009 2750 
Q 3094 3638 2984 3950 
Q 2813 4444 2353 4444 
Q 1875 4444 1525 3956 
Q 1250 3563 1034 2750 
L 3009 2750 
z
M 2444 4913 
Q 3194 4913 3494 4250 
Q 3794 3591 3566 2422 
Q 3341 1256 2781 594 
Q 2225 -72 1475 -72 
Q 722 -72 425 594 
Q 128 1256 353 2422 
Q 581 3591 1134 4250 
Q 1691 4913 2444 4913 
z
" transform="scale(0.015625)"/>
       <path id="DejaVuSans-3a" d="M 750 794 
L 1409 794 
L 1409 0 
L 750 0 
L 750 794 
z
M 750 3309 
L 1409 3309 
L 1409 2516 
L 750 2516 
L 750 3309 
z
" transform="scale(0.015625)"/>
      </defs>
      <use xlink:href="#DejaVuSans-Oblique-3b8" transform="translate(0 0.234375)"/>
      <use xlink:href="#DejaVuSans-30" transform="translate(61.181641 -16.171875) scale(0.7)"/>
      <use xlink:href="#DejaVuSans-3a" transform="translate(108.452148 0.234375)"/>
      <use xlink:href="#DejaVuSans-20" transform="translate(142.143555 0.234375)"/>
      <use xlink:href="#DejaVuSans-31" transform="translate(173.930664 0.234375)"/>
      <use xlink:href="#DejaVuSans-20" transform="translate(237.553711 0.234375)"/>
      <use xlink:href="#DejaVuSans-72" transform="translate(269.34082 0.234375)"/>
      <use xlink:href="#DejaVuSans-61" transform="translate(310.454102 0.234375)"/>
      <use xlink:href="#DejaVuSans-64" transform="translate(371.733398 0.234375)"/>
     </g>
    </g>
    <g id="line2d_33">
     <path d="M 66.6 69.248563 
L 76.6 69.248563 
L 86.6 69.248563 
" style="fill: none; stroke: #ff7f0e; stroke-width: 1.5; stroke-linecap: square"/>
    </g>
    <g id="text_34">
     <!-- $\theta_0$: 2 rad -->
     <g transform="translate(94.6 72.748563) scale(0.1 -0.1)">
      <use xlink:href="#DejaVuSans-Oblique-3b8" transform="translate(0 0.234375)"/>
      <use xlink:href="#DejaVuSans-30" transform="translate(61.181641 -16.171875) scale(0.7)"/>
      <use xlink:href="#DejaVuSans-3a" transform="translate(108.452148 0.234375)"/>
      <use xlink:href="#DejaVuSans-20" transform="translate(142.143555 0.234375)"/>
      <use xlink:href="#DejaVuSans-32" transform="translate(173.930664 0.234375)"/>
      <use xlink:href="#DejaVuSans-20" transform="translate(237.553711 0.234375)"/>
      <use xlink:href="#DejaVuSans-72" transform="translate(269.34082 0.234375)"/>
      <use xlink:href="#DejaVuSans-61" transform="translate(310.454102 0.234375)"/>
      <use xlink:href="#DejaVuSans-64" transform="translate(371.733398 0.234375)"/>
     </g>
    </g>
    <g id="line2d_34">
     <path d="M 66.6 83.926688 
L 76.6 83.926688 
L 86.6 83.926688 
" style="fill: none; stroke: #2ca02c; stroke-width: 1.5; stroke-linecap: square"/>
    </g>
    <g id="text_35">
     <!-- $\theta_0$: 2.5 rad -->
     <g transform="translate(94.6 87.426688) scale(0.1 -0.1)">
      <defs>
       <path id="DejaVuSans-2e" d="M 684 794 
L 1344 794 
L 1344 0 
L 684 0 
L 684 794 
z
" transform="scale(0.015625)"/>
       <path id="DejaVuSans-35" d="M 691 4666 
L 3169 4666 
L 3169 4134 
L 1269 4134 
L 1269 2991 
Q 1406 3038 1543 3061 
Q 1681 3084 1819 3084 
Q 2600 3084 3056 2656 
Q 3513 2228 3513 1497 
Q 3513 744 3044 326 
Q 2575 -91 1722 -91 
Q 1428 -91 1123 -41 
Q 819 9 494 109 
L 494 744 
Q 775 591 1075 516 
Q 1375 441 1709 441 
Q 2250 441 2565 725 
Q 2881 1009 2881 1497 
Q 2881 1984 2565 2268 
Q 2250 2553 1709 2553 
Q 1456 2553 1204 2497 
Q 953 2441 691 2322 
L 691 4666 
z
" transform="scale(0.015625)"/>
      </defs>
      <use xlink:href="#DejaVuSans-Oblique-3b8" transform="translate(0 0.234375)"/>
      <use xlink:href="#DejaVuSans-30" transform="translate(61.181641 -16.171875) scale(0.7)"/>
      <use xlink:href="#DejaVuSans-3a" transform="translate(108.452148 0.234375)"/>
      <use xlink:href="#DejaVuSans-20" transform="translate(142.143555 0.234375)"/>
      <use xlink:href="#DejaVuSans-32" transform="translate(173.930664 0.234375)"/>
      <use xlink:href="#DejaVuSans-2e" transform="translate(237.553711 0.234375)"/>
      <use xlink:href="#DejaVuSans-35" transform="translate(269.34082 0.234375)"/>
      <use xlink:href="#DejaVuSans-20" transform="translate(332.963867 0.234375)"/>
      <use xlink:href="#DejaVuSans-72" transform="translate(364.750977 0.234375)"/>
      <use xlink:href="#DejaVuSans-61" transform="translate(405.864258 0.234375)"/>
      <use xlink:href="#DejaVuSans-64" transform="translate(467.143555 0.234375)"/>
     </g>
    </g>
    <g id="line2d_35">
     <path d="M 66.6 98.604813 
L 76.6 98.604813 
L 86.6 98.604813 
" style="fill: none; stroke: #d62728; stroke-width: 1.5; stroke-linecap: square"/>
    </g>
    <g id="text_36">
     <!-- $\theta_0$: 2.75 rad -->
     <g transform="translate(94.6 102.104813) scale(0.1 -0.1)">
      <defs>
       <path id="DejaVuSans-37" d="M 525 4666 
L 3525 4666 
L 3525 4397 
L 1831 0 
L 1172 0 
L 2766 4134 
L 525 4134 
L 525 4666 
z
" transform="scale(0.015625)"/>
      </defs>
      <use xlink:href="#DejaVuSans-Oblique-3b8" transform="translate(0 0.234375)"/>
      <use xlink:href="#DejaVuSans-30" transform="translate(61.181641 -16.171875) scale(0.7)"/>
      <use xlink:href="#DejaVuSans-3a" transform="translate(108.452148 0.234375)"/>
      <use xlink:href="#DejaVuSans-20" transform="translate(142.143555 0.234375)"/>
      <use xlink:href="#DejaVuSans-32" transform="translate(173.930664 0.234375)"/>
      <use xlink:href="#DejaVuSans-2e" transform="translate(237.553711 0.234375)"/>
      <use xlink:href="#DejaVuSans-37" transform="translate(261.59082 0.234375)"/>
      <use xlink:href="#DejaVuSans-35" transform="translate(325.213867 0.234375)"/>
      <use xlink:href="#DejaVuSans-20" transform="translate(388.836914 0.234375)"/>
      <use xlink:href="#DejaVuSans-72" transform="translate(420.624023 0.234375)"/>
      <use xlink:href="#DejaVuSans-61" transform="translate(461.737305 0.234375)"/>
      <use xlink:href="#DejaVuSans-64" transform="translate(523.016602 0.234375)"/>
     </g>
    </g>
    <g id="line2d_36">
     <path d="M 66.6 113.282938 
L 76.6 113.282938 
L 86.6 113.282938 
" style="fill: none; stroke: #9467bd; stroke-width: 1.5; stroke-linecap: square"/>
    </g>
    <g id="text_37">
     <!-- $\theta_0$: 3 rad -->
     <g transform="translate(94.6 116.782938) scale(0.1 -0.1)">
      <use xlink:href="#DejaVuSans-Oblique-3b8" transform="translate(0 0.234375)"/>
      <use xlink:href="#DejaVuSans-30" transform="translate(61.181641 -16.171875) scale(0.7)"/>
      <use xlink:href="#DejaVuSans-3a" transform="translate(108.452148 0.234375)"/>
      <use xlink:href="#DejaVuSans-20" transform="translate(142.143555 0.234375)"/>
      <use xlink:href="#DejaVuSans-33" transform="translate(173.930664 0.234375)"/>
      <use xlink:href="#DejaVuSans-20" transform="translate(237.553711 0.234375)"/>
      <use xlink:href="#DejaVuSans-72" transform="translate(269.34082 0.234375)"/>
      <use xlink:href="#DejaVuSans-61" transform="translate(310.454102 0.234375)"/>
      <use xlink:href="#DejaVuSans-64" transform="translate(371.733398 0.234375)"/>
     </g>
    </g>
   </g>
  </g>
 </g>
 <defs>
  <clipPath id="pb86efad1e8">
   <rect x="57.6" y="41.472" width="357.12" height="266.112"/>
  </clipPath>
 </defs>
</svg>
